<?xml version="1.0" encoding="UTF-8" standalone="no"?>
<!DOCTYPE svg PUBLIC "-//W3C//DTD SVG 1.1//EN"
 "http://www.w3.org/Graphics/SVG/1.1/DTD/svg11.dtd">
<!-- Generated by graphviz version 9.0.0 (20230911.1827)
 -->
<!-- Pages: 1 -->
<svg width="351pt" height="217pt"
 viewBox="0.00 0.00 351.30 217.47" xmlns="http://www.w3.org/2000/svg" xmlns:xlink="http://www.w3.org/1999/xlink">
<g id="graph0" class="graph" transform="scale(1 1) rotate(0) translate(4 213.47)">
<polygon fill="white" stroke="none" points="-4,4 -4,-213.47 347.3,-213.47 347.3,4 -4,4"/>
<text text-anchor="middle" x="171.65" y="-192.17" font-family="Times,serif" font-size="14.00">Network Uptime: 1m0.001254333s</text>
<!-- node1 -->
<g id="node1" class="node">
<title>node1</title>
<ellipse fill="lightyellow" stroke="black" cx="171.65" cy="-155.97" rx="84.5" ry="28.99"/>
<text text-anchor="middle" x="171.65" y="-159.17" font-family="Times,serif" font-size="14.00">node1</text>
<text text-anchor="middle" x="171.65" y="-142.67" font-family="Times,serif" font-size="14.00">(1m0.001187875s)</text>
</g>
<!-- node2 -->
<g id="node2" class="node">
<title>node2</title>
<ellipse fill="none" stroke="black" cx="34.65" cy="-28.99" rx="34.65" ry="28.99"/>
<text text-anchor="middle" x="34.65" y="-32.19" font-family="Times,serif" font-size="14.00">node2</text>
<text text-anchor="middle" x="34.65" y="-15.69" font-family="Times,serif" font-size="14.00">(0s)</text>
</g>
<!-- node1&#45;&gt;node2 -->
<g id="edge1" class="edge">
<title>node1&#45;&gt;node2</title>
<path fill="none" stroke="lightblue" d="M142.59,-128.47C120.17,-108.01 89.18,-79.74 66.16,-58.74"/>
<polygon fill="lightblue" stroke="lightblue" points="68.63,-56.25 58.88,-52.1 63.91,-61.42 68.63,-56.25"/>
<text text-anchor="middle" x="133.9" y="-95.68" font-family="Times,serif" font-size="14.00">0</text>
<text text-anchor="middle" x="133.9" y="-79.18" font-family="Times,serif" font-size="14.00"> &#160;(0s)</text>
</g>
<!-- node3 -->
<g id="node3" class="node">
<title>node3</title>
<ellipse fill="none" stroke="black" cx="171.65" cy="-28.99" rx="84.5" ry="28.99"/>
<text text-anchor="middle" x="171.65" y="-32.19" font-family="Times,serif" font-size="14.00">node3</text>
<text text-anchor="middle" x="171.65" y="-15.69" font-family="Times,serif" font-size="14.00">(1m0.001119583s)</text>
</g>
<!-- node1&#45;&gt;node3 -->
<g id="edge2" class="edge">
<title>node1&#45;&gt;node3</title>
<path fill="none" stroke="lightblue" d="M171.65,-126.61C171.65,-109.75 171.65,-88.12 171.65,-69.59"/>
<polygon fill="lightblue" stroke="lightblue" points="175.15,-69.75 171.65,-59.75 168.15,-69.75 175.15,-69.75"/>
<text text-anchor="middle" x="227.15" y="-95.68" font-family="Times,serif" font-size="14.00">69</text>
<text text-anchor="middle" x="227.15" y="-79.18" font-family="Times,serif" font-size="14.00"> &#160;(1m0.001137041s)</text>
</g>
<!-- node4 -->
<g id="node4" class="node">
<title>node4</title>
<ellipse fill="none" stroke="black" cx="308.65" cy="-28.99" rx="34.65" ry="28.99"/>
<text text-anchor="middle" x="308.65" y="-32.19" font-family="Times,serif" font-size="14.00">node4</text>
<text text-anchor="middle" x="308.65" y="-15.69" font-family="Times,serif" font-size="14.00">(0s)</text>
</g>
<!-- node1&#45;&gt;node4 -->
<g id="edge3" class="edge">
<title>node1&#45;&gt;node4</title>
<path fill="none" stroke="lightblue" d="M240.7,-139.04C257.67,-132.23 274.45,-122.59 286.65,-108.98 296.37,-98.14 301.84,-83.34 304.9,-69.48"/>
<polygon fill="lightblue" stroke="lightblue" points="308.34,-70.12 306.67,-59.66 301.45,-68.88 308.34,-70.12"/>
<text text-anchor="middle" x="316.9" y="-95.68" font-family="Times,serif" font-size="14.00">9</text>
<text text-anchor="middle" x="316.9" y="-79.18" font-family="Times,serif" font-size="14.00"> &#160;(0s)</text>
</g>
</g>
</svg>
