<?xml version="1.0" encoding="UTF-8" standalone="no"?>
<!DOCTYPE svg PUBLIC "-//W3C//DTD SVG 1.1//EN"
 "http://www.w3.org/Graphics/SVG/1.1/DTD/svg11.dtd">
<!-- Generated by graphviz version 9.0.0 (20230911.1827)
 -->
<!-- Pages: 1 -->
<svg width="351pt" height="217pt"
 viewBox="0.00 0.00 351.15 217.47" xmlns="http://www.w3.org/2000/svg" xmlns:xlink="http://www.w3.org/1999/xlink">
<g id="graph0" class="graph" transform="scale(1 1) rotate(0) translate(4 213.47)">
<polygon fill="white" stroke="none" points="-4,4 -4,-213.47 347.15,-213.47 347.15,4 -4,4"/>
<text text-anchor="middle" x="171.57" y="-192.17" font-family="Times,serif" font-size="14.00">Network Uptime: 1m0.001254333s</text>
<!-- node3 -->
<g id="node1" class="node">
<title>node3</title>
<ellipse fill="none" stroke="black" cx="84.5" cy="-28.99" rx="84.5" ry="28.99"/>
<text text-anchor="middle" x="84.5" y="-32.19" font-family="Times,serif" font-size="14.00">node3</text>
<text text-anchor="middle" x="84.5" y="-15.69" font-family="Times,serif" font-size="14.00">(1m0.001119583s)</text>
</g>
<!-- node4 -->
<g id="node2" class="node">
<title>node4</title>
<ellipse fill="none" stroke="black" cx="221.5" cy="-28.99" rx="34.65" ry="28.99"/>
<text text-anchor="middle" x="221.5" y="-32.19" font-family="Times,serif" font-size="14.00">node4</text>
<text text-anchor="middle" x="221.5" y="-15.69" font-family="Times,serif" font-size="14.00">(0s)</text>
</g>
<!-- node1 -->
<g id="node3" class="node">
<title>node1</title>
<ellipse fill="lightyellow" stroke="black" cx="221.5" cy="-155.97" rx="84.5" ry="28.99"/>
<text text-anchor="middle" x="221.5" y="-159.17" font-family="Times,serif" font-size="14.00">node1</text>
<text text-anchor="middle" x="221.5" y="-142.67" font-family="Times,serif" font-size="14.00">(1m0.001187875s)</text>
</g>
<!-- node1&#45;&gt;node3 -->
<g id="edge3" class="edge">
<title>node1&#45;&gt;node3</title>
<path fill="none" stroke="lightblue" d="M152.45,-139.04C135.48,-132.23 118.7,-122.59 106.5,-108.98 96.77,-98.14 91.31,-83.34 88.25,-69.48"/>
<polygon fill="lightblue" stroke="lightblue" points="91.7,-68.88 86.48,-59.66 84.81,-70.12 91.7,-68.88"/>
<text text-anchor="middle" x="162" y="-95.68" font-family="Times,serif" font-size="14.00">69</text>
<text text-anchor="middle" x="162" y="-79.18" font-family="Times,serif" font-size="14.00"> &#160;(1m0.001137041s)</text>
</g>
<!-- node1&#45;&gt;node4 -->
<g id="edge1" class="edge">
<title>node1&#45;&gt;node4</title>
<path fill="none" stroke="gray" d="M221.5,-126.61C221.5,-106.16 221.5,-78.67 221.5,-58.24"/>
<text text-anchor="middle" x="235.75" y="-95.68" font-family="Times,serif" font-size="14.00">9</text>
<text text-anchor="middle" x="235.75" y="-79.18" font-family="Times,serif" font-size="14.00"> &#160;(0s)</text>
</g>
<!-- node2 -->
<g id="node4" class="node">
<title>node2</title>
<ellipse fill="none" stroke="black" cx="308.5" cy="-28.99" rx="34.65" ry="28.99"/>
<text text-anchor="middle" x="308.5" y="-32.19" font-family="Times,serif" font-size="14.00">node2</text>
<text text-anchor="middle" x="308.5" y="-15.69" font-family="Times,serif" font-size="14.00">(0s)</text>
</g>
<!-- node1&#45;&gt;node2 -->
<g id="edge2" class="edge">
<title>node1&#45;&gt;node2</title>
<path fill="none" stroke="red" d="M240.59,-127.55C255.8,-105.7 276.89,-75.41 291.51,-54.4"/>
<text text-anchor="middle" x="288.75" y="-95.68" font-family="Times,serif" font-size="14.00">10</text>
<text text-anchor="middle" x="288.75" y="-79.18" font-family="Times,serif" font-size="14.00"> &#160;(0s)</text>
</g>
</g>
</svg>
