<?xml version="1.0" encoding="UTF-8" standalone="no"?>
<!DOCTYPE svg PUBLIC "-//W3C//DTD SVG 1.1//EN"
 "http://www.w3.org/Graphics/SVG/1.1/DTD/svg11.dtd">
<!-- Generated by graphviz version 9.0.0 (20230911.1827)
 -->
<!-- Pages: 1 -->
<svg width="251pt" height="217pt"
 viewBox="0.00 0.00 251.30 217.47" xmlns="http://www.w3.org/2000/svg" xmlns:xlink="http://www.w3.org/1999/xlink">
<g id="graph0" class="graph" transform="scale(1 1) rotate(0) translate(4 213.47)">
<polygon fill="white" stroke="none" points="-4,4 -4,-213.47 247.3,-213.47 247.3,4 -4,4"/>
<text text-anchor="middle" x="121.65" y="-192.17" font-family="Times,serif" font-size="14.00">Network Uptime: 0s</text>
<!-- node1 -->
<g id="node1" class="node">
<title>node1</title>
<ellipse fill="lightyellow" stroke="black" cx="121.65" cy="-155.97" rx="34.65" ry="28.99"/>
<text text-anchor="middle" x="121.65" y="-159.17" font-family="Times,serif" font-size="14.00">node1</text>
<text text-anchor="middle" x="121.65" y="-142.67" font-family="Times,serif" font-size="14.00">(0s)</text>
</g>
<!-- node2 -->
<g id="node2" class="node">
<title>node2</title>
<ellipse fill="none" stroke="black" cx="34.65" cy="-28.99" rx="34.65" ry="28.99"/>
<text text-anchor="middle" x="34.65" y="-32.19" font-family="Times,serif" font-size="14.00">node2</text>
<text text-anchor="middle" x="34.65" y="-15.69" font-family="Times,serif" font-size="14.00">(0s)</text>
</g>
<!-- node1&#45;&gt;node2 -->
<g id="edge1" class="edge">
<title>node1&#45;&gt;node2</title>
<path fill="none" stroke="lightblue" d="M104.39,-130.66C99.45,-123.68 94.07,-116.04 89.15,-108.98 78.84,-94.22 67.52,-77.85 57.89,-63.85"/>
<polygon fill="lightblue" stroke="lightblue" points="60.93,-62.09 52.37,-55.84 55.16,-66.06 60.93,-62.09"/>
<text text-anchor="middle" x="103.9" y="-95.68" font-family="Times,serif" font-size="14.00">0</text>
<text text-anchor="middle" x="103.9" y="-79.18" font-family="Times,serif" font-size="14.00"> &#160;(0s)</text>
</g>
<!-- node3 -->
<g id="node3" class="node">
<title>node3</title>
<ellipse fill="none" stroke="black" cx="121.65" cy="-28.99" rx="34.65" ry="28.99"/>
<text text-anchor="middle" x="121.65" y="-32.19" font-family="Times,serif" font-size="14.00">node3</text>
<text text-anchor="middle" x="121.65" y="-15.69" font-family="Times,serif" font-size="14.00">(0s)</text>
</g>
<!-- node1&#45;&gt;node3 -->
<g id="edge2" class="edge">
<title>node1&#45;&gt;node3</title>
<path fill="none" stroke="lightblue" d="M121.65,-126.61C121.65,-109.75 121.65,-88.12 121.65,-69.59"/>
<polygon fill="lightblue" stroke="lightblue" points="125.15,-69.75 121.65,-59.75 118.15,-69.75 125.15,-69.75"/>
<text text-anchor="middle" x="135.9" y="-95.68" font-family="Times,serif" font-size="14.00">0</text>
<text text-anchor="middle" x="135.9" y="-79.18" font-family="Times,serif" font-size="14.00"> &#160;(0s)</text>
</g>
<!-- node4 -->
<g id="node4" class="node">
<title>node4</title>
<ellipse fill="none" stroke="black" cx="208.65" cy="-28.99" rx="34.65" ry="28.99"/>
<text text-anchor="middle" x="208.65" y="-32.19" font-family="Times,serif" font-size="14.00">node4</text>
<text text-anchor="middle" x="208.65" y="-15.69" font-family="Times,serif" font-size="14.00">(0s)</text>
</g>
<!-- node1&#45;&gt;node4 -->
<g id="edge3" class="edge">
<title>node1&#45;&gt;node4</title>
<path fill="none" stroke="lightblue" d="M138.84,-130.28C152.06,-111.28 170.49,-84.81 185.09,-63.84"/>
<polygon fill="lightblue" stroke="lightblue" points="187.79,-66.08 190.63,-55.87 182.05,-62.08 187.79,-66.08"/>
<text text-anchor="middle" x="188.9" y="-95.68" font-family="Times,serif" font-size="14.00">0</text>
<text text-anchor="middle" x="188.9" y="-79.18" font-family="Times,serif" font-size="14.00"> &#160;(0s)</text>
</g>
</g>
</svg>
