<?xml version="1.0" encoding="UTF-8" standalone="no"?>
<!DOCTYPE svg PUBLIC "-//W3C//DTD SVG 1.1//EN"
 "http://www.w3.org/Graphics/SVG/1.1/DTD/svg11.dtd">
<!-- Generated by graphviz version 9.0.0 (20230911.1827)
 -->
<!-- Pages: 1 -->
<svg width="264pt" height="217pt"
 viewBox="0.00 0.00 264.15 217.47" xmlns="http://www.w3.org/2000/svg" xmlns:xlink="http://www.w3.org/1999/xlink">
<g id="graph0" class="graph" transform="scale(1 1) rotate(0) translate(4 213.47)">
<polygon fill="white" stroke="none" points="-4,4 -4,-213.47 260.15,-213.47 260.15,4 -4,4"/>
<text text-anchor="middle" x="128.07" y="-192.17" font-family="Times,serif" font-size="14.00">Network Uptime: 1m0.001254333s</text>
<!-- node1 -->
<g id="node1" class="node">
<title>node1</title>
<ellipse fill="lightyellow" stroke="black" cx="152.5" cy="-155.97" rx="84.5" ry="28.99"/>
<text text-anchor="middle" x="152.5" y="-159.17" font-family="Times,serif" font-size="14.00">node1</text>
<text text-anchor="middle" x="152.5" y="-142.67" font-family="Times,serif" font-size="14.00">(1m0.001187875s)</text>
</g>
<!-- node3 -->
<g id="node2" class="node">
<title>node3</title>
<ellipse fill="none" stroke="black" cx="84.5" cy="-28.99" rx="84.5" ry="28.99"/>
<text text-anchor="middle" x="84.5" y="-32.19" font-family="Times,serif" font-size="14.00">node3</text>
<text text-anchor="middle" x="84.5" y="-15.69" font-family="Times,serif" font-size="14.00">(1m0.001119583s)</text>
</g>
<!-- node1&#45;&gt;node3 -->
<g id="edge1" class="edge">
<title>node1&#45;&gt;node3</title>
<path fill="none" stroke="lightblue" d="M107.82,-131C100.14,-124.85 93.15,-117.51 88.5,-108.98 82.04,-97.14 79.95,-82.76 79.83,-69.52"/>
<polygon fill="lightblue" stroke="lightblue" points="83.32,-69.9 80.12,-59.8 76.32,-69.69 83.32,-69.9"/>
<text text-anchor="middle" x="144" y="-95.68" font-family="Times,serif" font-size="14.00">69</text>
<text text-anchor="middle" x="144" y="-79.18" font-family="Times,serif" font-size="14.00"> &#160;(1m0.001137041s)</text>
</g>
<!-- node4 -->
<g id="node3" class="node">
<title>node4</title>
<ellipse fill="none" stroke="black" cx="221.5" cy="-28.99" rx="34.65" ry="28.99"/>
<text text-anchor="middle" x="221.5" y="-32.19" font-family="Times,serif" font-size="14.00">node4</text>
<text text-anchor="middle" x="221.5" y="-15.69" font-family="Times,serif" font-size="14.00">(0s)</text>
</g>
<!-- node1&#45;&gt;node4 -->
<g id="edge2" class="edge">
<title>node1&#45;&gt;node4</title>
<path fill="none" stroke="gray" d="M183.95,-128.82C189.77,-122.79 195.32,-116.06 199.5,-108.98 208.7,-93.42 214.19,-73.86 217.38,-58.09"/>
<text text-anchor="middle" x="225.75" y="-95.68" font-family="Times,serif" font-size="14.00">9</text>
<text text-anchor="middle" x="225.75" y="-79.18" font-family="Times,serif" font-size="14.00"> &#160;(0s)</text>
</g>
</g>
</svg>
