<?xml version="1.0" encoding="UTF-8" standalone="no"?>
<!DOCTYPE svg PUBLIC "-//W3C//DTD SVG 1.1//EN"
 "http://www.w3.org/Graphics/SVG/1.1/DTD/svg11.dtd">
<!-- Generated by graphviz version 9.0.0 (20230911.1827)
 -->
<!-- Pages: 1 -->
<svg width="503pt" height="217pt"
 viewBox="0.00 0.00 503.09 217.47" xmlns="http://www.w3.org/2000/svg" xmlns:xlink="http://www.w3.org/1999/xlink">
<g id="graph0" class="graph" transform="scale(1 1) rotate(0) translate(4 213.47)">
<polygon fill="white" stroke="none" points="-4,4 -4,-213.47 499.09,-213.47 499.09,4 -4,4"/>
<text text-anchor="middle" x="247.54" y="-192.17" font-family="Times,serif" font-size="14.00">Network Uptime: 30.001170125s</text>
<!-- node1 -->
<g id="node1" class="node">
<title>node1</title>
<ellipse fill="lightyellow" stroke="black" cx="247.54" cy="-155.97" rx="76.54" ry="28.99"/>
<text text-anchor="middle" x="247.54" y="-159.17" font-family="Times,serif" font-size="14.00">node1</text>
<text text-anchor="middle" x="247.54" y="-142.67" font-family="Times,serif" font-size="14.00">(30.001096125s)</text>
</g>
<!-- node2 -->
<g id="node2" class="node">
<title>node2</title>
<ellipse fill="none" stroke="black" cx="76.54" cy="-28.99" rx="76.54" ry="28.99"/>
<text text-anchor="middle" x="76.54" y="-32.19" font-family="Times,serif" font-size="14.00">node2</text>
<text text-anchor="middle" x="76.54" y="-15.69" font-family="Times,serif" font-size="14.00">(30.001005875s)</text>
</g>
<!-- node1&#45;&gt;node2 -->
<g id="edge2" class="edge">
<title>node1&#45;&gt;node2</title>
<path fill="none" stroke="lightblue" d="M191.71,-135.65C175.42,-128.62 158.16,-119.71 143.79,-108.98 127.9,-97.11 113.23,-80.84 101.68,-66.14"/>
<polygon fill="lightblue" stroke="lightblue" points="104.67,-64.29 95.82,-58.45 99.1,-68.53 104.67,-64.29"/>
<text text-anchor="middle" x="194.42" y="-95.68" font-family="Times,serif" font-size="14.00">10</text>
<text text-anchor="middle" x="194.42" y="-79.18" font-family="Times,serif" font-size="14.00"> &#160;(30.000993041s)</text>
</g>
<!-- node3 -->
<g id="node3" class="node">
<title>node3</title>
<ellipse fill="none" stroke="black" cx="247.54" cy="-28.99" rx="76.54" ry="28.99"/>
<text text-anchor="middle" x="247.54" y="-32.19" font-family="Times,serif" font-size="14.00">node3</text>
<text text-anchor="middle" x="247.54" y="-15.69" font-family="Times,serif" font-size="14.00">(30.001011209s)</text>
</g>
<!-- node1&#45;&gt;node3 -->
<g id="edge3" class="edge">
<title>node1&#45;&gt;node3</title>
<path fill="none" stroke="lightblue" d="M247.54,-126.61C247.54,-109.75 247.54,-88.12 247.54,-69.59"/>
<polygon fill="lightblue" stroke="lightblue" points="251.04,-69.75 247.54,-59.75 244.04,-69.75 251.04,-69.75"/>
<text text-anchor="middle" x="297.42" y="-95.68" font-family="Times,serif" font-size="14.00">10</text>
<text text-anchor="middle" x="297.42" y="-79.18" font-family="Times,serif" font-size="14.00"> &#160;(30.001004375s)</text>
</g>
<!-- node4 -->
<g id="node4" class="node">
<title>node4</title>
<ellipse fill="none" stroke="black" cx="418.54" cy="-28.99" rx="76.54" ry="28.99"/>
<text text-anchor="middle" x="418.54" y="-32.19" font-family="Times,serif" font-size="14.00">node4</text>
<text text-anchor="middle" x="418.54" y="-15.69" font-family="Times,serif" font-size="14.00">(30.000937042s)</text>
</g>
<!-- node1&#45;&gt;node4 -->
<g id="edge1" class="edge">
<title>node1&#45;&gt;node4</title>
<path fill="none" stroke="lightblue" d="M303.26,-135.81C319.66,-128.76 337.08,-119.8 351.54,-108.98 367.41,-97.13 382.02,-80.85 393.53,-66.15"/>
<polygon fill="lightblue" stroke="lightblue" points="396.1,-68.55 399.36,-58.46 390.53,-64.32 396.1,-68.55"/>
<text text-anchor="middle" x="433.42" y="-95.68" font-family="Times,serif" font-size="14.00">9</text>
<text text-anchor="middle" x="433.42" y="-79.18" font-family="Times,serif" font-size="14.00"> &#160;(30.000956833s)</text>
</g>
</g>
</svg>
