<?xml version="1.0" encoding="UTF-8" standalone="no"?>
<!DOCTYPE svg PUBLIC "-//W3C//DTD SVG 1.1//EN"
 "http://www.w3.org/Graphics/SVG/1.1/DTD/svg11.dtd">
<!-- Generated by graphviz version 9.0.0 (20230911.1827)
 -->
<!-- Pages: 1 -->
<svg width="160pt" height="133pt"
 viewBox="0.00 0.00 159.88 132.50" xmlns="http://www.w3.org/2000/svg" xmlns:xlink="http://www.w3.org/1999/xlink">
<g id="graph0" class="graph" transform="scale(1 1) rotate(0) translate(4 128.5)">
<polygon fill="white" stroke="none" points="-4,4 -4,-128.5 155.88,-128.5 155.88,4 -4,4"/>
<!-- node3 -->
<g id="node1" class="node">
<title>node3</title>
<ellipse fill="none" stroke="black" cx="33.44" cy="-18" rx="33.44" ry="18"/>
<text text-anchor="middle" x="33.44" y="-12.95" font-family="Times,serif" font-size="14.00">node3</text>
</g>
<!-- node4 -->
<g id="node2" class="node">
<title>node4</title>
<ellipse fill="none" stroke="black" cx="118.44" cy="-18" rx="33.44" ry="18"/>
<text text-anchor="middle" x="118.44" y="-12.95" font-family="Times,serif" font-size="14.00">node4</text>
</g>
<!-- node1 -->
<g id="node3" class="node">
<title>node1</title>
<ellipse fill="lightyellow" stroke="black" cx="75.44" cy="-106.5" rx="33.44" ry="18"/>
<text text-anchor="middle" x="75.44" y="-101.45" font-family="Times,serif" font-size="14.00">node1</text>
</g>
<!-- node1&#45;&gt;node3 -->
<g id="edge1" class="edge">
<title>node1&#45;&gt;node3</title>
<path fill="none" stroke="lightblue" d="M67.34,-88.82C61.45,-76.69 53.35,-60.02 46.55,-46"/>
<polygon fill="lightblue" stroke="lightblue" points="49.83,-44.75 42.32,-37.28 43.54,-47.81 49.83,-44.75"/>
<text text-anchor="middle" x="68.94" y="-57.2" font-family="Times,serif" font-size="14.00"> &#160;12</text>
</g>
<!-- node1&#45;&gt;node4 -->
<g id="edge2" class="edge">
<title>node1&#45;&gt;node4</title>
<path fill="none" stroke="gray" d="M83.73,-88.82C91.29,-73.6 102.42,-51.22 110.03,-35.92"/>
<text text-anchor="middle" x="107.56" y="-57.2" font-family="Times,serif" font-size="14.00"> &#160;3</text>
</g>
</g>
</svg>
