<?xml version="1.0" encoding="UTF-8" standalone="no"?>
<!DOCTYPE svg PUBLIC "-//W3C//DTD SVG 1.1//EN"
 "http://www.w3.org/Graphics/SVG/1.1/DTD/svg11.dtd">
<!-- Generated by graphviz version 9.0.0 (20230911.1827)
 -->
<!-- Pages: 1 -->
<svg width="245pt" height="133pt"
 viewBox="0.00 0.00 244.88 132.50" xmlns="http://www.w3.org/2000/svg" xmlns:xlink="http://www.w3.org/1999/xlink">
<g id="graph0" class="graph" transform="scale(1 1) rotate(0) translate(4 128.5)">
<polygon fill="white" stroke="none" points="-4,4 -4,-128.5 240.88,-128.5 240.88,4 -4,4"/>
<!-- node4 -->
<g id="node1" class="node">
<title>node4</title>
<ellipse fill="none" stroke="black" cx="33.44" cy="-18" rx="33.44" ry="18"/>
<text text-anchor="middle" x="33.44" y="-12.95" font-family="Times,serif" font-size="14.00">node4</text>
</g>
<!-- node1 -->
<g id="node2" class="node">
<title>node1</title>
<ellipse fill="lightyellow" stroke="black" cx="118.44" cy="-106.5" rx="33.44" ry="18"/>
<text text-anchor="middle" x="118.44" y="-101.45" font-family="Times,serif" font-size="14.00">node1</text>
</g>
<!-- node1&#45;&gt;node4 -->
<g id="edge1" class="edge">
<title>node1&#45;&gt;node4</title>
<path fill="none" stroke="gray" d="M103.24,-90.04C87.77,-74.29 63.93,-50.03 48.5,-34.33"/>
<text text-anchor="middle" x="91.56" y="-57.2" font-family="Times,serif" font-size="14.00"> &#160;3</text>
</g>
<!-- node2 -->
<g id="node3" class="node">
<title>node2</title>
<ellipse fill="none" stroke="black" cx="118.44" cy="-18" rx="33.44" ry="18"/>
<text text-anchor="middle" x="118.44" y="-12.95" font-family="Times,serif" font-size="14.00">node2</text>
</g>
<!-- node1&#45;&gt;node2 -->
<g id="edge2" class="edge">
<title>node1&#45;&gt;node2</title>
<path fill="none" stroke="red" d="M118.44,-88.41C118.44,-73.34 118.44,-51.49 118.44,-36.35"/>
<text text-anchor="middle" x="125.56" y="-57.2" font-family="Times,serif" font-size="14.00"> &#160;3</text>
</g>
<!-- node3 -->
<g id="node4" class="node">
<title>node3</title>
<ellipse fill="none" stroke="black" cx="203.44" cy="-18" rx="33.44" ry="18"/>
<text text-anchor="middle" x="203.44" y="-12.95" font-family="Times,serif" font-size="14.00">node3</text>
</g>
<!-- node1&#45;&gt;node3 -->
<g id="edge3" class="edge">
<title>node1&#45;&gt;node3</title>
<path fill="none" stroke="lightblue" d="M133.63,-90.04C146.69,-76.75 165.7,-57.4 180.59,-42.25"/>
<polygon fill="lightblue" stroke="lightblue" points="182.8,-45 187.31,-35.41 177.81,-40.09 182.8,-45"/>
<text text-anchor="middle" x="175.56" y="-57.2" font-family="Times,serif" font-size="14.00"> &#160;3</text>
</g>
</g>
</svg>
