<?xml version="1.0" encoding="UTF-8" standalone="no"?>
<!DOCTYPE svg PUBLIC "-//W3C//DTD SVG 1.1//EN"
 "http://www.w3.org/Graphics/SVG/1.1/DTD/svg11.dtd">
<!-- Generated by graphviz version 9.0.0 (20230911.1827)
 -->
<!-- Pages: 1 -->
<svg width="172pt" height="116pt"
 viewBox="0.00 0.00 172.02 116.00" xmlns="http://www.w3.org/2000/svg" xmlns:xlink="http://www.w3.org/1999/xlink">
<g id="graph0" class="graph" transform="scale(1 1) rotate(0) translate(4 112)">
<polygon fill="white" stroke="none" points="-4,4 -4,-112 168.02,-112 168.02,4 -4,4"/>
<!-- node&#45;1 -->
<g id="node1" class="node">
<title>node&#45;1</title>
<ellipse fill="lightyellow" stroke="black" cx="81.51" cy="-90" rx="36.51" ry="18"/>
<text text-anchor="middle" x="81.51" y="-84.95" font-family="Times,serif" font-size="14.00">node&#45;1</text>
</g>
<!-- node&#45;2 -->
<g id="node2" class="node">
<title>node&#45;2</title>
<ellipse fill="none" stroke="black" cx="36.51" cy="-18" rx="36.51" ry="18"/>
<text text-anchor="middle" x="36.51" y="-12.95" font-family="Times,serif" font-size="14.00">node&#45;2</text>
</g>
<!-- node&#45;1&#45;&gt;node&#45;2 -->
<g id="edge1" class="edge">
<title>node&#45;1&#45;&gt;node&#45;2</title>
<path fill="none" stroke="black" d="M70.84,-72.41C65.58,-64.22 59.1,-54.14 53.19,-44.95"/>
<polygon fill="black" stroke="black" points="56.27,-43.26 47.92,-36.74 50.38,-47.05 56.27,-43.26"/>
</g>
<!-- node&#45;3 -->
<g id="node3" class="node">
<title>node&#45;3</title>
<ellipse fill="none" stroke="black" cx="127.51" cy="-18" rx="36.51" ry="18"/>
<text text-anchor="middle" x="127.51" y="-12.95" font-family="Times,serif" font-size="14.00">node&#45;3</text>
</g>
<!-- node&#45;1&#45;&gt;node&#45;3 -->
<g id="edge2" class="edge">
<title>node&#45;1&#45;&gt;node&#45;3</title>
<path fill="none" stroke="black" d="M92.41,-72.41C97.8,-64.22 104.42,-54.14 110.45,-44.95"/>
<polygon fill="black" stroke="black" points="113.29,-47.01 115.85,-36.73 107.44,-43.17 113.29,-47.01"/>
</g>
</g>
</svg>
