<?xml version="1.0" encoding="UTF-8" standalone="no"?>
<!DOCTYPE svg PUBLIC "-//W3C//DTD SVG 1.1//EN"
 "http://www.w3.org/Graphics/SVG/1.1/DTD/svg11.dtd">
<!-- Generated by graphviz version 9.0.0 (20230911.1827)
 -->
<!-- Pages: 1 -->
<svg width="117pt" height="310pt"
 viewBox="0.00 0.00 117.02 309.50" xmlns="http://www.w3.org/2000/svg" xmlns:xlink="http://www.w3.org/1999/xlink">
<g id="graph0" class="graph" transform="scale(1 1) rotate(0) translate(4 305.5)">
<polygon fill="white" stroke="none" points="-4,4 -4,-305.5 113.02,-305.5 113.02,4 -4,4"/>
<!-- node&#45;0 -->
<g id="node1" class="node">
<title>node&#45;0</title>
<ellipse fill="none" stroke="black" cx="72.51" cy="-283.5" rx="36.51" ry="18"/>
<text text-anchor="middle" x="72.51" y="-278.45" font-family="Times,serif" font-size="14.00">node&#45;0</text>
</g>
<!-- node&#45;1 -->
<g id="node2" class="node">
<title>node&#45;1</title>
<ellipse fill="none" stroke="black" cx="72.51" cy="-195" rx="36.51" ry="18"/>
<text text-anchor="middle" x="72.51" y="-189.95" font-family="Times,serif" font-size="14.00">node&#45;1</text>
</g>
<!-- node&#45;0&#45;&gt;node&#45;1 -->
<g id="edge1" class="edge">
<title>node&#45;0&#45;&gt;node&#45;1</title>
<path fill="none" stroke="lightblue" d="M72.51,-265.41C72.51,-253.76 72.51,-238.05 72.51,-224.52"/>
<polygon fill="lightblue" stroke="lightblue" points="76.01,-224.86 72.51,-214.86 69.01,-224.86 76.01,-224.86"/>
<text text-anchor="middle" x="79.63" y="-234.2" font-family="Times,serif" font-size="14.00"> &#160;0</text>
</g>
<!-- node&#45;2 -->
<g id="node3" class="node">
<title>node&#45;2</title>
<ellipse fill="none" stroke="black" cx="36.51" cy="-106.5" rx="36.51" ry="18"/>
<text text-anchor="middle" x="36.51" y="-101.45" font-family="Times,serif" font-size="14.00">node&#45;2</text>
</g>
<!-- node&#45;1&#45;&gt;node&#45;2 -->
<g id="edge2" class="edge">
<title>node&#45;1&#45;&gt;node&#45;2</title>
<path fill="none" stroke="lightblue" d="M65.4,-176.91C60.42,-164.94 53.66,-148.7 47.93,-134.93"/>
<polygon fill="lightblue" stroke="lightblue" points="51.26,-133.84 44.19,-125.95 44.8,-136.53 51.26,-133.84"/>
<text text-anchor="middle" x="65.63" y="-145.7" font-family="Times,serif" font-size="14.00"> &#160;0</text>
</g>
<!-- node&#45;3 -->
<g id="node4" class="node">
<title>node&#45;3</title>
<ellipse fill="none" stroke="black" cx="72.51" cy="-18" rx="36.51" ry="18"/>
<text text-anchor="middle" x="72.51" y="-12.95" font-family="Times,serif" font-size="14.00">node&#45;3</text>
</g>
<!-- node&#45;2&#45;&gt;node&#45;3 -->
<g id="edge3" class="edge">
<title>node&#45;2&#45;&gt;node&#45;3</title>
<path fill="none" stroke="lightblue" d="M43.62,-88.41C48.6,-76.44 55.36,-60.2 61.09,-46.43"/>
<polygon fill="lightblue" stroke="lightblue" points="64.22,-48.03 64.83,-37.45 57.76,-45.34 64.22,-48.03"/>
<text text-anchor="middle" x="65.63" y="-57.2" font-family="Times,serif" font-size="14.00"> &#160;0</text>
</g>
<!-- node&#45;3&#45;&gt;node&#45;1 -->
<g id="edge4" class="edge">
<title>node&#45;3&#45;&gt;node&#45;1</title>
<path fill="none" stroke="lightblue" d="M75.71,-36.35C78.12,-50.36 81.23,-70.63 82.51,-88.5 83.65,-104.46 83.65,-108.54 82.51,-124.5 81.54,-138.05 79.52,-152.96 77.55,-165.49"/>
<polygon fill="lightblue" stroke="lightblue" points="74.13,-164.72 75.95,-175.16 81.03,-165.86 74.13,-164.72"/>
<text text-anchor="middle" x="90.63" y="-101.45" font-family="Times,serif" font-size="14.00"> &#160;0</text>
</g>
</g>
</svg>
