<?xml version="1.0" encoding="UTF-8" standalone="no"?>
<!DOCTYPE svg PUBLIC "-//W3C//DTD SVG 1.1//EN"
 "http://www.w3.org/Graphics/SVG/1.1/DTD/svg11.dtd">
<!-- Generated by graphviz version 9.0.0 (20230911.1827)
 -->
<!-- Pages: 1 -->
<svg width="81pt" height="221pt"
 viewBox="0.00 0.00 81.02 221.00" xmlns="http://www.w3.org/2000/svg" xmlns:xlink="http://www.w3.org/1999/xlink">
<g id="graph0" class="graph" transform="scale(1 1) rotate(0) translate(4 217)">
<polygon fill="white" stroke="none" points="-4,4 -4,-217 77.02,-217 77.02,4 -4,4"/>
<!-- node&#45;1 -->
<g id="node1" class="node">
<title>node&#45;1</title>
<ellipse fill="none" stroke="black" cx="36.51" cy="-106.5" rx="36.51" ry="18"/>
<text text-anchor="middle" x="36.51" y="-101.45" font-family="Times,serif" font-size="14.00">node&#45;1</text>
</g>
<!-- node&#45;2 -->
<g id="node2" class="node">
<title>node&#45;2</title>
<ellipse fill="none" stroke="black" cx="36.51" cy="-18" rx="36.51" ry="18"/>
<text text-anchor="middle" x="36.51" y="-12.95" font-family="Times,serif" font-size="14.00">node&#45;2</text>
</g>
<!-- node&#45;1&#45;&gt;node&#45;2 -->
<g id="edge2" class="edge">
<title>node&#45;1&#45;&gt;node&#45;2</title>
<path fill="none" stroke="lightblue" d="M36.51,-88.41C36.51,-76.76 36.51,-61.05 36.51,-47.52"/>
<polygon fill="lightblue" stroke="lightblue" points="40.01,-47.86 36.51,-37.86 33.01,-47.86 40.01,-47.86"/>
<text text-anchor="middle" x="43.63" y="-57.2" font-family="Times,serif" font-size="14.00"> &#160;0</text>
</g>
<!-- node&#45;0 -->
<g id="node3" class="node">
<title>node&#45;0</title>
<ellipse fill="none" stroke="black" cx="36.51" cy="-195" rx="36.51" ry="18"/>
<text text-anchor="middle" x="36.51" y="-189.95" font-family="Times,serif" font-size="14.00">node&#45;0</text>
</g>
<!-- node&#45;0&#45;&gt;node&#45;1 -->
<g id="edge1" class="edge">
<title>node&#45;0&#45;&gt;node&#45;1</title>
<path fill="none" stroke="lightblue" d="M36.51,-176.91C36.51,-165.26 36.51,-149.55 36.51,-136.02"/>
<polygon fill="lightblue" stroke="lightblue" points="40.01,-136.36 36.51,-126.36 33.01,-136.36 40.01,-136.36"/>
<text text-anchor="middle" x="43.63" y="-145.7" font-family="Times,serif" font-size="14.00"> &#160;0</text>
</g>
</g>
</svg>
