<?xml version="1.0" encoding="UTF-8" standalone="no"?>
<!DOCTYPE svg PUBLIC "-//W3C//DTD SVG 1.1//EN"
 "http://www.w3.org/Graphics/SVG/1.1/DTD/svg11.dtd">
<!-- Generated by graphviz version 9.0.0 (20230911.1827)
 -->
<!-- Pages: 1 -->
<svg width="172pt" height="133pt"
 viewBox="0.00 0.00 172.02 132.50" xmlns="http://www.w3.org/2000/svg" xmlns:xlink="http://www.w3.org/1999/xlink">
<g id="graph0" class="graph" transform="scale(1 1) rotate(0) translate(4 128.5)">
<polygon fill="white" stroke="none" points="-4,4 -4,-128.5 168.02,-128.5 168.02,4 -4,4"/>
<!-- node&#45;2 -->
<g id="node1" class="node">
<title>node&#45;2</title>
<ellipse fill="none" stroke="black" cx="36.51" cy="-106.5" rx="36.51" ry="18"/>
<text text-anchor="middle" x="36.51" y="-101.45" font-family="Times,serif" font-size="14.00">node&#45;2</text>
</g>
<!-- node&#45;1 -->
<g id="node3" class="node">
<title>node&#45;1</title>
<ellipse fill="none" stroke="black" cx="73.51" cy="-18" rx="36.51" ry="18"/>
<text text-anchor="middle" x="73.51" y="-12.95" font-family="Times,serif" font-size="14.00">node&#45;1</text>
</g>
<!-- node&#45;2&#45;&gt;node&#45;1 -->
<g id="edge3" class="edge">
<title>node&#45;2&#45;&gt;node&#45;1</title>
<path fill="none" stroke="lightblue" d="M31.51,-88.53C29.37,-78.12 28.36,-64.76 33.26,-54 35.65,-48.76 39.25,-44 43.33,-39.8"/>
<polygon fill="lightblue" stroke="lightblue" points="45.33,-42.71 50.46,-33.44 40.67,-37.49 45.33,-42.71"/>
<text text-anchor="middle" x="40.63" y="-57.2" font-family="Times,serif" font-size="14.00"> &#160;0</text>
</g>
<!-- node&#45;0 -->
<g id="node2" class="node">
<title>node&#45;0</title>
<ellipse fill="none" stroke="black" cx="127.51" cy="-106.5" rx="36.51" ry="18"/>
<text text-anchor="middle" x="127.51" y="-101.45" font-family="Times,serif" font-size="14.00">node&#45;0</text>
</g>
<!-- node&#45;0&#45;&gt;node&#45;1 -->
<g id="edge1" class="edge">
<title>node&#45;0&#45;&gt;node&#45;1</title>
<path fill="none" stroke="lightblue" d="M117.1,-88.82C109.4,-76.5 98.77,-59.47 89.94,-45.32"/>
<polygon fill="lightblue" stroke="lightblue" points="92.95,-43.54 84.69,-36.91 87.02,-47.25 92.95,-43.54"/>
<text text-anchor="middle" x="111.63" y="-57.2" font-family="Times,serif" font-size="14.00"> &#160;0</text>
</g>
<!-- node&#45;1&#45;&gt;node&#45;2 -->
<g id="edge2" class="edge">
<title>node&#45;1&#45;&gt;node&#45;2</title>
<path fill="none" stroke="lightblue" d="M66.38,-35.7C62.08,-45.78 56.48,-58.88 51.51,-70.5 50.46,-72.96 49.36,-75.52 48.26,-78.08"/>
<polygon fill="lightblue" stroke="lightblue" points="45.15,-76.45 44.43,-87.02 51.59,-79.21 45.15,-76.45"/>
<text text-anchor="middle" x="65.63" y="-57.2" font-family="Times,serif" font-size="14.00"> &#160;0</text>
</g>
</g>
</svg>
