<?xml version="1.0" encoding="UTF-8" standalone="no"?>
<!DOCTYPE svg PUBLIC "-//W3C//DTD SVG 1.1//EN"
 "http://www.w3.org/Graphics/SVG/1.1/DTD/svg11.dtd">
<!-- Generated by graphviz version 9.0.0 (20230911.1827)
 -->
<!-- Pages: 1 -->
<svg width="208pt" height="188pt"
 viewBox="0.00 0.00 208.44 188.00" xmlns="http://www.w3.org/2000/svg" xmlns:xlink="http://www.w3.org/1999/xlink">
<g id="graph0" class="graph" transform="scale(1 1) rotate(0) translate(4 184)">
<polygon fill="white" stroke="none" points="-4,4 -4,-184 204.44,-184 204.44,4 -4,4"/>
<!-- node&#45;101 -->
<g id="node1" class="node">
<title>node&#45;101</title>
<ellipse fill="none" stroke="black" cx="45.72" cy="-90" rx="45.72" ry="18"/>
<text text-anchor="middle" x="45.72" y="-84.95" font-family="Times,serif" font-size="14.00">node&#45;101</text>
</g>
<!-- node&#45;102 -->
<g id="node2" class="node">
<title>node&#45;102</title>
<ellipse fill="none" stroke="black" cx="45.72" cy="-18" rx="45.72" ry="18"/>
<text text-anchor="middle" x="45.72" y="-12.95" font-family="Times,serif" font-size="14.00">node&#45;102</text>
</g>
<!-- node&#45;101&#45;&gt;node&#45;102 -->
<g id="edge2" class="edge">
<title>node&#45;101&#45;&gt;node&#45;102</title>
<path fill="none" stroke="black" d="M45.72,-71.7C45.72,-64.41 45.72,-55.73 45.72,-47.54"/>
<polygon fill="black" stroke="black" points="49.22,-47.62 45.72,-37.62 42.22,-47.62 49.22,-47.62"/>
</g>
<!-- node&#45;200 -->
<g id="node3" class="node">
<title>node&#45;200</title>
<ellipse fill="none" stroke="black" cx="154.72" cy="-162" rx="45.72" ry="18"/>
<text text-anchor="middle" x="154.72" y="-156.95" font-family="Times,serif" font-size="14.00">node&#45;200</text>
</g>
<!-- node&#45;201 -->
<g id="node4" class="node">
<title>node&#45;201</title>
<ellipse fill="none" stroke="black" cx="154.72" cy="-90" rx="45.72" ry="18"/>
<text text-anchor="middle" x="154.72" y="-84.95" font-family="Times,serif" font-size="14.00">node&#45;201</text>
</g>
<!-- node&#45;200&#45;&gt;node&#45;201 -->
<g id="edge3" class="edge">
<title>node&#45;200&#45;&gt;node&#45;201</title>
<path fill="none" stroke="black" d="M154.72,-143.7C154.72,-136.41 154.72,-127.73 154.72,-119.54"/>
<polygon fill="black" stroke="black" points="158.22,-119.62 154.72,-109.62 151.22,-119.62 158.22,-119.62"/>
</g>
<!-- node&#45;100 -->
<g id="node5" class="node">
<title>node&#45;100</title>
<ellipse fill="none" stroke="black" cx="45.72" cy="-162" rx="45.72" ry="18"/>
<text text-anchor="middle" x="45.72" y="-156.95" font-family="Times,serif" font-size="14.00">node&#45;100</text>
</g>
<!-- node&#45;100&#45;&gt;node&#45;101 -->
<g id="edge1" class="edge">
<title>node&#45;100&#45;&gt;node&#45;101</title>
<path fill="none" stroke="black" d="M45.72,-143.7C45.72,-136.41 45.72,-127.73 45.72,-119.54"/>
<polygon fill="black" stroke="black" points="49.22,-119.62 45.72,-109.62 42.22,-119.62 49.22,-119.62"/>
</g>
</g>
</svg>
