<?xml version="1.0" encoding="UTF-8" standalone="no"?>
<!DOCTYPE svg PUBLIC "-//W3C//DTD SVG 1.1//EN"
 "http://www.w3.org/Graphics/SVG/1.1/DTD/svg11.dtd">
<!-- Generated by graphviz version 9.0.0 (20230911.1827)
 -->
<!-- Pages: 1 -->
<svg width="177pt" height="133pt"
 viewBox="0.00 0.00 177.02 132.50" xmlns="http://www.w3.org/2000/svg" xmlns:xlink="http://www.w3.org/1999/xlink">
<g id="graph0" class="graph" transform="scale(1 1) rotate(0) translate(4 128.5)">
<polygon fill="white" stroke="none" points="-4,4 -4,-128.5 173.02,-128.5 173.02,4 -4,4"/>
<!-- node&#45;2 -->
<g id="node1" class="node">
<title>node&#45;2</title>
<ellipse fill="none" stroke="black" cx="36.51" cy="-106.5" rx="36.51" ry="18"/>
<text text-anchor="middle" x="36.51" y="-101.45" font-family="Times,serif" font-size="14.00">node&#45;2</text>
</g>
<!-- node&#45;1 -->
<g id="node3" class="node">
<title>node&#45;1</title>
<ellipse fill="none" stroke="black" cx="81.51" cy="-18" rx="36.51" ry="18"/>
<text text-anchor="middle" x="81.51" y="-12.95" font-family="Times,serif" font-size="14.00">node&#45;1</text>
</g>
<!-- node&#45;2&#45;&gt;node&#45;1 -->
<g id="edge1" class="edge">
<title>node&#45;2&#45;&gt;node&#45;1</title>
<path fill="none" stroke="lightblue" d="M30.4,-88.36C27.73,-77.88 26.3,-64.52 31.76,-54 35.11,-47.54 40.26,-42.02 46,-37.41"/>
<polygon fill="lightblue" stroke="lightblue" points="47.9,-40.36 54.09,-31.76 43.89,-34.62 47.9,-40.36"/>
<text text-anchor="middle" x="46.38" y="-57.2" font-family="Times,serif" font-size="14.00"> &#160;227</text>
</g>
<!-- node&#45;0 -->
<g id="node2" class="node">
<title>node&#45;0</title>
<ellipse fill="none" stroke="black" cx="132.51" cy="-106.5" rx="36.51" ry="18"/>
<text text-anchor="middle" x="132.51" y="-101.45" font-family="Times,serif" font-size="14.00">node&#45;0</text>
</g>
<!-- node&#45;0&#45;&gt;node&#45;1 -->
<g id="edge2" class="edge">
<title>node&#45;0&#45;&gt;node&#45;1</title>
<path fill="none" stroke="lightblue" d="M122.68,-88.82C115.41,-76.5 105.37,-59.47 97.03,-45.32"/>
<polygon fill="lightblue" stroke="lightblue" points="100.17,-43.77 92.08,-36.93 94.14,-47.32 100.17,-43.77"/>
<text text-anchor="middle" x="119.63" y="-57.2" font-family="Times,serif" font-size="14.00"> &#160;1</text>
</g>
<!-- node&#45;1&#45;&gt;node&#45;2 -->
<g id="edge3" class="edge">
<title>node&#45;1&#45;&gt;node&#45;2</title>
<path fill="none" stroke="lightblue" d="M75.11,-36.05C71.07,-46.26 65.49,-59.36 59.51,-70.5 57.88,-73.54 56.06,-76.66 54.18,-79.72"/>
<polygon fill="lightblue" stroke="lightblue" points="51.41,-77.56 48.95,-87.86 57.3,-81.34 51.41,-77.56"/>
<text text-anchor="middle" x="81.38" y="-57.2" font-family="Times,serif" font-size="14.00"> &#160;227</text>
</g>
</g>
</svg>
