<?xml version="1.0" encoding="UTF-8" standalone="no"?>
<!DOCTYPE svg PUBLIC "-//W3C//DTD SVG 1.1//EN"
 "http://www.w3.org/Graphics/SVG/1.1/DTD/svg11.dtd">
<!-- Generated by graphviz version 9.0.0 (20230911.1827)
 -->
<!-- Pages: 1 -->
<svg width="227pt" height="344pt"
 viewBox="0.00 0.00 227.29 344.45" xmlns="http://www.w3.org/2000/svg" xmlns:xlink="http://www.w3.org/1999/xlink">
<g id="graph0" class="graph" transform="scale(1 1) rotate(0) translate(4 340.45)">
<polygon fill="white" stroke="none" points="-4,4 -4,-340.45 223.29,-340.45 223.29,4 -4,4"/>
<text text-anchor="middle" x="109.65" y="-319.15" font-family="Times,serif" font-size="14.00">Network Uptime: 50.129003916s</text>
<!-- node&#45;0 -->
<g id="node1" class="node">
<title>node&#45;0</title>
<ellipse fill="none" stroke="black" cx="76.54" cy="-282.96" rx="71.77" ry="28.99"/>
<text text-anchor="middle" x="76.54" y="-286.16" font-family="Times,serif" font-size="14.00">node&#45;0</text>
<text text-anchor="middle" x="76.54" y="-269.66" font-family="Times,serif" font-size="14.00">(1.001231791s)</text>
</g>
<!-- node&#45;1 -->
<g id="node2" class="node">
<title>node&#45;1</title>
<ellipse fill="none" stroke="black" cx="76.54" cy="-155.97" rx="76.54" ry="28.99"/>
<text text-anchor="middle" x="76.54" y="-159.17" font-family="Times,serif" font-size="14.00">node&#45;1</text>
<text text-anchor="middle" x="76.54" y="-142.67" font-family="Times,serif" font-size="14.00">(50.128834708s)</text>
</g>
<!-- node&#45;0&#45;&gt;node&#45;1 -->
<g id="edge1" class="edge">
<title>node&#45;0&#45;&gt;node&#45;1</title>
<path fill="none" stroke="lightblue" d="M76.54,-253.6C76.54,-236.74 76.54,-215.1 76.54,-196.57"/>
<polygon fill="lightblue" stroke="lightblue" points="80.04,-196.74 76.54,-186.74 73.04,-196.74 80.04,-196.74"/>
<text text-anchor="middle" x="123.04" y="-222.67" font-family="Times,serif" font-size="14.00">1</text>
<text text-anchor="middle" x="123.04" y="-206.17" font-family="Times,serif" font-size="14.00"> &#160;(1.001210583s)</text>
</g>
<!-- node&#45;2 -->
<g id="node3" class="node">
<title>node&#45;2</title>
<ellipse fill="none" stroke="black" cx="76.54" cy="-28.99" rx="76.54" ry="28.99"/>
<text text-anchor="middle" x="76.54" y="-32.19" font-family="Times,serif" font-size="14.00">node&#45;2</text>
<text text-anchor="middle" x="76.54" y="-15.69" font-family="Times,serif" font-size="14.00">(50.128917083s)</text>
</g>
<!-- node&#45;1&#45;&gt;node&#45;2 -->
<g id="edge2" class="edge">
<title>node&#45;1&#45;&gt;node&#45;2</title>
<path fill="none" stroke="lightblue" d="M35.07,-131.21C27.69,-124.98 21.01,-117.56 16.79,-108.98 10.32,-95.82 10.32,-89.14 16.79,-75.98 19.37,-70.76 22.85,-65.96 26.85,-61.6"/>
<polygon fill="lightblue" stroke="lightblue" points="29.16,-64.23 33.97,-54.8 24.32,-59.17 29.16,-64.23"/>
<text text-anchor="middle" x="67.42" y="-95.68" font-family="Times,serif" font-size="14.00">49</text>
<text text-anchor="middle" x="67.42" y="-79.18" font-family="Times,serif" font-size="14.00"> &#160;(50.128909208s)</text>
</g>
<!-- node&#45;2&#45;&gt;node&#45;1 -->
<g id="edge3" class="edge">
<title>node&#45;2&#45;&gt;node&#45;1</title>
<path fill="none" stroke="lightblue" d="M104.9,-56.31C109.66,-62.27 113.91,-68.95 116.54,-75.98 121.68,-89.72 121.68,-95.25 116.54,-108.98 115.19,-112.61 113.4,-116.14 111.33,-119.53"/>
<polygon fill="lightblue" stroke="lightblue" points="108.67,-117.23 105.77,-127.42 114.39,-121.27 108.67,-117.23"/>
<text text-anchor="middle" x="169.42" y="-95.68" font-family="Times,serif" font-size="14.00">49</text>
<text text-anchor="middle" x="169.42" y="-79.18" font-family="Times,serif" font-size="14.00"> &#160;(50.128842583s)</text>
</g>
</g>
</svg>
