<?xml version="1.0" encoding="UTF-8" standalone="no"?>
<!DOCTYPE svg PUBLIC "-//W3C//DTD SVG 1.1//EN"
 "http://www.w3.org/Graphics/SVG/1.1/DTD/svg11.dtd">
<!-- Generated by graphviz version 9.0.0 (20230911.1827)
 -->
<!-- Pages: 1 -->
<svg width="674pt" height="344pt"
 viewBox="0.00 0.00 674.09 344.45" xmlns="http://www.w3.org/2000/svg" xmlns:xlink="http://www.w3.org/1999/xlink">
<g id="graph0" class="graph" transform="scale(1 1) rotate(0) translate(4 340.45)">
<polygon fill="white" stroke="none" points="-4,4 -4,-340.45 670.09,-340.45 670.09,4 -4,4"/>
<text text-anchor="middle" x="333.04" y="-319.15" font-family="Times,serif" font-size="14.00">Network Uptime: 47.537751125s</text>
<!-- node&#45;1 -->
<g id="node1" class="node">
<title>node&#45;1</title>
<ellipse fill="none" stroke="black" cx="332.54" cy="-282.96" rx="76.54" ry="28.99"/>
<text text-anchor="middle" x="332.54" y="-286.16" font-family="Times,serif" font-size="14.00">node&#45;1</text>
<text text-anchor="middle" x="332.54" y="-269.66" font-family="Times,serif" font-size="14.00">(47.537347417s)</text>
</g>
<!-- node&#45;2 -->
<g id="node2" class="node">
<title>node&#45;2</title>
<ellipse fill="none" stroke="black" cx="247.54" cy="-155.97" rx="71.77" ry="28.99"/>
<text text-anchor="middle" x="247.54" y="-159.17" font-family="Times,serif" font-size="14.00">node&#45;2</text>
<text text-anchor="middle" x="247.54" y="-142.67" font-family="Times,serif" font-size="14.00">(47.53742825s)</text>
</g>
<!-- node&#45;1&#45;&gt;node&#45;2 -->
<g id="edge3" class="edge">
<title>node&#45;1&#45;&gt;node&#45;2</title>
<path fill="none" stroke="lightblue" d="M302.48,-256.26C296.17,-250.01 289.89,-243.07 284.79,-235.97 275.94,-223.62 268.31,-208.84 262.3,-195.41"/>
<polygon fill="lightblue" stroke="lightblue" points="265.59,-194.22 258.43,-186.41 259.16,-196.98 265.59,-194.22"/>
<text text-anchor="middle" x="335.42" y="-222.67" font-family="Times,serif" font-size="14.00">47</text>
<text text-anchor="middle" x="335.42" y="-206.17" font-family="Times,serif" font-size="14.00"> &#160;(47.537408875s)</text>
</g>
<!-- node&#45;3 -->
<g id="node3" class="node">
<title>node&#45;3</title>
<ellipse fill="lightyellow" stroke="black" cx="418.54" cy="-155.97" rx="76.54" ry="28.99"/>
<text text-anchor="middle" x="418.54" y="-159.17" font-family="Times,serif" font-size="14.00">node&#45;3</text>
<text text-anchor="middle" x="418.54" y="-142.67" font-family="Times,serif" font-size="14.00">(47.537425334s)</text>
</g>
<!-- node&#45;1&#45;&gt;node&#45;3 -->
<g id="edge4" class="edge">
<title>node&#45;1&#45;&gt;node&#45;3</title>
<path fill="none" stroke="lightblue" d="M365.82,-256.48C372.59,-250.27 379.24,-243.29 384.54,-235.97 393.32,-223.85 400.43,-209.11 405.84,-195.66"/>
<polygon fill="lightblue" stroke="lightblue" points="408.99,-197.24 409.28,-186.65 402.45,-194.75 408.99,-197.24"/>
<text text-anchor="middle" x="453.42" y="-222.67" font-family="Times,serif" font-size="14.00">47</text>
<text text-anchor="middle" x="453.42" y="-206.17" font-family="Times,serif" font-size="14.00"> &#160;(47.537411792s)</text>
</g>
<!-- node&#45;4 -->
<g id="node4" class="node">
<title>node&#45;4</title>
<ellipse fill="none" stroke="black" cx="76.54" cy="-28.99" rx="76.54" ry="28.99"/>
<text text-anchor="middle" x="76.54" y="-32.19" font-family="Times,serif" font-size="14.00">node&#45;4</text>
<text text-anchor="middle" x="76.54" y="-15.69" font-family="Times,serif" font-size="14.00">(47.537435167s)</text>
</g>
<!-- node&#45;2&#45;&gt;node&#45;4 -->
<g id="edge5" class="edge">
<title>node&#45;2&#45;&gt;node&#45;4</title>
<path fill="none" stroke="lightblue" d="M193.58,-136.46C176.76,-129.31 158.71,-120.12 143.79,-108.98 127.9,-97.11 113.23,-80.84 101.68,-66.14"/>
<polygon fill="lightblue" stroke="lightblue" points="104.67,-64.29 95.82,-58.45 99.1,-68.53 104.67,-64.29"/>
<text text-anchor="middle" x="194.42" y="-95.68" font-family="Times,serif" font-size="14.00">47</text>
<text text-anchor="middle" x="194.42" y="-79.18" font-family="Times,serif" font-size="14.00"> &#160;(47.537447542s)</text>
</g>
<!-- node&#45;5 -->
<g id="node5" class="node">
<title>node&#45;5</title>
<ellipse fill="none" stroke="black" cx="247.54" cy="-28.99" rx="76.54" ry="28.99"/>
<text text-anchor="middle" x="247.54" y="-32.19" font-family="Times,serif" font-size="14.00">node&#45;5</text>
<text text-anchor="middle" x="247.54" y="-15.69" font-family="Times,serif" font-size="14.00">(47.537460291s)</text>
</g>
<!-- node&#45;2&#45;&gt;node&#45;5 -->
<g id="edge6" class="edge">
<title>node&#45;2&#45;&gt;node&#45;5</title>
<path fill="none" stroke="lightblue" d="M247.54,-126.61C247.54,-109.75 247.54,-88.12 247.54,-69.59"/>
<polygon fill="lightblue" stroke="lightblue" points="251.04,-69.75 247.54,-59.75 244.04,-69.75 251.04,-69.75"/>
<text text-anchor="middle" x="297.42" y="-95.68" font-family="Times,serif" font-size="14.00">47</text>
<text text-anchor="middle" x="297.42" y="-79.18" font-family="Times,serif" font-size="14.00"> &#160;(47.537454333s)</text>
</g>
<!-- node&#45;6 -->
<g id="node6" class="node">
<title>node&#45;6</title>
<ellipse fill="none" stroke="black" cx="418.54" cy="-28.99" rx="76.54" ry="28.99"/>
<text text-anchor="middle" x="418.54" y="-32.19" font-family="Times,serif" font-size="14.00">node&#45;6</text>
<text text-anchor="middle" x="418.54" y="-15.69" font-family="Times,serif" font-size="14.00">(47.537400542s)</text>
</g>
<!-- node&#45;3&#45;&gt;node&#45;6 -->
<g id="edge1" class="edge">
<title>node&#45;3&#45;&gt;node&#45;6</title>
<path fill="none" stroke="lightblue" d="M418.54,-126.61C418.54,-109.75 418.54,-88.12 418.54,-69.59"/>
<polygon fill="lightblue" stroke="lightblue" points="422.04,-69.75 418.54,-59.75 415.04,-69.75 422.04,-69.75"/>
<text text-anchor="middle" x="468.42" y="-95.68" font-family="Times,serif" font-size="14.00">23</text>
<text text-anchor="middle" x="468.42" y="-79.18" font-family="Times,serif" font-size="14.00"> &#160;(47.537460959s)</text>
</g>
<!-- node&#45;7 -->
<g id="node7" class="node">
<title>node&#45;7</title>
<ellipse fill="none" stroke="black" cx="589.54" cy="-28.99" rx="76.54" ry="28.99"/>
<text text-anchor="middle" x="589.54" y="-32.19" font-family="Times,serif" font-size="14.00">node&#45;7</text>
<text text-anchor="middle" x="589.54" y="-15.69" font-family="Times,serif" font-size="14.00">(47.537675458s)</text>
</g>
<!-- node&#45;3&#45;&gt;node&#45;7 -->
<g id="edge2" class="edge">
<title>node&#45;3&#45;&gt;node&#45;7</title>
<path fill="none" stroke="lightblue" d="M474.26,-135.81C490.66,-128.76 508.08,-119.8 522.54,-108.98 538.41,-97.13 553.02,-80.85 564.53,-66.15"/>
<polygon fill="lightblue" stroke="lightblue" points="567.1,-68.55 570.36,-58.46 561.53,-64.32 567.1,-68.55"/>
<text text-anchor="middle" x="594.29" y="-95.68" font-family="Times,serif" font-size="14.00">24</text>
<text text-anchor="middle" x="594.29" y="-79.18" font-family="Times,serif" font-size="14.00"> &#160;(47.537508s)</text>
</g>
</g>
</svg>
