<?xml version="1.0" encoding="UTF-8" standalone="no"?>
<!DOCTYPE svg PUBLIC "-//W3C//DTD SVG 1.1//EN"
 "http://www.w3.org/Graphics/SVG/1.1/DTD/svg11.dtd">
<!-- Generated by graphviz version 9.0.0 (20230911.1827)
 -->
<!-- Pages: 1 -->
<svg width="366pt" height="344pt"
 viewBox="0.00 0.00 365.66 344.45" xmlns="http://www.w3.org/2000/svg" xmlns:xlink="http://www.w3.org/1999/xlink">
<g id="graph0" class="graph" transform="scale(1 1) rotate(0) translate(4 340.45)">
<polygon fill="white" stroke="none" points="-4,4 -4,-340.45 361.66,-340.45 361.66,4 -4,4"/>
<text text-anchor="middle" x="178.83" y="-319.15" font-family="Times,serif" font-size="14.00">Network Uptime: 0s</text>
<!-- node&#45;5 -->
<g id="node1" class="node">
<title>node&#45;5</title>
<ellipse fill="none" stroke="black" cx="37.83" cy="-28.99" rx="37.83" ry="28.99"/>
<text text-anchor="middle" x="37.83" y="-32.19" font-family="Times,serif" font-size="14.00">node&#45;5</text>
<text text-anchor="middle" x="37.83" y="-15.69" font-family="Times,serif" font-size="14.00">(0s)</text>
</g>
<!-- node&#45;6 -->
<g id="node2" class="node">
<title>node&#45;6</title>
<ellipse fill="none" stroke="black" cx="225.83" cy="-28.99" rx="37.83" ry="28.99"/>
<text text-anchor="middle" x="225.83" y="-32.19" font-family="Times,serif" font-size="14.00">node&#45;6</text>
<text text-anchor="middle" x="225.83" y="-15.69" font-family="Times,serif" font-size="14.00">(0s)</text>
</g>
<!-- node&#45;7 -->
<g id="node3" class="node">
<title>node&#45;7</title>
<ellipse fill="none" stroke="black" cx="319.83" cy="-28.99" rx="37.83" ry="28.99"/>
<text text-anchor="middle" x="319.83" y="-32.19" font-family="Times,serif" font-size="14.00">node&#45;7</text>
<text text-anchor="middle" x="319.83" y="-15.69" font-family="Times,serif" font-size="14.00">(0s)</text>
</g>
<!-- node&#45;1 -->
<g id="node4" class="node">
<title>node&#45;1</title>
<ellipse fill="none" stroke="black" cx="178.83" cy="-282.96" rx="37.83" ry="28.99"/>
<text text-anchor="middle" x="178.83" y="-286.16" font-family="Times,serif" font-size="14.00">node&#45;1</text>
<text text-anchor="middle" x="178.83" y="-269.66" font-family="Times,serif" font-size="14.00">(0s)</text>
</g>
<!-- node&#45;2 -->
<g id="node5" class="node">
<title>node&#45;2</title>
<ellipse fill="none" stroke="black" cx="131.83" cy="-155.97" rx="37.83" ry="28.99"/>
<text text-anchor="middle" x="131.83" y="-159.17" font-family="Times,serif" font-size="14.00">node&#45;2</text>
<text text-anchor="middle" x="131.83" y="-142.67" font-family="Times,serif" font-size="14.00">(0s)</text>
</g>
<!-- node&#45;1&#45;&gt;node&#45;2 -->
<g id="edge1" class="edge">
<title>node&#45;1&#45;&gt;node&#45;2</title>
<path fill="none" stroke="lightblue" d="M168.63,-254.84C162.01,-237.23 153.29,-214.04 146,-194.65"/>
<polygon fill="lightblue" stroke="lightblue" points="149.34,-193.59 142.54,-185.46 142.79,-196.05 149.34,-193.59"/>
<text text-anchor="middle" x="176.08" y="-222.67" font-family="Times,serif" font-size="14.00">0</text>
<text text-anchor="middle" x="176.08" y="-206.17" font-family="Times,serif" font-size="14.00"> &#160;(0s)</text>
</g>
<!-- node&#45;3 -->
<g id="node6" class="node">
<title>node&#45;3</title>
<ellipse fill="lightyellow" stroke="black" cx="225.83" cy="-155.97" rx="37.83" ry="28.99"/>
<text text-anchor="middle" x="225.83" y="-159.17" font-family="Times,serif" font-size="14.00">node&#45;3</text>
<text text-anchor="middle" x="225.83" y="-142.67" font-family="Times,serif" font-size="14.00">(0s)</text>
</g>
<!-- node&#45;1&#45;&gt;node&#45;3 -->
<g id="edge2" class="edge">
<title>node&#45;1&#45;&gt;node&#45;3</title>
<path fill="none" stroke="lightblue" d="M189.03,-254.84C195.65,-237.23 204.37,-214.04 211.66,-194.65"/>
<polygon fill="lightblue" stroke="lightblue" points="214.88,-196.05 215.12,-185.46 208.32,-193.59 214.88,-196.05"/>
<text text-anchor="middle" x="223.08" y="-222.67" font-family="Times,serif" font-size="14.00">0</text>
<text text-anchor="middle" x="223.08" y="-206.17" font-family="Times,serif" font-size="14.00"> &#160;(0s)</text>
</g>
<!-- node&#45;2&#45;&gt;node&#45;5 -->
<g id="edge4" class="edge">
<title>node&#45;2&#45;&gt;node&#45;5</title>
<path fill="none" stroke="lightblue" d="M113.26,-130.28C98.9,-111.19 78.88,-84.57 63.07,-63.55"/>
<polygon fill="lightblue" stroke="lightblue" points="66.08,-61.73 57.27,-55.84 60.49,-65.94 66.08,-61.73"/>
<text text-anchor="middle" x="111.08" y="-95.68" font-family="Times,serif" font-size="14.00">0</text>
<text text-anchor="middle" x="111.08" y="-79.18" font-family="Times,serif" font-size="14.00"> &#160;(0s)</text>
</g>
<!-- node&#45;4 -->
<g id="node7" class="node">
<title>node&#45;4</title>
<ellipse fill="none" stroke="black" cx="131.83" cy="-28.99" rx="37.83" ry="28.99"/>
<text text-anchor="middle" x="131.83" y="-32.19" font-family="Times,serif" font-size="14.00">node&#45;4</text>
<text text-anchor="middle" x="131.83" y="-15.69" font-family="Times,serif" font-size="14.00">(0s)</text>
</g>
<!-- node&#45;2&#45;&gt;node&#45;4 -->
<g id="edge3" class="edge">
<title>node&#45;2&#45;&gt;node&#45;4</title>
<path fill="none" stroke="lightblue" d="M131.83,-126.61C131.83,-109.75 131.83,-88.12 131.83,-69.59"/>
<polygon fill="lightblue" stroke="lightblue" points="135.33,-69.75 131.83,-59.75 128.33,-69.75 135.33,-69.75"/>
<text text-anchor="middle" x="146.08" y="-95.68" font-family="Times,serif" font-size="14.00">0</text>
<text text-anchor="middle" x="146.08" y="-79.18" font-family="Times,serif" font-size="14.00"> &#160;(0s)</text>
</g>
<!-- node&#45;3&#45;&gt;node&#45;6 -->
<g id="edge5" class="edge">
<title>node&#45;3&#45;&gt;node&#45;6</title>
<path fill="none" stroke="lightblue" d="M225.83,-126.61C225.83,-109.75 225.83,-88.12 225.83,-69.59"/>
<polygon fill="lightblue" stroke="lightblue" points="229.33,-69.75 225.83,-59.75 222.33,-69.75 229.33,-69.75"/>
<text text-anchor="middle" x="240.08" y="-95.68" font-family="Times,serif" font-size="14.00">0</text>
<text text-anchor="middle" x="240.08" y="-79.18" font-family="Times,serif" font-size="14.00"> &#160;(0s)</text>
</g>
<!-- node&#45;3&#45;&gt;node&#45;7 -->
<g id="edge6" class="edge">
<title>node&#45;3&#45;&gt;node&#45;7</title>
<path fill="none" stroke="lightblue" d="M244.4,-130.28C258.76,-111.19 278.78,-84.57 294.59,-63.55"/>
<polygon fill="lightblue" stroke="lightblue" points="297.17,-65.94 300.39,-55.84 291.58,-61.73 297.17,-65.94"/>
<text text-anchor="middle" x="298.08" y="-95.68" font-family="Times,serif" font-size="14.00">0</text>
<text text-anchor="middle" x="298.08" y="-79.18" font-family="Times,serif" font-size="14.00"> &#160;(0s)</text>
</g>
</g>
</svg>
