<?xml version="1.0" encoding="UTF-8" standalone="no"?>
<!DOCTYPE svg PUBLIC "-//W3C//DTD SVG 1.1//EN"
 "http://www.w3.org/Graphics/SVG/1.1/DTD/svg11.dtd">
<!-- Generated by graphviz version 9.0.0 (20230911.1827)
 -->
<!-- Pages: 1 -->
<svg width="306pt" height="217pt"
 viewBox="0.00 0.00 306.00 217.47" xmlns="http://www.w3.org/2000/svg" xmlns:xlink="http://www.w3.org/1999/xlink">
<g id="graph0" class="graph" transform="scale(1 1) rotate(0) translate(4 213.47)">
<polygon fill="white" stroke="none" points="-4,4 -4,-213.47 302,-213.47 302,4 -4,4"/>
<text text-anchor="middle" x="149" y="-192.17" font-family="Times,serif" font-size="14.00">Network Uptime: 1m4.073476208s</text>
<!-- node&#45;1 -->
<g id="node1" class="node">
<title>node&#45;1</title>
<ellipse fill="none" stroke="black" cx="84.5" cy="-155.97" rx="71.77" ry="28.99"/>
<text text-anchor="middle" x="84.5" y="-159.17" font-family="Times,serif" font-size="14.00">node&#45;1</text>
<text text-anchor="middle" x="84.5" y="-142.67" font-family="Times,serif" font-size="14.00">(5.001188541s)</text>
</g>
<!-- node&#45;2 -->
<g id="node2" class="node">
<title>node&#45;2</title>
<ellipse fill="none" stroke="black" cx="84.5" cy="-28.99" rx="84.5" ry="28.99"/>
<text text-anchor="middle" x="84.5" y="-32.19" font-family="Times,serif" font-size="14.00">node&#45;2</text>
<text text-anchor="middle" x="84.5" y="-15.69" font-family="Times,serif" font-size="14.00">(1m4.073374667s)</text>
</g>
<!-- node&#45;1&#45;&gt;node&#45;2 -->
<g id="edge1" class="edge">
<title>node&#45;1&#45;&gt;node&#45;2</title>
<path fill="none" stroke="lightblue" d="M84.5,-126.61C84.5,-109.75 84.5,-88.12 84.5,-69.59"/>
<polygon fill="lightblue" stroke="lightblue" points="88,-69.75 84.5,-59.75 81,-69.75 88,-69.75"/>
<text text-anchor="middle" x="131" y="-95.68" font-family="Times,serif" font-size="14.00">1</text>
<text text-anchor="middle" x="131" y="-79.18" font-family="Times,serif" font-size="14.00"> &#160;(5.001184625s)</text>
</g>
<!-- node&#45;2&#45;&gt;node&#45;2 -->
<g id="edge2" class="edge">
<title>node&#45;2&#45;&gt;node&#45;2</title>
<path fill="none" stroke="lightblue" d="M162.71,-40.24C176.98,-38.82 187,-35.07 187,-28.99 187,-24.67 181.94,-21.53 173.88,-19.56"/>
<polygon fill="lightblue" stroke="lightblue" points="174.63,-16.14 164.2,-17.98 173.51,-23.04 174.63,-16.14"/>
<text text-anchor="middle" x="242.5" y="-32.19" font-family="Times,serif" font-size="14.00">59</text>
<text text-anchor="middle" x="242.5" y="-15.69" font-family="Times,serif" font-size="14.00"> &#160;(1m4.073374667s)</text>
</g>
</g>
</svg>
