<?xml version="1.0" encoding="UTF-8" standalone="no"?>
<!DOCTYPE svg PUBLIC "-//W3C//DTD SVG 1.1//EN"
 "http://www.w3.org/Graphics/SVG/1.1/DTD/svg11.dtd">
<!-- Generated by graphviz version 9.0.0 (20230911.1827)
 -->
<!-- Pages: 1 -->
<svg width="132pt" height="344pt"
 viewBox="0.00 0.00 132.00 344.45" xmlns="http://www.w3.org/2000/svg" xmlns:xlink="http://www.w3.org/1999/xlink">
<g id="graph0" class="graph" transform="scale(1 1) rotate(0) translate(4 340.45)">
<polygon fill="white" stroke="none" points="-4,4 -4,-340.45 128,-340.45 128,4 -4,4"/>
<text text-anchor="middle" x="62" y="-319.15" font-family="Times,serif" font-size="14.00">Network Uptime:0s</text>
<!-- step1&#45;read -->
<g id="node1" class="node">
<title>step1&#45;read</title>
<ellipse fill="none" stroke="black" cx="62" cy="-282.96" rx="51.09" ry="28.99"/>
<text text-anchor="middle" x="62" y="-286.16" font-family="Times,serif" font-size="14.00">step1&#45;read</text>
<text text-anchor="middle" x="62" y="-269.66" font-family="Times,serif" font-size="14.00">(0s)</text>
</g>
<!-- step2&#45;peek -->
<g id="node2" class="node">
<title>step2&#45;peek</title>
<ellipse fill="none" stroke="black" cx="62" cy="-155.97" rx="52.68" ry="28.99"/>
<text text-anchor="middle" x="62" y="-159.17" font-family="Times,serif" font-size="14.00">step2&#45;peek</text>
<text text-anchor="middle" x="62" y="-142.67" font-family="Times,serif" font-size="14.00">(0s)</text>
</g>
<!-- step1&#45;read&#45;&gt;step2&#45;peek -->
<g id="edge1" class="edge">
<title>step1&#45;read&#45;&gt;step2&#45;peek</title>
<path fill="none" stroke="lightblue" d="M62,-253.6C62,-236.74 62,-215.1 62,-196.57"/>
<polygon fill="lightblue" stroke="lightblue" points="65.5,-196.74 62,-186.74 58.5,-196.74 65.5,-196.74"/>
<text text-anchor="middle" x="76.25" y="-222.67" font-family="Times,serif" font-size="14.00">0</text>
<text text-anchor="middle" x="76.25" y="-206.17" font-family="Times,serif" font-size="14.00"> &#160;(0s)</text>
</g>
<!-- step3&#45;collect -->
<g id="node3" class="node">
<title>step3&#45;collect</title>
<ellipse fill="none" stroke="black" cx="62" cy="-28.99" rx="60.1" ry="28.99"/>
<text text-anchor="middle" x="62" y="-32.19" font-family="Times,serif" font-size="14.00">step3&#45;collect</text>
<text text-anchor="middle" x="62" y="-15.69" font-family="Times,serif" font-size="14.00">(0s)</text>
</g>
<!-- step2&#45;peek&#45;&gt;step3&#45;collect -->
<g id="edge2" class="edge">
<title>step2&#45;peek&#45;&gt;step3&#45;collect</title>
<path fill="none" stroke="lightblue" d="M62,-126.61C62,-109.75 62,-88.12 62,-69.59"/>
<polygon fill="lightblue" stroke="lightblue" points="65.5,-69.75 62,-59.75 58.5,-69.75 65.5,-69.75"/>
<text text-anchor="middle" x="76.25" y="-95.68" font-family="Times,serif" font-size="14.00">0</text>
<text text-anchor="middle" x="76.25" y="-79.18" font-family="Times,serif" font-size="14.00"> &#160;(0s)</text>
</g>
</g>
</svg>
