<?xml version="1.0" encoding="UTF-8" standalone="no"?>
<!DOCTYPE svg PUBLIC "-//W3C//DTD SVG 1.1//EN"
 "http://www.w3.org/Graphics/SVG/1.1/DTD/svg11.dtd">
<!-- Generated by graphviz version 9.0.0 (20230911.1827)
 -->
<!-- Pages: 1 -->
<svg width="150pt" height="344pt"
 viewBox="0.00 0.00 150.48 344.45" xmlns="http://www.w3.org/2000/svg" xmlns:xlink="http://www.w3.org/1999/xlink">
<g id="graph0" class="graph" transform="scale(1 1) rotate(0) translate(4 340.45)">
<polygon fill="white" stroke="none" points="-4,4 -4,-340.45 146.48,-340.45 146.48,4 -4,4"/>
<text text-anchor="middle" x="71.24" y="-319.15" font-family="Times,serif" font-size="14.00">Network Uptime:0s</text>
<!-- node1&#45;read&#45;1 -->
<g id="node1" class="node">
<title>node1&#45;read&#45;1</title>
<ellipse fill="none" stroke="black" cx="71.24" cy="-282.96" rx="62.23" ry="28.99"/>
<text text-anchor="middle" x="71.24" y="-286.16" font-family="Times,serif" font-size="14.00">node1&#45;read&#45;1</text>
<text text-anchor="middle" x="71.24" y="-269.66" font-family="Times,serif" font-size="14.00">(0s)</text>
</g>
<!-- node2&#45;peek&#45;1 -->
<g id="node2" class="node">
<title>node2&#45;peek&#45;1</title>
<ellipse fill="none" stroke="black" cx="71.24" cy="-155.97" rx="63.82" ry="28.99"/>
<text text-anchor="middle" x="71.24" y="-159.17" font-family="Times,serif" font-size="14.00">node2&#45;peek&#45;1</text>
<text text-anchor="middle" x="71.24" y="-142.67" font-family="Times,serif" font-size="14.00">(0s)</text>
</g>
<!-- node1&#45;read&#45;1&#45;&gt;node2&#45;peek&#45;1 -->
<g id="edge1" class="edge">
<title>node1&#45;read&#45;1&#45;&gt;node2&#45;peek&#45;1</title>
<path fill="none" stroke="lightblue" d="M71.24,-253.6C71.24,-236.74 71.24,-215.1 71.24,-196.57"/>
<polygon fill="lightblue" stroke="lightblue" points="74.74,-196.74 71.24,-186.74 67.74,-196.74 74.74,-196.74"/>
<text text-anchor="middle" x="85.49" y="-222.67" font-family="Times,serif" font-size="14.00">0</text>
<text text-anchor="middle" x="85.49" y="-206.17" font-family="Times,serif" font-size="14.00"> &#160;(0s)</text>
</g>
<!-- node3&#45;collect&#45;1 -->
<g id="node3" class="node">
<title>node3&#45;collect&#45;1</title>
<ellipse fill="none" stroke="black" cx="71.24" cy="-28.99" rx="71.24" ry="28.99"/>
<text text-anchor="middle" x="71.24" y="-32.19" font-family="Times,serif" font-size="14.00">node3&#45;collect&#45;1</text>
<text text-anchor="middle" x="71.24" y="-15.69" font-family="Times,serif" font-size="14.00">(0s)</text>
</g>
<!-- node2&#45;peek&#45;1&#45;&gt;node3&#45;collect&#45;1 -->
<g id="edge2" class="edge">
<title>node2&#45;peek&#45;1&#45;&gt;node3&#45;collect&#45;1</title>
<path fill="none" stroke="lightblue" d="M71.24,-126.61C71.24,-109.75 71.24,-88.12 71.24,-69.59"/>
<polygon fill="lightblue" stroke="lightblue" points="74.74,-69.75 71.24,-59.75 67.74,-69.75 74.74,-69.75"/>
<text text-anchor="middle" x="85.49" y="-95.68" font-family="Times,serif" font-size="14.00">0</text>
<text text-anchor="middle" x="85.49" y="-79.18" font-family="Times,serif" font-size="14.00"> &#160;(0s)</text>
</g>
</g>
</svg>
