<?xml version="1.0" encoding="UTF-8" standalone="no"?>
<!DOCTYPE svg PUBLIC "-//W3C//DTD SVG 1.1//EN"
 "http://www.w3.org/Graphics/SVG/1.1/DTD/svg11.dtd">
<!-- Generated by graphviz version 9.0.0 (20230911.1827)
 -->
<!-- Pages: 1 -->
<svg width="178pt" height="344pt"
 viewBox="0.00 0.00 177.75 344.45" xmlns="http://www.w3.org/2000/svg" xmlns:xlink="http://www.w3.org/1999/xlink">
<g id="graph0" class="graph" transform="scale(1 1) rotate(0) translate(4 340.45)">
<polygon fill="white" stroke="none" points="-4,4 -4,-340.45 173.75,-340.45 173.75,4 -4,4"/>
<text text-anchor="middle" x="84.88" y="-319.15" font-family="Times,serif" font-size="14.00">Network Uptime:353.292µs</text>
<!-- step1&#45;read -->
<g id="node1" class="node">
<title>step1&#45;read</title>
<ellipse fill="none" stroke="black" cx="77.8" cy="-282.96" rx="58.51" ry="28.99"/>
<text text-anchor="middle" x="77.8" y="-286.16" font-family="Times,serif" font-size="14.00">step1&#45;read</text>
<text text-anchor="middle" x="77.8" y="-269.66" font-family="Times,serif" font-size="14.00">(313.167µs)</text>
</g>
<!-- step2&#45;peek -->
<g id="node2" class="node">
<title>step2&#45;peek</title>
<ellipse fill="none" stroke="black" cx="77.8" cy="-155.97" rx="52.68" ry="28.99"/>
<text text-anchor="middle" x="77.8" y="-159.17" font-family="Times,serif" font-size="14.00">step2&#45;peek</text>
<text text-anchor="middle" x="77.8" y="-142.67" font-family="Times,serif" font-size="14.00">(314.5µs)</text>
</g>
<!-- step1&#45;read&#45;&gt;step2&#45;peek -->
<g id="edge1" class="edge">
<title>step1&#45;read&#45;&gt;step2&#45;peek</title>
<path fill="none" stroke="lightblue" d="M77.8,-253.6C77.8,-236.74 77.8,-215.1 77.8,-196.57"/>
<polygon fill="lightblue" stroke="lightblue" points="81.3,-196.74 77.8,-186.74 74.3,-196.74 81.3,-196.74"/>
<text text-anchor="middle" x="114.93" y="-222.67" font-family="Times,serif" font-size="14.00">50</text>
<text text-anchor="middle" x="114.93" y="-206.17" font-family="Times,serif" font-size="14.00"> &#160;(311.875µs)</text>
</g>
<!-- step3&#45;collect -->
<g id="node3" class="node">
<title>step3&#45;collect</title>
<ellipse fill="none" stroke="black" cx="77.8" cy="-28.99" rx="60.1" ry="28.99"/>
<text text-anchor="middle" x="77.8" y="-32.19" font-family="Times,serif" font-size="14.00">step3&#45;collect</text>
<text text-anchor="middle" x="77.8" y="-15.69" font-family="Times,serif" font-size="14.00">(329.5µs)</text>
</g>
<!-- step2&#45;peek&#45;&gt;step3&#45;collect -->
<g id="edge2" class="edge">
<title>step2&#45;peek&#45;&gt;step3&#45;collect</title>
<path fill="none" stroke="lightblue" d="M77.8,-126.61C77.8,-109.75 77.8,-88.12 77.8,-69.59"/>
<polygon fill="lightblue" stroke="lightblue" points="81.3,-69.75 77.8,-59.75 74.3,-69.75 81.3,-69.75"/>
<text text-anchor="middle" x="114.93" y="-95.68" font-family="Times,serif" font-size="14.00">50</text>
<text text-anchor="middle" x="114.93" y="-79.18" font-family="Times,serif" font-size="14.00"> &#160;(328.333µs)</text>
</g>
</g>
</svg>
