<?xml version="1.0" encoding="UTF-8" standalone="no"?>
<!DOCTYPE svg PUBLIC "-//W3C//DTD SVG 1.1//EN"
 "http://www.w3.org/Graphics/SVG/1.1/DTD/svg11.dtd">
<!-- Generated by graphviz version 9.0.0 (20230911.1827)
 -->
<!-- Pages: 1 -->
<svg width="83pt" height="237pt"
 viewBox="0.00 0.00 82.88 237.00" xmlns="http://www.w3.org/2000/svg" xmlns:xlink="http://www.w3.org/1999/xlink">
<g id="graph0" class="graph" transform="scale(1 1) rotate(0) translate(4 233)">
<polygon fill="white" stroke="none" points="-4,4 -4,-233 78.88,-233 78.88,4 -4,4"/>
<!-- node3 -->
<g id="node1" class="node">
<title>node3</title>
<ellipse fill="none" stroke="black" cx="37.44" cy="-18" rx="33.44" ry="18"/>
<text text-anchor="middle" x="37.44" y="-12.95" font-family="Times,serif" font-size="14.00">node3</text>
</g>
<!-- node1 -->
<g id="node2" class="node">
<title>node1</title>
<ellipse fill="none" stroke="black" cx="37.44" cy="-207" rx="33.44" ry="18"/>
<ellipse fill="none" stroke="black" cx="37.44" cy="-207" rx="37.44" ry="22"/>
<text text-anchor="middle" x="37.44" y="-201.95" font-family="Times,serif" font-size="14.00">node1</text>
</g>
<!-- node2 -->
<g id="node3" class="node">
<title>node2</title>
<ellipse fill="none" stroke="black" cx="37.44" cy="-110.5" rx="33.44" ry="18"/>
<ellipse fill="none" stroke="black" cx="37.44" cy="-110.5" rx="37.44" ry="22"/>
<text text-anchor="middle" x="37.44" y="-105.45" font-family="Times,serif" font-size="14.00">node2</text>
</g>
<!-- node1&#45;&gt;node2 -->
<g id="edge1" class="edge">
<title>node1&#45;&gt;node2</title>
<path fill="none" stroke="lightblue" d="M37.44,-184.56C37.44,-172.59 37.44,-157.45 37.44,-144.06"/>
<polygon fill="lightblue" stroke="lightblue" points="40.94,-144.37 37.44,-134.37 33.94,-144.37 40.94,-144.37"/>
<text text-anchor="middle" x="47.94" y="-153.7" font-family="Times,serif" font-size="14.00"> &#160;50</text>
</g>
<!-- node2&#45;&gt;node3 -->
<g id="edge2" class="edge">
<title>node2&#45;&gt;node3</title>
<path fill="none" stroke="lightblue" d="M37.44,-88.05C37.44,-75.97 37.44,-60.71 37.44,-47.62"/>
<polygon fill="lightblue" stroke="lightblue" points="40.94,-47.87 37.44,-37.87 33.94,-47.87 40.94,-47.87"/>
<text text-anchor="middle" x="47.94" y="-57.2" font-family="Times,serif" font-size="14.00"> &#160;50</text>
</g>
</g>
</svg>
