<?xml version="1.0" encoding="UTF-8" standalone="no"?>
<!DOCTYPE svg PUBLIC "-//W3C//DTD SVG 1.1//EN"
 "http://www.w3.org/Graphics/SVG/1.1/DTD/svg11.dtd">
<!-- Generated by graphviz version 9.0.0 (20230911.1827)
 -->
<!-- Pages: 1 -->
<svg width="150pt" height="322pt"
 viewBox="0.00 0.00 149.60 322.47" xmlns="http://www.w3.org/2000/svg" xmlns:xlink="http://www.w3.org/1999/xlink">
<g id="graph0" class="graph" transform="scale(1 1) rotate(0) translate(4 318.47)">
<polygon fill="white" stroke="none" points="-4,4 -4,-318.47 145.6,-318.47 145.6,4 -4,4"/>
<text text-anchor="middle" x="70.8" y="-297.17" font-family="Times,serif" font-size="14.00">Network Uptime:0s</text>
<!-- node1&#45;read -->
<g id="node1" class="node">
<title>node1&#45;read</title>
<ellipse fill="none" stroke="black" cx="70.8" cy="-260.97" rx="54.27" ry="28.99"/>
<text text-anchor="middle" x="70.8" y="-264.17" font-family="Times,serif" font-size="14.00">node1&#45;read</text>
<text text-anchor="middle" x="70.8" y="-247.67" font-family="Times,serif" font-size="14.00">(0s)</text>
</g>
<!-- node2&#45;peek -->
<g id="node2" class="node">
<title>node2&#45;peek</title>
<ellipse fill="none" stroke="black" cx="70.8" cy="-144.98" rx="70.8" ry="18"/>
<text text-anchor="middle" x="70.8" y="-139.93" font-family="Times,serif" font-size="14.00">node2&#45;peek (0s)</text>
</g>
<!-- node1&#45;read&#45;&gt;node2&#45;peek -->
<g id="edge1" class="edge">
<title>node1&#45;read&#45;&gt;node2&#45;peek</title>
<path fill="none" stroke="lightblue" d="M70.8,-231.5C70.8,-214.23 70.8,-192.24 70.8,-174.89"/>
<polygon fill="lightblue" stroke="lightblue" points="74.3,-174.98 70.8,-164.98 67.3,-174.98 74.3,-174.98"/>
<text text-anchor="middle" x="85.05" y="-200.68" font-family="Times,serif" font-size="14.00">0</text>
<text text-anchor="middle" x="85.05" y="-184.18" font-family="Times,serif" font-size="14.00"> &#160;(0s)</text>
</g>
<!-- node3&#45;collect -->
<g id="node3" class="node">
<title>node3&#45;collect</title>
<ellipse fill="none" stroke="black" cx="70.8" cy="-28.99" rx="63.29" ry="28.99"/>
<text text-anchor="middle" x="70.8" y="-32.19" font-family="Times,serif" font-size="14.00">node3&#45;collect</text>
<text text-anchor="middle" x="70.8" y="-15.69" font-family="Times,serif" font-size="14.00"> &#160;&#160;&#160;&#160;&#160;&#160;&#160;&#160;&#160;&#160;&#160;(0s)</text>
</g>
<!-- node2&#45;peek&#45;&gt;node3&#45;collect -->
<g id="edge2" class="edge">
<title>node2&#45;peek&#45;&gt;node3&#45;collect</title>
<path fill="none" stroke="lightblue" d="M70.8,-126.67C70.8,-111.54 70.8,-89 70.8,-69.49"/>
<polygon fill="lightblue" stroke="lightblue" points="74.3,-69.64 70.8,-59.64 67.3,-69.64 74.3,-69.64"/>
<text text-anchor="middle" x="85.05" y="-95.68" font-family="Times,serif" font-size="14.00">0</text>
<text text-anchor="middle" x="85.05" y="-79.18" font-family="Times,serif" font-size="14.00"> &#160;(0s)</text>
</g>
</g>
</svg>
