<?xml version="1.0" encoding="UTF-8" standalone="no"?>
<!DOCTYPE svg PUBLIC "-//W3C//DTD SVG 1.1//EN"
 "http://www.w3.org/Graphics/SVG/1.1/DTD/svg11.dtd">
<!-- Generated by graphviz version 9.0.0 (20230911.1827)
 -->
<!-- Pages: 1 -->
<svg width="130pt" height="237pt"
 viewBox="0.00 0.00 130.15 237.00" xmlns="http://www.w3.org/2000/svg" xmlns:xlink="http://www.w3.org/1999/xlink">
<g id="graph0" class="graph" transform="scale(1 1) rotate(0) translate(4 233)">
<polygon fill="white" stroke="none" points="-4,4 -4,-233 126.15,-233 126.15,4 -4,4"/>
<!-- node3&#45;collect -->
<g id="node1" class="node">
<title>node3&#45;collect</title>
<ellipse fill="none" stroke="black" cx="61.08" cy="-18" rx="61.08" ry="18"/>
<text text-anchor="middle" x="61.08" y="-12.95" font-family="Times,serif" font-size="14.00">node3&#45;collect</text>
</g>
<!-- node1&#45;read -->
<g id="node2" class="node">
<title>node1&#45;read</title>
<ellipse fill="none" stroke="black" cx="61.08" cy="-207" rx="52.38" ry="18"/>
<ellipse fill="none" stroke="black" cx="61.08" cy="-207" rx="56.38" ry="22"/>
<text text-anchor="middle" x="61.08" y="-201.95" font-family="Times,serif" font-size="14.00">node1&#45;read</text>
</g>
<!-- node2&#45;peek -->
<g id="node3" class="node">
<title>node2&#45;peek</title>
<ellipse fill="none" stroke="black" cx="61.08" cy="-110.5" rx="53.91" ry="18"/>
<ellipse fill="none" stroke="black" cx="61.08" cy="-110.5" rx="57.91" ry="22"/>
<text text-anchor="middle" x="61.08" y="-105.45" font-family="Times,serif" font-size="14.00">node2&#45;peek</text>
</g>
<!-- node1&#45;read&#45;&gt;node2&#45;peek -->
<g id="edge2" class="edge">
<title>node1&#45;read&#45;&gt;node2&#45;peek</title>
<path fill="none" stroke="lightblue" d="M61.08,-184.56C61.08,-172.59 61.08,-157.45 61.08,-144.06"/>
<polygon fill="lightblue" stroke="lightblue" points="64.58,-144.37 61.08,-134.37 57.58,-144.37 64.58,-144.37"/>
<text text-anchor="middle" x="68.2" y="-153.7" font-family="Times,serif" font-size="14.00"> &#160;0</text>
</g>
<!-- node2&#45;peek&#45;&gt;node3&#45;collect -->
<g id="edge1" class="edge">
<title>node2&#45;peek&#45;&gt;node3&#45;collect</title>
<path fill="none" stroke="lightblue" d="M61.08,-88.05C61.08,-75.97 61.08,-60.71 61.08,-47.62"/>
<polygon fill="lightblue" stroke="lightblue" points="64.58,-47.87 61.08,-37.87 57.58,-47.87 64.58,-47.87"/>
<text text-anchor="middle" x="68.2" y="-57.2" font-family="Times,serif" font-size="14.00"> &#160;0</text>
</g>
</g>
</svg>
