<?xml version="1.0" encoding="UTF-8" standalone="no"?>
<!DOCTYPE svg PUBLIC "-//W3C//DTD SVG 1.1//EN"
 "http://www.w3.org/Graphics/SVG/1.1/DTD/svg11.dtd">
<!-- Generated by graphviz version 9.0.0 (20230911.1827)
 -->
<!-- Pages: 1 -->
<svg width="390pt" height="344pt"
 viewBox="0.00 0.00 390.02 344.45" xmlns="http://www.w3.org/2000/svg" xmlns:xlink="http://www.w3.org/1999/xlink">
<g id="graph0" class="graph" transform="scale(1 1) rotate(0) translate(4 340.45)">
<polygon fill="white" stroke="none" points="-4,4 -4,-340.45 386.02,-340.45 386.02,4 -4,4"/>
<text text-anchor="middle" x="191.01" y="-319.15" font-family="Times,serif" font-size="14.00">Network Uptime:0s</text>
<!-- filter&#45;r1 -->
<g id="node1" class="node">
<title>filter&#45;r1</title>
<ellipse fill="none" stroke="black" cx="241.01" cy="-155.97" rx="41.01" ry="28.99"/>
<text text-anchor="middle" x="241.01" y="-159.17" font-family="Times,serif" font-size="14.00">filter&#45;r1</text>
<text text-anchor="middle" x="241.01" y="-142.67" font-family="Times,serif" font-size="14.00">(0s)</text>
</g>
<!-- print -->
<g id="node5" class="node">
<title>print</title>
<ellipse fill="none" stroke="black" cx="179.01" cy="-28.99" rx="29.34" ry="28.99"/>
<text text-anchor="middle" x="179.01" y="-32.19" font-family="Times,serif" font-size="14.00">print</text>
<text text-anchor="middle" x="179.01" y="-15.69" font-family="Times,serif" font-size="14.00">(0s)</text>
</g>
<!-- filter&#45;r1&#45;&gt;print -->
<g id="edge11" class="edge">
<title>filter&#45;r1&#45;&gt;print</title>
<path fill="none" stroke="lightblue" d="M227.71,-128.16C218.66,-109.92 206.59,-85.58 196.73,-65.7"/>
<polygon fill="lightblue" stroke="lightblue" points="199.91,-64.24 192.33,-56.83 193.64,-67.35 199.91,-64.24"/>
<text text-anchor="middle" x="231.26" y="-95.68" font-family="Times,serif" font-size="14.00">0</text>
<text text-anchor="middle" x="231.26" y="-79.18" font-family="Times,serif" font-size="14.00"> &#160;(0s)</text>
</g>
<!-- filter&#45;r2 -->
<g id="node2" class="node">
<title>filter&#45;r2</title>
<ellipse fill="none" stroke="black" cx="141.01" cy="-155.97" rx="41.01" ry="28.99"/>
<text text-anchor="middle" x="141.01" y="-159.17" font-family="Times,serif" font-size="14.00">filter&#45;r2</text>
<text text-anchor="middle" x="141.01" y="-142.67" font-family="Times,serif" font-size="14.00">(0s)</text>
</g>
<!-- filter&#45;r2&#45;&gt;print -->
<g id="edge12" class="edge">
<title>filter&#45;r2&#45;&gt;print</title>
<path fill="none" stroke="lightblue" d="M149.45,-127.24C154.75,-109.8 161.66,-87.08 167.46,-67.98"/>
<polygon fill="lightblue" stroke="lightblue" points="170.73,-69.26 170.29,-58.67 164.04,-67.22 170.73,-69.26"/>
<text text-anchor="middle" x="178.26" y="-95.68" font-family="Times,serif" font-size="14.00">0</text>
<text text-anchor="middle" x="178.26" y="-79.18" font-family="Times,serif" font-size="14.00"> &#160;(0s)</text>
</g>
<!-- filter&#45;r3 -->
<g id="node3" class="node">
<title>filter&#45;r3</title>
<ellipse fill="none" stroke="black" cx="41.01" cy="-155.97" rx="41.01" ry="28.99"/>
<text text-anchor="middle" x="41.01" y="-159.17" font-family="Times,serif" font-size="14.00">filter&#45;r3</text>
<text text-anchor="middle" x="41.01" y="-142.67" font-family="Times,serif" font-size="14.00">(0s)</text>
</g>
<!-- filter&#45;r3&#45;&gt;print -->
<g id="edge1" class="edge">
<title>filter&#45;r3&#45;&gt;print</title>
<path fill="none" stroke="lightblue" d="M64.04,-131.61C80.09,-115.59 102.19,-94.05 122.51,-75.98 130.5,-68.89 139.36,-61.47 147.66,-54.71"/>
<polygon fill="lightblue" stroke="lightblue" points="149.6,-57.64 155.19,-48.64 145.21,-52.19 149.6,-57.64"/>
<text text-anchor="middle" x="136.26" y="-95.68" font-family="Times,serif" font-size="14.00">0</text>
<text text-anchor="middle" x="136.26" y="-79.18" font-family="Times,serif" font-size="14.00"> &#160;(0s)</text>
</g>
<!-- filter&#45;r4 -->
<g id="node4" class="node">
<title>filter&#45;r4</title>
<ellipse fill="none" stroke="black" cx="341.01" cy="-155.97" rx="41.01" ry="28.99"/>
<text text-anchor="middle" x="341.01" y="-159.17" font-family="Times,serif" font-size="14.00">filter&#45;r4</text>
<text text-anchor="middle" x="341.01" y="-142.67" font-family="Times,serif" font-size="14.00">(0s)</text>
</g>
<!-- filter&#45;r4&#45;&gt;print -->
<g id="edge2" class="edge">
<title>filter&#45;r4&#45;&gt;print</title>
<path fill="none" stroke="lightblue" d="M316.69,-132.21C298.8,-115.88 273.59,-93.71 250.01,-75.98 238.46,-67.29 225.29,-58.49 213.46,-50.94"/>
<polygon fill="lightblue" stroke="lightblue" points="215.51,-48.09 205.18,-45.73 211.78,-54.02 215.51,-48.09"/>
<text text-anchor="middle" x="302.26" y="-95.68" font-family="Times,serif" font-size="14.00">0</text>
<text text-anchor="middle" x="302.26" y="-79.18" font-family="Times,serif" font-size="14.00"> &#160;(0s)</text>
</g>
<!-- generator&#45;r1 -->
<g id="node6" class="node">
<title>generator&#45;r1</title>
<ellipse fill="lightyellow" stroke="black" cx="118.01" cy="-282.96" rx="58.51" ry="28.99"/>
<text text-anchor="middle" x="118.01" y="-286.16" font-family="Times,serif" font-size="14.00">generator&#45;r1</text>
<text text-anchor="middle" x="118.01" y="-269.66" font-family="Times,serif" font-size="14.00">(0s)</text>
</g>
<!-- generator&#45;r1&#45;&gt;filter&#45;r1 -->
<g id="edge3" class="edge">
<title>generator&#45;r1&#45;&gt;filter&#45;r1</title>
<path fill="none" stroke="lightblue" d="M133.04,-254.5C145.12,-232.55 160.42,-205.1 162.51,-202.97 164.17,-201.28 181.47,-191.1 199.41,-180.74"/>
<polygon fill="lightblue" stroke="lightblue" points="201.11,-183.8 208.03,-175.78 197.62,-177.73 201.11,-183.8"/>
<text text-anchor="middle" x="176.26" y="-222.67" font-family="Times,serif" font-size="14.00">0</text>
<text text-anchor="middle" x="176.26" y="-206.17" font-family="Times,serif" font-size="14.00"> &#160;(0s)</text>
</g>
<!-- generator&#45;r1&#45;&gt;filter&#45;r2 -->
<g id="edge4" class="edge">
<title>generator&#45;r1&#45;&gt;filter&#45;r2</title>
<path fill="none" stroke="lightblue" d="M81.71,-259.72C73.96,-253.11 66.82,-245.14 62.51,-235.97 56.27,-222.69 55.22,-215.69 62.51,-202.97 63.7,-200.89 81.36,-190.47 99.63,-180.07"/>
<polygon fill="lightblue" stroke="lightblue" points="101.15,-183.23 108.13,-175.26 97.71,-177.14 101.15,-183.23"/>
<text text-anchor="middle" x="76.26" y="-222.67" font-family="Times,serif" font-size="14.00">0</text>
<text text-anchor="middle" x="76.26" y="-206.17" font-family="Times,serif" font-size="14.00"> &#160;(0s)</text>
</g>
<!-- generator&#45;r1&#45;&gt;filter&#45;r3 -->
<g id="edge5" class="edge">
<title>generator&#45;r1&#45;&gt;filter&#45;r3</title>
<path fill="none" stroke="lightblue" d="M66.82,-268.64C50.43,-261.7 34.07,-251.32 24.51,-235.97 16.74,-223.48 18.12,-207.96 22.44,-193.99"/>
<polygon fill="lightblue" stroke="lightblue" points="25.72,-195.21 25.9,-184.62 19.15,-192.79 25.72,-195.21"/>
<text text-anchor="middle" x="38.26" y="-222.67" font-family="Times,serif" font-size="14.00">0</text>
<text text-anchor="middle" x="38.26" y="-206.17" font-family="Times,serif" font-size="14.00"> &#160;(0s)</text>
</g>
<!-- generator&#45;r1&#45;&gt;filter&#45;r4 -->
<g id="edge6" class="edge">
<title>generator&#45;r1&#45;&gt;filter&#45;r4</title>
<path fill="none" stroke="lightblue" d="M164.39,-264.97C174.47,-261.31 185.09,-257.49 195.01,-253.97 218.06,-245.79 228.08,-251.44 247.01,-235.97 260.2,-225.19 254.58,-215.13 266.51,-202.97 272.09,-197.28 285.59,-188.54 299.59,-180.2"/>
<polygon fill="lightblue" stroke="lightblue" points="301.1,-183.37 307.96,-175.3 297.56,-177.33 301.1,-183.37"/>
<text text-anchor="middle" x="280.26" y="-222.67" font-family="Times,serif" font-size="14.00">0</text>
<text text-anchor="middle" x="280.26" y="-206.17" font-family="Times,serif" font-size="14.00"> &#160;(0s)</text>
</g>
<!-- generator&#45;r2 -->
<g id="node7" class="node">
<title>generator&#45;r2</title>
<ellipse fill="lightyellow" stroke="black" cx="263.01" cy="-282.96" rx="58.51" ry="28.99"/>
<text text-anchor="middle" x="263.01" y="-286.16" font-family="Times,serif" font-size="14.00">generator&#45;r2</text>
<text text-anchor="middle" x="263.01" y="-269.66" font-family="Times,serif" font-size="14.00">(0s)</text>
</g>
<!-- generator&#45;r2&#45;&gt;filter&#45;r1 -->
<g id="edge9" class="edge">
<title>generator&#45;r2&#45;&gt;filter&#45;r1</title>
<path fill="none" stroke="lightblue" d="M287.65,-256.52C292.31,-250.26 296.5,-243.25 299.01,-235.97 303.79,-222.1 305.39,-216.17 299.01,-202.97 295.08,-194.83 288.93,-187.69 282.08,-181.62"/>
<polygon fill="lightblue" stroke="lightblue" points="284.33,-178.94 274.33,-175.45 279.97,-184.42 284.33,-178.94"/>
<text text-anchor="middle" x="317.26" y="-222.67" font-family="Times,serif" font-size="14.00">0</text>
<text text-anchor="middle" x="317.26" y="-206.17" font-family="Times,serif" font-size="14.00"> &#160;(0s)</text>
</g>
<!-- generator&#45;r2&#45;&gt;filter&#45;r2 -->
<g id="edge10" class="edge">
<title>generator&#45;r2&#45;&gt;filter&#45;r2</title>
<path fill="none" stroke="lightblue" d="M237.36,-256.81C231,-250.21 224.34,-242.97 218.51,-235.97 207,-222.12 207.18,-216.24 195.01,-202.97 189.46,-196.91 183.14,-190.89 176.82,-185.3"/>
<polygon fill="lightblue" stroke="lightblue" points="179.3,-182.81 169.44,-178.96 174.74,-188.13 179.3,-182.81"/>
<text text-anchor="middle" x="232.26" y="-222.67" font-family="Times,serif" font-size="14.00">0</text>
<text text-anchor="middle" x="232.26" y="-206.17" font-family="Times,serif" font-size="14.00"> &#160;(0s)</text>
</g>
<!-- generator&#45;r2&#45;&gt;filter&#45;r3 -->
<g id="edge7" class="edge">
<title>generator&#45;r2&#45;&gt;filter&#45;r3</title>
<path fill="none" stroke="lightblue" d="M217.28,-264.38C207.06,-260.72 196.23,-257.05 186.01,-253.97 153.4,-244.13 139.12,-255.92 111.51,-235.97 97.52,-225.85 102.02,-216.27 91.01,-202.97 86.26,-197.23 80.81,-191.52 75.3,-186.18"/>
<polygon fill="lightblue" stroke="lightblue" points="78.05,-183.96 68.35,-179.69 73.27,-189.08 78.05,-183.96"/>
<text text-anchor="middle" x="125.26" y="-222.67" font-family="Times,serif" font-size="14.00">0</text>
<text text-anchor="middle" x="125.26" y="-206.17" font-family="Times,serif" font-size="14.00"> &#160;(0s)</text>
</g>
<!-- generator&#45;r2&#45;&gt;filter&#45;r4 -->
<g id="edge8" class="edge">
<title>generator&#45;r2&#45;&gt;filter&#45;r4</title>
<path fill="none" stroke="lightblue" d="M306.99,-263.41C318.31,-256.48 329.2,-247.43 336.01,-235.97 342.96,-224.27 345.28,-209.81 345.51,-196.46"/>
<polygon fill="lightblue" stroke="lightblue" points="349.02,-196.56 345.28,-186.64 342.02,-196.72 349.02,-196.56"/>
<text text-anchor="middle" x="359.26" y="-222.67" font-family="Times,serif" font-size="14.00">0</text>
<text text-anchor="middle" x="359.26" y="-206.17" font-family="Times,serif" font-size="14.00"> &#160;(0s)</text>
</g>
</g>
</svg>
