<?xml version="1.0" encoding="UTF-8" standalone="no"?>
<!DOCTYPE svg PUBLIC "-//W3C//DTD SVG 1.1//EN"
 "http://www.w3.org/Graphics/SVG/1.1/DTD/svg11.dtd">
<!-- Generated by graphviz version 9.0.0 (20230911.1827)
 -->
<!-- Pages: 1 -->
<svg width="2062pt" height="344pt"
 viewBox="0.00 0.00 2062.42 344.45" xmlns="http://www.w3.org/2000/svg" xmlns:xlink="http://www.w3.org/1999/xlink">
<g id="graph0" class="graph" transform="scale(1 1) rotate(0) translate(4 340.45)">
<polygon fill="white" stroke="none" points="-4,4 -4,-340.45 2058.42,-340.45 2058.42,4 -4,4"/>
<text text-anchor="middle" x="1027.21" y="-319.15" font-family="Times,serif" font-size="14.00">Network Uptime: 0s</text>
<!-- generator&#45;r7 -->
<g id="node1" class="node">
<title>generator&#45;r7</title>
<ellipse fill="lightyellow" stroke="black" cx="671.92" cy="-282.96" rx="58.51" ry="28.99"/>
<text text-anchor="middle" x="671.92" y="-286.16" font-family="Times,serif" font-size="14.00">generator&#45;r7</text>
<text text-anchor="middle" x="671.92" y="-269.66" font-family="Times,serif" font-size="14.00">(0s)</text>
</g>
<!-- filter&#45;r3 -->
<g id="node2" class="node">
<title>filter&#45;r3</title>
<ellipse fill="none" stroke="black" cx="1206.92" cy="-155.97" rx="41.01" ry="28.99"/>
<text text-anchor="middle" x="1206.92" y="-159.17" font-family="Times,serif" font-size="14.00">filter&#45;r3</text>
<text text-anchor="middle" x="1206.92" y="-142.67" font-family="Times,serif" font-size="14.00">(0s)</text>
</g>
<!-- generator&#45;r7&#45;&gt;filter&#45;r3 -->
<g id="edge36" class="edge">
<title>generator&#45;r7&#45;&gt;filter&#45;r3</title>
<path fill="none" stroke="lightblue" d="M713.65,-262.21C722.17,-258.91 731.21,-255.93 739.92,-253.97 776.94,-245.63 1048.48,-255.63 1080.92,-235.97 1095.49,-227.14 1087.64,-214.23 1100.42,-202.97 1116.79,-188.54 1138.38,-178.09 1157.84,-170.83"/>
<polygon fill="lightblue" stroke="lightblue" points="1158.99,-174.13 1167.26,-167.52 1156.67,-167.53 1158.99,-174.13"/>
<text text-anchor="middle" x="1115.17" y="-222.67" font-family="Times,serif" font-size="14.00">0</text>
<text text-anchor="middle" x="1115.17" y="-206.17" font-family="Times,serif" font-size="14.00"> &#160;(0s)</text>
</g>
<!-- filter&#45;r4 -->
<g id="node3" class="node">
<title>filter&#45;r4</title>
<ellipse fill="none" stroke="black" cx="270.92" cy="-155.97" rx="41.01" ry="28.99"/>
<text text-anchor="middle" x="270.92" y="-159.17" font-family="Times,serif" font-size="14.00">filter&#45;r4</text>
<text text-anchor="middle" x="270.92" y="-142.67" font-family="Times,serif" font-size="14.00">(0s)</text>
</g>
<!-- generator&#45;r7&#45;&gt;filter&#45;r4 -->
<g id="edge37" class="edge">
<title>generator&#45;r7&#45;&gt;filter&#45;r4</title>
<path fill="none" stroke="lightblue" d="M630.5,-261.96C622.2,-258.73 613.42,-255.83 604.92,-253.97 578.4,-248.14 135.27,-255.52 116.42,-235.97 80.56,-198.75 162.15,-175.94 219.88,-164.94"/>
<polygon fill="lightblue" stroke="lightblue" points="220.37,-168.41 229.58,-163.17 219.11,-161.52 220.37,-168.41"/>
<text text-anchor="middle" x="131.17" y="-222.67" font-family="Times,serif" font-size="14.00">0</text>
<text text-anchor="middle" x="131.17" y="-206.17" font-family="Times,serif" font-size="14.00"> &#160;(0s)</text>
</g>
<!-- filter&#45;r1 -->
<g id="node10" class="node">
<title>filter&#45;r1</title>
<ellipse fill="none" stroke="black" cx="1726.92" cy="-155.97" rx="41.01" ry="28.99"/>
<text text-anchor="middle" x="1726.92" y="-159.17" font-family="Times,serif" font-size="14.00">filter&#45;r1</text>
<text text-anchor="middle" x="1726.92" y="-142.67" font-family="Times,serif" font-size="14.00">(0s)</text>
</g>
<!-- generator&#45;r7&#45;&gt;filter&#45;r1 -->
<g id="edge34" class="edge">
<title>generator&#45;r7&#45;&gt;filter&#45;r1</title>
<path fill="none" stroke="lightblue" d="M713.23,-262.13C721.87,-258.79 731.05,-255.82 739.92,-253.97 786.76,-244.19 1559.62,-260.11 1600.92,-235.97 1615.63,-227.37 1607.64,-214.23 1620.42,-202.97 1636.79,-188.54 1658.38,-178.09 1677.84,-170.83"/>
<polygon fill="lightblue" stroke="lightblue" points="1678.99,-174.13 1687.26,-167.52 1676.67,-167.53 1678.99,-174.13"/>
<text text-anchor="middle" x="1634.17" y="-222.67" font-family="Times,serif" font-size="14.00">0</text>
<text text-anchor="middle" x="1634.17" y="-206.17" font-family="Times,serif" font-size="14.00"> &#160;(0s)</text>
</g>
<!-- filter&#45;r2 -->
<g id="node14" class="node">
<title>filter&#45;r2</title>
<ellipse fill="none" stroke="black" cx="738.92" cy="-155.97" rx="41.01" ry="28.99"/>
<text text-anchor="middle" x="738.92" y="-159.17" font-family="Times,serif" font-size="14.00">filter&#45;r2</text>
<text text-anchor="middle" x="738.92" y="-142.67" font-family="Times,serif" font-size="14.00">(0s)</text>
</g>
<!-- generator&#45;r7&#45;&gt;filter&#45;r2 -->
<g id="edge35" class="edge">
<title>generator&#45;r7&#45;&gt;filter&#45;r2</title>
<path fill="none" stroke="lightblue" d="M627.62,-263.83C608.66,-255.08 589.66,-244.63 584.42,-235.97 576.84,-223.41 575.66,-214.72 584.42,-202.97 607.65,-171.82 651.11,-160.93 686.04,-157.49"/>
<polygon fill="lightblue" stroke="lightblue" points="686.31,-160.98 696,-156.7 685.76,-154 686.31,-160.98"/>
<text text-anchor="middle" x="599.17" y="-222.67" font-family="Times,serif" font-size="14.00">0</text>
<text text-anchor="middle" x="599.17" y="-206.17" font-family="Times,serif" font-size="14.00"> &#160;(0s)</text>
</g>
<!-- step3&#45;collect -->
<g id="node8" class="node">
<title>step3&#45;collect</title>
<ellipse fill="none" stroke="black" cx="868.92" cy="-28.99" rx="60.1" ry="28.99"/>
<text text-anchor="middle" x="868.92" y="-32.19" font-family="Times,serif" font-size="14.00">step3&#45;collect</text>
<text text-anchor="middle" x="868.92" y="-15.69" font-family="Times,serif" font-size="14.00">(0s)</text>
</g>
<!-- filter&#45;r3&#45;&gt;step3&#45;collect -->
<g id="edge43" class="edge">
<title>filter&#45;r3&#45;&gt;step3&#45;collect</title>
<path fill="none" stroke="lightblue" d="M1170.75,-141.6C1112.28,-119.98 996.48,-77.16 926.55,-51.3"/>
<polygon fill="lightblue" stroke="lightblue" points="928.17,-48.17 917.58,-47.98 925.74,-54.73 928.17,-48.17"/>
<text text-anchor="middle" x="1093.17" y="-95.68" font-family="Times,serif" font-size="14.00">0</text>
<text text-anchor="middle" x="1093.17" y="-79.18" font-family="Times,serif" font-size="14.00"> &#160;(0s)</text>
</g>
<!-- filter&#45;r4&#45;&gt;step3&#45;collect -->
<g id="edge44" class="edge">
<title>filter&#45;r4&#45;&gt;step3&#45;collect</title>
<path fill="none" stroke="lightblue" d="M310.16,-146.77C410.7,-125.76 678.39,-69.81 803.18,-43.73"/>
<polygon fill="lightblue" stroke="lightblue" points="803.88,-47.16 812.96,-41.69 802.45,-40.31 803.88,-47.16"/>
<text text-anchor="middle" x="656.17" y="-95.68" font-family="Times,serif" font-size="14.00">0</text>
<text text-anchor="middle" x="656.17" y="-79.18" font-family="Times,serif" font-size="14.00"> &#160;(0s)</text>
</g>
<!-- generator&#45;r3 -->
<g id="node4" class="node">
<title>generator&#45;r3</title>
<ellipse fill="lightyellow" stroke="black" cx="1086.92" cy="-282.96" rx="58.51" ry="28.99"/>
<text text-anchor="middle" x="1086.92" y="-286.16" font-family="Times,serif" font-size="14.00">generator&#45;r3</text>
<text text-anchor="middle" x="1086.92" y="-269.66" font-family="Times,serif" font-size="14.00">(0s)</text>
</g>
<!-- generator&#45;r3&#45;&gt;filter&#45;r3 -->
<g id="edge15" class="edge">
<title>generator&#45;r3&#45;&gt;filter&#45;r3</title>
<path fill="none" stroke="lightblue" d="M1129.74,-262.71C1137.69,-259.53 1145.99,-256.46 1153.92,-253.97 1189.93,-242.64 1213.23,-265.35 1236.92,-235.97 1247.5,-222.85 1242.55,-205.61 1233.87,-190.58"/>
<polygon fill="lightblue" stroke="lightblue" points="1236.94,-188.87 1228.58,-182.36 1231.05,-192.66 1236.94,-188.87"/>
<text text-anchor="middle" x="1257.17" y="-222.67" font-family="Times,serif" font-size="14.00">0</text>
<text text-anchor="middle" x="1257.17" y="-206.17" font-family="Times,serif" font-size="14.00"> &#160;(0s)</text>
</g>
<!-- generator&#45;r3&#45;&gt;filter&#45;r4 -->
<g id="edge16" class="edge">
<title>generator&#45;r3&#45;&gt;filter&#45;r4</title>
<path fill="none" stroke="lightblue" d="M1045.88,-262.01C1037.48,-258.73 1028.56,-255.8 1019.92,-253.97 979.3,-245.31 301.72,-265.41 272.42,-235.97 262.2,-225.68 260.16,-210.42 261.3,-196.04"/>
<polygon fill="lightblue" stroke="lightblue" points="264.74,-196.69 262.59,-186.32 257.8,-195.77 264.74,-196.69"/>
<text text-anchor="middle" x="287.17" y="-222.67" font-family="Times,serif" font-size="14.00">0</text>
<text text-anchor="middle" x="287.17" y="-206.17" font-family="Times,serif" font-size="14.00"> &#160;(0s)</text>
</g>
<!-- generator&#45;r3&#45;&gt;filter&#45;r1 -->
<g id="edge17" class="edge">
<title>generator&#45;r3&#45;&gt;filter&#45;r1</title>
<path fill="none" stroke="lightblue" d="M1127.98,-262.05C1136.38,-258.77 1145.3,-255.83 1153.92,-253.97 1186.68,-246.89 1733.58,-260.02 1756.92,-235.97 1768.94,-223.59 1763.59,-205.91 1754.29,-190.42"/>
<polygon fill="lightblue" stroke="lightblue" points="1757.39,-188.77 1748.94,-182.38 1751.56,-192.65 1757.39,-188.77"/>
<text text-anchor="middle" x="1777.17" y="-222.67" font-family="Times,serif" font-size="14.00">0</text>
<text text-anchor="middle" x="1777.17" y="-206.17" font-family="Times,serif" font-size="14.00"> &#160;(0s)</text>
</g>
<!-- generator&#45;r3&#45;&gt;filter&#45;r2 -->
<g id="edge14" class="edge">
<title>generator&#45;r3&#45;&gt;filter&#45;r2</title>
<path fill="none" stroke="lightblue" d="M1045.46,-262.14C1037.16,-258.9 1028.39,-255.95 1019.92,-253.97 989.62,-246.87 761.93,-258.46 740.42,-235.97 730.4,-225.48 728.41,-210.18 729.51,-195.83"/>
<polygon fill="lightblue" stroke="lightblue" points="732.95,-196.51 730.77,-186.14 726.01,-195.61 732.95,-196.51"/>
<text text-anchor="middle" x="755.17" y="-222.67" font-family="Times,serif" font-size="14.00">0</text>
<text text-anchor="middle" x="755.17" y="-206.17" font-family="Times,serif" font-size="14.00"> &#160;(0s)</text>
</g>
<!-- generator&#45;r2 -->
<g id="node5" class="node">
<title>generator&#45;r2</title>
<ellipse fill="lightyellow" stroke="black" cx="1809.92" cy="-282.96" rx="58.51" ry="28.99"/>
<text text-anchor="middle" x="1809.92" y="-286.16" font-family="Times,serif" font-size="14.00">generator&#45;r2</text>
<text text-anchor="middle" x="1809.92" y="-269.66" font-family="Times,serif" font-size="14.00">(0s)</text>
</g>
<!-- generator&#45;r2&#45;&gt;filter&#45;r3 -->
<g id="edge32" class="edge">
<title>generator&#45;r2&#45;&gt;filter&#45;r3</title>
<path fill="none" stroke="lightblue" d="M1864.64,-272.06C1918.15,-260.14 1987.23,-237.32 1954.92,-202.97 1953.43,-201.38 1429.48,-170.17 1259.49,-160.09"/>
<polygon fill="lightblue" stroke="lightblue" points="1259.81,-156.6 1249.62,-159.5 1259.4,-163.59 1259.81,-156.6"/>
<text text-anchor="middle" x="1977.17" y="-222.67" font-family="Times,serif" font-size="14.00">0</text>
<text text-anchor="middle" x="1977.17" y="-206.17" font-family="Times,serif" font-size="14.00"> &#160;(0s)</text>
</g>
<!-- generator&#45;r2&#45;&gt;filter&#45;r4 -->
<g id="edge33" class="edge">
<title>generator&#45;r2&#45;&gt;filter&#45;r4</title>
<path fill="none" stroke="lightblue" d="M1753.95,-274.36C1703.36,-267.8 1626.8,-258.68 1559.92,-253.97 1525.8,-251.56 973.89,-253.35 944.42,-235.97 929.75,-227.31 939.42,-211.92 924.92,-202.97 921.73,-200.99 477.46,-170.89 323.07,-160.48"/>
<polygon fill="lightblue" stroke="lightblue" points="323.33,-156.99 313.12,-159.81 322.86,-163.98 323.33,-156.99"/>
<text text-anchor="middle" x="959.17" y="-222.67" font-family="Times,serif" font-size="14.00">0</text>
<text text-anchor="middle" x="959.17" y="-206.17" font-family="Times,serif" font-size="14.00"> &#160;(0s)</text>
</g>
<!-- generator&#45;r2&#45;&gt;filter&#45;r1 -->
<g id="edge30" class="edge">
<title>generator&#45;r2&#45;&gt;filter&#45;r1</title>
<path fill="none" stroke="lightblue" d="M1868.25,-278.93C1943.94,-272.88 2061.39,-255.03 2016.92,-202.97 1986.97,-167.89 1854.46,-159.42 1779.35,-157.47"/>
<polygon fill="lightblue" stroke="lightblue" points="1779.85,-153.98 1769.77,-157.25 1779.69,-160.98 1779.85,-153.98"/>
<text text-anchor="middle" x="2040.17" y="-222.67" font-family="Times,serif" font-size="14.00">0</text>
<text text-anchor="middle" x="2040.17" y="-206.17" font-family="Times,serif" font-size="14.00"> &#160;(0s)</text>
</g>
<!-- generator&#45;r2&#45;&gt;filter&#45;r2 -->
<g id="edge31" class="edge">
<title>generator&#45;r2&#45;&gt;filter&#45;r2</title>
<path fill="none" stroke="lightblue" d="M1752.99,-275.48C1658.99,-264.63 1480.46,-243.23 1468.42,-235.97 1453.01,-226.66 1460.66,-211.71 1444.92,-202.97 1416.9,-187.39 1188.92,-187.04 1156.92,-184.97 1025.14,-176.43 870.02,-165.92 790.96,-160.53"/>
<polygon fill="lightblue" stroke="lightblue" points="791.58,-157.07 781.37,-159.88 791.11,-164.05 791.58,-157.07"/>
<text text-anchor="middle" x="1482.17" y="-222.67" font-family="Times,serif" font-size="14.00">0</text>
<text text-anchor="middle" x="1482.17" y="-206.17" font-family="Times,serif" font-size="14.00"> &#160;(0s)</text>
</g>
<!-- generator&#45;r9 -->
<g id="node6" class="node">
<title>generator&#45;r9</title>
<ellipse fill="lightyellow" stroke="black" cx="1221.92" cy="-282.96" rx="58.51" ry="28.99"/>
<text text-anchor="middle" x="1221.92" y="-286.16" font-family="Times,serif" font-size="14.00">generator&#45;r9</text>
<text text-anchor="middle" x="1221.92" y="-269.66" font-family="Times,serif" font-size="14.00">(0s)</text>
</g>
<!-- generator&#45;r9&#45;&gt;filter&#45;r3 -->
<g id="edge24" class="edge">
<title>generator&#45;r9&#45;&gt;filter&#45;r3</title>
<path fill="none" stroke="lightblue" d="M1263.84,-262.25C1273.86,-255.42 1283.27,-246.7 1288.92,-235.97 1295.76,-222.99 1296.34,-215.62 1288.92,-202.97 1281.17,-189.72 1268.05,-180 1254.55,-173"/>
<polygon fill="lightblue" stroke="lightblue" points="1256.14,-169.89 1245.6,-168.81 1253.17,-176.23 1256.14,-169.89"/>
<text text-anchor="middle" x="1308.17" y="-222.67" font-family="Times,serif" font-size="14.00">0</text>
<text text-anchor="middle" x="1308.17" y="-206.17" font-family="Times,serif" font-size="14.00"> &#160;(0s)</text>
</g>
<!-- generator&#45;r9&#45;&gt;filter&#45;r4 -->
<g id="edge25" class="edge">
<title>generator&#45;r9&#45;&gt;filter&#45;r4</title>
<path fill="none" stroke="lightblue" d="M1180.89,-262C1172.48,-258.72 1163.56,-255.79 1154.92,-253.97 1109.78,-244.4 364.96,-258.03 324.42,-235.97 323.18,-235.29 307.94,-212.71 294.05,-191.86"/>
<polygon fill="lightblue" stroke="lightblue" points="297.1,-190.14 288.65,-183.76 291.28,-194.02 297.1,-190.14"/>
<text text-anchor="middle" x="339.17" y="-222.67" font-family="Times,serif" font-size="14.00">0</text>
<text text-anchor="middle" x="339.17" y="-206.17" font-family="Times,serif" font-size="14.00"> &#160;(0s)</text>
</g>
<!-- generator&#45;r9&#45;&gt;filter&#45;r1 -->
<g id="edge22" class="edge">
<title>generator&#45;r9&#45;&gt;filter&#45;r1</title>
<path fill="none" stroke="lightblue" d="M1262.98,-262.08C1271.39,-258.8 1280.3,-255.85 1288.92,-253.97 1317.16,-247.79 1788.84,-256.76 1808.92,-235.97 1819.11,-225.42 1816.34,-215.62 1808.92,-202.97 1801.17,-189.72 1788.05,-180 1774.55,-173"/>
<polygon fill="lightblue" stroke="lightblue" points="1776.14,-169.89 1765.6,-168.81 1773.17,-176.23 1776.14,-169.89"/>
<text text-anchor="middle" x="1829.17" y="-222.67" font-family="Times,serif" font-size="14.00">0</text>
<text text-anchor="middle" x="1829.17" y="-206.17" font-family="Times,serif" font-size="14.00"> &#160;(0s)</text>
</g>
<!-- generator&#45;r9&#45;&gt;filter&#45;r2 -->
<g id="edge23" class="edge">
<title>generator&#45;r9&#45;&gt;filter&#45;r2</title>
<path fill="none" stroke="lightblue" d="M1180.48,-262.04C1172.19,-258.81 1163.41,-255.89 1154.92,-253.97 1115.59,-245.06 827.57,-255.74 792.42,-235.97 791.19,-235.27 775.95,-212.69 762.05,-191.85"/>
<polygon fill="lightblue" stroke="lightblue" points="765.11,-190.13 756.65,-183.75 759.28,-194.01 765.11,-190.13"/>
<text text-anchor="middle" x="807.17" y="-222.67" font-family="Times,serif" font-size="14.00">0</text>
<text text-anchor="middle" x="807.17" y="-206.17" font-family="Times,serif" font-size="14.00"> &#160;(0s)</text>
</g>
<!-- generator&#45;r10 -->
<g id="node7" class="node">
<title>generator&#45;r10</title>
<ellipse fill="lightyellow" stroke="black" cx="811.92" cy="-282.96" rx="63.29" ry="28.99"/>
<text text-anchor="middle" x="811.92" y="-286.16" font-family="Times,serif" font-size="14.00">generator&#45;r10</text>
<text text-anchor="middle" x="811.92" y="-269.66" font-family="Times,serif" font-size="14.00">(0s)</text>
</g>
<!-- generator&#45;r10&#45;&gt;filter&#45;r3 -->
<g id="edge29" class="edge">
<title>generator&#45;r10&#45;&gt;filter&#45;r3</title>
<path fill="none" stroke="lightblue" d="M856.6,-262.22C865.5,-258.97 874.9,-256 883.92,-253.97 938.05,-241.78 1085.76,-265.18 1132.92,-235.97 1147.41,-226.99 1141.43,-215.98 1152.42,-202.97 1157.75,-196.66 1164.01,-190.52 1170.34,-184.88"/>
<polygon fill="lightblue" stroke="lightblue" points="1172.45,-187.68 1177.79,-178.53 1167.91,-182.35 1172.45,-187.68"/>
<text text-anchor="middle" x="1167.17" y="-222.67" font-family="Times,serif" font-size="14.00">0</text>
<text text-anchor="middle" x="1167.17" y="-206.17" font-family="Times,serif" font-size="14.00"> &#160;(0s)</text>
</g>
<!-- generator&#45;r10&#45;&gt;filter&#45;r4 -->
<g id="edge26" class="edge">
<title>generator&#45;r10&#45;&gt;filter&#45;r4</title>
<path fill="none" stroke="lightblue" d="M767.31,-261.93C758.4,-258.7 748.99,-255.81 739.92,-253.97 708.8,-247.62 190.53,-258.78 168.42,-235.97 158.22,-225.43 160.45,-215.28 168.42,-202.97 180.1,-184.94 200.69,-173.91 220.37,-167.19"/>
<polygon fill="lightblue" stroke="lightblue" points="221.17,-170.61 229.7,-164.33 219.11,-163.92 221.17,-170.61"/>
<text text-anchor="middle" x="183.17" y="-222.67" font-family="Times,serif" font-size="14.00">0</text>
<text text-anchor="middle" x="183.17" y="-206.17" font-family="Times,serif" font-size="14.00"> &#160;(0s)</text>
</g>
<!-- generator&#45;r10&#45;&gt;filter&#45;r1 -->
<g id="edge27" class="edge">
<title>generator&#45;r10&#45;&gt;filter&#45;r1</title>
<path fill="none" stroke="lightblue" d="M856.14,-262.01C865.16,-258.73 874.72,-255.8 883.92,-253.97 925.83,-245.6 1616.06,-257.58 1652.92,-235.97 1667.62,-227.35 1661.43,-215.98 1672.42,-202.97 1677.75,-196.66 1684.01,-190.52 1690.34,-184.88"/>
<polygon fill="lightblue" stroke="lightblue" points="1692.45,-187.68 1697.79,-178.53 1687.91,-182.35 1692.45,-187.68"/>
<text text-anchor="middle" x="1686.17" y="-222.67" font-family="Times,serif" font-size="14.00">0</text>
<text text-anchor="middle" x="1686.17" y="-206.17" font-family="Times,serif" font-size="14.00"> &#160;(0s)</text>
</g>
<!-- generator&#45;r10&#45;&gt;filter&#45;r2 -->
<g id="edge28" class="edge">
<title>generator&#45;r10&#45;&gt;filter&#45;r2</title>
<path fill="none" stroke="lightblue" d="M766.29,-262.65C757.64,-259.44 748.58,-256.38 739.92,-253.97 717.43,-247.71 651.45,-253.83 636.42,-235.97 626.98,-224.74 628.45,-215.28 636.42,-202.97 648.1,-184.94 668.69,-173.91 688.37,-167.19"/>
<polygon fill="lightblue" stroke="lightblue" points="689.17,-170.61 697.7,-164.33 687.11,-163.92 689.17,-170.61"/>
<text text-anchor="middle" x="651.17" y="-222.67" font-family="Times,serif" font-size="14.00">0</text>
<text text-anchor="middle" x="651.17" y="-206.17" font-family="Times,serif" font-size="14.00"> &#160;(0s)</text>
</g>
<!-- generator&#45;r1 -->
<g id="node9" class="node">
<title>generator&#45;r1</title>
<ellipse fill="lightyellow" stroke="black" cx="951.92" cy="-282.96" rx="58.51" ry="28.99"/>
<text text-anchor="middle" x="951.92" y="-286.16" font-family="Times,serif" font-size="14.00">generator&#45;r1</text>
<text text-anchor="middle" x="951.92" y="-269.66" font-family="Times,serif" font-size="14.00">(0s)</text>
</g>
<!-- generator&#45;r1&#45;&gt;filter&#45;r3 -->
<g id="edge2" class="edge">
<title>generator&#45;r1&#45;&gt;filter&#45;r3</title>
<path fill="none" stroke="lightblue" d="M993.82,-262.3C1002,-259.08 1010.62,-256.1 1018.92,-253.97 1054.86,-244.72 1156.63,-259.97 1184.92,-235.97 1196.4,-226.23 1202.15,-211.06 1204.95,-196.61"/>
<polygon fill="lightblue" stroke="lightblue" points="1208.4,-197.19 1206.39,-186.78 1201.47,-196.17 1208.4,-197.19"/>
<text text-anchor="middle" x="1218.17" y="-222.67" font-family="Times,serif" font-size="14.00">0</text>
<text text-anchor="middle" x="1218.17" y="-206.17" font-family="Times,serif" font-size="14.00"> &#160;(0s)</text>
</g>
<!-- generator&#45;r1&#45;&gt;filter&#45;r4 -->
<g id="edge3" class="edge">
<title>generator&#45;r1&#45;&gt;filter&#45;r4</title>
<path fill="none" stroke="lightblue" d="M910.61,-262.17C901.97,-258.83 892.79,-255.84 883.92,-253.97 847.85,-246.32 246.14,-262.39 220.42,-235.97 205.89,-221.03 218.53,-201.27 234.79,-185.25"/>
<polygon fill="lightblue" stroke="lightblue" points="236.87,-188.1 241.85,-178.75 232.13,-182.95 236.87,-188.1"/>
<text text-anchor="middle" x="235.17" y="-222.67" font-family="Times,serif" font-size="14.00">0</text>
<text text-anchor="middle" x="235.17" y="-206.17" font-family="Times,serif" font-size="14.00"> &#160;(0s)</text>
</g>
<!-- generator&#45;r1&#45;&gt;filter&#45;r1 -->
<g id="edge4" class="edge">
<title>generator&#45;r1&#45;&gt;filter&#45;r1</title>
<path fill="none" stroke="lightblue" d="M992.97,-262.03C1001.38,-258.74 1010.3,-255.81 1018.92,-253.97 1056.2,-245.98 1674.87,-259.42 1704.92,-235.97 1717,-226.54 1722.81,-211.09 1725.49,-196.34"/>
<polygon fill="lightblue" stroke="lightblue" points="1728.91,-197.19 1726.78,-186.81 1721.97,-196.25 1728.91,-197.19"/>
<text text-anchor="middle" x="1737.17" y="-222.67" font-family="Times,serif" font-size="14.00">0</text>
<text text-anchor="middle" x="1737.17" y="-206.17" font-family="Times,serif" font-size="14.00"> &#160;(0s)</text>
</g>
<!-- generator&#45;r1&#45;&gt;filter&#45;r2 -->
<g id="edge1" class="edge">
<title>generator&#45;r1&#45;&gt;filter&#45;r2</title>
<path fill="none" stroke="lightblue" d="M909.77,-262.34C901.36,-259.07 892.48,-256.07 883.92,-253.97 841.56,-243.55 717.83,-268.2 688.42,-235.97 674.38,-220.57 687.02,-200.81 703.16,-184.91"/>
<polygon fill="lightblue" stroke="lightblue" points="705.17,-187.82 710.15,-178.47 700.43,-182.67 705.17,-187.82"/>
<text text-anchor="middle" x="703.17" y="-222.67" font-family="Times,serif" font-size="14.00">0</text>
<text text-anchor="middle" x="703.17" y="-206.17" font-family="Times,serif" font-size="14.00"> &#160;(0s)</text>
</g>
<!-- filter&#45;r1&#45;&gt;step3&#45;collect -->
<g id="edge42" class="edge">
<title>filter&#45;r1&#45;&gt;step3&#45;collect</title>
<path fill="none" stroke="lightblue" d="M1686.69,-149.11C1550.99,-129.35 1109.06,-64.97 937.7,-40.01"/>
<polygon fill="lightblue" stroke="lightblue" points="938.22,-36.55 927.82,-38.57 937.21,-43.48 938.22,-36.55"/>
<text text-anchor="middle" x="1414.17" y="-95.68" font-family="Times,serif" font-size="14.00">0</text>
<text text-anchor="middle" x="1414.17" y="-79.18" font-family="Times,serif" font-size="14.00"> &#160;(0s)</text>
</g>
<!-- generator&#45;r6 -->
<g id="node11" class="node">
<title>generator&#45;r6</title>
<ellipse fill="lightyellow" stroke="black" cx="1491.92" cy="-282.96" rx="58.51" ry="28.99"/>
<text text-anchor="middle" x="1491.92" y="-286.16" font-family="Times,serif" font-size="14.00">generator&#45;r6</text>
<text text-anchor="middle" x="1491.92" y="-269.66" font-family="Times,serif" font-size="14.00">(0s)</text>
</g>
<!-- generator&#45;r6&#45;&gt;filter&#45;r3 -->
<g id="edge12" class="edge">
<title>generator&#45;r6&#45;&gt;filter&#45;r3</title>
<path fill="none" stroke="lightblue" d="M1453.83,-260.52C1441.59,-253.17 1428.17,-244.61 1416.42,-235.97 1398.54,-222.81 1398.5,-213.44 1378.92,-202.97 1341.06,-182.7 1293.62,-170.88 1258.16,-164.31"/>
<polygon fill="lightblue" stroke="lightblue" points="1259.04,-160.91 1248.59,-162.62 1257.82,-167.81 1259.04,-160.91"/>
<text text-anchor="middle" x="1430.17" y="-222.67" font-family="Times,serif" font-size="14.00">0</text>
<text text-anchor="middle" x="1430.17" y="-206.17" font-family="Times,serif" font-size="14.00"> &#160;(0s)</text>
</g>
<!-- generator&#45;r6&#45;&gt;filter&#45;r4 -->
<g id="edge13" class="edge">
<title>generator&#45;r6&#45;&gt;filter&#45;r4</title>
<path fill="none" stroke="lightblue" d="M1450.89,-261.97C1442.48,-258.69 1433.56,-255.78 1424.92,-253.97 1370.63,-242.57 474.96,-262.84 426.42,-235.97 411.11,-227.49 418.73,-213.73 404.92,-202.97 380.9,-184.25 348.77,-172.88 322,-166.13"/>
<polygon fill="lightblue" stroke="lightblue" points="322.9,-162.74 312.36,-163.85 321.29,-169.55 322.9,-162.74"/>
<text text-anchor="middle" x="441.17" y="-222.67" font-family="Times,serif" font-size="14.00">0</text>
<text text-anchor="middle" x="441.17" y="-206.17" font-family="Times,serif" font-size="14.00"> &#160;(0s)</text>
</g>
<!-- generator&#45;r6&#45;&gt;filter&#45;r1 -->
<g id="edge10" class="edge">
<title>generator&#45;r6&#45;&gt;filter&#45;r1</title>
<path fill="none" stroke="lightblue" d="M1548.51,-275.51C1599.17,-269.77 1675.49,-261.18 1741.92,-253.97 1760.92,-251.9 1900.14,-250.16 1912.92,-235.97 1954.89,-189.35 1847.51,-169.32 1778.92,-161.47"/>
<polygon fill="lightblue" stroke="lightblue" points="1779.68,-158.04 1769.36,-160.44 1778.93,-165 1779.68,-158.04"/>
<text text-anchor="middle" x="1936.17" y="-222.67" font-family="Times,serif" font-size="14.00">0</text>
<text text-anchor="middle" x="1936.17" y="-206.17" font-family="Times,serif" font-size="14.00"> &#160;(0s)</text>
</g>
<!-- generator&#45;r6&#45;&gt;filter&#45;r2 -->
<g id="edge11" class="edge">
<title>generator&#45;r6&#45;&gt;filter&#45;r2</title>
<path fill="none" stroke="lightblue" d="M1450.87,-262.08C1442.46,-258.79 1433.55,-255.85 1424.92,-253.97 1367.52,-241.44 948.18,-263.77 896.42,-235.97 880.56,-227.44 887.35,-213.74 872.92,-202.97 848.52,-184.75 816.38,-173.39 789.69,-166.53"/>
<polygon fill="lightblue" stroke="lightblue" points="790.64,-163.15 780.1,-164.21 789,-169.96 790.64,-163.15"/>
<text text-anchor="middle" x="911.17" y="-222.67" font-family="Times,serif" font-size="14.00">0</text>
<text text-anchor="middle" x="911.17" y="-206.17" font-family="Times,serif" font-size="14.00"> &#160;(0s)</text>
</g>
<!-- generator&#45;r5 -->
<g id="node12" class="node">
<title>generator&#45;r5</title>
<ellipse fill="lightyellow" stroke="black" cx="401.92" cy="-282.96" rx="58.51" ry="28.99"/>
<text text-anchor="middle" x="401.92" y="-286.16" font-family="Times,serif" font-size="14.00">generator&#45;r5</text>
<text text-anchor="middle" x="401.92" y="-269.66" font-family="Times,serif" font-size="14.00">(0s)</text>
</g>
<!-- generator&#45;r5&#45;&gt;filter&#45;r3 -->
<g id="edge20" class="edge">
<title>generator&#45;r5&#45;&gt;filter&#45;r3</title>
<path fill="none" stroke="lightblue" d="M442.98,-262.09C451.39,-258.8 460.3,-255.85 468.92,-253.97 524.1,-241.88 928.37,-264.82 976.92,-235.97 991.57,-227.26 982.62,-212.95 996.42,-202.97 1042.71,-169.49 1108.68,-159.59 1154.38,-157.05"/>
<polygon fill="lightblue" stroke="lightblue" points="1154.48,-160.54 1164.31,-156.61 1154.17,-153.55 1154.48,-160.54"/>
<text text-anchor="middle" x="1011.17" y="-222.67" font-family="Times,serif" font-size="14.00">0</text>
<text text-anchor="middle" x="1011.17" y="-206.17" font-family="Times,serif" font-size="14.00"> &#160;(0s)</text>
</g>
<!-- generator&#45;r5&#45;&gt;filter&#45;r4 -->
<g id="edge21" class="edge">
<title>generator&#45;r5&#45;&gt;filter&#45;r4</title>
<path fill="none" stroke="lightblue" d="M343.52,-279.27C240.21,-273.91 34.03,-260.27 12.42,-235.97 -47.22,-168.86 126.66,-157.94 218.33,-156.7"/>
<polygon fill="lightblue" stroke="lightblue" points="218.14,-160.2 228.11,-156.61 218.07,-153.21 218.14,-160.2"/>
<text text-anchor="middle" x="27.17" y="-222.67" font-family="Times,serif" font-size="14.00">0</text>
<text text-anchor="middle" x="27.17" y="-206.17" font-family="Times,serif" font-size="14.00"> &#160;(0s)</text>
</g>
<!-- generator&#45;r5&#45;&gt;filter&#45;r1 -->
<g id="edge18" class="edge">
<title>generator&#45;r5&#45;&gt;filter&#45;r1</title>
<path fill="none" stroke="lightblue" d="M442.96,-261.97C451.36,-258.69 460.29,-255.78 468.92,-253.97 524.83,-242.25 1447.56,-264.71 1496.92,-235.97 1511.65,-227.39 1502.62,-212.95 1516.42,-202.97 1562.71,-169.49 1628.68,-159.59 1674.38,-157.05"/>
<polygon fill="lightblue" stroke="lightblue" points="1674.48,-160.54 1684.31,-156.61 1674.17,-153.55 1674.48,-160.54"/>
<text text-anchor="middle" x="1530.17" y="-222.67" font-family="Times,serif" font-size="14.00">0</text>
<text text-anchor="middle" x="1530.17" y="-206.17" font-family="Times,serif" font-size="14.00"> &#160;(0s)</text>
</g>
<!-- generator&#45;r5&#45;&gt;filter&#45;r2 -->
<g id="edge19" class="edge">
<title>generator&#45;r5&#45;&gt;filter&#45;r2</title>
<path fill="none" stroke="lightblue" d="M431.28,-257.49C457.69,-235.66 493.53,-206.59 501.42,-202.97 561.3,-175.42 637.01,-164.37 686.64,-159.93"/>
<polygon fill="lightblue" stroke="lightblue" points="686.87,-163.43 696.55,-159.11 686.29,-156.45 686.87,-163.43"/>
<text text-anchor="middle" x="516.17" y="-222.67" font-family="Times,serif" font-size="14.00">0</text>
<text text-anchor="middle" x="516.17" y="-206.17" font-family="Times,serif" font-size="14.00"> &#160;(0s)</text>
</g>
<!-- generator&#45;r8 -->
<g id="node13" class="node">
<title>generator&#45;r8</title>
<ellipse fill="lightyellow" stroke="black" cx="1356.92" cy="-282.96" rx="58.51" ry="28.99"/>
<text text-anchor="middle" x="1356.92" y="-286.16" font-family="Times,serif" font-size="14.00">generator&#45;r8</text>
<text text-anchor="middle" x="1356.92" y="-269.66" font-family="Times,serif" font-size="14.00">(0s)</text>
</g>
<!-- generator&#45;r8&#45;&gt;filter&#45;r3 -->
<g id="edge41" class="edge">
<title>generator&#45;r8&#45;&gt;filter&#45;r3</title>
<path fill="none" stroke="lightblue" d="M1352.16,-253.58C1348.03,-236.94 1340.49,-216.57 1326.92,-202.97 1308.36,-184.35 1281.46,-173.12 1257.83,-166.43"/>
<polygon fill="lightblue" stroke="lightblue" points="1258.93,-163.1 1248.37,-163.97 1257.16,-169.87 1258.93,-163.1"/>
<text text-anchor="middle" x="1360.17" y="-222.67" font-family="Times,serif" font-size="14.00">0</text>
<text text-anchor="middle" x="1360.17" y="-206.17" font-family="Times,serif" font-size="14.00"> &#160;(0s)</text>
</g>
<!-- generator&#45;r8&#45;&gt;filter&#45;r4 -->
<g id="edge38" class="edge">
<title>generator&#45;r8&#45;&gt;filter&#45;r4</title>
<path fill="none" stroke="lightblue" d="M1315.89,-261.98C1307.48,-258.7 1298.56,-255.79 1289.92,-253.97 1240.26,-243.5 421.31,-259.67 376.42,-235.97 360.5,-227.56 366.32,-214.99 352.92,-202.97 341.9,-193.07 328.39,-184.41 315.54,-177.36"/>
<polygon fill="lightblue" stroke="lightblue" points="317.26,-174.3 306.78,-172.75 314,-180.5 317.26,-174.3"/>
<text text-anchor="middle" x="391.17" y="-222.67" font-family="Times,serif" font-size="14.00">0</text>
<text text-anchor="middle" x="391.17" y="-206.17" font-family="Times,serif" font-size="14.00"> &#160;(0s)</text>
</g>
<!-- generator&#45;r8&#45;&gt;filter&#45;r1 -->
<g id="edge39" class="edge">
<title>generator&#45;r8&#45;&gt;filter&#45;r1</title>
<path fill="none" stroke="lightblue" d="M1398.35,-261.99C1406.65,-258.75 1415.43,-255.85 1423.92,-253.97 1447.65,-248.7 1844.1,-253.5 1860.92,-235.97 1871.08,-225.38 1869.45,-214.9 1860.92,-202.97 1842.44,-177.08 1808.43,-165.61 1779.3,-160.6"/>
<polygon fill="lightblue" stroke="lightblue" points="1779.91,-157.15 1769.5,-159.15 1778.88,-164.07 1779.91,-157.15"/>
<text text-anchor="middle" x="1882.17" y="-222.67" font-family="Times,serif" font-size="14.00">0</text>
<text text-anchor="middle" x="1882.17" y="-206.17" font-family="Times,serif" font-size="14.00"> &#160;(0s)</text>
</g>
<!-- generator&#45;r8&#45;&gt;filter&#45;r2 -->
<g id="edge40" class="edge">
<title>generator&#45;r8&#45;&gt;filter&#45;r2</title>
<path fill="none" stroke="lightblue" d="M1315.5,-261.98C1307.2,-258.75 1298.42,-255.85 1289.92,-253.97 1241.56,-243.25 887.99,-259.55 844.42,-235.97 828.59,-227.39 834.32,-214.99 820.92,-202.97 809.9,-193.07 796.39,-184.41 783.54,-177.36"/>
<polygon fill="lightblue" stroke="lightblue" points="785.26,-174.3 774.78,-172.75 782,-180.5 785.26,-174.3"/>
<text text-anchor="middle" x="859.17" y="-222.67" font-family="Times,serif" font-size="14.00">0</text>
<text text-anchor="middle" x="859.17" y="-206.17" font-family="Times,serif" font-size="14.00"> &#160;(0s)</text>
</g>
<!-- filter&#45;r2&#45;&gt;step3&#45;collect -->
<g id="edge5" class="edge">
<title>filter&#45;r2&#45;&gt;step3&#45;collect</title>
<path fill="none" stroke="lightblue" d="M762.77,-132.05C782.88,-112.72 811.91,-84.81 834.53,-63.06"/>
<polygon fill="lightblue" stroke="lightblue" points="836.67,-65.85 841.46,-56.4 831.82,-60.81 836.67,-65.85"/>
<text text-anchor="middle" x="834.17" y="-95.68" font-family="Times,serif" font-size="14.00">0</text>
<text text-anchor="middle" x="834.17" y="-79.18" font-family="Times,serif" font-size="14.00"> &#160;(0s)</text>
</g>
<!-- generator&#45;r4 -->
<g id="node15" class="node">
<title>generator&#45;r4</title>
<ellipse fill="lightyellow" stroke="black" cx="536.92" cy="-282.96" rx="58.51" ry="28.99"/>
<text text-anchor="middle" x="536.92" y="-286.16" font-family="Times,serif" font-size="14.00">generator&#45;r4</text>
<text text-anchor="middle" x="536.92" y="-269.66" font-family="Times,serif" font-size="14.00">(0s)</text>
</g>
<!-- generator&#45;r4&#45;&gt;filter&#45;r3 -->
<g id="edge8" class="edge">
<title>generator&#45;r4&#45;&gt;filter&#45;r3</title>
<path fill="none" stroke="lightblue" d="M578.36,-262C586.65,-258.76 595.43,-255.86 603.92,-253.97 650.06,-243.7 988.38,-260.25 1028.92,-235.97 1043.54,-227.21 1034.96,-213.41 1048.42,-202.97 1079,-179.24 1121.44,-167.75 1154.71,-162.19"/>
<polygon fill="lightblue" stroke="lightblue" points="1155.2,-165.65 1164.56,-160.68 1154.15,-158.73 1155.2,-165.65"/>
<text text-anchor="middle" x="1063.17" y="-222.67" font-family="Times,serif" font-size="14.00">0</text>
<text text-anchor="middle" x="1063.17" y="-206.17" font-family="Times,serif" font-size="14.00"> &#160;(0s)</text>
</g>
<!-- generator&#45;r4&#45;&gt;filter&#45;r4 -->
<g id="edge9" class="edge">
<title>generator&#45;r4&#45;&gt;filter&#45;r4</title>
<path fill="none" stroke="lightblue" d="M495.49,-262.01C487.19,-258.77 478.41,-255.86 469.92,-253.97 425.91,-244.12 95.6,-268.56 64.42,-235.97 15.84,-185.18 142.39,-166.63 218.41,-160.19"/>
<polygon fill="lightblue" stroke="lightblue" points="218.49,-163.69 228.18,-159.41 217.93,-156.71 218.49,-163.69"/>
<text text-anchor="middle" x="79.17" y="-222.67" font-family="Times,serif" font-size="14.00">0</text>
<text text-anchor="middle" x="79.17" y="-206.17" font-family="Times,serif" font-size="14.00"> &#160;(0s)</text>
</g>
<!-- generator&#45;r4&#45;&gt;filter&#45;r1 -->
<g id="edge6" class="edge">
<title>generator&#45;r4&#45;&gt;filter&#45;r1</title>
<path fill="none" stroke="lightblue" d="M577.96,-261.98C586.37,-258.7 595.29,-255.78 603.92,-253.97 655.31,-243.15 1503.57,-262.42 1548.92,-235.97 1563.64,-227.38 1554.96,-213.41 1568.42,-202.97 1599,-179.24 1641.44,-167.75 1674.71,-162.19"/>
<polygon fill="lightblue" stroke="lightblue" points="1675.2,-165.65 1684.56,-160.68 1674.15,-158.73 1675.2,-165.65"/>
<text text-anchor="middle" x="1582.17" y="-222.67" font-family="Times,serif" font-size="14.00">0</text>
<text text-anchor="middle" x="1582.17" y="-206.17" font-family="Times,serif" font-size="14.00"> &#160;(0s)</text>
</g>
<!-- generator&#45;r4&#45;&gt;filter&#45;r2 -->
<g id="edge7" class="edge">
<title>generator&#45;r4&#45;&gt;filter&#45;r2</title>
<path fill="none" stroke="lightblue" d="M532.91,-253.89C532.15,-237.15 534.29,-216.58 546.42,-202.97 564.88,-182.26 636.6,-169.38 687.07,-162.69"/>
<polygon fill="lightblue" stroke="lightblue" points="687.47,-166.17 696.95,-161.43 686.58,-159.22 687.47,-166.17"/>
<text text-anchor="middle" x="561.17" y="-222.67" font-family="Times,serif" font-size="14.00">0</text>
<text text-anchor="middle" x="561.17" y="-206.17" font-family="Times,serif" font-size="14.00"> &#160;(0s)</text>
</g>
</g>
</svg>
