<?xml version="1.0" encoding="UTF-8" standalone="no"?>
<!DOCTYPE svg PUBLIC "-//W3C//DTD SVG 1.1//EN"
 "http://www.w3.org/Graphics/SVG/1.1/DTD/svg11.dtd">
<!-- Generated by graphviz version 9.0.0 (20230911.1827)
 -->
<!-- Pages: 1 -->
<svg width="5337pt" height="344pt"
 viewBox="0.00 0.00 5336.58 344.45" xmlns="http://www.w3.org/2000/svg" xmlns:xlink="http://www.w3.org/1999/xlink">
<g id="graph0" class="graph" transform="scale(1 1) rotate(0) translate(4 340.45)">
<polygon fill="white" stroke="none" points="-4,4 -4,-340.45 5332.58,-340.45 5332.58,4 -4,4"/>
<text text-anchor="middle" x="2664.29" y="-319.15" font-family="Times,serif" font-size="14.00">Network Uptime: 1m4.363719833s</text>
<!-- generator&#45;r1 -->
<g id="node1" class="node">
<title>generator&#45;r1</title>
<ellipse fill="lightyellow" stroke="black" cx="2267.58" cy="-282.96" rx="84.5" ry="28.99"/>
<text text-anchor="middle" x="2267.58" y="-286.16" font-family="Times,serif" font-size="14.00">generator&#45;r1</text>
<text text-anchor="middle" x="2267.58" y="-269.66" font-family="Times,serif" font-size="14.00">(1m4.363510208s)</text>
</g>
<!-- filter&#45;r1 -->
<g id="node7" class="node">
<title>filter&#45;r1</title>
<ellipse fill="none" stroke="black" cx="3088.58" cy="-155.97" rx="84.5" ry="28.99"/>
<text text-anchor="middle" x="3088.58" y="-159.17" font-family="Times,serif" font-size="14.00">filter&#45;r1</text>
<text text-anchor="middle" x="3088.58" y="-142.67" font-family="Times,serif" font-size="14.00">(1m4.363572792s)</text>
</g>
<!-- generator&#45;r1&#45;&gt;filter&#45;r1 -->
<g id="edge33" class="edge">
<title>generator&#45;r1&#45;&gt;filter&#45;r1</title>
<path fill="none" stroke="lightblue" d="M2343.83,-270.06C2382.34,-264.43 2429.85,-258.06 2472.58,-253.97 2508.69,-250.51 2767.69,-254.98 2798.58,-235.97 2812.99,-227.09 2803.69,-212.64 2817.58,-202.97 2845.85,-183.28 2928.45,-171.17 2995.09,-164.35"/>
<polygon fill="lightblue" stroke="lightblue" points="2995.37,-167.84 3004.98,-163.37 2994.68,-160.87 2995.37,-167.84"/>
<text text-anchor="middle" x="2873.08" y="-222.67" font-family="Times,serif" font-size="14.00">1383994</text>
<text text-anchor="middle" x="2873.08" y="-206.17" font-family="Times,serif" font-size="14.00"> &#160;(1m4.363496792s)</text>
</g>
<!-- filter&#45;r2 -->
<g id="node11" class="node">
<title>filter&#45;r2</title>
<ellipse fill="none" stroke="black" cx="676.58" cy="-155.97" rx="84.5" ry="28.99"/>
<text text-anchor="middle" x="676.58" y="-159.17" font-family="Times,serif" font-size="14.00">filter&#45;r2</text>
<text text-anchor="middle" x="676.58" y="-142.67" font-family="Times,serif" font-size="14.00">(1m4.363660791s)</text>
</g>
<!-- generator&#45;r1&#45;&gt;filter&#45;r2 -->
<g id="edge34" class="edge">
<title>generator&#45;r1&#45;&gt;filter&#45;r2</title>
<path fill="none" stroke="lightblue" d="M2187.57,-273.17C2123.55,-266.55 2031.42,-257.96 1950.58,-253.97 1927.34,-252.82 291.94,-252.5 275.58,-235.97 265.26,-225.54 265.82,-213.91 275.58,-202.97 295.62,-180.5 469.45,-167.47 581.57,-161.33"/>
<polygon fill="lightblue" stroke="lightblue" points="581.59,-164.84 591.38,-160.81 581.21,-157.85 581.59,-164.84"/>
<text text-anchor="middle" x="331.08" y="-222.67" font-family="Times,serif" font-size="14.00">1385474</text>
<text text-anchor="middle" x="331.08" y="-206.17" font-family="Times,serif" font-size="14.00"> &#160;(1m4.363577583s)</text>
</g>
<!-- filter&#45;r3 -->
<g id="node14" class="node">
<title>filter&#45;r3</title>
<ellipse fill="none" stroke="black" cx="4428.58" cy="-155.97" rx="84.5" ry="28.99"/>
<text text-anchor="middle" x="4428.58" y="-159.17" font-family="Times,serif" font-size="14.00">filter&#45;r3</text>
<text text-anchor="middle" x="4428.58" y="-142.67" font-family="Times,serif" font-size="14.00">(1m4.363628708s)</text>
</g>
<!-- generator&#45;r1&#45;&gt;filter&#45;r3 -->
<g id="edge35" class="edge">
<title>generator&#45;r1&#45;&gt;filter&#45;r3</title>
<path fill="none" stroke="lightblue" d="M2342.8,-269.4C2381.46,-263.52 2429.41,-257.13 2472.58,-253.97 2518.74,-250.58 4098.64,-259.35 4138.58,-235.97 4153.18,-227.42 4143.69,-212.64 4157.58,-202.97 4185.85,-183.28 4268.45,-171.17 4335.09,-164.35"/>
<polygon fill="lightblue" stroke="lightblue" points="4335.37,-167.84 4344.98,-163.37 4334.68,-160.87 4335.37,-167.84"/>
<text text-anchor="middle" x="4213.08" y="-222.67" font-family="Times,serif" font-size="14.00">1384541</text>
<text text-anchor="middle" x="4213.08" y="-206.17" font-family="Times,serif" font-size="14.00"> &#160;(1m4.363549708s)</text>
</g>
<!-- filter&#45;r4 -->
<g id="node15" class="node">
<title>filter&#45;r4</title>
<ellipse fill="none" stroke="black" cx="1882.58" cy="-155.97" rx="84.5" ry="28.99"/>
<text text-anchor="middle" x="1882.58" y="-159.17" font-family="Times,serif" font-size="14.00">filter&#45;r4</text>
<text text-anchor="middle" x="1882.58" y="-142.67" font-family="Times,serif" font-size="14.00">(1m4.363536541s)</text>
</g>
<!-- generator&#45;r1&#45;&gt;filter&#45;r4 -->
<g id="edge36" class="edge">
<title>generator&#45;r1&#45;&gt;filter&#45;r4</title>
<path fill="none" stroke="lightblue" d="M2186.88,-273.72C2122.87,-267.45 2031.08,-259.06 1950.58,-253.97 1924.56,-252.32 1499.66,-254.75 1481.58,-235.97 1471.41,-225.4 1471.82,-213.91 1481.58,-202.97 1501.62,-180.5 1675.45,-167.47 1787.57,-161.33"/>
<polygon fill="lightblue" stroke="lightblue" points="1787.59,-164.84 1797.38,-160.81 1787.21,-157.85 1787.59,-164.84"/>
<text text-anchor="middle" x="1537.08" y="-222.67" font-family="Times,serif" font-size="14.00">1384478</text>
<text text-anchor="middle" x="1537.08" y="-206.17" font-family="Times,serif" font-size="14.00"> &#160;(1m4.363459083s)</text>
</g>
<!-- generator&#45;r2 -->
<g id="node2" class="node">
<title>generator&#45;r2</title>
<ellipse fill="lightyellow" stroke="black" cx="3023.58" cy="-282.96" rx="84.5" ry="28.99"/>
<text text-anchor="middle" x="3023.58" y="-286.16" font-family="Times,serif" font-size="14.00">generator&#45;r2</text>
<text text-anchor="middle" x="3023.58" y="-269.66" font-family="Times,serif" font-size="14.00">(1m4.363513917s)</text>
</g>
<!-- generator&#45;r2&#45;&gt;filter&#45;r1 -->
<g id="edge28" class="edge">
<title>generator&#45;r2&#45;&gt;filter&#45;r1</title>
<path fill="none" stroke="lightblue" d="M3090.21,-264.67C3140.37,-251.66 3200.52,-236.04 3200.58,-235.97 3209.55,-224.36 3208.75,-215.15 3200.58,-202.97 3193.03,-191.71 3182.19,-183.21 3170.18,-176.79"/>
<polygon fill="lightblue" stroke="lightblue" points="3171.77,-173.67 3161.24,-172.52 3168.76,-179.98 3171.77,-173.67"/>
<text text-anchor="middle" x="3263.08" y="-222.67" font-family="Times,serif" font-size="14.00">1367244</text>
<text text-anchor="middle" x="3263.08" y="-206.17" font-family="Times,serif" font-size="14.00"> &#160;(1m4.363504542s)</text>
</g>
<!-- generator&#45;r2&#45;&gt;filter&#45;r2 -->
<g id="edge29" class="edge">
<title>generator&#45;r2&#45;&gt;filter&#45;r2</title>
<path fill="none" stroke="lightblue" d="M2958.19,-264.2C2940,-260.02 2920.14,-256.14 2901.58,-253.97 2870.9,-250.37 699.47,-257.76 677.58,-235.97 667.38,-225.81 665.37,-210.71 666.56,-196.42"/>
<polygon fill="lightblue" stroke="lightblue" points="669.99,-197.13 667.89,-186.74 663.06,-196.17 669.99,-197.13"/>
<text text-anchor="middle" x="733.08" y="-222.67" font-family="Times,serif" font-size="14.00">1366914</text>
<text text-anchor="middle" x="733.08" y="-206.17" font-family="Times,serif" font-size="14.00"> &#160;(1m4.363585333s)</text>
</g>
<!-- generator&#45;r2&#45;&gt;filter&#45;r3 -->
<g id="edge30" class="edge">
<title>generator&#45;r2&#45;&gt;filter&#45;r3</title>
<path fill="none" stroke="lightblue" d="M3086.18,-263.02C3100.93,-259.31 3116.7,-255.96 3131.58,-253.97 3170.37,-248.77 4513.08,-263.82 4540.58,-235.97 4550.88,-225.53 4548.75,-215.15 4540.58,-202.97 4533.03,-191.71 4522.19,-183.21 4510.18,-176.79"/>
<polygon fill="lightblue" stroke="lightblue" points="4511.77,-173.67 4501.24,-172.52 4508.76,-179.98 4511.77,-173.67"/>
<text text-anchor="middle" x="4602.08" y="-222.67" font-family="Times,serif" font-size="14.00">1368524</text>
<text text-anchor="middle" x="4602.08" y="-206.17" font-family="Times,serif" font-size="14.00"> &#160;(1m4.363557458s)</text>
</g>
<!-- generator&#45;r2&#45;&gt;filter&#45;r4 -->
<g id="edge31" class="edge">
<title>generator&#45;r2&#45;&gt;filter&#45;r4</title>
<path fill="none" stroke="lightblue" d="M2958.17,-264.32C2939.98,-260.14 2920.13,-256.23 2901.58,-253.97 2873.51,-250.53 1903.53,-256.01 1883.58,-235.97 1873.43,-225.76 1871.43,-210.65 1872.61,-196.37"/>
<polygon fill="lightblue" stroke="lightblue" points="1876.04,-197.08 1873.93,-186.7 1869.11,-196.13 1876.04,-197.08"/>
<text text-anchor="middle" x="1939.08" y="-222.67" font-family="Times,serif" font-size="14.00">1368949</text>
<text text-anchor="middle" x="1939.08" y="-206.17" font-family="Times,serif" font-size="14.00"> &#160;(1m4.363466833s)</text>
</g>
<!-- generator&#45;r9 -->
<g id="node3" class="node">
<title>generator&#45;r9</title>
<ellipse fill="lightyellow" stroke="black" cx="3773.58" cy="-282.96" rx="60.63" ry="28.99"/>
<text text-anchor="middle" x="3773.58" y="-286.16" font-family="Times,serif" font-size="14.00">generator&#45;r9</text>
<text text-anchor="middle" x="3773.58" y="-269.66" font-family="Times,serif" font-size="14.00">(1m4.3636s)</text>
</g>
<!-- generator&#45;r9&#45;&gt;filter&#45;r1 -->
<g id="edge6" class="edge">
<title>generator&#45;r9&#45;&gt;filter&#45;r1</title>
<path fill="none" stroke="lightblue" d="M3834.54,-282.13C4086.18,-282.55 5032.98,-281.13 5076.58,-235.97 5086.77,-225.41 5086.83,-213.46 5076.58,-202.97 5075.53,-201.89 3581.32,-168.1 3184.42,-159.14"/>
<polygon fill="lightblue" stroke="lightblue" points="3184.59,-155.64 3174.51,-158.91 3184.43,-162.64 3184.59,-155.64"/>
<text text-anchor="middle" x="5139.08" y="-222.67" font-family="Times,serif" font-size="14.00">1405422</text>
<text text-anchor="middle" x="5139.08" y="-206.17" font-family="Times,serif" font-size="14.00"> &#160;(1m4.363509542s)</text>
</g>
<!-- generator&#45;r9&#45;&gt;filter&#45;r2 -->
<g id="edge7" class="edge">
<title>generator&#45;r9&#45;&gt;filter&#45;r2</title>
<path fill="none" stroke="lightblue" d="M3730.15,-262.22C3720.9,-258.83 3711.06,-255.81 3701.58,-253.97 3666.51,-247.13 2446.38,-254.06 2415.58,-235.97 2400.99,-227.39 2411.12,-211.63 2396.58,-202.97 2392.18,-200.35 1133.77,-168.48 772.5,-159.38"/>
<polygon fill="lightblue" stroke="lightblue" points="772.65,-155.89 762.56,-159.13 772.47,-162.88 772.65,-155.89"/>
<text text-anchor="middle" x="2471.08" y="-222.67" font-family="Times,serif" font-size="14.00">1406024</text>
<text text-anchor="middle" x="2471.08" y="-206.17" font-family="Times,serif" font-size="14.00"> &#160;(1m4.363590333s)</text>
</g>
<!-- generator&#45;r9&#45;&gt;filter&#45;r3 -->
<g id="edge8" class="edge">
<title>generator&#45;r9&#45;&gt;filter&#45;r3</title>
<path fill="none" stroke="lightblue" d="M3834.38,-282.34C4101.78,-283.74 5162.04,-286.09 5210.58,-235.97 5220.78,-225.43 5220.64,-213.64 5210.58,-202.97 5187.37,-178.35 4727.77,-164.22 4524.2,-159.14"/>
<polygon fill="lightblue" stroke="lightblue" points="4524.54,-155.65 4514.45,-158.9 4524.36,-162.64 4524.54,-155.65"/>
<text text-anchor="middle" x="5273.08" y="-222.67" font-family="Times,serif" font-size="14.00">1404370</text>
<text text-anchor="middle" x="5273.08" y="-206.17" font-family="Times,serif" font-size="14.00"> &#160;(1m4.363562458s)</text>
</g>
<!-- generator&#45;r9&#45;&gt;filter&#45;r4 -->
<g id="edge5" class="edge">
<title>generator&#45;r9&#45;&gt;filter&#45;r4</title>
<path fill="none" stroke="lightblue" d="M3758.76,-254.69C3747.2,-236.44 3729.29,-213.83 3706.58,-202.97 3706.58,-202.97 2353.8,-168.86 1978.25,-159.39"/>
<polygon fill="lightblue" stroke="lightblue" points="1978.49,-155.89 1968.41,-159.14 1978.32,-162.89 1978.49,-155.89"/>
<text text-anchor="middle" x="3800.08" y="-222.67" font-family="Times,serif" font-size="14.00">1405302</text>
<text text-anchor="middle" x="3800.08" y="-206.17" font-family="Times,serif" font-size="14.00"> &#160;(1m4.363471833s)</text>
</g>
<!-- generator&#45;r10 -->
<g id="node4" class="node">
<title>generator&#45;r10</title>
<ellipse fill="lightyellow" stroke="black" cx="3224.58" cy="-282.96" rx="84.5" ry="28.99"/>
<text text-anchor="middle" x="3224.58" y="-286.16" font-family="Times,serif" font-size="14.00">generator&#45;r10</text>
<text text-anchor="middle" x="3224.58" y="-269.66" font-family="Times,serif" font-size="14.00">(1m4.363569541s)</text>
</g>
<!-- generator&#45;r10&#45;&gt;filter&#45;r1 -->
<g id="edge12" class="edge">
<title>generator&#45;r10&#45;&gt;filter&#45;r1</title>
<path fill="none" stroke="lightblue" d="M3289.43,-264.12C3302.55,-257.44 3314.72,-248.34 3322.58,-235.97 3330.44,-223.59 3331.9,-214.29 3322.58,-202.97 3304.67,-181.2 3239.61,-169.57 3182.62,-163.46"/>
<polygon fill="lightblue" stroke="lightblue" points="3183.16,-160 3172.85,-162.46 3182.44,-166.96 3183.16,-160"/>
<text text-anchor="middle" x="3385.08" y="-222.67" font-family="Times,serif" font-size="14.00">1397620</text>
<text text-anchor="middle" x="3385.08" y="-206.17" font-family="Times,serif" font-size="14.00"> &#160;(1m4.363523625s)</text>
</g>
<!-- generator&#45;r10&#45;&gt;filter&#45;r2 -->
<g id="edge9" class="edge">
<title>generator&#45;r10&#45;&gt;filter&#45;r2</title>
<path fill="none" stroke="lightblue" d="M3162.27,-263.03C3147.44,-259.3 3131.56,-255.93 3116.58,-253.97 3053.1,-245.62 868.23,-265.81 811.58,-235.97 795.76,-227.63 802.53,-214.15 788.58,-202.97 777.14,-193.8 763.63,-186.21 750.02,-180.03"/>
<polygon fill="lightblue" stroke="lightblue" points="751.58,-176.89 741.01,-176.16 748.82,-183.32 751.58,-176.89"/>
<text text-anchor="middle" x="867.08" y="-222.67" font-family="Times,serif" font-size="14.00">1394685</text>
<text text-anchor="middle" x="867.08" y="-206.17" font-family="Times,serif" font-size="14.00"> &#160;(1m4.363604416s)</text>
</g>
<!-- generator&#45;r10&#45;&gt;filter&#45;r3 -->
<g id="edge10" class="edge">
<title>generator&#45;r10&#45;&gt;filter&#45;r3</title>
<path fill="none" stroke="lightblue" d="M3285.2,-262.45C3298.38,-258.97 3312.34,-255.86 3325.58,-253.97 3362.68,-248.67 4648.26,-262.64 4674.58,-235.97 4725.64,-184.22 4613.46,-166.33 4524.26,-160.17"/>
<polygon fill="lightblue" stroke="lightblue" points="4524.67,-156.69 4514.46,-159.54 4524.22,-163.68 4524.67,-156.69"/>
<text text-anchor="middle" x="4742.08" y="-222.67" font-family="Times,serif" font-size="14.00">1395696</text>
<text text-anchor="middle" x="4742.08" y="-206.17" font-family="Times,serif" font-size="14.00"> &#160;(1m4.363576541s)</text>
</g>
<!-- generator&#45;r10&#45;&gt;filter&#45;r4 -->
<g id="edge11" class="edge">
<title>generator&#45;r10&#45;&gt;filter&#45;r4</title>
<path fill="none" stroke="lightblue" d="M3161.98,-263.05C3147.22,-259.35 3131.45,-255.99 3116.58,-253.97 3056.07,-245.75 2071.48,-264.66 2017.58,-235.97 2001.8,-227.56 2008.53,-214.15 1994.58,-202.97 1983.14,-193.8 1969.63,-186.21 1956.02,-180.03"/>
<polygon fill="lightblue" stroke="lightblue" points="1957.58,-176.89 1947.01,-176.16 1954.82,-183.32 1957.58,-176.89"/>
<text text-anchor="middle" x="2073.08" y="-222.67" font-family="Times,serif" font-size="14.00">1394636</text>
<text text-anchor="middle" x="2073.08" y="-206.17" font-family="Times,serif" font-size="14.00"> &#160;(1m4.363485916s)</text>
</g>
<!-- step3&#45;collect -->
<g id="node5" class="node">
<title>step3&#45;collect</title>
<ellipse fill="none" stroke="black" cx="2217.58" cy="-28.99" rx="84.5" ry="28.99"/>
<text text-anchor="middle" x="2217.58" y="-32.19" font-family="Times,serif" font-size="14.00">step3&#45;collect</text>
<text text-anchor="middle" x="2217.58" y="-15.69" font-family="Times,serif" font-size="14.00">(1m4.363624833s)</text>
</g>
<!-- generator&#45;r6 -->
<g id="node6" class="node">
<title>generator&#45;r6</title>
<ellipse fill="lightyellow" stroke="black" cx="2565.58" cy="-282.96" rx="84.5" ry="28.99"/>
<text text-anchor="middle" x="2565.58" y="-286.16" font-family="Times,serif" font-size="14.00">generator&#45;r6</text>
<text text-anchor="middle" x="2565.58" y="-269.66" font-family="Times,serif" font-size="14.00">(1m4.363580416s)</text>
</g>
<!-- generator&#45;r6&#45;&gt;filter&#45;r1 -->
<g id="edge40" class="edge">
<title>generator&#45;r6&#45;&gt;filter&#45;r1</title>
<path fill="none" stroke="lightblue" d="M2637.06,-267.08C2661.84,-262.34 2689.85,-257.42 2715.58,-253.97 2763.54,-247.52 2891.73,-261.9 2932.58,-235.97 2946.87,-226.9 2938.48,-213.69 2951.58,-202.97 2966.98,-190.35 2986.01,-181.14 3004.92,-174.43"/>
<polygon fill="lightblue" stroke="lightblue" points="3005.87,-177.8 3014.27,-171.33 3003.67,-171.15 3005.87,-177.8"/>
<text text-anchor="middle" x="3007.08" y="-222.67" font-family="Times,serif" font-size="14.00">1374404</text>
<text text-anchor="middle" x="3007.08" y="-206.17" font-family="Times,serif" font-size="14.00"> &#160;(1m4.363502625s)</text>
</g>
<!-- generator&#45;r6&#45;&gt;filter&#45;r2 -->
<g id="edge37" class="edge">
<title>generator&#45;r6&#45;&gt;filter&#45;r2</title>
<path fill="none" stroke="lightblue" d="M2490.36,-269.37C2451.7,-263.48 2403.75,-257.1 2360.58,-253.97 2333.55,-252 428.65,-255.22 409.58,-235.97 352.96,-178.82 482.77,-162.59 580.57,-158.23"/>
<polygon fill="lightblue" stroke="lightblue" points="580.65,-161.73 590.5,-157.83 580.37,-154.74 580.65,-161.73"/>
<text text-anchor="middle" x="465.08" y="-222.67" font-family="Times,serif" font-size="14.00">1375238</text>
<text text-anchor="middle" x="465.08" y="-206.17" font-family="Times,serif" font-size="14.00"> &#160;(1m4.363583416s)</text>
</g>
<!-- generator&#45;r6&#45;&gt;filter&#45;r3 -->
<g id="edge38" class="edge">
<title>generator&#45;r6&#45;&gt;filter&#45;r3</title>
<path fill="none" stroke="lightblue" d="M2635.43,-266.33C2660.56,-261.4 2689.21,-256.56 2715.58,-253.97 2758.62,-249.73 4235.26,-257.83 4272.58,-235.97 4287.18,-227.41 4278.48,-213.69 4291.58,-202.97 4306.98,-190.35 4326.01,-181.14 4344.92,-174.43"/>
<polygon fill="lightblue" stroke="lightblue" points="4345.87,-177.8 4354.27,-171.33 4343.67,-171.15 4345.87,-177.8"/>
<text text-anchor="middle" x="4347.08" y="-222.67" font-family="Times,serif" font-size="14.00">1375306</text>
<text text-anchor="middle" x="4347.08" y="-206.17" font-family="Times,serif" font-size="14.00"> &#160;(1m4.363555541s)</text>
</g>
<!-- generator&#45;r6&#45;&gt;filter&#45;r4 -->
<g id="edge39" class="edge">
<title>generator&#45;r6&#45;&gt;filter&#45;r4</title>
<path fill="none" stroke="lightblue" d="M2489.86,-269.56C2451.28,-263.77 2403.55,-257.41 2360.58,-253.97 2339.94,-252.31 1630.04,-250.78 1615.58,-235.97 1559.47,-178.48 1688.7,-162.34 1786.3,-158.09"/>
<polygon fill="lightblue" stroke="lightblue" points="1786.36,-161.59 1796.22,-157.7 1786.09,-154.6 1786.36,-161.59"/>
<text text-anchor="middle" x="1671.08" y="-222.67" font-family="Times,serif" font-size="14.00">1375008</text>
<text text-anchor="middle" x="1671.08" y="-206.17" font-family="Times,serif" font-size="14.00"> &#160;(1m4.363464916s)</text>
</g>
<!-- filter&#45;r1&#45;&gt;step3&#45;collect -->
<g id="edge25" class="edge">
<title>filter&#45;r1&#45;&gt;step3&#45;collect</title>
<path fill="none" stroke="lightblue" d="M3011.28,-143.88C2849.73,-120.7 2477.17,-67.24 2306.22,-42.71"/>
<polygon fill="lightblue" stroke="lightblue" points="2306.91,-39.27 2296.51,-41.32 2305.91,-46.2 2306.91,-39.27"/>
<text text-anchor="middle" x="2813.08" y="-95.68" font-family="Times,serif" font-size="14.00">0</text>
<text text-anchor="middle" x="2813.08" y="-79.18" font-family="Times,serif" font-size="14.00"> &#160;(1m4.363614875s)</text>
</g>
<!-- generator&#45;r4 -->
<g id="node8" class="node">
<title>generator&#45;r4</title>
<ellipse fill="lightyellow" stroke="black" cx="2808.58" cy="-282.96" rx="84.5" ry="28.99"/>
<text text-anchor="middle" x="2808.58" y="-286.16" font-family="Times,serif" font-size="14.00">generator&#45;r4</text>
<text text-anchor="middle" x="2808.58" y="-269.66" font-family="Times,serif" font-size="14.00">(1m4.363409875s)</text>
</g>
<!-- generator&#45;r4&#45;&gt;filter&#45;r1 -->
<g id="edge43" class="edge">
<title>generator&#45;r4&#45;&gt;filter&#45;r1</title>
<path fill="none" stroke="lightblue" d="M2876.42,-265.2C2893.99,-261.19 2912.94,-257.15 2930.58,-253.97 2960.58,-248.55 3043.57,-255.96 3066.58,-235.97 3077.94,-226.09 3083.67,-210.9 3086.48,-196.47"/>
<polygon fill="lightblue" stroke="lightblue" points="3089.93,-197.07 3087.94,-186.67 3083.01,-196.04 3089.93,-197.07"/>
<text text-anchor="middle" x="3141.08" y="-222.67" font-family="Times,serif" font-size="14.00">1372152</text>
<text text-anchor="middle" x="3141.08" y="-206.17" font-family="Times,serif" font-size="14.00"> &#160;(1m4.363498667s)</text>
</g>
<!-- generator&#45;r4&#45;&gt;filter&#45;r2 -->
<g id="edge44" class="edge">
<title>generator&#45;r4&#45;&gt;filter&#45;r2</title>
<path fill="none" stroke="lightblue" d="M2738.74,-266.29C2713.6,-261.35 2684.95,-256.52 2658.58,-253.97 2629.34,-251.14 564.26,-256.83 543.58,-235.97 533.25,-225.55 535.07,-214.91 543.58,-202.97 554.26,-187.97 570.18,-177.82 587.32,-170.96"/>
<polygon fill="lightblue" stroke="lightblue" points="588.46,-174.27 596.7,-167.6 586.1,-167.68 588.46,-174.27"/>
<text text-anchor="middle" x="599.08" y="-222.67" font-family="Times,serif" font-size="14.00">1373166</text>
<text text-anchor="middle" x="599.08" y="-206.17" font-family="Times,serif" font-size="14.00"> &#160;(1m4.363579458s)</text>
</g>
<!-- generator&#45;r4&#45;&gt;filter&#45;r3 -->
<g id="edge41" class="edge">
<title>generator&#45;r4&#45;&gt;filter&#45;r3</title>
<path fill="none" stroke="lightblue" d="M2873.98,-264.25C2892.17,-260.07 2912.02,-256.18 2930.58,-253.97 2971.29,-249.1 4374.08,-260.97 4406.58,-235.97 4413.29,-230.8 4418.51,-213.39 4422.18,-196.22"/>
<polygon fill="lightblue" stroke="lightblue" points="4425.58,-197.07 4424.08,-186.58 4418.71,-195.72 4425.58,-197.07"/>
<text text-anchor="middle" x="4475.08" y="-222.67" font-family="Times,serif" font-size="14.00">1372748</text>
<text text-anchor="middle" x="4475.08" y="-206.17" font-family="Times,serif" font-size="14.00"> &#160;(1m4.363551583s)</text>
</g>
<!-- generator&#45;r4&#45;&gt;filter&#45;r4 -->
<g id="edge42" class="edge">
<title>generator&#45;r4&#45;&gt;filter&#45;r4</title>
<path fill="none" stroke="lightblue" d="M2738.34,-266.38C2713.3,-261.48 2684.8,-256.65 2658.58,-253.97 2633.46,-251.39 1767.26,-254 1749.58,-235.97 1739.31,-225.49 1741.07,-214.91 1749.58,-202.97 1760.26,-187.97 1776.18,-177.82 1793.32,-170.96"/>
<polygon fill="lightblue" stroke="lightblue" points="1794.46,-174.27 1802.7,-167.6 1792.1,-167.68 1794.46,-174.27"/>
<text text-anchor="middle" x="1805.08" y="-222.67" font-family="Times,serif" font-size="14.00">1373047</text>
<text text-anchor="middle" x="1805.08" y="-206.17" font-family="Times,serif" font-size="14.00"> &#160;(1m4.363460958s)</text>
</g>
<!-- generator&#45;r5 -->
<g id="node9" class="node">
<title>generator&#45;r5</title>
<ellipse fill="lightyellow" stroke="black" cx="3608.58" cy="-282.96" rx="84.5" ry="28.99"/>
<text text-anchor="middle" x="3608.58" y="-286.16" font-family="Times,serif" font-size="14.00">generator&#45;r5</text>
<text text-anchor="middle" x="3608.58" y="-269.66" font-family="Times,serif" font-size="14.00">(1m4.363400792s)</text>
</g>
<!-- generator&#45;r5&#45;&gt;filter&#45;r1 -->
<g id="edge1" class="edge">
<title>generator&#45;r5&#45;&gt;filter&#45;r1</title>
<path fill="none" stroke="lightblue" d="M3601.12,-253.89C3594.9,-236.26 3584.14,-214.7 3566.58,-202.97 3535.53,-182.22 3313.84,-167.99 3183.54,-161.31"/>
<polygon fill="lightblue" stroke="lightblue" points="3184.07,-157.83 3173.9,-160.82 3183.71,-164.82 3184.07,-157.83"/>
<text text-anchor="middle" x="3647.08" y="-222.67" font-family="Times,serif" font-size="14.00">1376906</text>
<text text-anchor="middle" x="3647.08" y="-206.17" font-family="Times,serif" font-size="14.00"> &#160;(1m4.363498667s)</text>
</g>
<!-- generator&#45;r5&#45;&gt;filter&#45;r2 -->
<g id="edge2" class="edge">
<title>generator&#45;r5&#45;&gt;filter&#45;r2</title>
<path fill="none" stroke="lightblue" d="M3549.12,-262.03C3536.84,-258.7 3523.89,-255.75 3511.58,-253.97 3445.33,-244.35 1165.12,-257.03 1101.58,-235.97 1078.04,-228.16 1079.64,-212.09 1056.58,-202.97 1006.25,-183.06 866.14,-169.87 770.86,-162.9"/>
<polygon fill="lightblue" stroke="lightblue" points="771.21,-159.42 760.99,-162.19 770.71,-166.4 771.21,-159.42"/>
<text text-anchor="middle" x="1157.08" y="-222.67" font-family="Times,serif" font-size="14.00">1376032</text>
<text text-anchor="middle" x="1157.08" y="-206.17" font-family="Times,serif" font-size="14.00"> &#160;(1m4.363579458s)</text>
</g>
<!-- generator&#45;r5&#45;&gt;filter&#45;r3 -->
<g id="edge3" class="edge">
<title>generator&#45;r5&#45;&gt;filter&#45;r3</title>
<path fill="none" stroke="lightblue" d="M3667.82,-261.82C3679.54,-258.6 3691.85,-255.74 3703.58,-253.97 3737.61,-248.8 4918.42,-260.48 4942.58,-235.97 4952.87,-225.52 4952.48,-213.79 4942.58,-202.97 4914.98,-172.79 4665.36,-162.26 4524.41,-158.71"/>
<polygon fill="lightblue" stroke="lightblue" points="4524.8,-155.22 4514.71,-158.47 4524.63,-162.21 4524.8,-155.22"/>
<text text-anchor="middle" x="5005.08" y="-222.67" font-family="Times,serif" font-size="14.00">1375752</text>
<text text-anchor="middle" x="5005.08" y="-206.17" font-family="Times,serif" font-size="14.00"> &#160;(1m4.363551583s)</text>
</g>
<!-- generator&#45;r5&#45;&gt;filter&#45;r4 -->
<g id="edge4" class="edge">
<title>generator&#45;r5&#45;&gt;filter&#45;r4</title>
<path fill="none" stroke="lightblue" d="M3548.85,-262.03C3536.65,-258.73 3523.8,-255.79 3511.58,-253.97 3444.2,-243.93 2345.73,-267.93 2285.58,-235.97 2269.79,-227.58 2277.9,-212.18 2262.58,-202.97 2216.15,-175.05 2074.72,-164.04 1978.13,-159.72"/>
<polygon fill="lightblue" stroke="lightblue" points="1978.53,-156.24 1968.39,-159.3 1978.23,-163.23 1978.53,-156.24"/>
<text text-anchor="middle" x="2341.08" y="-222.67" font-family="Times,serif" font-size="14.00">1377597</text>
<text text-anchor="middle" x="2341.08" y="-206.17" font-family="Times,serif" font-size="14.00"> &#160;(1m4.363460958s)</text>
</g>
<!-- generator&#45;r8 -->
<g id="node10" class="node">
<title>generator&#45;r8</title>
<ellipse fill="lightyellow" stroke="black" cx="1229.58" cy="-282.96" rx="79.73" ry="28.99"/>
<text text-anchor="middle" x="1229.58" y="-286.16" font-family="Times,serif" font-size="14.00">generator&#45;r8</text>
<text text-anchor="middle" x="1229.58" y="-269.66" font-family="Times,serif" font-size="14.00">(1m4.36343875s)</text>
</g>
<!-- generator&#45;r8&#45;&gt;filter&#45;r1 -->
<g id="edge22" class="edge">
<title>generator&#45;r8&#45;&gt;filter&#45;r1</title>
<path fill="none" stroke="lightblue" d="M1307.96,-277.15C1412.19,-270.92 1602.16,-260.12 1764.58,-253.97 1807.12,-252.35 2493.98,-257.7 2530.58,-235.97 2545.13,-227.32 2535.3,-212.05 2549.58,-202.97 2586,-179.78 2848.23,-166.17 2993.06,-160.35"/>
<polygon fill="lightblue" stroke="lightblue" points="2993.19,-163.84 3003.04,-159.95 2992.91,-156.85 2993.19,-163.84"/>
<text text-anchor="middle" x="2605.08" y="-222.67" font-family="Times,serif" font-size="14.00">1371067</text>
<text text-anchor="middle" x="2605.08" y="-206.17" font-family="Times,serif" font-size="14.00"> &#160;(1m4.363501625s)</text>
</g>
<!-- generator&#45;r8&#45;&gt;filter&#45;r2 -->
<g id="edge23" class="edge">
<title>generator&#45;r8&#45;&gt;filter&#45;r2</title>
<path fill="none" stroke="lightblue" d="M1149.56,-281.96C884.12,-281.58 47.2,-277.11 7.58,-235.97 -2.6,-225.4 -2.43,-213.69 7.58,-202.97 45.79,-162.03 404.45,-156.65 580.3,-156.5"/>
<polygon fill="lightblue" stroke="lightblue" points="580.1,-160 590.1,-156.5 580.1,-153 580.1,-160"/>
<text text-anchor="middle" x="63.08" y="-222.67" font-family="Times,serif" font-size="14.00">1370005</text>
<text text-anchor="middle" x="63.08" y="-206.17" font-family="Times,serif" font-size="14.00"> &#160;(1m4.363582416s)</text>
</g>
<!-- generator&#45;r8&#45;&gt;filter&#45;r3 -->
<g id="edge24" class="edge">
<title>generator&#45;r8&#45;&gt;filter&#45;r3</title>
<path fill="none" stroke="lightblue" d="M1307.95,-276.78C1412.16,-270.15 1602.12,-258.91 1764.58,-253.97 1822.75,-252.19 3806.46,-259.74 3859.58,-235.97 3877.67,-227.87 3871.81,-211.75 3889.58,-202.97 3965,-165.69 4198.83,-158.06 4332.42,-156.84"/>
<polygon fill="lightblue" stroke="lightblue" points="4332.35,-160.34 4342.32,-156.76 4332.3,-153.34 4332.35,-160.34"/>
<text text-anchor="middle" x="3945.08" y="-222.67" font-family="Times,serif" font-size="14.00">1369281</text>
<text text-anchor="middle" x="3945.08" y="-206.17" font-family="Times,serif" font-size="14.00"> &#160;(1m4.363554541s)</text>
</g>
<!-- generator&#45;r8&#45;&gt;filter&#45;r4 -->
<g id="edge21" class="edge">
<title>generator&#45;r8&#45;&gt;filter&#45;r4</title>
<path fill="none" stroke="lightblue" d="M1219.07,-254.02C1214.69,-237.12 1213.12,-216.32 1225.58,-202.97 1262.97,-162.86 1613.18,-157.04 1786.44,-156.63"/>
<polygon fill="lightblue" stroke="lightblue" points="1786.34,-160.14 1796.33,-156.62 1786.33,-153.14 1786.34,-160.14"/>
<text text-anchor="middle" x="1281.08" y="-222.67" font-family="Times,serif" font-size="14.00">1371896</text>
<text text-anchor="middle" x="1281.08" y="-206.17" font-family="Times,serif" font-size="14.00"> &#160;(1m4.363463916s)</text>
</g>
<!-- filter&#45;r2&#45;&gt;step3&#45;collect -->
<g id="edge32" class="edge">
<title>filter&#45;r2&#45;&gt;step3&#45;collect</title>
<path fill="none" stroke="lightblue" d="M758.61,-148.32C1022.06,-126.95 1845.62,-60.16 2124.32,-37.56"/>
<polygon fill="lightblue" stroke="lightblue" points="2124.4,-41.06 2134.08,-36.76 2123.83,-34.08 2124.4,-41.06"/>
<text text-anchor="middle" x="1686.08" y="-95.68" font-family="Times,serif" font-size="14.00">0</text>
<text text-anchor="middle" x="1686.08" y="-79.18" font-family="Times,serif" font-size="14.00"> &#160;(1m4.363622083s)</text>
</g>
<!-- generator&#45;r3 -->
<g id="node12" class="node">
<title>generator&#45;r3</title>
<ellipse fill="lightyellow" stroke="black" cx="3418.58" cy="-282.96" rx="84.5" ry="28.99"/>
<text text-anchor="middle" x="3418.58" y="-286.16" font-family="Times,serif" font-size="14.00">generator&#45;r3</text>
<text text-anchor="middle" x="3418.58" y="-269.66" font-family="Times,serif" font-size="14.00">(1m4.363505083s)</text>
</g>
<!-- generator&#45;r3&#45;&gt;filter&#45;r1 -->
<g id="edge13" class="edge">
<title>generator&#45;r3&#45;&gt;filter&#45;r1</title>
<path fill="none" stroke="lightblue" d="M3439.6,-254.76C3449.74,-238.14 3457.26,-217.39 3444.58,-202.97 3427.47,-183.5 3282.29,-169.91 3182.7,-162.78"/>
<polygon fill="lightblue" stroke="lightblue" points="3183.13,-159.31 3172.91,-162.1 3182.64,-166.29 3183.13,-159.31"/>
<text text-anchor="middle" x="3507.08" y="-222.67" font-family="Times,serif" font-size="14.00">1389854</text>
<text text-anchor="middle" x="3507.08" y="-206.17" font-family="Times,serif" font-size="14.00"> &#160;(1m4.363566042s)</text>
</g>
<!-- generator&#45;r3&#45;&gt;filter&#45;r2 -->
<g id="edge14" class="edge">
<title>generator&#45;r3&#45;&gt;filter&#45;r2</title>
<path fill="none" stroke="lightblue" d="M3357.97,-262.39C3344.79,-258.91 3330.82,-255.82 3317.58,-253.97 3252.32,-244.84 1003.88,-266.68 945.58,-235.97 929.76,-227.63 937.6,-212.66 922.58,-202.97 897.25,-186.61 827.07,-174.47 768.12,-166.78"/>
<polygon fill="lightblue" stroke="lightblue" points="768.74,-163.33 758.38,-165.54 767.85,-170.27 768.74,-163.33"/>
<text text-anchor="middle" x="1001.08" y="-222.67" font-family="Times,serif" font-size="14.00">1391020</text>
<text text-anchor="middle" x="1001.08" y="-206.17" font-family="Times,serif" font-size="14.00"> &#160;(1m4.363646833s)</text>
</g>
<!-- generator&#45;r3&#45;&gt;filter&#45;r3 -->
<g id="edge15" class="edge">
<title>generator&#45;r3&#45;&gt;filter&#45;r3</title>
<path fill="none" stroke="lightblue" d="M3478.31,-262.02C3490.51,-258.72 3503.36,-255.78 3515.58,-253.97 3551.11,-248.69 4783.36,-261.54 4808.58,-235.97 4818.88,-225.52 4818.31,-213.94 4808.58,-202.97 4789.92,-181.91 4629.69,-168.59 4523.34,-161.98"/>
<polygon fill="lightblue" stroke="lightblue" points="4523.64,-158.49 4513.45,-161.38 4523.21,-165.48 4523.64,-158.49"/>
<text text-anchor="middle" x="4871.08" y="-222.67" font-family="Times,serif" font-size="14.00">1389883</text>
<text text-anchor="middle" x="4871.08" y="-206.17" font-family="Times,serif" font-size="14.00"> &#160;(1m4.363618958s)</text>
</g>
<!-- generator&#45;r3&#45;&gt;filter&#45;r4 -->
<g id="edge16" class="edge">
<title>generator&#45;r3&#45;&gt;filter&#45;r4</title>
<path fill="none" stroke="lightblue" d="M3357.69,-262.4C3344.59,-258.95 3330.73,-255.86 3317.58,-253.97 3253.45,-244.74 2208.78,-266.39 2151.58,-235.97 2135.79,-227.57 2143.6,-212.66 2128.58,-202.97 2103.25,-186.61 2033.07,-174.47 1974.12,-166.78"/>
<polygon fill="lightblue" stroke="lightblue" points="1974.74,-163.33 1964.38,-165.54 1973.85,-170.27 1974.74,-163.33"/>
<text text-anchor="middle" x="2207.08" y="-222.67" font-family="Times,serif" font-size="14.00">1390516</text>
<text text-anchor="middle" x="2207.08" y="-206.17" font-family="Times,serif" font-size="14.00"> &#160;(1m4.363528333s)</text>
</g>
<!-- generator&#45;r7 -->
<g id="node13" class="node">
<title>generator&#45;r7</title>
<ellipse fill="lightyellow" stroke="black" cx="1857.58" cy="-282.96" rx="84.5" ry="28.99"/>
<text text-anchor="middle" x="1857.58" y="-286.16" font-family="Times,serif" font-size="14.00">generator&#45;r7</text>
<text text-anchor="middle" x="1857.58" y="-269.66" font-family="Times,serif" font-size="14.00">(1m4.363575708s)</text>
</g>
<!-- generator&#45;r7&#45;&gt;filter&#45;r1 -->
<g id="edge17" class="edge">
<title>generator&#45;r7&#45;&gt;filter&#45;r1</title>
<path fill="none" stroke="lightblue" d="M1937.95,-273.71C2001.97,-267.42 2093.93,-259 2174.58,-253.97 2201.77,-252.27 2641.25,-250.03 2664.58,-235.97 2679.07,-227.23 2669.43,-212.25 2683.58,-202.97 2732.83,-170.64 2889.35,-160.91 2992.76,-158.06"/>
<polygon fill="lightblue" stroke="lightblue" points="2992.74,-161.56 3002.65,-157.8 2992.56,-154.56 2992.74,-161.56"/>
<text text-anchor="middle" x="2739.08" y="-222.67" font-family="Times,serif" font-size="14.00">1390461</text>
<text text-anchor="middle" x="2739.08" y="-206.17" font-family="Times,serif" font-size="14.00"> &#160;(1m4.363566167s)</text>
</g>
<!-- generator&#45;r7&#45;&gt;filter&#45;r2 -->
<g id="edge18" class="edge">
<title>generator&#45;r7&#45;&gt;filter&#45;r2</title>
<path fill="none" stroke="lightblue" d="M1774.52,-276.7C1668.69,-270.22 1480.12,-259.39 1318.58,-253.97 1302.24,-253.42 153.05,-247.61 141.58,-235.97 131.29,-225.52 131.66,-213.77 141.58,-202.97 170.61,-171.34 434.85,-161.41 580.78,-158.33"/>
<polygon fill="lightblue" stroke="lightblue" points="580.5,-161.84 590.43,-158.14 580.36,-154.84 580.5,-161.84"/>
<text text-anchor="middle" x="197.08" y="-222.67" font-family="Times,serif" font-size="14.00">1391067</text>
<text text-anchor="middle" x="197.08" y="-206.17" font-family="Times,serif" font-size="14.00"> &#160;(1m4.363646958s)</text>
</g>
<!-- generator&#45;r7&#45;&gt;filter&#45;r3 -->
<g id="edge19" class="edge">
<title>generator&#45;r7&#45;&gt;filter&#45;r3</title>
<path fill="none" stroke="lightblue" d="M1937.58,-273.15C2001.61,-266.52 2093.74,-257.93 2174.58,-253.97 2225.35,-251.48 3960.69,-261.63 4004.58,-235.97 4019.19,-227.42 4009.43,-212.25 4023.58,-202.97 4072.83,-170.64 4229.35,-160.91 4332.76,-158.06"/>
<polygon fill="lightblue" stroke="lightblue" points="4332.74,-161.56 4342.65,-157.8 4332.56,-154.56 4332.74,-161.56"/>
<text text-anchor="middle" x="4079.08" y="-222.67" font-family="Times,serif" font-size="14.00">1391349</text>
<text text-anchor="middle" x="4079.08" y="-206.17" font-family="Times,serif" font-size="14.00"> &#160;(1m4.363619083s)</text>
</g>
<!-- generator&#45;r7&#45;&gt;filter&#45;r4 -->
<g id="edge20" class="edge">
<title>generator&#45;r7&#45;&gt;filter&#45;r4</title>
<path fill="none" stroke="lightblue" d="M1773.06,-280.43C1635.51,-277.07 1375.65,-266.69 1347.58,-235.97 1337.68,-225.14 1337.66,-213.77 1347.58,-202.97 1376.61,-171.34 1640.85,-161.41 1786.78,-158.33"/>
<polygon fill="lightblue" stroke="lightblue" points="1786.5,-161.84 1796.43,-158.14 1786.36,-154.84 1786.5,-161.84"/>
<text text-anchor="middle" x="1403.08" y="-222.67" font-family="Times,serif" font-size="14.00">1390562</text>
<text text-anchor="middle" x="1403.08" y="-206.17" font-family="Times,serif" font-size="14.00"> &#160;(1m4.363528458s)</text>
</g>
<!-- filter&#45;r3&#45;&gt;step3&#45;collect -->
<g id="edge26" class="edge">
<title>filter&#45;r3&#45;&gt;step3&#45;collect</title>
<path fill="none" stroke="lightblue" d="M4345.27,-150.27C3999.49,-130.72 2678.35,-56.04 2312.17,-35.34"/>
<polygon fill="lightblue" stroke="lightblue" points="2312.53,-31.85 2302.35,-34.78 2312.14,-38.84 2312.53,-31.85"/>
<text text-anchor="middle" x="3641.08" y="-95.68" font-family="Times,serif" font-size="14.00">0</text>
<text text-anchor="middle" x="3641.08" y="-79.18" font-family="Times,serif" font-size="14.00"> &#160;(1m4.363617875s)</text>
</g>
<!-- filter&#45;r4&#45;&gt;step3&#45;collect -->
<g id="edge27" class="edge">
<title>filter&#45;r4&#45;&gt;step3&#45;collect</title>
<path fill="none" stroke="lightblue" d="M1938.65,-134.05C1997.11,-112.25 2088.7,-78.07 2150.85,-54.89"/>
<polygon fill="lightblue" stroke="lightblue" points="2151.76,-58.28 2159.91,-51.51 2149.31,-51.72 2151.76,-58.28"/>
<text text-anchor="middle" x="2146.08" y="-95.68" font-family="Times,serif" font-size="14.00">1</text>
<text text-anchor="middle" x="2146.08" y="-79.18" font-family="Times,serif" font-size="14.00"> &#160;(1m4.363616333s)</text>
</g>
</g>
</svg>
