<?xml version="1.0" encoding="UTF-8" standalone="no"?>
<!DOCTYPE svg PUBLIC "-//W3C//DTD SVG 1.1//EN"
 "http://www.w3.org/Graphics/SVG/1.1/DTD/svg11.dtd">
<!-- Generated by graphviz version 9.0.0 (20230911.1827)
 -->
<!-- Pages: 1 -->
<svg width="794pt" height="344pt"
 viewBox="0.00 0.00 793.75 344.45" xmlns="http://www.w3.org/2000/svg" xmlns:xlink="http://www.w3.org/1999/xlink">
<g id="graph0" class="graph" transform="scale(1 1) rotate(0) translate(4 340.45)">
<polygon fill="white" stroke="none" points="-4,4 -4,-340.45 789.75,-340.45 789.75,4 -4,4"/>
<text text-anchor="middle" x="392.88" y="-319.15" font-family="Times,serif" font-size="14.00">Network Uptime:8.366875ms</text>
<!-- generator&#45;r1 -->
<g id="node1" class="node">
<title>generator&#45;r1</title>
<ellipse fill="lightyellow" stroke="black" cx="251.75" cy="-282.96" rx="65.41" ry="28.99"/>
<text text-anchor="middle" x="251.75" y="-286.16" font-family="Times,serif" font-size="14.00">generator&#45;r1</text>
<text text-anchor="middle" x="251.75" y="-269.66" font-family="Times,serif" font-size="14.00">(8.280041ms)</text>
</g>
<!-- filter&#45;r1 -->
<g id="node3" class="node">
<title>filter&#45;r1</title>
<ellipse fill="none" stroke="black" cx="436.75" cy="-155.97" rx="65.41" ry="28.99"/>
<text text-anchor="middle" x="436.75" y="-159.17" font-family="Times,serif" font-size="14.00">filter&#45;r1</text>
<text text-anchor="middle" x="436.75" y="-142.67" font-family="Times,serif" font-size="14.00">(8.328041ms)</text>
</g>
<!-- generator&#45;r1&#45;&gt;filter&#45;r1 -->
<g id="edge3" class="edge">
<title>generator&#45;r1&#45;&gt;filter&#45;r1</title>
<path fill="none" stroke="lightblue" d="M276.79,-255.73C282.53,-249.4 288.49,-242.55 293.75,-235.97 304.92,-222 302.67,-213.98 316.75,-202.97 318.14,-201.88 347.44,-190.64 376.74,-179.55"/>
<polygon fill="lightblue" stroke="lightblue" points="377.95,-182.83 386.07,-176.02 375.48,-176.28 377.95,-182.83"/>
<text text-anchor="middle" x="358.75" y="-222.67" font-family="Times,serif" font-size="14.00">885</text>
<text text-anchor="middle" x="358.75" y="-206.17" font-family="Times,serif" font-size="14.00"> &#160;(8.320166ms)</text>
</g>
<!-- filter&#45;r2 -->
<g id="node4" class="node">
<title>filter&#45;r2</title>
<ellipse fill="none" stroke="black" cx="287.75" cy="-155.97" rx="65.41" ry="28.99"/>
<text text-anchor="middle" x="287.75" y="-159.17" font-family="Times,serif" font-size="14.00">filter&#45;r2</text>
<text text-anchor="middle" x="287.75" y="-142.67" font-family="Times,serif" font-size="14.00">(8.286375ms)</text>
</g>
<!-- generator&#45;r1&#45;&gt;filter&#45;r2 -->
<g id="edge4" class="edge">
<title>generator&#45;r1&#45;&gt;filter&#45;r2</title>
<path fill="none" stroke="lightblue" d="M190.8,-271.81C137.39,-260.32 72.61,-238.44 102.75,-202.97 118.79,-184.09 188.81,-191.33 212.75,-184.97 218.24,-183.51 223.88,-181.8 229.49,-179.97"/>
<polygon fill="lightblue" stroke="lightblue" points="230.43,-183.35 238.76,-176.8 228.16,-176.72 230.43,-183.35"/>
<text text-anchor="middle" x="144.75" y="-222.67" font-family="Times,serif" font-size="14.00">886</text>
<text text-anchor="middle" x="144.75" y="-206.17" font-family="Times,serif" font-size="14.00"> &#160;(8.281375ms)</text>
</g>
<!-- filter&#45;r3 -->
<g id="node5" class="node">
<title>filter&#45;r3</title>
<ellipse fill="none" stroke="black" cx="138.75" cy="-155.97" rx="65.41" ry="28.99"/>
<text text-anchor="middle" x="138.75" y="-159.17" font-family="Times,serif" font-size="14.00">filter&#45;r3</text>
<text text-anchor="middle" x="138.75" y="-142.67" font-family="Times,serif" font-size="14.00">(8.259625ms)</text>
</g>
<!-- generator&#45;r1&#45;&gt;filter&#45;r3 -->
<g id="edge5" class="edge">
<title>generator&#45;r1&#45;&gt;filter&#45;r3</title>
<path fill="none" stroke="lightblue" d="M186.56,-278.86C121.87,-274.26 29.21,-263.03 6.75,-235.97 -2.61,-224.68 -1.74,-214.92 6.75,-202.97 20.22,-184.01 42.1,-172.8 64.21,-166.2"/>
<polygon fill="lightblue" stroke="lightblue" points="64.82,-169.65 73.58,-163.7 63.01,-162.89 64.82,-169.65"/>
<text text-anchor="middle" x="48.75" y="-222.67" font-family="Times,serif" font-size="14.00">885</text>
<text text-anchor="middle" x="48.75" y="-206.17" font-family="Times,serif" font-size="14.00"> &#160;(8.253291ms)</text>
</g>
<!-- filter&#45;r4 -->
<g id="node6" class="node">
<title>filter&#45;r4</title>
<ellipse fill="none" stroke="black" cx="585.75" cy="-155.97" rx="65.41" ry="28.99"/>
<text text-anchor="middle" x="585.75" y="-159.17" font-family="Times,serif" font-size="14.00">filter&#45;r4</text>
<text text-anchor="middle" x="585.75" y="-142.67" font-family="Times,serif" font-size="14.00">(8.317542ms)</text>
</g>
<!-- generator&#45;r1&#45;&gt;filter&#45;r4 -->
<g id="edge2" class="edge">
<title>generator&#45;r1&#45;&gt;filter&#45;r4</title>
<path fill="none" stroke="lightblue" d="M311.86,-271.21C382.59,-258.48 490.99,-238.64 494.75,-235.97 508.55,-226.16 502.06,-215.2 513.75,-202.97 520.02,-196.41 527.39,-190.36 535,-184.95"/>
<polygon fill="lightblue" stroke="lightblue" points="536.72,-188.01 543.07,-179.52 532.82,-182.2 536.72,-188.01"/>
<text text-anchor="middle" x="555.75" y="-222.67" font-family="Times,serif" font-size="14.00">881</text>
<text text-anchor="middle" x="555.75" y="-206.17" font-family="Times,serif" font-size="14.00"> &#160;(8.313833ms)</text>
</g>
<!-- generator&#45;r2 -->
<g id="node2" class="node">
<title>generator&#45;r2</title>
<ellipse fill="lightyellow" stroke="black" cx="486.75" cy="-282.96" rx="65.41" ry="28.99"/>
<text text-anchor="middle" x="486.75" y="-286.16" font-family="Times,serif" font-size="14.00">generator&#45;r2</text>
<text text-anchor="middle" x="486.75" y="-269.66" font-family="Times,serif" font-size="14.00">(8.264833ms)</text>
</g>
<!-- generator&#45;r2&#45;&gt;filter&#45;r1 -->
<g id="edge6" class="edge">
<title>generator&#45;r2&#45;&gt;filter&#45;r1</title>
<path fill="none" stroke="lightblue" d="M547.58,-271.96C568.29,-265.33 589.33,-254.3 601.75,-235.97 609.98,-223.82 611.05,-214.31 601.75,-202.97 575.89,-171.42 550.99,-196.13 511.75,-184.97 506.29,-183.41 500.67,-181.64 495.07,-179.76"/>
<polygon fill="lightblue" stroke="lightblue" points="496.41,-176.52 485.81,-176.55 494.11,-183.14 496.41,-176.52"/>
<text text-anchor="middle" x="649.75" y="-222.67" font-family="Times,serif" font-size="14.00">904</text>
<text text-anchor="middle" x="649.75" y="-206.17" font-family="Times,serif" font-size="14.00"> &#160;(8.319291ms)</text>
</g>
<!-- generator&#45;r2&#45;&gt;filter&#45;r2 -->
<g id="edge7" class="edge">
<title>generator&#45;r2&#45;&gt;filter&#45;r2</title>
<path fill="none" stroke="lightblue" d="M450.78,-258.49C441.65,-251.75 432.19,-244.03 424.25,-235.97 411.62,-223.13 414.87,-214.14 400.75,-202.97 395.9,-199.13 371.95,-189.22 347.34,-179.57"/>
<polygon fill="lightblue" stroke="lightblue" points="348.8,-176.39 338.21,-176.02 346.27,-182.91 348.8,-176.39"/>
<text text-anchor="middle" x="459" y="-222.67" font-family="Times,serif" font-size="14.00">885</text>
<text text-anchor="middle" x="459" y="-206.17" font-family="Times,serif" font-size="14.00"> &#160;(8.2805ms)</text>
</g>
<!-- generator&#45;r2&#45;&gt;filter&#45;r3 -->
<g id="edge8" class="edge">
<title>generator&#45;r2&#45;&gt;filter&#45;r3</title>
<path fill="none" stroke="lightblue" d="M426.41,-271.12C396.21,-265.79 359.08,-259.36 325.75,-253.97 272.52,-245.35 250.3,-266.36 205.75,-235.97 191.77,-226.43 197.19,-216.29 186.75,-202.97 183.41,-198.7 179.69,-194.46 175.83,-190.37"/>
<polygon fill="lightblue" stroke="lightblue" points="178.38,-187.97 168.86,-183.31 173.39,-192.89 178.38,-187.97"/>
<text text-anchor="middle" x="247.75" y="-222.67" font-family="Times,serif" font-size="14.00">870</text>
<text text-anchor="middle" x="247.75" y="-206.17" font-family="Times,serif" font-size="14.00"> &#160;(8.252416ms)</text>
</g>
<!-- generator&#45;r2&#45;&gt;filter&#45;r4 -->
<g id="edge9" class="edge">
<title>generator&#45;r2&#45;&gt;filter&#45;r4</title>
<path fill="none" stroke="lightblue" d="M551.05,-276.52C605.6,-270.42 677.8,-258.3 695.75,-235.97 704.94,-224.53 703.88,-215.17 695.75,-202.97 686.3,-188.76 671.52,-178.94 655.84,-172.14"/>
<polygon fill="lightblue" stroke="lightblue" points="657.44,-169.01 646.85,-168.65 654.9,-175.54 657.44,-169.01"/>
<text text-anchor="middle" x="743.75" y="-222.67" font-family="Times,serif" font-size="14.00">888</text>
<text text-anchor="middle" x="743.75" y="-206.17" font-family="Times,serif" font-size="14.00"> &#160;(8.312958ms)</text>
</g>
<!-- print -->
<g id="node7" class="node">
<title>print</title>
<ellipse fill="none" stroke="black" cx="350.75" cy="-28.99" rx="65.41" ry="28.99"/>
<text text-anchor="middle" x="350.75" y="-32.19" font-family="Times,serif" font-size="14.00">print</text>
<text text-anchor="middle" x="350.75" y="-15.69" font-family="Times,serif" font-size="14.00">(8.293875ms)</text>
</g>
<!-- filter&#45;r1&#45;&gt;print -->
<g id="edge10" class="edge">
<title>filter&#45;r1&#45;&gt;print</title>
<path fill="none" stroke="lightblue" d="M428.61,-127.04C423.15,-111.15 414.9,-91.4 403.75,-75.98 400.23,-71.11 396.09,-66.4 391.71,-61.98"/>
<polygon fill="lightblue" stroke="lightblue" points="394.41,-59.72 384.74,-55.4 389.61,-64.81 394.41,-59.72"/>
<text text-anchor="middle" x="462.75" y="-95.68" font-family="Times,serif" font-size="14.00">0</text>
<text text-anchor="middle" x="462.75" y="-79.18" font-family="Times,serif" font-size="14.00"> &#160;(8.292916ms)</text>
</g>
<!-- filter&#45;r2&#45;&gt;print -->
<g id="edge11" class="edge">
<title>filter&#45;r2&#45;&gt;print</title>
<path fill="none" stroke="lightblue" d="M297.49,-126.92C303.23,-111.53 311.06,-92.31 319.75,-75.98 321.37,-72.94 323.15,-69.84 325,-66.77"/>
<polygon fill="lightblue" stroke="lightblue" points="327.9,-68.74 330.29,-58.42 321.98,-64.99 327.9,-68.74"/>
<text text-anchor="middle" x="361.75" y="-95.68" font-family="Times,serif" font-size="14.00">1</text>
<text text-anchor="middle" x="361.75" y="-79.18" font-family="Times,serif" font-size="14.00"> &#160;(8.290041ms)</text>
</g>
<!-- filter&#45;r3&#45;&gt;print -->
<g id="edge12" class="edge">
<title>filter&#45;r3&#45;&gt;print</title>
<path fill="none" stroke="lightblue" d="M159.47,-128.37C173.93,-111.35 194.56,-89.93 216.75,-75.98 236.7,-63.44 260.49,-53.85 282.45,-46.75"/>
<polygon fill="lightblue" stroke="lightblue" points="283.43,-50.11 291.95,-43.81 281.36,-43.42 283.43,-50.11"/>
<text text-anchor="middle" x="258.75" y="-95.68" font-family="Times,serif" font-size="14.00">0</text>
<text text-anchor="middle" x="258.75" y="-79.18" font-family="Times,serif" font-size="14.00"> &#160;(8.291375ms)</text>
</g>
<!-- filter&#45;r4&#45;&gt;print -->
<g id="edge1" class="edge">
<title>filter&#45;r4&#45;&gt;print</title>
<path fill="none" stroke="lightblue" d="M565.58,-128.01C551.42,-110.85 531.08,-89.39 508.75,-75.98 482.59,-60.27 450.75,-49.67 422.53,-42.64"/>
<polygon fill="lightblue" stroke="lightblue" points="423.51,-39.28 412.97,-40.38 421.9,-46.09 423.51,-39.28"/>
<text text-anchor="middle" x="586.38" y="-95.68" font-family="Times,serif" font-size="14.00">0</text>
<text text-anchor="middle" x="586.38" y="-79.18" font-family="Times,serif" font-size="14.00"> &#160;(8.28875ms)</text>
</g>
</g>
</svg>
