<?xml version="1.0" encoding="UTF-8" standalone="no"?>
<!DOCTYPE svg PUBLIC "-//W3C//DTD SVG 1.1//EN"
 "http://www.w3.org/Graphics/SVG/1.1/DTD/svg11.dtd">
<!-- Generated by graphviz version 9.0.0 (20230911.1827)
 -->
<!-- Pages: 1 -->
<svg width="172pt" height="221pt"
 viewBox="0.00 0.00 172.02 221.00" xmlns="http://www.w3.org/2000/svg" xmlns:xlink="http://www.w3.org/1999/xlink">
<g id="graph0" class="graph" transform="scale(1 1) rotate(0) translate(4 217)">
<polygon fill="white" stroke="none" points="-4,4 -4,-217 168.02,-217 168.02,4 -4,4"/>
<!-- node&#45;0 -->
<g id="node1" class="node">
<title>node&#45;0</title>
<ellipse fill="none" stroke="black" cx="36.51" cy="-195" rx="36.51" ry="18"/>
<text text-anchor="middle" x="36.51" y="-189.95" font-family="Times,serif" font-size="14.00">node&#45;0</text>
</g>
<!-- node&#45;2 -->
<g id="node3" class="node">
<title>node&#45;2</title>
<ellipse fill="none" stroke="black" cx="81.51" cy="-106.5" rx="36.51" ry="18"/>
<text text-anchor="middle" x="81.51" y="-101.45" font-family="Times,serif" font-size="14.00">node&#45;2</text>
</g>
<!-- node&#45;0&#45;&gt;node&#45;2 -->
<g id="edge1" class="edge">
<title>node&#45;0&#45;&gt;node&#45;2</title>
<path fill="none" stroke="lightblue" d="M45.19,-177.32C51.49,-165.19 60.17,-148.52 67.46,-134.5"/>
<polygon fill="lightblue" stroke="lightblue" points="70.5,-136.25 72.01,-125.76 64.29,-133.02 70.5,-136.25"/>
<text text-anchor="middle" x="70.63" y="-145.7" font-family="Times,serif" font-size="14.00"> &#160;1</text>
</g>
<!-- node&#45;1 -->
<g id="node2" class="node">
<title>node&#45;1</title>
<ellipse fill="none" stroke="black" cx="127.51" cy="-195" rx="36.51" ry="18"/>
<text text-anchor="middle" x="127.51" y="-189.95" font-family="Times,serif" font-size="14.00">node&#45;1</text>
</g>
<!-- node&#45;1&#45;&gt;node&#45;2 -->
<g id="edge2" class="edge">
<title>node&#45;1&#45;&gt;node&#45;2</title>
<path fill="none" stroke="lightblue" d="M118.64,-177.32C112.19,-165.19 103.32,-148.52 95.87,-134.5"/>
<polygon fill="lightblue" stroke="lightblue" points="99,-132.94 91.22,-125.76 92.82,-136.23 99,-132.94"/>
<text text-anchor="middle" x="115.63" y="-145.7" font-family="Times,serif" font-size="14.00"> &#160;1</text>
</g>
<!-- node&#45;3 -->
<g id="node4" class="node">
<title>node&#45;3</title>
<ellipse fill="none" stroke="black" cx="81.51" cy="-18" rx="36.51" ry="18"/>
<text text-anchor="middle" x="81.51" y="-12.95" font-family="Times,serif" font-size="14.00">node&#45;3</text>
</g>
<!-- node&#45;2&#45;&gt;node&#45;3 -->
<g id="edge3" class="edge">
<title>node&#45;2&#45;&gt;node&#45;3</title>
<path fill="none" stroke="lightblue" d="M67.7,-89.47C63.69,-83.85 59.83,-77.24 57.76,-70.5 55.61,-63.49 55.61,-61.01 57.76,-54 58.73,-50.84 60.09,-47.71 61.68,-44.7"/>
<polygon fill="lightblue" stroke="lightblue" points="64.59,-46.65 66.9,-36.31 58.64,-42.95 64.59,-46.65"/>
<text text-anchor="middle" x="72.38" y="-57.2" font-family="Times,serif" font-size="14.00"> &#160;219</text>
</g>
<!-- node&#45;3&#45;&gt;node&#45;2 -->
<g id="edge4" class="edge">
<title>node&#45;3&#45;&gt;node&#45;2</title>
<path fill="none" stroke="lightblue" d="M83.89,-36.41C84.56,-42.02 85.18,-48.26 85.51,-54 85.93,-61.32 85.93,-63.18 85.51,-70.5 85.39,-72.56 85.24,-74.69 85.05,-76.83"/>
<polygon fill="lightblue" stroke="lightblue" points="81.59,-76.28 84.05,-86.58 88.55,-76.99 81.59,-76.28"/>
<text text-anchor="middle" x="100.38" y="-57.2" font-family="Times,serif" font-size="14.00"> &#160;218</text>
</g>
</g>
</svg>
