<?xml version="1.0" encoding="UTF-8" standalone="no"?>
<!DOCTYPE svg PUBLIC "-//W3C//DTD SVG 1.1//EN"
 "http://www.w3.org/Graphics/SVG/1.1/DTD/svg11.dtd">
<!-- Generated by graphviz version 9.0.0 (20230911.1827)
 -->
<!-- Pages: 1 -->
<svg width="281pt" height="344pt"
 viewBox="0.00 0.00 281.45 344.45" xmlns="http://www.w3.org/2000/svg" xmlns:xlink="http://www.w3.org/1999/xlink">
<g id="graph0" class="graph" transform="scale(1 1) rotate(0) translate(4 340.45)">
<polygon fill="white" stroke="none" points="-4,4 -4,-340.45 277.45,-340.45 277.45,4 -4,4"/>
<text text-anchor="middle" x="136.73" y="-319.15" font-family="Times,serif" font-size="14.00">Network Uptime: 50.807665625s</text>
<!-- node&#45;0 -->
<g id="node1" class="node">
<title>node&#45;0</title>
<ellipse fill="none" stroke="black" cx="57.45" cy="-282.96" rx="57.45" ry="28.99"/>
<text text-anchor="middle" x="57.45" y="-286.16" font-family="Times,serif" font-size="14.00">node&#45;0</text>
<text text-anchor="middle" x="57.45" y="-269.66" font-family="Times,serif" font-size="14.00">(1.001137s)</text>
</g>
<!-- node&#45;2 -->
<g id="node3" class="node">
<title>node&#45;2</title>
<ellipse fill="none" stroke="black" cx="123.45" cy="-155.97" rx="71.77" ry="28.99"/>
<text text-anchor="middle" x="123.45" y="-159.17" font-family="Times,serif" font-size="14.00">node&#45;2</text>
<text text-anchor="middle" x="123.45" y="-142.67" font-family="Times,serif" font-size="14.00">(50.80759275s)</text>
</g>
<!-- node&#45;0&#45;&gt;node&#45;2 -->
<g id="edge1" class="edge">
<title>node&#45;0&#45;&gt;node&#45;2</title>
<path fill="none" stroke="lightblue" d="M59.85,-253.84C62.15,-238.07 66.65,-218.51 75.45,-202.97 77.82,-198.79 80.69,-194.75 83.83,-190.92"/>
<polygon fill="lightblue" stroke="lightblue" points="86.42,-193.28 90.53,-183.51 81.23,-188.58 86.42,-193.28"/>
<text text-anchor="middle" x="121.95" y="-222.67" font-family="Times,serif" font-size="14.00">1</text>
<text text-anchor="middle" x="121.95" y="-206.17" font-family="Times,serif" font-size="14.00"> &#160;(1.001216083s)</text>
</g>
<!-- node&#45;1 -->
<g id="node2" class="node">
<title>node&#45;1</title>
<ellipse fill="none" stroke="black" cx="190.45" cy="-282.96" rx="57.45" ry="28.99"/>
<text text-anchor="middle" x="190.45" y="-286.16" font-family="Times,serif" font-size="14.00">node&#45;1</text>
<text text-anchor="middle" x="190.45" y="-269.66" font-family="Times,serif" font-size="14.00">(1.001199s)</text>
</g>
<!-- node&#45;1&#45;&gt;node&#45;2 -->
<g id="edge2" class="edge">
<title>node&#45;1&#45;&gt;node&#45;2</title>
<path fill="none" stroke="lightblue" d="M186.13,-253.56C182.88,-237.88 177.41,-218.5 168.45,-202.97 166.13,-198.94 163.37,-195 160.38,-191.24"/>
<polygon fill="lightblue" stroke="lightblue" points="163.26,-189.22 154.07,-183.94 157.97,-193.8 163.26,-189.22"/>
<text text-anchor="middle" x="226.95" y="-222.67" font-family="Times,serif" font-size="14.00">1</text>
<text text-anchor="middle" x="226.95" y="-206.17" font-family="Times,serif" font-size="14.00"> &#160;(1.001203792s)</text>
</g>
<!-- node&#45;3 -->
<g id="node4" class="node">
<title>node&#45;3</title>
<ellipse fill="none" stroke="black" cx="123.45" cy="-28.99" rx="76.54" ry="28.99"/>
<text text-anchor="middle" x="123.45" y="-32.19" font-family="Times,serif" font-size="14.00">node&#45;3</text>
<text text-anchor="middle" x="123.45" y="-15.69" font-family="Times,serif" font-size="14.00">(50.807532208s)</text>
</g>
<!-- node&#45;2&#45;&gt;node&#45;3 -->
<g id="edge3" class="edge">
<title>node&#45;2&#45;&gt;node&#45;3</title>
<path fill="none" stroke="lightblue" d="M88.98,-130.1C82.87,-123.95 77.37,-116.83 73.95,-108.98 68.09,-95.54 68.09,-89.43 73.95,-75.98 75.85,-71.63 78.39,-67.5 81.31,-63.64"/>
<polygon fill="lightblue" stroke="lightblue" points="83.81,-66.1 87.73,-56.26 78.53,-61.5 83.81,-66.1"/>
<text text-anchor="middle" x="113.2" y="-95.68" font-family="Times,serif" font-size="14.00">51</text>
<text text-anchor="middle" x="113.2" y="-79.18" font-family="Times,serif" font-size="14.00"> &#160;(50.807554s)</text>
</g>
<!-- node&#45;3&#45;&gt;node&#45;2 -->
<g id="edge4" class="edge">
<title>node&#45;3&#45;&gt;node&#45;2</title>
<path fill="none" stroke="lightblue" d="M144.79,-57.17C148.36,-63.07 151.52,-69.49 153.45,-75.98 157.63,-90.04 157.63,-94.92 153.45,-108.98 152.58,-111.92 151.45,-114.85 150.15,-117.72"/>
<polygon fill="lightblue" stroke="lightblue" points="147.1,-115.99 145.5,-126.46 153.28,-119.28 147.1,-115.99"/>
<text text-anchor="middle" x="206.33" y="-95.68" font-family="Times,serif" font-size="14.00">49</text>
<text text-anchor="middle" x="206.33" y="-79.18" font-family="Times,serif" font-size="14.00"> &#160;(50.807570958s)</text>
</g>
</g>
</svg>
