<?xml version="1.0" encoding="UTF-8" standalone="no"?>
<!DOCTYPE svg PUBLIC "-//W3C//DTD SVG 1.1//EN"
 "http://www.w3.org/Graphics/SVG/1.1/DTD/svg11.dtd">
<!-- Generated by graphviz version 9.0.0 (20230911.1827)
 -->
<!-- Pages: 1 -->
<svg width="277pt" height="217pt"
 viewBox="0.00 0.00 276.66 217.47" xmlns="http://www.w3.org/2000/svg" xmlns:xlink="http://www.w3.org/1999/xlink">
<g id="graph0" class="graph" transform="scale(1 1) rotate(0) translate(4 213.47)">
<polygon fill="white" stroke="none" points="-4,4 -4,-213.47 272.66,-213.47 272.66,4 -4,4"/>
<text text-anchor="middle" x="134.33" y="-192.17" font-family="Times,serif" font-size="14.00">Network Uptime: 0s</text>
<!-- node&#45;3 -->
<g id="node1" class="node">
<title>node&#45;3</title>
<ellipse fill="none" stroke="black" cx="37.83" cy="-155.97" rx="37.83" ry="28.99"/>
<text text-anchor="middle" x="37.83" y="-159.17" font-family="Times,serif" font-size="14.00">node&#45;3</text>
<text text-anchor="middle" x="37.83" y="-142.67" font-family="Times,serif" font-size="14.00">(0s)</text>
</g>
<!-- node&#45;2 -->
<g id="node4" class="node">
<title>node&#45;2</title>
<ellipse fill="none" stroke="black" cx="110.83" cy="-28.99" rx="37.83" ry="28.99"/>
<text text-anchor="middle" x="110.83" y="-32.19" font-family="Times,serif" font-size="14.00">node&#45;2</text>
<text text-anchor="middle" x="110.83" y="-15.69" font-family="Times,serif" font-size="14.00">(0s)</text>
</g>
<!-- node&#45;3&#45;&gt;node&#45;2 -->
<g id="edge2" class="edge">
<title>node&#45;3&#45;&gt;node&#45;2</title>
<path fill="none" stroke="lightblue" d="M29.13,-127.31C25.77,-111.32 24.56,-91.38 33.33,-75.98 40.66,-63.11 53.17,-53.47 66.03,-46.43"/>
<polygon fill="lightblue" stroke="lightblue" points="67.56,-49.57 74.96,-42 64.45,-43.3 67.56,-49.57"/>
<text text-anchor="middle" x="48.08" y="-95.68" font-family="Times,serif" font-size="14.00">0</text>
<text text-anchor="middle" x="48.08" y="-79.18" font-family="Times,serif" font-size="14.00"> &#160;(0s)</text>
</g>
<!-- node&#45;0 -->
<g id="node2" class="node">
<title>node&#45;0</title>
<ellipse fill="none" stroke="black" cx="136.83" cy="-155.97" rx="37.83" ry="28.99"/>
<text text-anchor="middle" x="136.83" y="-159.17" font-family="Times,serif" font-size="14.00">node&#45;0</text>
<text text-anchor="middle" x="136.83" y="-142.67" font-family="Times,serif" font-size="14.00">(0s)</text>
</g>
<!-- node&#45;0&#45;&gt;node&#45;2 -->
<g id="edge3" class="edge">
<title>node&#45;0&#45;&gt;node&#45;2</title>
<path fill="none" stroke="lightblue" d="M131,-126.93C127.45,-109.88 122.87,-87.86 118.97,-69.12"/>
<polygon fill="lightblue" stroke="lightblue" points="122.42,-68.51 116.95,-59.43 115.56,-69.93 122.42,-68.51"/>
<text text-anchor="middle" x="142.08" y="-95.68" font-family="Times,serif" font-size="14.00">0</text>
<text text-anchor="middle" x="142.08" y="-79.18" font-family="Times,serif" font-size="14.00"> &#160;(0s)</text>
</g>
<!-- node&#45;1 -->
<g id="node3" class="node">
<title>node&#45;1</title>
<ellipse fill="none" stroke="black" cx="230.83" cy="-155.97" rx="37.83" ry="28.99"/>
<text text-anchor="middle" x="230.83" y="-159.17" font-family="Times,serif" font-size="14.00">node&#45;1</text>
<text text-anchor="middle" x="230.83" y="-142.67" font-family="Times,serif" font-size="14.00">(0s)</text>
</g>
<!-- node&#45;1&#45;&gt;node&#45;2 -->
<g id="edge4" class="edge">
<title>node&#45;1&#45;&gt;node&#45;2</title>
<path fill="none" stroke="lightblue" d="M210.52,-131.34C196.59,-115.39 177.5,-94.04 159.83,-75.98 154.46,-70.49 148.61,-64.78 142.88,-59.33"/>
<polygon fill="lightblue" stroke="lightblue" points="145.43,-56.93 135.75,-52.62 140.63,-62.02 145.43,-56.93"/>
<text text-anchor="middle" x="204.08" y="-95.68" font-family="Times,serif" font-size="14.00">0</text>
<text text-anchor="middle" x="204.08" y="-79.18" font-family="Times,serif" font-size="14.00"> &#160;(0s)</text>
</g>
<!-- node&#45;2&#45;&gt;node&#45;3 -->
<g id="edge1" class="edge">
<title>node&#45;2&#45;&gt;node&#45;3</title>
<path fill="none" stroke="lightblue" d="M95.72,-55.85C85.01,-74.2 70.5,-99.05 58.68,-119.27"/>
<polygon fill="lightblue" stroke="lightblue" points="55.74,-117.37 53.72,-127.77 61.79,-120.9 55.74,-117.37"/>
<text text-anchor="middle" x="98.08" y="-95.68" font-family="Times,serif" font-size="14.00">0</text>
<text text-anchor="middle" x="98.08" y="-79.18" font-family="Times,serif" font-size="14.00"> &#160;(0s)</text>
</g>
</g>
</svg>
