<?xml version="1.0" encoding="UTF-8" standalone="no"?>
<!DOCTYPE svg PUBLIC "-//W3C//DTD SVG 1.1//EN"
 "http://www.w3.org/Graphics/SVG/1.1/DTD/svg11.dtd">
<!-- Generated by graphviz version 9.0.0 (20230911.1827)
 -->
<!-- Pages: 1 -->
<svg width="172pt" height="221pt"
 viewBox="0.00 0.00 172.02 221.00" xmlns="http://www.w3.org/2000/svg" xmlns:xlink="http://www.w3.org/1999/xlink">
<g id="graph0" class="graph" transform="scale(1 1) rotate(0) translate(4 217)">
<polygon fill="white" stroke="none" points="-4,4 -4,-217 168.02,-217 168.02,4 -4,4"/>
<!-- node&#45;0 -->
<g id="node1" class="node">
<title>node&#45;0</title>
<ellipse fill="none" stroke="black" cx="36.51" cy="-195" rx="36.51" ry="18"/>
<text text-anchor="middle" x="36.51" y="-189.95" font-family="Times,serif" font-size="14.00">node&#45;0</text>
</g>
<!-- node&#45;2 -->
<g id="node3" class="node">
<title>node&#45;2</title>
<ellipse fill="none" stroke="black" cx="81.51" cy="-106.5" rx="36.51" ry="18"/>
<text text-anchor="middle" x="81.51" y="-101.45" font-family="Times,serif" font-size="14.00">node&#45;2</text>
</g>
<!-- node&#45;0&#45;&gt;node&#45;2 -->
<g id="edge1" class="edge">
<title>node&#45;0&#45;&gt;node&#45;2</title>
<path fill="none" stroke="lightblue" d="M45.19,-177.32C51.49,-165.19 60.17,-148.52 67.46,-134.5"/>
<polygon fill="lightblue" stroke="lightblue" points="70.5,-136.25 72.01,-125.76 64.29,-133.02 70.5,-136.25"/>
<text text-anchor="middle" x="70.63" y="-145.7" font-family="Times,serif" font-size="14.00"> &#160;0</text>
</g>
<!-- node&#45;1 -->
<g id="node2" class="node">
<title>node&#45;1</title>
<ellipse fill="none" stroke="black" cx="127.51" cy="-195" rx="36.51" ry="18"/>
<text text-anchor="middle" x="127.51" y="-189.95" font-family="Times,serif" font-size="14.00">node&#45;1</text>
</g>
<!-- node&#45;1&#45;&gt;node&#45;2 -->
<g id="edge2" class="edge">
<title>node&#45;1&#45;&gt;node&#45;2</title>
<path fill="none" stroke="lightblue" d="M118.64,-177.32C112.19,-165.19 103.32,-148.52 95.87,-134.5"/>
<polygon fill="lightblue" stroke="lightblue" points="99,-132.94 91.22,-125.76 92.82,-136.23 99,-132.94"/>
<text text-anchor="middle" x="115.63" y="-145.7" font-family="Times,serif" font-size="14.00"> &#160;0</text>
</g>
<!-- node&#45;3 -->
<g id="node4" class="node">
<title>node&#45;3</title>
<ellipse fill="none" stroke="black" cx="81.51" cy="-18" rx="36.51" ry="18"/>
<text text-anchor="middle" x="81.51" y="-12.95" font-family="Times,serif" font-size="14.00">node&#45;3</text>
</g>
<!-- node&#45;2&#45;&gt;node&#45;3 -->
<g id="edge3" class="edge">
<title>node&#45;2&#45;&gt;node&#45;3</title>
<path fill="none" stroke="lightblue" d="M71.45,-89C68.53,-83.34 65.73,-76.83 64.26,-70.5 62.59,-63.36 62.59,-61.14 64.26,-54 64.88,-51.33 65.74,-48.63 66.74,-45.97"/>
<polygon fill="lightblue" stroke="lightblue" points="69.92,-47.44 70.83,-36.88 63.53,-44.57 69.92,-47.44"/>
<text text-anchor="middle" x="71.63" y="-57.2" font-family="Times,serif" font-size="14.00"> &#160;0</text>
</g>
<!-- node&#45;3&#45;&gt;node&#45;2 -->
<g id="edge4" class="edge">
<title>node&#45;3&#45;&gt;node&#45;2</title>
<path fill="none" stroke="lightblue" d="M81.51,-36.35C81.51,-48.06 81.51,-63.79 81.51,-77.28"/>
<polygon fill="lightblue" stroke="lightblue" points="78.01,-76.9 81.51,-86.9 85.01,-76.9 78.01,-76.9"/>
<text text-anchor="middle" x="88.63" y="-57.2" font-family="Times,serif" font-size="14.00"> &#160;0</text>
</g>
</g>
</svg>
