<?xml version="1.0" encoding="UTF-8" standalone="no"?>
<!DOCTYPE svg PUBLIC "-//W3C//DTD SVG 1.1//EN"
 "http://www.w3.org/Graphics/SVG/1.1/DTD/svg11.dtd">
<!-- Generated by graphviz version 9.0.0 (20230911.1827)
 -->
<!-- Pages: 1 -->
<svg width="292pt" height="406pt"
 viewBox="0.00 0.00 292.02 406.00" xmlns="http://www.w3.org/2000/svg" xmlns:xlink="http://www.w3.org/1999/xlink">
<g id="graph0" class="graph" transform="scale(1 1) rotate(0) translate(4 402)">
<polygon fill="white" stroke="none" points="-4,4 -4,-402 288.02,-402 288.02,4 -4,4"/>
<!-- node&#45;0 -->
<g id="node1" class="node">
<title>node&#45;0</title>
<ellipse fill="none" stroke="black" cx="131.51" cy="-380" rx="36.51" ry="18"/>
<text text-anchor="middle" x="131.51" y="-374.95" font-family="Times,serif" font-size="14.00">node&#45;0</text>
</g>
<!-- node&#45;1 -->
<g id="node3" class="node">
<title>node&#45;1</title>
<ellipse fill="none" stroke="black" cx="82.51" cy="-287.5" rx="36.51" ry="18"/>
<ellipse fill="none" stroke="black" cx="82.51" cy="-287.5" rx="40.51" ry="22"/>
<text text-anchor="middle" x="82.51" y="-282.45" font-family="Times,serif" font-size="14.00">node&#45;1</text>
</g>
<!-- node&#45;0&#45;&gt;node&#45;1 -->
<g id="edge7" class="edge">
<title>node&#45;0&#45;&gt;node&#45;1</title>
<path fill="none" stroke="lightblue" d="M122.52,-362.4C115.99,-350.33 106.95,-333.63 99.11,-319.17"/>
<polygon fill="lightblue" stroke="lightblue" points="102.24,-317.58 94.4,-310.46 96.08,-320.92 102.24,-317.58"/>
<text text-anchor="middle" x="118.63" y="-330.7" font-family="Times,serif" font-size="14.00"> &#160;2</text>
</g>
<!-- node&#45;2 -->
<g id="node4" class="node">
<title>node&#45;2</title>
<ellipse fill="none" stroke="black" cx="181.51" cy="-287.5" rx="36.51" ry="18"/>
<ellipse fill="none" stroke="black" cx="181.51" cy="-287.5" rx="40.51" ry="22"/>
<text text-anchor="middle" x="181.51" y="-282.45" font-family="Times,serif" font-size="14.00">node&#45;2</text>
</g>
<!-- node&#45;0&#45;&gt;node&#45;2 -->
<g id="edge8" class="edge">
<title>node&#45;0&#45;&gt;node&#45;2</title>
<path fill="none" stroke="lightblue" d="M140.68,-362.4C147.39,-350.25 156.7,-333.41 164.73,-318.87"/>
<polygon fill="lightblue" stroke="lightblue" points="167.79,-320.57 169.56,-310.12 161.66,-317.18 167.79,-320.57"/>
<text text-anchor="middle" x="166.63" y="-330.7" font-family="Times,serif" font-size="14.00"> &#160;2</text>
</g>
<!-- node&#45;8 -->
<g id="node2" class="node">
<title>node&#45;8</title>
<ellipse fill="none" stroke="black" cx="185.51" cy="-18" rx="36.51" ry="18"/>
<text text-anchor="middle" x="185.51" y="-12.95" font-family="Times,serif" font-size="14.00">node&#45;8</text>
</g>
<!-- node&#45;4 -->
<g id="node6" class="node">
<title>node&#45;4</title>
<ellipse fill="none" stroke="black" cx="181.51" cy="-195" rx="36.51" ry="18"/>
<text text-anchor="middle" x="181.51" y="-189.95" font-family="Times,serif" font-size="14.00">node&#45;4</text>
</g>
<!-- node&#45;8&#45;&gt;node&#45;4 -->
<g id="edge1" class="edge">
<title>node&#45;8&#45;&gt;node&#45;4</title>
<path fill="none" stroke="lightblue" d="M183.91,-36.4C182.7,-50.45 181.15,-70.73 180.51,-88.5 179.57,-114.51 179.99,-144.16 180.54,-165.38"/>
<polygon fill="lightblue" stroke="lightblue" points="177.04,-165.41 180.82,-175.3 184.03,-165.21 177.04,-165.41"/>
<text text-anchor="middle" x="191.01" y="-101.45" font-family="Times,serif" font-size="14.00"> &#160;14</text>
</g>
<!-- node&#45;3 -->
<g id="node5" class="node">
<title>node&#45;3</title>
<ellipse fill="none" stroke="black" cx="82.51" cy="-195" rx="36.51" ry="18"/>
<text text-anchor="middle" x="82.51" y="-189.95" font-family="Times,serif" font-size="14.00">node&#45;3</text>
</g>
<!-- node&#45;1&#45;&gt;node&#45;3 -->
<g id="edge9" class="edge">
<title>node&#45;1&#45;&gt;node&#45;3</title>
<path fill="none" stroke="lightblue" d="M82.51,-265.05C82.51,-252.97 82.51,-237.71 82.51,-224.62"/>
<polygon fill="lightblue" stroke="lightblue" points="86.01,-224.87 82.51,-214.87 79.01,-224.87 86.01,-224.87"/>
<text text-anchor="middle" x="89.63" y="-234.2" font-family="Times,serif" font-size="14.00"> &#160;1</text>
</g>
<!-- node&#45;2&#45;&gt;node&#45;4 -->
<g id="edge5" class="edge">
<title>node&#45;2&#45;&gt;node&#45;4</title>
<path fill="none" stroke="lightblue" d="M181.51,-265.05C181.51,-252.97 181.51,-237.71 181.51,-224.62"/>
<polygon fill="lightblue" stroke="lightblue" points="185.01,-224.87 181.51,-214.87 178.01,-224.87 185.01,-224.87"/>
<text text-anchor="middle" x="188.63" y="-234.2" font-family="Times,serif" font-size="14.00"> &#160;1</text>
</g>
<!-- node&#45;5 -->
<g id="node7" class="node">
<title>node&#45;5</title>
<ellipse fill="none" stroke="black" cx="36.51" cy="-106.5" rx="36.51" ry="18"/>
<text text-anchor="middle" x="36.51" y="-101.45" font-family="Times,serif" font-size="14.00">node&#45;5</text>
</g>
<!-- node&#45;3&#45;&gt;node&#45;5 -->
<g id="edge2" class="edge">
<title>node&#45;3&#45;&gt;node&#45;5</title>
<path fill="none" stroke="lightblue" d="M73.64,-177.32C67.19,-165.19 58.32,-148.52 50.87,-134.5"/>
<polygon fill="lightblue" stroke="lightblue" points="54,-132.94 46.22,-125.76 47.82,-136.23 54,-132.94"/>
<text text-anchor="middle" x="75.01" y="-145.7" font-family="Times,serif" font-size="14.00"> &#160;15</text>
</g>
<!-- node&#45;6 -->
<g id="node8" class="node">
<title>node&#45;6</title>
<ellipse fill="none" stroke="black" cx="247.51" cy="-106.5" rx="36.51" ry="18"/>
<text text-anchor="middle" x="247.51" y="-101.45" font-family="Times,serif" font-size="14.00">node&#45;6</text>
</g>
<!-- node&#45;4&#45;&gt;node&#45;6 -->
<g id="edge6" class="edge">
<title>node&#45;4&#45;&gt;node&#45;6</title>
<path fill="none" stroke="lightblue" d="M193.92,-177.73C203.6,-165.04 217.22,-147.2 228.3,-132.68"/>
<polygon fill="lightblue" stroke="lightblue" points="230.95,-134.97 234.23,-124.9 225.38,-130.73 230.95,-134.97"/>
<text text-anchor="middle" x="231.01" y="-145.7" font-family="Times,serif" font-size="14.00"> &#160;15</text>
</g>
<!-- node&#45;7 -->
<g id="node9" class="node">
<title>node&#45;7</title>
<ellipse fill="none" stroke="black" cx="75.51" cy="-18" rx="36.51" ry="18"/>
<text text-anchor="middle" x="75.51" y="-12.95" font-family="Times,serif" font-size="14.00">node&#45;7</text>
</g>
<!-- node&#45;5&#45;&gt;node&#45;7 -->
<g id="edge10" class="edge">
<title>node&#45;5&#45;&gt;node&#45;7</title>
<path fill="none" stroke="lightblue" d="M44.21,-88.41C49.61,-76.44 56.93,-60.2 63.14,-46.43"/>
<polygon fill="lightblue" stroke="lightblue" points="66.28,-47.99 67.2,-37.43 59.9,-45.11 66.28,-47.99"/>
<text text-anchor="middle" x="70.01" y="-57.2" font-family="Times,serif" font-size="14.00"> &#160;14</text>
</g>
<!-- node&#45;6&#45;&gt;node&#45;8 -->
<g id="edge4" class="edge">
<title>node&#45;6&#45;&gt;node&#45;8</title>
<path fill="none" stroke="lightblue" d="M235.85,-89.23C226.81,-76.62 214.13,-58.93 203.75,-44.45"/>
<polygon fill="lightblue" stroke="lightblue" points="206.88,-42.81 198.21,-36.72 201.19,-46.89 206.88,-42.81"/>
<text text-anchor="middle" x="233.01" y="-57.2" font-family="Times,serif" font-size="14.00"> &#160;14</text>
</g>
<!-- node&#45;7&#45;&gt;node&#45;3 -->
<g id="edge3" class="edge">
<title>node&#45;7&#45;&gt;node&#45;3</title>
<path fill="none" stroke="lightblue" d="M80.67,-36.31C82.15,-41.91 83.6,-48.17 84.51,-54 92.55,-105.79 92.32,-130.57 89.51,-159 89.3,-161.08 89.03,-163.23 88.71,-165.38"/>
<polygon fill="lightblue" stroke="lightblue" points="85.27,-164.7 86.95,-175.17 92.16,-165.94 85.27,-164.7"/>
<text text-anchor="middle" x="102.01" y="-101.45" font-family="Times,serif" font-size="14.00"> &#160;14</text>
</g>
</g>
</svg>
