<?xml version="1.0" encoding="UTF-8" standalone="no"?>
<!DOCTYPE svg PUBLIC "-//W3C//DTD SVG 1.1//EN"
 "http://www.w3.org/Graphics/SVG/1.1/DTD/svg11.dtd">
<!-- Generated by graphviz version 9.0.0 (20230911.1827)
 -->
<!-- Pages: 1 -->
<svg width="279pt" height="406pt"
 viewBox="0.00 0.00 279.02 406.00" xmlns="http://www.w3.org/2000/svg" xmlns:xlink="http://www.w3.org/1999/xlink">
<g id="graph0" class="graph" transform="scale(1 1) rotate(0) translate(4 402)">
<polygon fill="white" stroke="none" points="-4,4 -4,-402 275.02,-402 275.02,4 -4,4"/>
<!-- node&#45;1 -->
<g id="node1" class="node">
<title>node&#45;1</title>
<ellipse fill="none" stroke="black" cx="94.51" cy="-287.5" rx="36.51" ry="18"/>
<ellipse fill="none" stroke="black" cx="94.51" cy="-287.5" rx="40.51" ry="22"/>
<text text-anchor="middle" x="94.51" y="-282.45" font-family="Times,serif" font-size="14.00">node&#45;1</text>
</g>
<!-- node&#45;3 -->
<g id="node3" class="node">
<title>node&#45;3</title>
<ellipse fill="none" stroke="black" cx="94.51" cy="-195" rx="36.51" ry="18"/>
<text text-anchor="middle" x="94.51" y="-189.95" font-family="Times,serif" font-size="14.00">node&#45;3</text>
</g>
<!-- node&#45;1&#45;&gt;node&#45;3 -->
<g id="edge8" class="edge">
<title>node&#45;1&#45;&gt;node&#45;3</title>
<path fill="none" stroke="lightblue" d="M94.51,-265.05C94.51,-252.97 94.51,-237.71 94.51,-224.62"/>
<polygon fill="lightblue" stroke="lightblue" points="98.01,-224.87 94.51,-214.87 91.01,-224.87 98.01,-224.87"/>
<text text-anchor="middle" x="101.63" y="-234.2" font-family="Times,serif" font-size="14.00"> &#160;0</text>
</g>
<!-- node&#45;2 -->
<g id="node2" class="node">
<title>node&#45;2</title>
<ellipse fill="none" stroke="black" cx="193.51" cy="-287.5" rx="36.51" ry="18"/>
<ellipse fill="none" stroke="black" cx="193.51" cy="-287.5" rx="40.51" ry="22"/>
<text text-anchor="middle" x="193.51" y="-282.45" font-family="Times,serif" font-size="14.00">node&#45;2</text>
</g>
<!-- node&#45;4 -->
<g id="node4" class="node">
<title>node&#45;4</title>
<ellipse fill="none" stroke="black" cx="193.51" cy="-195" rx="36.51" ry="18"/>
<text text-anchor="middle" x="193.51" y="-189.95" font-family="Times,serif" font-size="14.00">node&#45;4</text>
</g>
<!-- node&#45;2&#45;&gt;node&#45;4 -->
<g id="edge10" class="edge">
<title>node&#45;2&#45;&gt;node&#45;4</title>
<path fill="none" stroke="lightblue" d="M193.51,-265.05C193.51,-252.97 193.51,-237.71 193.51,-224.62"/>
<polygon fill="lightblue" stroke="lightblue" points="197.01,-224.87 193.51,-214.87 190.01,-224.87 197.01,-224.87"/>
<text text-anchor="middle" x="200.63" y="-234.2" font-family="Times,serif" font-size="14.00"> &#160;0</text>
</g>
<!-- node&#45;5 -->
<g id="node5" class="node">
<title>node&#45;5</title>
<ellipse fill="none" stroke="black" cx="36.51" cy="-106.5" rx="36.51" ry="18"/>
<text text-anchor="middle" x="36.51" y="-101.45" font-family="Times,serif" font-size="14.00">node&#45;5</text>
</g>
<!-- node&#45;3&#45;&gt;node&#45;5 -->
<g id="edge1" class="edge">
<title>node&#45;3&#45;&gt;node&#45;5</title>
<path fill="none" stroke="lightblue" d="M83.6,-177.73C75.23,-165.24 63.51,-147.76 53.85,-133.37"/>
<polygon fill="lightblue" stroke="lightblue" points="56.89,-131.6 48.41,-125.25 51.07,-135.5 56.89,-131.6"/>
<text text-anchor="middle" x="78.63" y="-145.7" font-family="Times,serif" font-size="14.00"> &#160;0</text>
</g>
<!-- node&#45;6 -->
<g id="node6" class="node">
<title>node&#45;6</title>
<ellipse fill="none" stroke="black" cx="186.51" cy="-106.5" rx="36.51" ry="18"/>
<text text-anchor="middle" x="186.51" y="-101.45" font-family="Times,serif" font-size="14.00">node&#45;6</text>
</g>
<!-- node&#45;4&#45;&gt;node&#45;6 -->
<g id="edge5" class="edge">
<title>node&#45;4&#45;&gt;node&#45;6</title>
<path fill="none" stroke="lightblue" d="M192.13,-176.91C191.18,-165.26 189.91,-149.55 188.82,-136.02"/>
<polygon fill="lightblue" stroke="lightblue" points="192.33,-136.04 188.04,-126.36 185.35,-136.61 192.33,-136.04"/>
<text text-anchor="middle" x="198.63" y="-145.7" font-family="Times,serif" font-size="14.00"> &#160;0</text>
</g>
<!-- node&#45;7 -->
<g id="node7" class="node">
<title>node&#45;7</title>
<ellipse fill="none" stroke="black" cx="95.51" cy="-18" rx="36.51" ry="18"/>
<text text-anchor="middle" x="95.51" y="-12.95" font-family="Times,serif" font-size="14.00">node&#45;7</text>
</g>
<!-- node&#45;5&#45;&gt;node&#45;7 -->
<g id="edge9" class="edge">
<title>node&#45;5&#45;&gt;node&#45;7</title>
<path fill="none" stroke="lightblue" d="M47.61,-89.23C56.12,-76.74 68.05,-59.26 77.87,-44.87"/>
<polygon fill="lightblue" stroke="lightblue" points="80.66,-46.97 83.41,-36.74 74.88,-43.03 80.66,-46.97"/>
<text text-anchor="middle" x="78.63" y="-57.2" font-family="Times,serif" font-size="14.00"> &#160;0</text>
</g>
<!-- node&#45;8 -->
<g id="node9" class="node">
<title>node&#45;8</title>
<ellipse fill="none" stroke="black" cx="234.51" cy="-18" rx="36.51" ry="18"/>
<text text-anchor="middle" x="234.51" y="-12.95" font-family="Times,serif" font-size="14.00">node&#45;8</text>
</g>
<!-- node&#45;6&#45;&gt;node&#45;8 -->
<g id="edge3" class="edge">
<title>node&#45;6&#45;&gt;node&#45;8</title>
<path fill="none" stroke="lightblue" d="M195.76,-88.82C202.6,-76.5 212.05,-59.47 219.91,-45.32"/>
<polygon fill="lightblue" stroke="lightblue" points="222.76,-47.39 224.55,-36.95 216.64,-44 222.76,-47.39"/>
<text text-anchor="middle" x="222.63" y="-57.2" font-family="Times,serif" font-size="14.00"> &#160;0</text>
</g>
<!-- node&#45;7&#45;&gt;node&#45;3 -->
<g id="edge2" class="edge">
<title>node&#45;7&#45;&gt;node&#45;3</title>
<path fill="none" stroke="lightblue" d="M95.41,-36.35C95.24,-66.44 94.88,-128.58 94.67,-165.22"/>
<polygon fill="lightblue" stroke="lightblue" points="91.17,-165.05 94.62,-175.07 98.17,-165.09 91.17,-165.05"/>
<text text-anchor="middle" x="102.63" y="-101.45" font-family="Times,serif" font-size="14.00"> &#160;0</text>
</g>
<!-- node&#45;0 -->
<g id="node8" class="node">
<title>node&#45;0</title>
<ellipse fill="none" stroke="black" cx="143.51" cy="-380" rx="36.51" ry="18"/>
<text text-anchor="middle" x="143.51" y="-374.95" font-family="Times,serif" font-size="14.00">node&#45;0</text>
</g>
<!-- node&#45;0&#45;&gt;node&#45;1 -->
<g id="edge7" class="edge">
<title>node&#45;0&#45;&gt;node&#45;1</title>
<path fill="none" stroke="lightblue" d="M134.52,-362.4C127.99,-350.33 118.95,-333.63 111.11,-319.17"/>
<polygon fill="lightblue" stroke="lightblue" points="114.24,-317.58 106.4,-310.46 108.08,-320.92 114.24,-317.58"/>
<text text-anchor="middle" x="130.63" y="-330.7" font-family="Times,serif" font-size="14.00"> &#160;0</text>
</g>
<!-- node&#45;0&#45;&gt;node&#45;2 -->
<g id="edge6" class="edge">
<title>node&#45;0&#45;&gt;node&#45;2</title>
<path fill="none" stroke="lightblue" d="M152.68,-362.4C159.39,-350.25 168.7,-333.41 176.73,-318.87"/>
<polygon fill="lightblue" stroke="lightblue" points="179.79,-320.57 181.56,-310.12 173.66,-317.18 179.79,-320.57"/>
<text text-anchor="middle" x="178.63" y="-330.7" font-family="Times,serif" font-size="14.00"> &#160;0</text>
</g>
<!-- node&#45;8&#45;&gt;node&#45;4 -->
<g id="edge4" class="edge">
<title>node&#45;8&#45;&gt;node&#45;4</title>
<path fill="none" stroke="lightblue" d="M236.71,-36.17C238.85,-57.35 240.72,-94.27 232.51,-124.5 228.3,-139.99 219.9,-155.71 211.97,-168.27"/>
<polygon fill="lightblue" stroke="lightblue" points="209.23,-166.07 206.63,-176.34 215.07,-169.93 209.23,-166.07"/>
<text text-anchor="middle" x="245.63" y="-101.45" font-family="Times,serif" font-size="14.00"> &#160;0</text>
</g>
</g>
</svg>
