<?xml version="1.0" encoding="UTF-8" standalone="no"?>
<!DOCTYPE svg PUBLIC "-//W3C//DTD SVG 1.1//EN"
 "http://www.w3.org/Graphics/SVG/1.1/DTD/svg11.dtd">
<!-- Generated by graphviz version 9.0.0 (20230911.1827)
 -->
<!-- Pages: 1 -->
<svg width="290pt" height="598pt"
 viewBox="0.00 0.00 290.33 598.41" xmlns="http://www.w3.org/2000/svg" xmlns:xlink="http://www.w3.org/1999/xlink">
<g id="graph0" class="graph" transform="scale(1 1) rotate(0) translate(4 594.41)">
<polygon fill="white" stroke="none" points="-4,4 -4,-594.41 286.33,-594.41 286.33,4 -4,4"/>
<text text-anchor="middle" x="141.17" y="-573.11" font-family="Times,serif" font-size="14.00">Network Uptime: 0s</text>
<!-- node&#45;1 -->
<g id="node1" class="node">
<title>node&#45;1</title>
<ellipse fill="none" stroke="black" cx="109.83" cy="-409.94" rx="37.83" ry="28.99"/>
<text text-anchor="middle" x="109.83" y="-413.14" font-family="Times,serif" font-size="14.00">node&#45;1</text>
<text text-anchor="middle" x="109.83" y="-396.64" font-family="Times,serif" font-size="14.00">(0s)</text>
</g>
<!-- node&#45;3 -->
<g id="node3" class="node">
<title>node&#45;3</title>
<ellipse fill="none" stroke="black" cx="109.83" cy="-282.96" rx="37.83" ry="28.99"/>
<text text-anchor="middle" x="109.83" y="-286.16" font-family="Times,serif" font-size="14.00">node&#45;3</text>
<text text-anchor="middle" x="109.83" y="-269.66" font-family="Times,serif" font-size="14.00">(0s)</text>
</g>
<!-- node&#45;1&#45;&gt;node&#45;3 -->
<g id="edge3" class="edge">
<title>node&#45;1&#45;&gt;node&#45;3</title>
<path fill="none" stroke="lightblue" d="M109.83,-380.58C109.83,-363.72 109.83,-342.08 109.83,-323.56"/>
<polygon fill="lightblue" stroke="lightblue" points="113.33,-323.72 109.83,-313.72 106.33,-323.72 113.33,-323.72"/>
<text text-anchor="middle" x="124.08" y="-349.65" font-family="Times,serif" font-size="14.00">0</text>
<text text-anchor="middle" x="124.08" y="-333.15" font-family="Times,serif" font-size="14.00"> &#160;(0s)</text>
</g>
<!-- node&#45;2 -->
<g id="node2" class="node">
<title>node&#45;2</title>
<ellipse fill="none" stroke="black" cx="203.83" cy="-409.94" rx="37.83" ry="28.99"/>
<text text-anchor="middle" x="203.83" y="-413.14" font-family="Times,serif" font-size="14.00">node&#45;2</text>
<text text-anchor="middle" x="203.83" y="-396.64" font-family="Times,serif" font-size="14.00">(0s)</text>
</g>
<!-- node&#45;4 -->
<g id="node4" class="node">
<title>node&#45;4</title>
<ellipse fill="none" stroke="black" cx="203.83" cy="-282.96" rx="37.83" ry="28.99"/>
<text text-anchor="middle" x="203.83" y="-286.16" font-family="Times,serif" font-size="14.00">node&#45;4</text>
<text text-anchor="middle" x="203.83" y="-269.66" font-family="Times,serif" font-size="14.00">(0s)</text>
</g>
<!-- node&#45;2&#45;&gt;node&#45;4 -->
<g id="edge9" class="edge">
<title>node&#45;2&#45;&gt;node&#45;4</title>
<path fill="none" stroke="lightblue" d="M203.83,-380.58C203.83,-363.72 203.83,-342.08 203.83,-323.56"/>
<polygon fill="lightblue" stroke="lightblue" points="207.33,-323.72 203.83,-313.72 200.33,-323.72 207.33,-323.72"/>
<text text-anchor="middle" x="218.08" y="-349.65" font-family="Times,serif" font-size="14.00">0</text>
<text text-anchor="middle" x="218.08" y="-333.15" font-family="Times,serif" font-size="14.00"> &#160;(0s)</text>
</g>
<!-- node&#45;5 -->
<g id="node6" class="node">
<title>node&#45;5</title>
<ellipse fill="none" stroke="black" cx="37.83" cy="-155.97" rx="37.83" ry="28.99"/>
<text text-anchor="middle" x="37.83" y="-159.17" font-family="Times,serif" font-size="14.00">node&#45;5</text>
<text text-anchor="middle" x="37.83" y="-142.67" font-family="Times,serif" font-size="14.00">(0s)</text>
</g>
<!-- node&#45;3&#45;&gt;node&#45;5 -->
<g id="edge4" class="edge">
<title>node&#45;3&#45;&gt;node&#45;5</title>
<path fill="none" stroke="lightblue" d="M87.15,-259.31C80.83,-252.23 74.34,-244.13 69.33,-235.97 61.6,-223.38 55.11,-208.58 50.06,-195.21"/>
<polygon fill="lightblue" stroke="lightblue" points="53.36,-194.04 46.68,-185.82 46.77,-196.41 53.36,-194.04"/>
<text text-anchor="middle" x="84.08" y="-222.67" font-family="Times,serif" font-size="14.00">0</text>
<text text-anchor="middle" x="84.08" y="-206.17" font-family="Times,serif" font-size="14.00"> &#160;(0s)</text>
</g>
<!-- node&#45;6 -->
<g id="node7" class="node">
<title>node&#45;6</title>
<ellipse fill="none" stroke="black" cx="200.83" cy="-155.97" rx="37.83" ry="28.99"/>
<text text-anchor="middle" x="200.83" y="-159.17" font-family="Times,serif" font-size="14.00">node&#45;6</text>
<text text-anchor="middle" x="200.83" y="-142.67" font-family="Times,serif" font-size="14.00">(0s)</text>
</g>
<!-- node&#45;4&#45;&gt;node&#45;6 -->
<g id="edge10" class="edge">
<title>node&#45;4&#45;&gt;node&#45;6</title>
<path fill="none" stroke="lightblue" d="M203.15,-253.6C202.74,-236.74 202.23,-215.1 201.78,-196.57"/>
<polygon fill="lightblue" stroke="lightblue" points="205.28,-196.65 201.54,-186.74 198.29,-196.82 205.28,-196.65"/>
<text text-anchor="middle" x="217.08" y="-222.67" font-family="Times,serif" font-size="14.00">0</text>
<text text-anchor="middle" x="217.08" y="-206.17" font-family="Times,serif" font-size="14.00"> &#160;(0s)</text>
</g>
<!-- node&#45;0 -->
<g id="node5" class="node">
<title>node&#45;0</title>
<ellipse fill="none" stroke="black" cx="156.83" cy="-536.92" rx="37.83" ry="28.99"/>
<text text-anchor="middle" x="156.83" y="-540.12" font-family="Times,serif" font-size="14.00">node&#45;0</text>
<text text-anchor="middle" x="156.83" y="-523.62" font-family="Times,serif" font-size="14.00">(0s)</text>
</g>
<!-- node&#45;0&#45;&gt;node&#45;1 -->
<g id="edge1" class="edge">
<title>node&#45;0&#45;&gt;node&#45;1</title>
<path fill="none" stroke="lightblue" d="M146.63,-508.8C140.01,-491.2 131.29,-468 124,-448.62"/>
<polygon fill="lightblue" stroke="lightblue" points="127.34,-447.55 120.54,-439.42 120.79,-450.01 127.34,-447.55"/>
<text text-anchor="middle" x="154.08" y="-476.63" font-family="Times,serif" font-size="14.00">0</text>
<text text-anchor="middle" x="154.08" y="-460.13" font-family="Times,serif" font-size="14.00"> &#160;(0s)</text>
</g>
<!-- node&#45;0&#45;&gt;node&#45;2 -->
<g id="edge2" class="edge">
<title>node&#45;0&#45;&gt;node&#45;2</title>
<path fill="none" stroke="lightblue" d="M167.03,-508.8C173.65,-491.2 182.37,-468 189.66,-448.62"/>
<polygon fill="lightblue" stroke="lightblue" points="192.88,-450.01 193.12,-439.42 186.32,-447.55 192.88,-450.01"/>
<text text-anchor="middle" x="201.08" y="-476.63" font-family="Times,serif" font-size="14.00">0</text>
<text text-anchor="middle" x="201.08" y="-460.13" font-family="Times,serif" font-size="14.00"> &#160;(0s)</text>
</g>
<!-- node&#45;7 -->
<g id="node8" class="node">
<title>node&#45;7</title>
<ellipse fill="none" stroke="black" cx="106.83" cy="-28.99" rx="37.83" ry="28.99"/>
<text text-anchor="middle" x="106.83" y="-32.19" font-family="Times,serif" font-size="14.00">node&#45;7</text>
<text text-anchor="middle" x="106.83" y="-15.69" font-family="Times,serif" font-size="14.00">(0s)</text>
</g>
<!-- node&#45;5&#45;&gt;node&#45;7 -->
<g id="edge7" class="edge">
<title>node&#45;5&#45;&gt;node&#45;7</title>
<path fill="none" stroke="lightblue" d="M46.52,-127.33C52,-111.71 59.82,-92.14 69.33,-75.98 72.06,-71.34 75.24,-66.68 78.57,-62.2"/>
<polygon fill="lightblue" stroke="lightblue" points="81.18,-64.54 84.58,-54.51 75.66,-60.23 81.18,-64.54"/>
<text text-anchor="middle" x="84.08" y="-95.68" font-family="Times,serif" font-size="14.00">0</text>
<text text-anchor="middle" x="84.08" y="-79.18" font-family="Times,serif" font-size="14.00"> &#160;(0s)</text>
</g>
<!-- node&#45;8 -->
<g id="node9" class="node">
<title>node&#45;8</title>
<ellipse fill="none" stroke="black" cx="217.83" cy="-28.99" rx="37.83" ry="28.99"/>
<text text-anchor="middle" x="217.83" y="-32.19" font-family="Times,serif" font-size="14.00">node&#45;8</text>
<text text-anchor="middle" x="217.83" y="-15.69" font-family="Times,serif" font-size="14.00">(0s)</text>
</g>
<!-- node&#45;6&#45;&gt;node&#45;8 -->
<g id="edge5" class="edge">
<title>node&#45;6&#45;&gt;node&#45;8</title>
<path fill="none" stroke="lightblue" d="M204.65,-126.93C206.96,-109.88 209.96,-87.86 212.51,-69.12"/>
<polygon fill="lightblue" stroke="lightblue" points="215.94,-69.83 213.82,-59.45 209.01,-68.88 215.94,-69.83"/>
<text text-anchor="middle" x="226.08" y="-95.68" font-family="Times,serif" font-size="14.00">0</text>
<text text-anchor="middle" x="226.08" y="-79.18" font-family="Times,serif" font-size="14.00"> &#160;(0s)</text>
</g>
<!-- node&#45;7&#45;&gt;node&#45;3 -->
<g id="edge8" class="edge">
<title>node&#45;7&#45;&gt;node&#45;3</title>
<path fill="none" stroke="lightblue" d="M107.17,-58.3C107.7,-103.25 108.75,-191.08 109.36,-242.28"/>
<polygon fill="lightblue" stroke="lightblue" points="105.85,-242.07 109.47,-252.03 112.85,-241.99 105.85,-242.07"/>
<text text-anchor="middle" x="123.08" y="-159.17" font-family="Times,serif" font-size="14.00">0</text>
<text text-anchor="middle" x="123.08" y="-142.67" font-family="Times,serif" font-size="14.00"> &#160;(0s)</text>
</g>
<!-- node&#45;8&#45;&gt;node&#45;4 -->
<g id="edge6" class="edge">
<title>node&#45;8&#45;&gt;node&#45;4</title>
<path fill="none" stroke="lightblue" d="M234.76,-55.36C238.34,-61.84 241.69,-68.96 243.83,-75.98 257.99,-122.34 253.86,-136.87 247.83,-184.97 244.92,-208.18 244.4,-214.62 234.83,-235.97 233.02,-240 230.86,-244.07 228.54,-248.03"/>
<polygon fill="lightblue" stroke="lightblue" points="225.71,-245.96 223.33,-256.29 231.63,-249.69 225.71,-245.96"/>
<text text-anchor="middle" x="268.08" y="-159.17" font-family="Times,serif" font-size="14.00">0</text>
<text text-anchor="middle" x="268.08" y="-142.67" font-family="Times,serif" font-size="14.00"> &#160;(0s)</text>
</g>
</g>
</svg>
