<?xml version="1.0" encoding="UTF-8" standalone="no"?>
<!DOCTYPE svg PUBLIC "-//W3C//DTD SVG 1.1//EN"
 "http://www.w3.org/Graphics/SVG/1.1/DTD/svg11.dtd">
<!-- Generated by graphviz version 9.0.0 (20230911.1827)
 -->
<!-- Pages: 1 -->
<svg width="689pt" height="598pt"
 viewBox="0.00 0.00 689.03 598.41" xmlns="http://www.w3.org/2000/svg" xmlns:xlink="http://www.w3.org/1999/xlink">
<g id="graph0" class="graph" transform="scale(1 1) rotate(0) translate(4 594.41)">
<polygon fill="white" stroke="none" points="-4,4 -4,-594.41 685.03,-594.41 685.03,4 -4,4"/>
<text text-anchor="middle" x="340.51" y="-573.11" font-family="Times,serif" font-size="14.00">Network Uptime: 28.840249208s</text>
<!-- node&#45;5 -->
<g id="node1" class="node">
<title>node&#45;5</title>
<ellipse fill="none" stroke="black" cx="127.03" cy="-536.92" rx="76.54" ry="28.99"/>
<text text-anchor="middle" x="127.03" y="-540.12" font-family="Times,serif" font-size="14.00">node&#45;5</text>
<text text-anchor="middle" x="127.03" y="-523.62" font-family="Times,serif" font-size="14.00">(28.840000292s)</text>
</g>
<!-- node&#45;7 -->
<g id="node3" class="node">
<title>node&#45;7</title>
<ellipse fill="none" stroke="black" cx="195.03" cy="-409.94" rx="76.54" ry="28.99"/>
<text text-anchor="middle" x="195.03" y="-413.14" font-family="Times,serif" font-size="14.00">node&#45;7</text>
<text text-anchor="middle" x="195.03" y="-396.64" font-family="Times,serif" font-size="14.00">(28.839997125s)</text>
</g>
<!-- node&#45;5&#45;&gt;node&#45;7 -->
<g id="edge1" class="edge">
<title>node&#45;5&#45;&gt;node&#45;7</title>
<path fill="none" stroke="lightblue" d="M142.12,-508.18C151.67,-490.63 164.14,-467.71 174.58,-448.53"/>
<polygon fill="lightblue" stroke="lightblue" points="177.55,-450.39 179.26,-439.93 171.4,-447.04 177.55,-450.39"/>
<text text-anchor="middle" x="219.9" y="-476.63" font-family="Times,serif" font-size="14.00">9</text>
<text text-anchor="middle" x="219.9" y="-460.13" font-family="Times,serif" font-size="14.00"> &#160;(28.840163167s)</text>
</g>
<!-- node&#45;6 -->
<g id="node2" class="node">
<title>node&#45;6</title>
<ellipse fill="none" stroke="black" cx="614.03" cy="-155.97" rx="67" ry="28.99"/>
<text text-anchor="middle" x="614.03" y="-159.17" font-family="Times,serif" font-size="14.00">node&#45;6</text>
<text text-anchor="middle" x="614.03" y="-142.67" font-family="Times,serif" font-size="14.00">(28.8396405s)</text>
</g>
<!-- node&#45;8 -->
<g id="node4" class="node">
<title>node&#45;8</title>
<ellipse fill="none" stroke="black" cx="445.03" cy="-28.99" rx="76.54" ry="28.99"/>
<text text-anchor="middle" x="445.03" y="-32.19" font-family="Times,serif" font-size="14.00">node&#45;8</text>
<text text-anchor="middle" x="445.03" y="-15.69" font-family="Times,serif" font-size="14.00">(28.839914875s)</text>
</g>
<!-- node&#45;6&#45;&gt;node&#45;8 -->
<g id="edge9" class="edge">
<title>node&#45;6&#45;&gt;node&#45;8</title>
<path fill="none" stroke="lightblue" d="M581.04,-130.58C554.52,-110.96 517.05,-83.25 488.15,-61.88"/>
<polygon fill="lightblue" stroke="lightblue" points="490.43,-59.21 480.31,-56.08 486.27,-64.84 490.43,-59.21"/>
<text text-anchor="middle" x="598.9" y="-95.68" font-family="Times,serif" font-size="14.00">9</text>
<text text-anchor="middle" x="598.9" y="-79.18" font-family="Times,serif" font-size="14.00"> &#160;(28.839933375s)</text>
</g>
<!-- node&#45;3 -->
<g id="node7" class="node">
<title>node&#45;3</title>
<ellipse fill="none" stroke="black" cx="195.03" cy="-282.96" rx="76.54" ry="28.99"/>
<text text-anchor="middle" x="195.03" y="-286.16" font-family="Times,serif" font-size="14.00">node&#45;3</text>
<text text-anchor="middle" x="195.03" y="-269.66" font-family="Times,serif" font-size="14.00">(28.840112208s)</text>
</g>
<!-- node&#45;7&#45;&gt;node&#45;3 -->
<g id="edge2" class="edge">
<title>node&#45;7&#45;&gt;node&#45;3</title>
<path fill="none" stroke="lightblue" d="M195.03,-380.58C195.03,-363.72 195.03,-342.08 195.03,-323.56"/>
<polygon fill="lightblue" stroke="lightblue" points="198.53,-323.72 195.03,-313.72 191.53,-323.72 198.53,-323.72"/>
<text text-anchor="middle" x="244.9" y="-349.65" font-family="Times,serif" font-size="14.00">9</text>
<text text-anchor="middle" x="244.9" y="-333.15" font-family="Times,serif" font-size="14.00"> &#160;(28.839935166s)</text>
</g>
<!-- node&#45;4 -->
<g id="node8" class="node">
<title>node&#45;4</title>
<ellipse fill="none" stroke="black" cx="483.03" cy="-282.96" rx="76.54" ry="28.99"/>
<text text-anchor="middle" x="483.03" y="-286.16" font-family="Times,serif" font-size="14.00">node&#45;4</text>
<text text-anchor="middle" x="483.03" y="-269.66" font-family="Times,serif" font-size="14.00">(28.839947167s)</text>
</g>
<!-- node&#45;8&#45;&gt;node&#45;4 -->
<g id="edge10" class="edge">
<title>node&#45;8&#45;&gt;node&#45;4</title>
<path fill="none" stroke="lightblue" d="M439.46,-58.36C434.31,-89.73 428.75,-141.56 438.28,-184.97 442.8,-205.56 452.13,-226.99 461.11,-244.45"/>
<polygon fill="lightblue" stroke="lightblue" points="457.82,-245.72 465.6,-252.9 464,-242.43 457.82,-245.72"/>
<text text-anchor="middle" x="488.9" y="-159.17" font-family="Times,serif" font-size="14.00">9</text>
<text text-anchor="middle" x="488.9" y="-142.67" font-family="Times,serif" font-size="14.00"> &#160;(28.839921625s)</text>
</g>
<!-- node&#45;0 -->
<g id="node5" class="node">
<title>node&#45;0</title>
<ellipse fill="none" stroke="black" cx="377.03" cy="-536.92" rx="58.51" ry="28.99"/>
<text text-anchor="middle" x="377.03" y="-540.12" font-family="Times,serif" font-size="14.00">node&#45;0</text>
<text text-anchor="middle" x="377.03" y="-523.62" font-family="Times,serif" font-size="14.00">(406.167µs)</text>
</g>
<!-- node&#45;2 -->
<g id="node6" class="node">
<title>node&#45;2</title>
<ellipse fill="none" stroke="black" cx="483.03" cy="-409.94" rx="58.51" ry="28.99"/>
<text text-anchor="middle" x="483.03" y="-413.14" font-family="Times,serif" font-size="14.00">node&#45;2</text>
<text text-anchor="middle" x="483.03" y="-396.64" font-family="Times,serif" font-size="14.00">(323.125µs)</text>
</g>
<!-- node&#45;0&#45;&gt;node&#45;2 -->
<g id="edge6" class="edge">
<title>node&#45;0&#45;&gt;node&#45;2</title>
<path fill="none" stroke="lightblue" d="M415.22,-514.62C425.44,-507.68 435.9,-499.31 444.03,-489.93 454.32,-478.05 462.64,-462.97 468.91,-449.18"/>
<polygon fill="lightblue" stroke="lightblue" points="471.97,-450.92 472.7,-440.35 465.54,-448.16 471.97,-450.92"/>
<text text-anchor="middle" x="502.15" y="-476.63" font-family="Times,serif" font-size="14.00">2</text>
<text text-anchor="middle" x="502.15" y="-460.13" font-family="Times,serif" font-size="14.00"> &#160;(313.542µs)</text>
</g>
<!-- node&#45;1 -->
<g id="node9" class="node">
<title>node&#45;1</title>
<ellipse fill="none" stroke="black" cx="348.03" cy="-409.94" rx="58.51" ry="28.99"/>
<text text-anchor="middle" x="348.03" y="-413.14" font-family="Times,serif" font-size="14.00">node&#45;1</text>
<text text-anchor="middle" x="348.03" y="-396.64" font-family="Times,serif" font-size="14.00">(315.959µs)</text>
</g>
<!-- node&#45;0&#45;&gt;node&#45;1 -->
<g id="edge5" class="edge">
<title>node&#45;0&#45;&gt;node&#45;1</title>
<path fill="none" stroke="lightblue" d="M370.52,-507.87C366.57,-490.83 361.46,-468.81 357.11,-450.07"/>
<polygon fill="lightblue" stroke="lightblue" points="360.53,-449.32 354.86,-440.37 353.71,-450.9 360.53,-449.32"/>
<text text-anchor="middle" x="403.15" y="-476.63" font-family="Times,serif" font-size="14.00">2</text>
<text text-anchor="middle" x="403.15" y="-460.13" font-family="Times,serif" font-size="14.00"> &#160;(295.334µs)</text>
</g>
<!-- node&#45;2&#45;&gt;node&#45;4 -->
<g id="edge3" class="edge">
<title>node&#45;2&#45;&gt;node&#45;4</title>
<path fill="none" stroke="lightblue" d="M483.03,-380.58C483.03,-363.72 483.03,-342.08 483.03,-323.56"/>
<polygon fill="lightblue" stroke="lightblue" points="486.53,-323.72 483.03,-313.72 479.53,-323.72 486.53,-323.72"/>
<text text-anchor="middle" x="520.15" y="-349.65" font-family="Times,serif" font-size="14.00">1</text>
<text text-anchor="middle" x="520.15" y="-333.15" font-family="Times,serif" font-size="14.00"> &#160;(437.042µs)</text>
</g>
<!-- node&#45;3&#45;&gt;node&#45;5 -->
<g id="edge8" class="edge">
<title>node&#45;3&#45;&gt;node&#45;5</title>
<path fill="none" stroke="lightblue" d="M130.98,-298.97C88.37,-312.64 35.58,-337.55 9.28,-380.95 -4.08,-402.99 -1.72,-415.63 9.28,-438.93 22.7,-467.37 49,-490.3 73.35,-506.7"/>
<polygon fill="lightblue" stroke="lightblue" points="71.34,-509.57 81.64,-512.07 75.14,-503.69 71.34,-509.57"/>
<text text-anchor="middle" x="59.9" y="-413.14" font-family="Times,serif" font-size="14.00">10</text>
<text text-anchor="middle" x="59.9" y="-396.64" font-family="Times,serif" font-size="14.00"> &#160;(28.840011292s)</text>
</g>
<!-- node&#45;4&#45;&gt;node&#45;6 -->
<g id="edge4" class="edge">
<title>node&#45;4&#45;&gt;node&#45;6</title>
<path fill="none" stroke="lightblue" d="M510.81,-255.45C530.7,-236.47 557.63,-210.78 579,-190.4"/>
<polygon fill="lightblue" stroke="lightblue" points="581.27,-193.07 586.09,-183.63 576.44,-188 581.27,-193.07"/>
<text text-anchor="middle" x="613.9" y="-222.67" font-family="Times,serif" font-size="14.00">10</text>
<text text-anchor="middle" x="613.9" y="-206.17" font-family="Times,serif" font-size="14.00"> &#160;(28.839647542s)</text>
</g>
<!-- node&#45;1&#45;&gt;node&#45;3 -->
<g id="edge7" class="edge">
<title>node&#45;1&#45;&gt;node&#45;3</title>
<path fill="none" stroke="lightblue" d="M335.99,-381.14C327.63,-364.49 315.1,-343.93 299.03,-329.95 288.51,-320.8 275.88,-313.2 263.11,-306.98"/>
<polygon fill="lightblue" stroke="lightblue" points="264.79,-303.91 254.24,-302.93 261.88,-310.27 264.79,-303.91"/>
<text text-anchor="middle" x="362.15" y="-349.65" font-family="Times,serif" font-size="14.00">1</text>
<text text-anchor="middle" x="362.15" y="-333.15" font-family="Times,serif" font-size="14.00"> &#160;(424.125µs)</text>
</g>
</g>
</svg>
