<?xml version="1.0" encoding="UTF-8" standalone="no"?>
<!DOCTYPE svg PUBLIC "-//W3C//DTD SVG 1.1//EN"
 "http://www.w3.org/Graphics/SVG/1.1/DTD/svg11.dtd">
<!-- Generated by graphviz version 9.0.0 (20230911.1827)
 -->
<!-- Pages: 1 -->
<svg width="200pt" height="344pt"
 viewBox="0.00 0.00 200.25 344.45" xmlns="http://www.w3.org/2000/svg" xmlns:xlink="http://www.w3.org/1999/xlink">
<g id="graph0" class="graph" transform="scale(1 1) rotate(0) translate(4 340.45)">
<polygon fill="white" stroke="none" points="-4,4 -4,-340.45 196.25,-340.45 196.25,4 -4,4"/>
<text text-anchor="middle" x="96.12" y="-319.15" font-family="Times,serif" font-size="14.00">Network Uptime: 51.34401225s</text>
<!-- node&#45;2 -->
<g id="node1" class="node">
<title>node&#45;2</title>
<ellipse fill="none" stroke="black" cx="84.52" cy="-28.99" rx="71.77" ry="28.99"/>
<text text-anchor="middle" x="84.52" y="-32.19" font-family="Times,serif" font-size="14.00">node&#45;2</text>
<text text-anchor="middle" x="84.52" y="-15.69" font-family="Times,serif" font-size="14.00">(51.34394625s)</text>
</g>
<!-- node&#45;0 -->
<g id="node2" class="node">
<title>node&#45;0</title>
<ellipse fill="none" stroke="black" cx="84.52" cy="-282.96" rx="76.54" ry="28.99"/>
<text text-anchor="middle" x="84.52" y="-286.16" font-family="Times,serif" font-size="14.00">node&#45;0</text>
<text text-anchor="middle" x="84.52" y="-269.66" font-family="Times,serif" font-size="14.00">(51.343854708s)</text>
</g>
<!-- node&#45;1 -->
<g id="node3" class="node">
<title>node&#45;1</title>
<ellipse fill="none" stroke="black" cx="84.52" cy="-155.97" rx="76.54" ry="28.99"/>
<text text-anchor="middle" x="84.52" y="-159.17" font-family="Times,serif" font-size="14.00">node&#45;1</text>
<text text-anchor="middle" x="84.52" y="-142.67" font-family="Times,serif" font-size="14.00">(51.343903583s)</text>
</g>
<!-- node&#45;0&#45;&gt;node&#45;1 -->
<g id="edge1" class="edge">
<title>node&#45;0&#45;&gt;node&#45;1</title>
<path fill="none" stroke="lightblue" d="M84.52,-253.6C84.52,-236.74 84.52,-215.1 84.52,-196.57"/>
<polygon fill="lightblue" stroke="lightblue" points="88.02,-196.74 84.52,-186.74 81.02,-196.74 88.02,-196.74"/>
<text text-anchor="middle" x="134.4" y="-222.67" font-family="Times,serif" font-size="14.00">51</text>
<text text-anchor="middle" x="134.4" y="-206.17" font-family="Times,serif" font-size="14.00"> &#160;(51.343909916s)</text>
</g>
<!-- node&#45;1&#45;&gt;node&#45;2 -->
<g id="edge2" class="edge">
<title>node&#45;1&#45;&gt;node&#45;2</title>
<path fill="none" stroke="lightblue" d="M84.52,-126.61C84.52,-109.75 84.52,-88.12 84.52,-69.59"/>
<polygon fill="lightblue" stroke="lightblue" points="88.02,-69.75 84.52,-59.75 81.02,-69.75 88.02,-69.75"/>
<text text-anchor="middle" x="134.4" y="-95.68" font-family="Times,serif" font-size="14.00">50</text>
<text text-anchor="middle" x="134.4" y="-79.18" font-family="Times,serif" font-size="14.00"> &#160;(51.343938167s)</text>
</g>
</g>
</svg>
