<?xml version="1.0" encoding="UTF-8" standalone="no"?>
<!DOCTYPE svg PUBLIC "-//W3C//DTD SVG 1.1//EN"
 "http://www.w3.org/Graphics/SVG/1.1/DTD/svg11.dtd">
<!-- Generated by graphviz version 9.0.0 (20230911.1827)
 -->
<!-- Pages: 1 -->
<svg width="263pt" height="310pt"
 viewBox="0.00 0.00 263.02 309.50" xmlns="http://www.w3.org/2000/svg" xmlns:xlink="http://www.w3.org/1999/xlink">
<g id="graph0" class="graph" transform="scale(1 1) rotate(0) translate(4 305.5)">
<polygon fill="white" stroke="none" points="-4,4 -4,-305.5 259.02,-305.5 259.02,4 -4,4"/>
<!-- node&#45;8 -->
<g id="node1" class="node">
<title>node&#45;8</title>
<ellipse fill="none" stroke="black" cx="36.51" cy="-18" rx="36.51" ry="18"/>
<text text-anchor="middle" x="36.51" y="-12.95" font-family="Times,serif" font-size="14.00">node&#45;8</text>
</g>
<!-- node&#45;1 -->
<g id="node2" class="node">
<title>node&#45;1</title>
<ellipse fill="none" stroke="black" cx="36.51" cy="-195" rx="36.51" ry="18"/>
<text text-anchor="middle" x="36.51" y="-189.95" font-family="Times,serif" font-size="14.00">node&#45;1</text>
</g>
<!-- node&#45;5 -->
<g id="node6" class="node">
<title>node&#45;5</title>
<ellipse fill="none" stroke="black" cx="127.51" cy="-106.5" rx="36.51" ry="18"/>
<text text-anchor="middle" x="127.51" y="-101.45" font-family="Times,serif" font-size="14.00">node&#45;5</text>
</g>
<!-- node&#45;1&#45;&gt;node&#45;5 -->
<g id="edge1" class="edge">
<title>node&#45;1&#45;&gt;node&#45;5</title>
<path fill="none" stroke="lightblue" d="M52.78,-178.54C66.75,-165.25 87.11,-145.9 103.05,-130.75"/>
<polygon fill="lightblue" stroke="lightblue" points="105.45,-133.3 110.28,-123.87 100.62,-128.23 105.45,-133.3"/>
<text text-anchor="middle" x="96.63" y="-145.7" font-family="Times,serif" font-size="14.00"> &#160;0</text>
</g>
<!-- node&#45;2 -->
<g id="node3" class="node">
<title>node&#45;2</title>
<ellipse fill="none" stroke="black" cx="127.51" cy="-195" rx="36.51" ry="18"/>
<text text-anchor="middle" x="127.51" y="-189.95" font-family="Times,serif" font-size="14.00">node&#45;2</text>
</g>
<!-- node&#45;2&#45;&gt;node&#45;5 -->
<g id="edge2" class="edge">
<title>node&#45;2&#45;&gt;node&#45;5</title>
<path fill="none" stroke="lightblue" d="M127.51,-176.91C127.51,-165.26 127.51,-149.55 127.51,-136.02"/>
<polygon fill="lightblue" stroke="lightblue" points="131.01,-136.36 127.51,-126.36 124.01,-136.36 131.01,-136.36"/>
<text text-anchor="middle" x="134.63" y="-145.7" font-family="Times,serif" font-size="14.00"> &#160;0</text>
</g>
<!-- node&#45;3 -->
<g id="node4" class="node">
<title>node&#45;3</title>
<ellipse fill="none" stroke="black" cx="218.51" cy="-283.5" rx="36.51" ry="18"/>
<text text-anchor="middle" x="218.51" y="-278.45" font-family="Times,serif" font-size="14.00">node&#45;3</text>
</g>
<!-- node&#45;4 -->
<g id="node5" class="node">
<title>node&#45;4</title>
<ellipse fill="none" stroke="black" cx="218.51" cy="-195" rx="36.51" ry="18"/>
<text text-anchor="middle" x="218.51" y="-189.95" font-family="Times,serif" font-size="14.00">node&#45;4</text>
</g>
<!-- node&#45;3&#45;&gt;node&#45;4 -->
<g id="edge3" class="edge">
<title>node&#45;3&#45;&gt;node&#45;4</title>
<path fill="none" stroke="lightblue" d="M218.51,-265.41C218.51,-253.76 218.51,-238.05 218.51,-224.52"/>
<polygon fill="lightblue" stroke="lightblue" points="222.01,-224.86 218.51,-214.86 215.01,-224.86 222.01,-224.86"/>
<text text-anchor="middle" x="225.63" y="-234.2" font-family="Times,serif" font-size="14.00"> &#160;0</text>
</g>
<!-- node&#45;4&#45;&gt;node&#45;5 -->
<g id="edge4" class="edge">
<title>node&#45;4&#45;&gt;node&#45;5</title>
<path fill="none" stroke="lightblue" d="M202.24,-178.54C188.26,-165.25 167.91,-145.9 151.97,-130.75"/>
<polygon fill="lightblue" stroke="lightblue" points="154.39,-128.23 144.73,-123.87 149.57,-133.3 154.39,-128.23"/>
<text text-anchor="middle" x="187.63" y="-145.7" font-family="Times,serif" font-size="14.00"> &#160;0</text>
</g>
<!-- node&#45;5&#45;&gt;node&#45;8 -->
<g id="edge7" class="edge">
<title>node&#45;5&#45;&gt;node&#45;8</title>
<path fill="none" stroke="lightblue" d="M111.24,-90.04C97.26,-76.75 76.91,-57.4 60.97,-42.25"/>
<polygon fill="lightblue" stroke="lightblue" points="63.39,-39.73 53.73,-35.37 58.57,-44.8 63.39,-39.73"/>
<text text-anchor="middle" x="96.63" y="-57.2" font-family="Times,serif" font-size="14.00"> &#160;0</text>
</g>
<!-- node&#45;6 -->
<g id="node7" class="node">
<title>node&#45;6</title>
<ellipse fill="none" stroke="black" cx="127.51" cy="-18" rx="36.51" ry="18"/>
<text text-anchor="middle" x="127.51" y="-12.95" font-family="Times,serif" font-size="14.00">node&#45;6</text>
</g>
<!-- node&#45;5&#45;&gt;node&#45;6 -->
<g id="edge5" class="edge">
<title>node&#45;5&#45;&gt;node&#45;6</title>
<path fill="none" stroke="lightblue" d="M127.51,-88.41C127.51,-76.76 127.51,-61.05 127.51,-47.52"/>
<polygon fill="lightblue" stroke="lightblue" points="131.01,-47.86 127.51,-37.86 124.01,-47.86 131.01,-47.86"/>
<text text-anchor="middle" x="134.63" y="-57.2" font-family="Times,serif" font-size="14.00"> &#160;0</text>
</g>
<!-- node&#45;7 -->
<g id="node8" class="node">
<title>node&#45;7</title>
<ellipse fill="none" stroke="black" cx="218.51" cy="-18" rx="36.51" ry="18"/>
<text text-anchor="middle" x="218.51" y="-12.95" font-family="Times,serif" font-size="14.00">node&#45;7</text>
</g>
<!-- node&#45;5&#45;&gt;node&#45;7 -->
<g id="edge6" class="edge">
<title>node&#45;5&#45;&gt;node&#45;7</title>
<path fill="none" stroke="lightblue" d="M143.78,-90.04C157.75,-76.75 178.11,-57.4 194.05,-42.25"/>
<polygon fill="lightblue" stroke="lightblue" points="196.45,-44.8 201.28,-35.37 191.62,-39.73 196.45,-44.8"/>
<text text-anchor="middle" x="187.63" y="-57.2" font-family="Times,serif" font-size="14.00"> &#160;0</text>
</g>
</g>
</svg>
