<?xml version="1.0" encoding="UTF-8" standalone="no"?>
<!DOCTYPE svg PUBLIC "-//W3C//DTD SVG 1.1//EN"
 "http://www.w3.org/Graphics/SVG/1.1/DTD/svg11.dtd">
<!-- Generated by graphviz version 9.0.0 (20230911.1827)
 -->
<!-- Pages: 1 -->
<svg width="526pt" height="471pt"
 viewBox="0.00 0.00 526.29 471.43" xmlns="http://www.w3.org/2000/svg" xmlns:xlink="http://www.w3.org/1999/xlink">
<g id="graph0" class="graph" transform="scale(1 1) rotate(0) translate(4 467.43)">
<polygon fill="white" stroke="none" points="-4,4 -4,-467.43 522.29,-467.43 522.29,4 -4,4"/>
<text text-anchor="middle" x="259.15" y="-446.13" font-family="Times,serif" font-size="14.00">Network Uptime: 38.476270417s</text>
<!-- node&#45;8 -->
<g id="node1" class="node">
<title>node&#45;8</title>
<ellipse fill="none" stroke="black" cx="76.54" cy="-28.99" rx="76.54" ry="28.99"/>
<text text-anchor="middle" x="76.54" y="-32.19" font-family="Times,serif" font-size="14.00">node&#45;8</text>
<text text-anchor="middle" x="76.54" y="-15.69" font-family="Times,serif" font-size="14.00">(38.475863209s)</text>
</g>
<!-- node&#45;1 -->
<g id="node2" class="node">
<title>node&#45;1</title>
<ellipse fill="none" stroke="black" cx="76.54" cy="-282.96" rx="76.54" ry="28.99"/>
<text text-anchor="middle" x="76.54" y="-286.16" font-family="Times,serif" font-size="14.00">node&#45;1</text>
<text text-anchor="middle" x="76.54" y="-269.66" font-family="Times,serif" font-size="14.00">(38.476011875s)</text>
</g>
<!-- node&#45;5 -->
<g id="node6" class="node">
<title>node&#45;5</title>
<ellipse fill="none" stroke="black" cx="247.54" cy="-155.97" rx="67" ry="28.99"/>
<text text-anchor="middle" x="247.54" y="-159.17" font-family="Times,serif" font-size="14.00">node&#45;5</text>
<text text-anchor="middle" x="247.54" y="-142.67" font-family="Times,serif" font-size="14.00">(38.4760265s)</text>
</g>
<!-- node&#45;1&#45;&gt;node&#45;5 -->
<g id="edge1" class="edge">
<title>node&#45;1&#45;&gt;node&#45;5</title>
<path fill="none" stroke="lightblue" d="M100.23,-254.94C115.46,-238.6 136.27,-218.07 157.29,-202.97 167.79,-195.43 179.69,-188.43 191.34,-182.28"/>
<polygon fill="lightblue" stroke="lightblue" points="192.8,-185.46 200.11,-177.79 189.61,-179.23 192.8,-185.46"/>
<text text-anchor="middle" x="200.67" y="-222.67" font-family="Times,serif" font-size="14.00">7</text>
<text text-anchor="middle" x="200.67" y="-206.17" font-family="Times,serif" font-size="14.00"> &#160;(38.4760545s)</text>
</g>
<!-- node&#45;2 -->
<g id="node3" class="node">
<title>node&#45;2</title>
<ellipse fill="none" stroke="black" cx="247.54" cy="-282.96" rx="76.54" ry="28.99"/>
<text text-anchor="middle" x="247.54" y="-286.16" font-family="Times,serif" font-size="14.00">node&#45;2</text>
<text text-anchor="middle" x="247.54" y="-269.66" font-family="Times,serif" font-size="14.00">(38.475992334s)</text>
</g>
<!-- node&#45;2&#45;&gt;node&#45;5 -->
<g id="edge2" class="edge">
<title>node&#45;2&#45;&gt;node&#45;5</title>
<path fill="none" stroke="lightblue" d="M247.54,-253.6C247.54,-236.74 247.54,-215.1 247.54,-196.57"/>
<polygon fill="lightblue" stroke="lightblue" points="251.04,-196.74 247.54,-186.74 244.04,-196.74 251.04,-196.74"/>
<text text-anchor="middle" x="297.42" y="-222.67" font-family="Times,serif" font-size="14.00">7</text>
<text text-anchor="middle" x="297.42" y="-206.17" font-family="Times,serif" font-size="14.00"> &#160;(38.475859792s)</text>
</g>
<!-- node&#45;3 -->
<g id="node4" class="node">
<title>node&#45;3</title>
<ellipse fill="none" stroke="black" cx="418.54" cy="-409.94" rx="76.54" ry="28.99"/>
<text text-anchor="middle" x="418.54" y="-413.14" font-family="Times,serif" font-size="14.00">node&#45;3</text>
<text text-anchor="middle" x="418.54" y="-396.64" font-family="Times,serif" font-size="14.00">(38.476078083s)</text>
</g>
<!-- node&#45;4 -->
<g id="node5" class="node">
<title>node&#45;4</title>
<ellipse fill="none" stroke="black" cx="418.54" cy="-282.96" rx="76.54" ry="28.99"/>
<text text-anchor="middle" x="418.54" y="-286.16" font-family="Times,serif" font-size="14.00">node&#45;4</text>
<text text-anchor="middle" x="418.54" y="-269.66" font-family="Times,serif" font-size="14.00">(38.475830708s)</text>
</g>
<!-- node&#45;3&#45;&gt;node&#45;4 -->
<g id="edge3" class="edge">
<title>node&#45;3&#45;&gt;node&#45;4</title>
<path fill="none" stroke="lightblue" d="M418.54,-380.58C418.54,-363.72 418.54,-342.08 418.54,-323.56"/>
<polygon fill="lightblue" stroke="lightblue" points="422.04,-323.72 418.54,-313.72 415.04,-323.72 422.04,-323.72"/>
<text text-anchor="middle" x="468.42" y="-349.65" font-family="Times,serif" font-size="14.00">7</text>
<text text-anchor="middle" x="468.42" y="-333.15" font-family="Times,serif" font-size="14.00"> &#160;(38.475995708s)</text>
</g>
<!-- node&#45;4&#45;&gt;node&#45;5 -->
<g id="edge4" class="edge">
<title>node&#45;4&#45;&gt;node&#45;5</title>
<path fill="none" stroke="lightblue" d="M400.27,-254.69C388.04,-238.05 370.7,-217.28 351.54,-202.97 339.01,-193.6 324.27,-185.62 309.89,-179.07"/>
<polygon fill="lightblue" stroke="lightblue" points="311.47,-175.95 300.9,-175.16 308.68,-182.36 311.47,-175.95"/>
<text text-anchor="middle" x="433.42" y="-222.67" font-family="Times,serif" font-size="14.00">7</text>
<text text-anchor="middle" x="433.42" y="-206.17" font-family="Times,serif" font-size="14.00"> &#160;(38.475884375s)</text>
</g>
<!-- node&#45;5&#45;&gt;node&#45;8 -->
<g id="edge7" class="edge">
<title>node&#45;5&#45;&gt;node&#45;8</title>
<path fill="none" stroke="lightblue" d="M195.45,-137.24C178.1,-129.98 159.27,-120.54 143.79,-108.98 127.9,-97.11 113.23,-80.84 101.68,-66.14"/>
<polygon fill="lightblue" stroke="lightblue" points="104.67,-64.29 95.82,-58.45 99.1,-68.53 104.67,-64.29"/>
<text text-anchor="middle" x="194.42" y="-95.68" font-family="Times,serif" font-size="14.00">21</text>
<text text-anchor="middle" x="194.42" y="-79.18" font-family="Times,serif" font-size="14.00"> &#160;(38.476034667s)</text>
</g>
<!-- node&#45;6 -->
<g id="node7" class="node">
<title>node&#45;6</title>
<ellipse fill="none" stroke="black" cx="247.54" cy="-28.99" rx="76.54" ry="28.99"/>
<text text-anchor="middle" x="247.54" y="-32.19" font-family="Times,serif" font-size="14.00">node&#45;6</text>
<text text-anchor="middle" x="247.54" y="-15.69" font-family="Times,serif" font-size="14.00">(38.476093459s)</text>
</g>
<!-- node&#45;5&#45;&gt;node&#45;6 -->
<g id="edge5" class="edge">
<title>node&#45;5&#45;&gt;node&#45;6</title>
<path fill="none" stroke="lightblue" d="M247.54,-126.61C247.54,-109.75 247.54,-88.12 247.54,-69.59"/>
<polygon fill="lightblue" stroke="lightblue" points="251.04,-69.75 247.54,-59.75 244.04,-69.75 251.04,-69.75"/>
<text text-anchor="middle" x="297.42" y="-95.68" font-family="Times,serif" font-size="14.00">21</text>
<text text-anchor="middle" x="297.42" y="-79.18" font-family="Times,serif" font-size="14.00"> &#160;(38.476077042s)</text>
</g>
<!-- node&#45;7 -->
<g id="node8" class="node">
<title>node&#45;7</title>
<ellipse fill="none" stroke="black" cx="418.54" cy="-28.99" rx="76.54" ry="28.99"/>
<text text-anchor="middle" x="418.54" y="-32.19" font-family="Times,serif" font-size="14.00">node&#45;7</text>
<text text-anchor="middle" x="418.54" y="-15.69" font-family="Times,serif" font-size="14.00">(38.475921083s)</text>
</g>
<!-- node&#45;5&#45;&gt;node&#45;7 -->
<g id="edge6" class="edge">
<title>node&#45;5&#45;&gt;node&#45;7</title>
<path fill="none" stroke="lightblue" d="M299.52,-137.39C316.98,-130.12 335.97,-120.62 351.54,-108.98 367.41,-97.13 382.02,-80.85 393.53,-66.15"/>
<polygon fill="lightblue" stroke="lightblue" points="396.1,-68.55 399.36,-58.46 390.53,-64.32 396.1,-68.55"/>
<text text-anchor="middle" x="430.04" y="-95.68" font-family="Times,serif" font-size="14.00">21</text>
<text text-anchor="middle" x="430.04" y="-79.18" font-family="Times,serif" font-size="14.00"> &#160;(38.47613625s)</text>
</g>
</g>
</svg>
