<?xml version="1.0" encoding="UTF-8" standalone="no"?>
<!DOCTYPE svg PUBLIC "-//W3C//DTD SVG 1.1//EN"
 "http://www.w3.org/Graphics/SVG/1.1/DTD/svg11.dtd">
<!-- Generated by graphviz version 9.0.0 (20230911.1827)
 -->
<!-- Pages: 1 -->
<svg width="272pt" height="471pt"
 viewBox="0.00 0.00 271.66 471.43" xmlns="http://www.w3.org/2000/svg" xmlns:xlink="http://www.w3.org/1999/xlink">
<g id="graph0" class="graph" transform="scale(1 1) rotate(0) translate(4 467.43)">
<polygon fill="white" stroke="none" points="-4,4 -4,-467.43 267.66,-467.43 267.66,4 -4,4"/>
<text text-anchor="middle" x="131.83" y="-446.13" font-family="Times,serif" font-size="14.00">Network Uptime: 0s</text>
<!-- node&#45;7 -->
<g id="node1" class="node">
<title>node&#45;7</title>
<ellipse fill="none" stroke="black" cx="37.83" cy="-28.99" rx="37.83" ry="28.99"/>
<text text-anchor="middle" x="37.83" y="-32.19" font-family="Times,serif" font-size="14.00">node&#45;7</text>
<text text-anchor="middle" x="37.83" y="-15.69" font-family="Times,serif" font-size="14.00">(0s)</text>
</g>
<!-- node&#45;8 -->
<g id="node2" class="node">
<title>node&#45;8</title>
<ellipse fill="none" stroke="black" cx="131.83" cy="-28.99" rx="37.83" ry="28.99"/>
<text text-anchor="middle" x="131.83" y="-32.19" font-family="Times,serif" font-size="14.00">node&#45;8</text>
<text text-anchor="middle" x="131.83" y="-15.69" font-family="Times,serif" font-size="14.00">(0s)</text>
</g>
<!-- node&#45;1 -->
<g id="node3" class="node">
<title>node&#45;1</title>
<ellipse fill="none" stroke="black" cx="37.83" cy="-282.96" rx="37.83" ry="28.99"/>
<text text-anchor="middle" x="37.83" y="-286.16" font-family="Times,serif" font-size="14.00">node&#45;1</text>
<text text-anchor="middle" x="37.83" y="-269.66" font-family="Times,serif" font-size="14.00">(0s)</text>
</g>
<!-- node&#45;5 -->
<g id="node7" class="node">
<title>node&#45;5</title>
<ellipse fill="none" stroke="black" cx="131.83" cy="-155.97" rx="37.83" ry="28.99"/>
<text text-anchor="middle" x="131.83" y="-159.17" font-family="Times,serif" font-size="14.00">node&#45;5</text>
<text text-anchor="middle" x="131.83" y="-142.67" font-family="Times,serif" font-size="14.00">(0s)</text>
</g>
<!-- node&#45;1&#45;&gt;node&#45;5 -->
<g id="edge1" class="edge">
<title>node&#45;1&#45;&gt;node&#45;5</title>
<path fill="none" stroke="lightblue" d="M56.4,-257.26C70.76,-238.18 90.78,-211.56 106.59,-190.54"/>
<polygon fill="lightblue" stroke="lightblue" points="109.17,-192.92 112.39,-182.83 103.58,-188.71 109.17,-192.92"/>
<text text-anchor="middle" x="111.08" y="-222.67" font-family="Times,serif" font-size="14.00">0</text>
<text text-anchor="middle" x="111.08" y="-206.17" font-family="Times,serif" font-size="14.00"> &#160;(0s)</text>
</g>
<!-- node&#45;2 -->
<g id="node4" class="node">
<title>node&#45;2</title>
<ellipse fill="none" stroke="black" cx="131.83" cy="-282.96" rx="37.83" ry="28.99"/>
<text text-anchor="middle" x="131.83" y="-286.16" font-family="Times,serif" font-size="14.00">node&#45;2</text>
<text text-anchor="middle" x="131.83" y="-269.66" font-family="Times,serif" font-size="14.00">(0s)</text>
</g>
<!-- node&#45;2&#45;&gt;node&#45;5 -->
<g id="edge2" class="edge">
<title>node&#45;2&#45;&gt;node&#45;5</title>
<path fill="none" stroke="lightblue" d="M131.83,-253.6C131.83,-236.74 131.83,-215.1 131.83,-196.57"/>
<polygon fill="lightblue" stroke="lightblue" points="135.33,-196.74 131.83,-186.74 128.33,-196.74 135.33,-196.74"/>
<text text-anchor="middle" x="146.08" y="-222.67" font-family="Times,serif" font-size="14.00">0</text>
<text text-anchor="middle" x="146.08" y="-206.17" font-family="Times,serif" font-size="14.00"> &#160;(0s)</text>
</g>
<!-- node&#45;3 -->
<g id="node5" class="node">
<title>node&#45;3</title>
<ellipse fill="none" stroke="black" cx="225.83" cy="-409.94" rx="37.83" ry="28.99"/>
<text text-anchor="middle" x="225.83" y="-413.14" font-family="Times,serif" font-size="14.00">node&#45;3</text>
<text text-anchor="middle" x="225.83" y="-396.64" font-family="Times,serif" font-size="14.00">(0s)</text>
</g>
<!-- node&#45;4 -->
<g id="node6" class="node">
<title>node&#45;4</title>
<ellipse fill="none" stroke="black" cx="225.83" cy="-282.96" rx="37.83" ry="28.99"/>
<text text-anchor="middle" x="225.83" y="-286.16" font-family="Times,serif" font-size="14.00">node&#45;4</text>
<text text-anchor="middle" x="225.83" y="-269.66" font-family="Times,serif" font-size="14.00">(0s)</text>
</g>
<!-- node&#45;3&#45;&gt;node&#45;4 -->
<g id="edge3" class="edge">
<title>node&#45;3&#45;&gt;node&#45;4</title>
<path fill="none" stroke="lightblue" d="M225.83,-380.58C225.83,-363.72 225.83,-342.08 225.83,-323.56"/>
<polygon fill="lightblue" stroke="lightblue" points="229.33,-323.72 225.83,-313.72 222.33,-323.72 229.33,-323.72"/>
<text text-anchor="middle" x="240.08" y="-349.65" font-family="Times,serif" font-size="14.00">0</text>
<text text-anchor="middle" x="240.08" y="-333.15" font-family="Times,serif" font-size="14.00"> &#160;(0s)</text>
</g>
<!-- node&#45;4&#45;&gt;node&#45;5 -->
<g id="edge4" class="edge">
<title>node&#45;4&#45;&gt;node&#45;5</title>
<path fill="none" stroke="lightblue" d="M207.26,-257.26C192.9,-238.18 172.88,-211.56 157.07,-190.54"/>
<polygon fill="lightblue" stroke="lightblue" points="160.08,-188.71 151.27,-182.83 154.49,-192.92 160.08,-188.71"/>
<text text-anchor="middle" x="204.08" y="-222.67" font-family="Times,serif" font-size="14.00">0</text>
<text text-anchor="middle" x="204.08" y="-206.17" font-family="Times,serif" font-size="14.00"> &#160;(0s)</text>
</g>
<!-- node&#45;5&#45;&gt;node&#45;7 -->
<g id="edge6" class="edge">
<title>node&#45;5&#45;&gt;node&#45;7</title>
<path fill="none" stroke="lightblue" d="M113.26,-130.28C98.9,-111.19 78.88,-84.57 63.07,-63.55"/>
<polygon fill="lightblue" stroke="lightblue" points="66.08,-61.73 57.27,-55.84 60.49,-65.94 66.08,-61.73"/>
<text text-anchor="middle" x="111.08" y="-95.68" font-family="Times,serif" font-size="14.00">0</text>
<text text-anchor="middle" x="111.08" y="-79.18" font-family="Times,serif" font-size="14.00"> &#160;(0s)</text>
</g>
<!-- node&#45;5&#45;&gt;node&#45;8 -->
<g id="edge7" class="edge">
<title>node&#45;5&#45;&gt;node&#45;8</title>
<path fill="none" stroke="lightblue" d="M131.83,-126.61C131.83,-109.75 131.83,-88.12 131.83,-69.59"/>
<polygon fill="lightblue" stroke="lightblue" points="135.33,-69.75 131.83,-59.75 128.33,-69.75 135.33,-69.75"/>
<text text-anchor="middle" x="146.08" y="-95.68" font-family="Times,serif" font-size="14.00">0</text>
<text text-anchor="middle" x="146.08" y="-79.18" font-family="Times,serif" font-size="14.00"> &#160;(0s)</text>
</g>
<!-- node&#45;6 -->
<g id="node8" class="node">
<title>node&#45;6</title>
<ellipse fill="none" stroke="black" cx="225.83" cy="-28.99" rx="37.83" ry="28.99"/>
<text text-anchor="middle" x="225.83" y="-32.19" font-family="Times,serif" font-size="14.00">node&#45;6</text>
<text text-anchor="middle" x="225.83" y="-15.69" font-family="Times,serif" font-size="14.00">(0s)</text>
</g>
<!-- node&#45;5&#45;&gt;node&#45;6 -->
<g id="edge5" class="edge">
<title>node&#45;5&#45;&gt;node&#45;6</title>
<path fill="none" stroke="lightblue" d="M150.4,-130.28C164.76,-111.19 184.78,-84.57 200.59,-63.55"/>
<polygon fill="lightblue" stroke="lightblue" points="203.17,-65.94 206.39,-55.84 197.58,-61.73 203.17,-65.94"/>
<text text-anchor="middle" x="204.08" y="-95.68" font-family="Times,serif" font-size="14.00">0</text>
<text text-anchor="middle" x="204.08" y="-79.18" font-family="Times,serif" font-size="14.00"> &#160;(0s)</text>
</g>
</g>
</svg>
