<?xml version="1.0" encoding="UTF-8" standalone="no"?>
<!DOCTYPE svg PUBLIC "-//W3C//DTD SVG 1.1//EN"
 "http://www.w3.org/Graphics/SVG/1.1/DTD/svg11.dtd">
<!-- Generated by graphviz version 9.0.0 (20230911.1827)
 -->
<!-- Pages: 1 -->
<svg width="81pt" height="133pt"
 viewBox="0.00 0.00 81.02 132.50" xmlns="http://www.w3.org/2000/svg" xmlns:xlink="http://www.w3.org/1999/xlink">
<g id="graph0" class="graph" transform="scale(1 1) rotate(0) translate(4 128.5)">
<polygon fill="white" stroke="none" points="-4,4 -4,-128.5 77.02,-128.5 77.02,4 -4,4"/>
<!-- node&#45;1 -->
<g id="node1" class="node">
<title>node&#45;1</title>
<ellipse fill="none" stroke="black" cx="36.51" cy="-106.5" rx="36.51" ry="18"/>
<text text-anchor="middle" x="36.51" y="-101.45" font-family="Times,serif" font-size="14.00">node&#45;1</text>
</g>
<!-- node&#45;2 -->
<g id="node2" class="node">
<title>node&#45;2</title>
<ellipse fill="none" stroke="black" cx="36.51" cy="-18" rx="36.51" ry="18"/>
<text text-anchor="middle" x="36.51" y="-12.95" font-family="Times,serif" font-size="14.00">node&#45;2</text>
</g>
<!-- node&#45;1&#45;&gt;node&#45;2 -->
<g id="edge1" class="edge">
<title>node&#45;1&#45;&gt;node&#45;2</title>
<path fill="none" stroke="lightblue" d="M26.45,-89C23.53,-83.34 20.73,-76.83 19.26,-70.5 17.59,-63.36 17.59,-61.14 19.26,-54 19.88,-51.33 20.74,-48.63 21.74,-45.97"/>
<polygon fill="lightblue" stroke="lightblue" points="24.92,-47.44 25.83,-36.88 18.53,-44.57 24.92,-47.44"/>
<text text-anchor="middle" x="26.63" y="-57.2" font-family="Times,serif" font-size="14.00"> &#160;0</text>
</g>
<!-- node&#45;2&#45;&gt;node&#45;1 -->
<g id="edge2" class="edge">
<title>node&#45;2&#45;&gt;node&#45;1</title>
<path fill="none" stroke="lightblue" d="M36.51,-36.35C36.51,-48.06 36.51,-63.79 36.51,-77.28"/>
<polygon fill="lightblue" stroke="lightblue" points="33.01,-76.9 36.51,-86.9 40.01,-76.9 33.01,-76.9"/>
<text text-anchor="middle" x="43.63" y="-57.2" font-family="Times,serif" font-size="14.00"> &#160;0</text>
</g>
</g>
</svg>
