<?xml version="1.0" encoding="UTF-8" standalone="no"?>
<!DOCTYPE svg PUBLIC "-//W3C//DTD SVG 1.1//EN"
 "http://www.w3.org/Graphics/SVG/1.1/DTD/svg11.dtd">
<!-- Generated by graphviz version 9.0.0 (20230911.1827)
 -->
<!-- Pages: 1 -->
<svg width="223pt" height="217pt"
 viewBox="0.00 0.00 223.29 217.47" xmlns="http://www.w3.org/2000/svg" xmlns:xlink="http://www.w3.org/1999/xlink">
<g id="graph0" class="graph" transform="scale(1 1) rotate(0) translate(4 213.47)">
<polygon fill="white" stroke="none" points="-4,4 -4,-213.47 219.29,-213.47 219.29,4 -4,4"/>
<text text-anchor="middle" x="107.65" y="-192.17" font-family="Times,serif" font-size="14.00">Network Uptime: 51.688529959s</text>
<!-- node&#45;1 -->
<g id="node1" class="node">
<title>node&#45;1</title>
<ellipse fill="none" stroke="black" cx="76.54" cy="-155.97" rx="76.54" ry="28.99"/>
<text text-anchor="middle" x="76.54" y="-159.17" font-family="Times,serif" font-size="14.00">node&#45;1</text>
<text text-anchor="middle" x="76.54" y="-142.67" font-family="Times,serif" font-size="14.00">(51.688451459s)</text>
</g>
<!-- node&#45;2 -->
<g id="node2" class="node">
<title>node&#45;2</title>
<ellipse fill="none" stroke="black" cx="76.54" cy="-28.99" rx="76.54" ry="28.99"/>
<text text-anchor="middle" x="76.54" y="-32.19" font-family="Times,serif" font-size="14.00">node&#45;2</text>
<text text-anchor="middle" x="76.54" y="-15.69" font-family="Times,serif" font-size="14.00">(51.688372083s)</text>
</g>
<!-- node&#45;1&#45;&gt;node&#45;2 -->
<g id="edge2" class="edge">
<title>node&#45;1&#45;&gt;node&#45;2</title>
<path fill="none" stroke="lightblue" d="M34.22,-131.35C26.68,-125.11 19.86,-117.65 15.54,-108.98 9,-95.86 9,-89.11 15.54,-75.98 18.18,-70.7 21.74,-65.87 25.82,-61.49"/>
<polygon fill="lightblue" stroke="lightblue" points="28.21,-64.04 33.11,-54.65 23.42,-58.93 28.21,-64.04"/>
<text text-anchor="middle" x="62.04" y="-95.68" font-family="Times,serif" font-size="14.00">0</text>
<text text-anchor="middle" x="62.04" y="-79.18" font-family="Times,serif" font-size="14.00"> &#160;(51.68835525s)</text>
</g>
<!-- node&#45;2&#45;&gt;node&#45;1 -->
<g id="edge1" class="edge">
<title>node&#45;2&#45;&gt;node&#45;1</title>
<path fill="none" stroke="lightblue" d="M102.1,-56.67C106.38,-62.61 110.2,-69.18 112.54,-75.98 117.33,-89.85 117.33,-95.12 112.54,-108.98 111.41,-112.28 109.93,-115.52 108.21,-118.66"/>
<polygon fill="lightblue" stroke="lightblue" points="105.31,-116.7 102.91,-127.02 111.22,-120.45 105.31,-116.7"/>
<text text-anchor="middle" x="165.42" y="-95.68" font-family="Times,serif" font-size="14.00">0</text>
<text text-anchor="middle" x="165.42" y="-79.18" font-family="Times,serif" font-size="14.00"> &#160;(51.688468292s)</text>
</g>
</g>
</svg>
