<?xml version="1.0" encoding="UTF-8" standalone="no"?>
<!DOCTYPE svg PUBLIC "-//W3C//DTD SVG 1.1//EN"
 "http://www.w3.org/Graphics/SVG/1.1/DTD/svg11.dtd">
<!-- Generated by graphviz version 9.0.0 (20230911.1827)
 -->
<!-- Pages: 1 -->
<svg width="208pt" height="221pt"
 viewBox="0.00 0.00 208.44 221.00" xmlns="http://www.w3.org/2000/svg" xmlns:xlink="http://www.w3.org/1999/xlink">
<g id="graph0" class="graph" transform="scale(1 1) rotate(0) translate(4 217)">
<polygon fill="white" stroke="none" points="-4,4 -4,-217 204.44,-217 204.44,4 -4,4"/>
<!-- node&#45;100 -->
<g id="node1" class="node">
<title>node&#45;100</title>
<ellipse fill="none" stroke="black" cx="45.72" cy="-195" rx="45.72" ry="18"/>
<text text-anchor="middle" x="45.72" y="-189.95" font-family="Times,serif" font-size="14.00">node&#45;100</text>
</g>
<!-- node&#45;101 -->
<g id="node2" class="node">
<title>node&#45;101</title>
<ellipse fill="none" stroke="black" cx="45.72" cy="-106.5" rx="45.72" ry="18"/>
<text text-anchor="middle" x="45.72" y="-101.45" font-family="Times,serif" font-size="14.00">node&#45;101</text>
</g>
<!-- node&#45;100&#45;&gt;node&#45;101 -->
<g id="edge1" class="edge">
<title>node&#45;100&#45;&gt;node&#45;101</title>
<path fill="none" stroke="lightblue" d="M45.72,-176.91C45.72,-165.26 45.72,-149.55 45.72,-136.02"/>
<polygon fill="lightblue" stroke="lightblue" points="49.22,-136.36 45.72,-126.36 42.22,-136.36 49.22,-136.36"/>
<text text-anchor="middle" x="52.85" y="-145.7" font-family="Times,serif" font-size="14.00"> &#160;1</text>
</g>
<!-- node&#45;102 -->
<g id="node3" class="node">
<title>node&#45;102</title>
<ellipse fill="none" stroke="black" cx="45.72" cy="-18" rx="45.72" ry="18"/>
<text text-anchor="middle" x="45.72" y="-12.95" font-family="Times,serif" font-size="14.00">node&#45;102</text>
</g>
<!-- node&#45;101&#45;&gt;node&#45;102 -->
<g id="edge2" class="edge">
<title>node&#45;101&#45;&gt;node&#45;102</title>
<path fill="none" stroke="lightblue" d="M45.72,-88.41C45.72,-76.76 45.72,-61.05 45.72,-47.52"/>
<polygon fill="lightblue" stroke="lightblue" points="49.22,-47.86 45.72,-37.86 42.22,-47.86 49.22,-47.86"/>
<text text-anchor="middle" x="52.85" y="-57.2" font-family="Times,serif" font-size="14.00"> &#160;1</text>
</g>
<!-- node&#45;200 -->
<g id="node4" class="node">
<title>node&#45;200</title>
<ellipse fill="none" stroke="black" cx="154.72" cy="-195" rx="45.72" ry="18"/>
<text text-anchor="middle" x="154.72" y="-189.95" font-family="Times,serif" font-size="14.00">node&#45;200</text>
</g>
<!-- node&#45;201 -->
<g id="node5" class="node">
<title>node&#45;201</title>
<ellipse fill="none" stroke="black" cx="154.72" cy="-106.5" rx="45.72" ry="18"/>
<text text-anchor="middle" x="154.72" y="-101.45" font-family="Times,serif" font-size="14.00">node&#45;201</text>
</g>
<!-- node&#45;200&#45;&gt;node&#45;201 -->
<g id="edge3" class="edge">
<title>node&#45;200&#45;&gt;node&#45;201</title>
<path fill="none" stroke="lightblue" d="M154.72,-176.91C154.72,-165.26 154.72,-149.55 154.72,-136.02"/>
<polygon fill="lightblue" stroke="lightblue" points="158.22,-136.36 154.72,-126.36 151.22,-136.36 158.22,-136.36"/>
<text text-anchor="middle" x="165.22" y="-145.7" font-family="Times,serif" font-size="14.00"> &#160;34</text>
</g>
</g>
</svg>
