<?xml version="1.0" encoding="UTF-8" standalone="no"?>
<!DOCTYPE svg PUBLIC "-//W3C//DTD SVG 1.1//EN"
 "http://www.w3.org/Graphics/SVG/1.1/DTD/svg11.dtd">
<!-- Generated by graphviz version 9.0.0 (20230911.1827)
 -->
<!-- Pages: 1 -->
<svg width="216pt" height="344pt"
 viewBox="0.00 0.00 215.75 344.45" xmlns="http://www.w3.org/2000/svg" xmlns:xlink="http://www.w3.org/1999/xlink">
<g id="graph0" class="graph" transform="scale(1 1) rotate(0) translate(4 340.45)">
<polygon fill="white" stroke="none" points="-4,4 -4,-340.45 211.75,-340.45 211.75,4 -4,4"/>
<text text-anchor="middle" x="103.88" y="-319.15" font-family="Times,serif" font-size="14.00">Network Uptime: 0s</text>
<!-- node&#45;100 -->
<g id="node1" class="node">
<title>node&#45;100</title>
<ellipse fill="none" stroke="black" cx="47.38" cy="-282.96" rx="47.38" ry="28.99"/>
<text text-anchor="middle" x="47.38" y="-286.16" font-family="Times,serif" font-size="14.00">node&#45;100</text>
<text text-anchor="middle" x="47.38" y="-269.66" font-family="Times,serif" font-size="14.00">(0s)</text>
</g>
<!-- node&#45;101 -->
<g id="node2" class="node">
<title>node&#45;101</title>
<ellipse fill="none" stroke="black" cx="47.38" cy="-155.97" rx="47.38" ry="28.99"/>
<text text-anchor="middle" x="47.38" y="-159.17" font-family="Times,serif" font-size="14.00">node&#45;101</text>
<text text-anchor="middle" x="47.38" y="-142.67" font-family="Times,serif" font-size="14.00">(0s)</text>
</g>
<!-- node&#45;100&#45;&gt;node&#45;101 -->
<g id="edge1" class="edge">
<title>node&#45;100&#45;&gt;node&#45;101</title>
<path fill="none" stroke="lightblue" d="M47.38,-253.6C47.38,-236.74 47.38,-215.1 47.38,-196.57"/>
<polygon fill="lightblue" stroke="lightblue" points="50.88,-196.74 47.38,-186.74 43.88,-196.74 50.88,-196.74"/>
<text text-anchor="middle" x="61.63" y="-222.67" font-family="Times,serif" font-size="14.00">0</text>
<text text-anchor="middle" x="61.63" y="-206.17" font-family="Times,serif" font-size="14.00"> &#160;(0s)</text>
</g>
<!-- node&#45;102 -->
<g id="node3" class="node">
<title>node&#45;102</title>
<ellipse fill="none" stroke="black" cx="47.38" cy="-28.99" rx="47.38" ry="28.99"/>
<text text-anchor="middle" x="47.38" y="-32.19" font-family="Times,serif" font-size="14.00">node&#45;102</text>
<text text-anchor="middle" x="47.38" y="-15.69" font-family="Times,serif" font-size="14.00">(0s)</text>
</g>
<!-- node&#45;101&#45;&gt;node&#45;102 -->
<g id="edge2" class="edge">
<title>node&#45;101&#45;&gt;node&#45;102</title>
<path fill="none" stroke="lightblue" d="M47.38,-126.61C47.38,-109.75 47.38,-88.12 47.38,-69.59"/>
<polygon fill="lightblue" stroke="lightblue" points="50.88,-69.75 47.38,-59.75 43.88,-69.75 50.88,-69.75"/>
<text text-anchor="middle" x="61.63" y="-95.68" font-family="Times,serif" font-size="14.00">0</text>
<text text-anchor="middle" x="61.63" y="-79.18" font-family="Times,serif" font-size="14.00"> &#160;(0s)</text>
</g>
<!-- node&#45;200 -->
<g id="node4" class="node">
<title>node&#45;200</title>
<ellipse fill="none" stroke="black" cx="160.38" cy="-282.96" rx="47.38" ry="28.99"/>
<text text-anchor="middle" x="160.38" y="-286.16" font-family="Times,serif" font-size="14.00">node&#45;200</text>
<text text-anchor="middle" x="160.38" y="-269.66" font-family="Times,serif" font-size="14.00">(0s)</text>
</g>
<!-- node&#45;201 -->
<g id="node5" class="node">
<title>node&#45;201</title>
<ellipse fill="none" stroke="black" cx="160.38" cy="-155.97" rx="47.38" ry="28.99"/>
<text text-anchor="middle" x="160.38" y="-159.17" font-family="Times,serif" font-size="14.00">node&#45;201</text>
<text text-anchor="middle" x="160.38" y="-142.67" font-family="Times,serif" font-size="14.00">(0s)</text>
</g>
<!-- node&#45;200&#45;&gt;node&#45;201 -->
<g id="edge3" class="edge">
<title>node&#45;200&#45;&gt;node&#45;201</title>
<path fill="none" stroke="lightblue" d="M160.38,-253.6C160.38,-236.74 160.38,-215.1 160.38,-196.57"/>
<polygon fill="lightblue" stroke="lightblue" points="163.88,-196.74 160.38,-186.74 156.88,-196.74 163.88,-196.74"/>
<text text-anchor="middle" x="174.63" y="-222.67" font-family="Times,serif" font-size="14.00">0</text>
<text text-anchor="middle" x="174.63" y="-206.17" font-family="Times,serif" font-size="14.00"> &#160;(0s)</text>
</g>
</g>
</svg>
