<?xml version="1.0" encoding="UTF-8" standalone="no"?>
<!DOCTYPE svg PUBLIC "-//W3C//DTD SVG 1.1//EN"
 "http://www.w3.org/Graphics/SVG/1.1/DTD/svg11.dtd">
<!-- Generated by graphviz version 9.0.0 (20230911.1827)
 -->
<!-- Pages: 1 -->
<svg width="355pt" height="344pt"
 viewBox="0.00 0.00 355.29 344.45" xmlns="http://www.w3.org/2000/svg" xmlns:xlink="http://www.w3.org/1999/xlink">
<g id="graph0" class="graph" transform="scale(1 1) rotate(0) translate(4 340.45)">
<polygon fill="white" stroke="none" points="-4,4 -4,-340.45 351.29,-340.45 351.29,4 -4,4"/>
<text text-anchor="middle" x="173.65" y="-319.15" font-family="Times,serif" font-size="14.00">Network Uptime: 25.75251775s</text>
<!-- node&#45;100 -->
<g id="node1" class="node">
<title>node&#45;100</title>
<ellipse fill="none" stroke="black" cx="76.54" cy="-282.96" rx="76.54" ry="28.99"/>
<text text-anchor="middle" x="76.54" y="-286.16" font-family="Times,serif" font-size="14.00">node&#45;100</text>
<text text-anchor="middle" x="76.54" y="-269.66" font-family="Times,serif" font-size="14.00">(25.752346375s)</text>
</g>
<!-- node&#45;101 -->
<g id="node2" class="node">
<title>node&#45;101</title>
<ellipse fill="none" stroke="black" cx="76.54" cy="-155.97" rx="76.54" ry="28.99"/>
<text text-anchor="middle" x="76.54" y="-159.17" font-family="Times,serif" font-size="14.00">node&#45;101</text>
<text text-anchor="middle" x="76.54" y="-142.67" font-family="Times,serif" font-size="14.00">(25.752166375s)</text>
</g>
<!-- node&#45;100&#45;&gt;node&#45;101 -->
<g id="edge3" class="edge">
<title>node&#45;100&#45;&gt;node&#45;101</title>
<path fill="none" stroke="lightblue" d="M76.54,-253.6C76.54,-236.74 76.54,-215.1 76.54,-196.57"/>
<polygon fill="lightblue" stroke="lightblue" points="80.04,-196.74 76.54,-186.74 73.04,-196.74 80.04,-196.74"/>
<text text-anchor="middle" x="126.42" y="-222.67" font-family="Times,serif" font-size="14.00">25</text>
<text text-anchor="middle" x="126.42" y="-206.17" font-family="Times,serif" font-size="14.00"> &#160;(25.752171708s)</text>
</g>
<!-- node&#45;102 -->
<g id="node3" class="node">
<title>node&#45;102</title>
<ellipse fill="none" stroke="black" cx="76.54" cy="-28.99" rx="76.54" ry="28.99"/>
<text text-anchor="middle" x="76.54" y="-32.19" font-family="Times,serif" font-size="14.00">node&#45;102</text>
<text text-anchor="middle" x="76.54" y="-15.69" font-family="Times,serif" font-size="14.00">(25.752438583s)</text>
</g>
<!-- node&#45;101&#45;&gt;node&#45;102 -->
<g id="edge1" class="edge">
<title>node&#45;101&#45;&gt;node&#45;102</title>
<path fill="none" stroke="lightblue" d="M76.54,-126.61C76.54,-109.75 76.54,-88.12 76.54,-69.59"/>
<polygon fill="lightblue" stroke="lightblue" points="80.04,-69.75 76.54,-59.75 73.04,-69.75 80.04,-69.75"/>
<text text-anchor="middle" x="123.04" y="-95.68" font-family="Times,serif" font-size="14.00">25</text>
<text text-anchor="middle" x="123.04" y="-79.18" font-family="Times,serif" font-size="14.00"> &#160;(25.75242675s)</text>
</g>
<!-- node&#45;200 -->
<g id="node4" class="node">
<title>node&#45;200</title>
<ellipse fill="none" stroke="black" cx="247.54" cy="-282.96" rx="76.54" ry="28.99"/>
<text text-anchor="middle" x="247.54" y="-286.16" font-family="Times,serif" font-size="14.00">node&#45;200</text>
<text text-anchor="middle" x="247.54" y="-269.66" font-family="Times,serif" font-size="14.00">(25.752172583s)</text>
</g>
<!-- node&#45;201 -->
<g id="node5" class="node">
<title>node&#45;201</title>
<ellipse fill="none" stroke="black" cx="247.54" cy="-155.97" rx="76.54" ry="28.99"/>
<text text-anchor="middle" x="247.54" y="-159.17" font-family="Times,serif" font-size="14.00">node&#45;201</text>
<text text-anchor="middle" x="247.54" y="-142.67" font-family="Times,serif" font-size="14.00">(25.752226708s)</text>
</g>
<!-- node&#45;200&#45;&gt;node&#45;201 -->
<g id="edge2" class="edge">
<title>node&#45;200&#45;&gt;node&#45;201</title>
<path fill="none" stroke="lightblue" d="M247.54,-253.6C247.54,-236.74 247.54,-215.1 247.54,-196.57"/>
<polygon fill="lightblue" stroke="lightblue" points="251.04,-196.74 247.54,-186.74 244.04,-196.74 251.04,-196.74"/>
<text text-anchor="middle" x="297.42" y="-222.67" font-family="Times,serif" font-size="14.00">25</text>
<text text-anchor="middle" x="297.42" y="-206.17" font-family="Times,serif" font-size="14.00"> &#160;(25.752225708s)</text>
</g>
</g>
</svg>
