<?xml version="1.0" encoding="UTF-8" standalone="no"?>
<!DOCTYPE svg PUBLIC "-//W3C//DTD SVG 1.1//EN"
 "http://www.w3.org/Graphics/SVG/1.1/DTD/svg11.dtd">
<!-- Generated by graphviz version 9.0.0 (20230911.1827)
 -->
<!-- Pages: 1 -->
<svg width="236pt" height="221pt"
 viewBox="0.00 0.00 236.02 221.00" xmlns="http://www.w3.org/2000/svg" xmlns:xlink="http://www.w3.org/1999/xlink">
<g id="graph0" class="graph" transform="scale(1 1) rotate(0) translate(4 217)">
<polygon fill="white" stroke="none" points="-4,4 -4,-217 232.02,-217 232.02,4 -4,4"/>
<!-- node&#45;2 -->
<g id="node1" class="node">
<title>node&#45;2</title>
<ellipse fill="none" stroke="black" cx="72.51" cy="-195" rx="36.51" ry="18"/>
<text text-anchor="middle" x="72.51" y="-189.95" font-family="Times,serif" font-size="14.00">node&#45;2</text>
</g>
<!-- node&#45;3 -->
<g id="node2" class="node">
<title>node&#45;3</title>
<ellipse fill="none" stroke="black" cx="36.51" cy="-106.5" rx="36.51" ry="18"/>
<text text-anchor="middle" x="36.51" y="-101.45" font-family="Times,serif" font-size="14.00">node&#45;3</text>
</g>
<!-- node&#45;2&#45;&gt;node&#45;3 -->
<g id="edge3" class="edge">
<title>node&#45;2&#45;&gt;node&#45;3</title>
<path fill="none" stroke="lightblue" d="M65.4,-176.91C60.42,-164.94 53.66,-148.7 47.93,-134.93"/>
<polygon fill="lightblue" stroke="lightblue" points="51.26,-133.84 44.19,-125.95 44.8,-136.53 51.26,-133.84"/>
<text text-anchor="middle" x="72.38" y="-145.7" font-family="Times,serif" font-size="14.00"> &#160;289</text>
</g>
<!-- node&#45;1 -->
<g id="node4" class="node">
<title>node&#45;1</title>
<ellipse fill="none" stroke="black" cx="109.51" cy="-18" rx="36.51" ry="18"/>
<text text-anchor="middle" x="109.51" y="-12.95" font-family="Times,serif" font-size="14.00">node&#45;1</text>
</g>
<!-- node&#45;3&#45;&gt;node&#45;1 -->
<g id="edge4" class="edge">
<title>node&#45;3&#45;&gt;node&#45;1</title>
<path fill="none" stroke="lightblue" d="M44.82,-88.8C50.5,-78.25 58.63,-64.63 67.76,-54 71.76,-49.33 76.43,-44.78 81.15,-40.59"/>
<polygon fill="lightblue" stroke="lightblue" points="83.05,-43.56 88.45,-34.44 78.54,-38.21 83.05,-43.56"/>
<text text-anchor="middle" x="82.38" y="-57.2" font-family="Times,serif" font-size="14.00"> &#160;289</text>
</g>
<!-- node&#45;0 -->
<g id="node3" class="node">
<title>node&#45;0</title>
<ellipse fill="none" stroke="black" cx="191.51" cy="-106.5" rx="36.51" ry="18"/>
<text text-anchor="middle" x="191.51" y="-101.45" font-family="Times,serif" font-size="14.00">node&#45;0</text>
</g>
<!-- node&#45;0&#45;&gt;node&#45;1 -->
<g id="edge1" class="edge">
<title>node&#45;0&#45;&gt;node&#45;1</title>
<path fill="none" stroke="lightblue" d="M176.47,-89.63C164.1,-76.59 146.38,-57.89 132.27,-43.01"/>
<polygon fill="lightblue" stroke="lightblue" points="134.91,-40.71 125.49,-35.86 129.83,-45.53 134.91,-40.71"/>
<text text-anchor="middle" x="164.63" y="-57.2" font-family="Times,serif" font-size="14.00"> &#160;1</text>
</g>
<!-- node&#45;1&#45;&gt;node&#45;2 -->
<g id="edge2" class="edge">
<title>node&#45;1&#45;&gt;node&#45;2</title>
<path fill="none" stroke="lightblue" d="M109.04,-36.21C107.9,-63.04 103.99,-116.18 90.51,-159 89.65,-161.74 88.58,-164.52 87.41,-167.26"/>
<polygon fill="lightblue" stroke="lightblue" points="84.36,-165.52 83.16,-176.04 90.66,-168.56 84.36,-165.52"/>
<text text-anchor="middle" x="119.38" y="-101.45" font-family="Times,serif" font-size="14.00"> &#160;289</text>
</g>
</g>
</svg>
