<?xml version="1.0" encoding="UTF-8" standalone="no"?>
<!DOCTYPE svg PUBLIC "-//W3C//DTD SVG 1.1//EN"
 "http://www.w3.org/Graphics/SVG/1.1/DTD/svg11.dtd">
<!-- Generated by graphviz version 9.0.0 (20230911.1827)
 -->
<!-- Pages: 1 -->
<svg width="118pt" height="310pt"
 viewBox="0.00 0.00 118.02 309.50" xmlns="http://www.w3.org/2000/svg" xmlns:xlink="http://www.w3.org/1999/xlink">
<g id="graph0" class="graph" transform="scale(1 1) rotate(0) translate(4 305.5)">
<polygon fill="white" stroke="none" points="-4,4 -4,-305.5 114.02,-305.5 114.02,4 -4,4"/>
<!-- node&#45;0 -->
<g id="node1" class="node">
<title>node&#45;0</title>
<ellipse fill="none" stroke="black" cx="73.51" cy="-283.5" rx="36.51" ry="18"/>
<text text-anchor="middle" x="73.51" y="-278.45" font-family="Times,serif" font-size="14.00">node&#45;0</text>
</g>
<!-- node&#45;1 -->
<g id="node2" class="node">
<title>node&#45;1</title>
<ellipse fill="none" stroke="black" cx="73.51" cy="-195" rx="36.51" ry="18"/>
<text text-anchor="middle" x="73.51" y="-189.95" font-family="Times,serif" font-size="14.00">node&#45;1</text>
</g>
<!-- node&#45;0&#45;&gt;node&#45;1 -->
<g id="edge2" class="edge">
<title>node&#45;0&#45;&gt;node&#45;1</title>
<path fill="none" stroke="lightblue" d="M73.51,-265.41C73.51,-253.76 73.51,-238.05 73.51,-224.52"/>
<polygon fill="lightblue" stroke="lightblue" points="77.01,-224.86 73.51,-214.86 70.01,-224.86 77.01,-224.86"/>
<text text-anchor="middle" x="80.63" y="-234.2" font-family="Times,serif" font-size="14.00"> &#160;1</text>
</g>
<!-- node&#45;2 -->
<g id="node3" class="node">
<title>node&#45;2</title>
<ellipse fill="none" stroke="black" cx="36.51" cy="-106.5" rx="36.51" ry="18"/>
<text text-anchor="middle" x="36.51" y="-101.45" font-family="Times,serif" font-size="14.00">node&#45;2</text>
</g>
<!-- node&#45;1&#45;&gt;node&#45;2 -->
<g id="edge3" class="edge">
<title>node&#45;1&#45;&gt;node&#45;2</title>
<path fill="none" stroke="lightblue" d="M66.2,-176.91C61.08,-164.94 54.13,-148.7 48.24,-134.93"/>
<polygon fill="lightblue" stroke="lightblue" points="51.55,-133.76 44.4,-125.95 45.11,-136.52 51.55,-133.76"/>
<text text-anchor="middle" x="69.01" y="-145.7" font-family="Times,serif" font-size="14.00"> &#160;69</text>
</g>
<!-- node&#45;3 -->
<g id="node4" class="node">
<title>node&#45;3</title>
<ellipse fill="none" stroke="black" cx="73.51" cy="-18" rx="36.51" ry="18"/>
<text text-anchor="middle" x="73.51" y="-12.95" font-family="Times,serif" font-size="14.00">node&#45;3</text>
</g>
<!-- node&#45;2&#45;&gt;node&#45;3 -->
<g id="edge4" class="edge">
<title>node&#45;2&#45;&gt;node&#45;3</title>
<path fill="none" stroke="lightblue" d="M43.82,-88.41C48.94,-76.44 55.89,-60.2 61.77,-46.43"/>
<polygon fill="lightblue" stroke="lightblue" points="64.9,-48.02 65.62,-37.45 58.47,-45.26 64.9,-48.02"/>
<text text-anchor="middle" x="69.01" y="-57.2" font-family="Times,serif" font-size="14.00"> &#160;69</text>
</g>
<!-- node&#45;3&#45;&gt;node&#45;1 -->
<g id="edge1" class="edge">
<title>node&#45;3&#45;&gt;node&#45;1</title>
<path fill="none" stroke="lightblue" d="M79.46,-36.24C81.12,-41.84 82.69,-48.12 83.51,-54 89.98,-100.22 89.98,-112.78 83.51,-159 83.2,-161.21 82.79,-163.47 82.3,-165.73"/>
<polygon fill="lightblue" stroke="lightblue" points="78.94,-164.74 79.84,-175.29 85.72,-166.48 78.94,-164.74"/>
<text text-anchor="middle" x="99.01" y="-101.45" font-family="Times,serif" font-size="14.00"> &#160;68</text>
</g>
</g>
</svg>
