<?xml version="1.0" encoding="UTF-8" standalone="no"?>
<!DOCTYPE svg PUBLIC "-//W3C//DTD SVG 1.1//EN"
 "http://www.w3.org/Graphics/SVG/1.1/DTD/svg11.dtd">
<!-- Generated by graphviz version 9.0.0 (20230911.1827)
 -->
<!-- Pages: 1 -->
<svg width="139pt" height="471pt"
 viewBox="0.00 0.00 139.33 471.43" xmlns="http://www.w3.org/2000/svg" xmlns:xlink="http://www.w3.org/1999/xlink">
<g id="graph0" class="graph" transform="scale(1 1) rotate(0) translate(4 467.43)">
<polygon fill="white" stroke="none" points="-4,4 -4,-467.43 135.33,-467.43 135.33,4 -4,4"/>
<text text-anchor="middle" x="65.67" y="-446.13" font-family="Times,serif" font-size="14.00">Network Uptime: 0s</text>
<!-- node&#45;0 -->
<g id="node1" class="node">
<title>node&#45;0</title>
<ellipse fill="none" stroke="black" cx="74.83" cy="-409.94" rx="37.83" ry="28.99"/>
<text text-anchor="middle" x="74.83" y="-413.14" font-family="Times,serif" font-size="14.00">node&#45;0</text>
<text text-anchor="middle" x="74.83" y="-396.64" font-family="Times,serif" font-size="14.00">(0s)</text>
</g>
<!-- node&#45;1 -->
<g id="node2" class="node">
<title>node&#45;1</title>
<ellipse fill="none" stroke="black" cx="74.83" cy="-282.96" rx="37.83" ry="28.99"/>
<text text-anchor="middle" x="74.83" y="-286.16" font-family="Times,serif" font-size="14.00">node&#45;1</text>
<text text-anchor="middle" x="74.83" y="-269.66" font-family="Times,serif" font-size="14.00">(0s)</text>
</g>
<!-- node&#45;0&#45;&gt;node&#45;1 -->
<g id="edge3" class="edge">
<title>node&#45;0&#45;&gt;node&#45;1</title>
<path fill="none" stroke="lightblue" d="M74.83,-380.58C74.83,-363.72 74.83,-342.08 74.83,-323.56"/>
<polygon fill="lightblue" stroke="lightblue" points="78.33,-323.72 74.83,-313.72 71.33,-323.72 78.33,-323.72"/>
<text text-anchor="middle" x="89.08" y="-349.65" font-family="Times,serif" font-size="14.00">0</text>
<text text-anchor="middle" x="89.08" y="-333.15" font-family="Times,serif" font-size="14.00"> &#160;(0s)</text>
</g>
<!-- node&#45;2 -->
<g id="node3" class="node">
<title>node&#45;2</title>
<ellipse fill="none" stroke="black" cx="37.83" cy="-155.97" rx="37.83" ry="28.99"/>
<text text-anchor="middle" x="37.83" y="-159.17" font-family="Times,serif" font-size="14.00">node&#45;2</text>
<text text-anchor="middle" x="37.83" y="-142.67" font-family="Times,serif" font-size="14.00">(0s)</text>
</g>
<!-- node&#45;1&#45;&gt;node&#45;2 -->
<g id="edge4" class="edge">
<title>node&#45;1&#45;&gt;node&#45;2</title>
<path fill="none" stroke="lightblue" d="M66.62,-254.22C61.52,-236.99 54.88,-214.58 49.27,-195.62"/>
<polygon fill="lightblue" stroke="lightblue" points="52.64,-194.68 46.45,-186.09 45.93,-196.67 52.64,-194.68"/>
<text text-anchor="middle" x="75.08" y="-222.67" font-family="Times,serif" font-size="14.00">0</text>
<text text-anchor="middle" x="75.08" y="-206.17" font-family="Times,serif" font-size="14.00"> &#160;(0s)</text>
</g>
<!-- node&#45;3 -->
<g id="node4" class="node">
<title>node&#45;3</title>
<ellipse fill="none" stroke="black" cx="74.83" cy="-28.99" rx="37.83" ry="28.99"/>
<text text-anchor="middle" x="74.83" y="-32.19" font-family="Times,serif" font-size="14.00">node&#45;3</text>
<text text-anchor="middle" x="74.83" y="-15.69" font-family="Times,serif" font-size="14.00">(0s)</text>
</g>
<!-- node&#45;2&#45;&gt;node&#45;3 -->
<g id="edge1" class="edge">
<title>node&#45;2&#45;&gt;node&#45;3</title>
<path fill="none" stroke="lightblue" d="M46.04,-127.24C51.14,-110 57.78,-87.6 63.39,-68.64"/>
<polygon fill="lightblue" stroke="lightblue" points="66.73,-69.69 66.21,-59.1 60.02,-67.7 66.73,-69.69"/>
<text text-anchor="middle" x="75.08" y="-95.68" font-family="Times,serif" font-size="14.00">0</text>
<text text-anchor="middle" x="75.08" y="-79.18" font-family="Times,serif" font-size="14.00"> &#160;(0s)</text>
</g>
<!-- node&#45;3&#45;&gt;node&#45;1 -->
<g id="edge2" class="edge">
<title>node&#45;3&#45;&gt;node&#45;1</title>
<path fill="none" stroke="lightblue" d="M87.22,-56.73C89.54,-62.92 91.62,-69.58 92.83,-75.98 106.02,-145.85 106.02,-166.1 92.83,-235.97 92.3,-238.77 91.61,-241.62 90.8,-244.45"/>
<polygon fill="lightblue" stroke="lightblue" points="87.53,-243.19 87.7,-253.78 94.17,-245.39 87.53,-243.19"/>
<text text-anchor="middle" x="117.08" y="-159.17" font-family="Times,serif" font-size="14.00">0</text>
<text text-anchor="middle" x="117.08" y="-142.67" font-family="Times,serif" font-size="14.00"> &#160;(0s)</text>
</g>
</g>
</svg>
