<?xml version="1.0" encoding="UTF-8" standalone="no"?>
<!DOCTYPE svg PUBLIC "-//W3C//DTD SVG 1.1//EN"
 "http://www.w3.org/Graphics/SVG/1.1/DTD/svg11.dtd">
<!-- Generated by graphviz version 9.0.0 (20230911.1827)
 -->
<!-- Pages: 1 -->
<svg width="304pt" height="471pt"
 viewBox="0.00 0.00 304.29 471.43" xmlns="http://www.w3.org/2000/svg" xmlns:xlink="http://www.w3.org/1999/xlink">
<g id="graph0" class="graph" transform="scale(1 1) rotate(0) translate(4 467.43)">
<polygon fill="white" stroke="none" points="-4,4 -4,-467.43 300.29,-467.43 300.29,4 -4,4"/>
<text text-anchor="middle" x="148.15" y="-446.13" font-family="Times,serif" font-size="14.00">Network Uptime: 31.604759916s</text>
<!-- node&#45;0 -->
<g id="node1" class="node">
<title>node&#45;0</title>
<ellipse fill="none" stroke="black" cx="133.54" cy="-409.94" rx="58.51" ry="28.99"/>
<text text-anchor="middle" x="133.54" y="-413.14" font-family="Times,serif" font-size="14.00">node&#45;0</text>
<text text-anchor="middle" x="133.54" y="-396.64" font-family="Times,serif" font-size="14.00">(100.959µs)</text>
</g>
<!-- node&#45;1 -->
<g id="node2" class="node">
<title>node&#45;1</title>
<ellipse fill="none" stroke="black" cx="133.54" cy="-282.96" rx="76.54" ry="28.99"/>
<text text-anchor="middle" x="133.54" y="-286.16" font-family="Times,serif" font-size="14.00">node&#45;1</text>
<text text-anchor="middle" x="133.54" y="-269.66" font-family="Times,serif" font-size="14.00">(31.604578916s)</text>
</g>
<!-- node&#45;0&#45;&gt;node&#45;1 -->
<g id="edge1" class="edge">
<title>node&#45;0&#45;&gt;node&#45;1</title>
<path fill="none" stroke="lightblue" d="M133.54,-380.58C133.54,-363.72 133.54,-342.08 133.54,-323.56"/>
<polygon fill="lightblue" stroke="lightblue" points="137.04,-323.72 133.54,-313.72 130.04,-323.72 137.04,-323.72"/>
<text text-anchor="middle" x="163.92" y="-349.65" font-family="Times,serif" font-size="14.00">1</text>
<text text-anchor="middle" x="163.92" y="-333.15" font-family="Times,serif" font-size="14.00"> &#160;(115.5µs)</text>
</g>
<!-- node&#45;2 -->
<g id="node3" class="node">
<title>node&#45;2</title>
<ellipse fill="none" stroke="black" cx="76.54" cy="-155.97" rx="76.54" ry="28.99"/>
<text text-anchor="middle" x="76.54" y="-159.17" font-family="Times,serif" font-size="14.00">node&#45;2</text>
<text text-anchor="middle" x="76.54" y="-142.67" font-family="Times,serif" font-size="14.00">(31.604588834s)</text>
</g>
<!-- node&#45;1&#45;&gt;node&#45;2 -->
<g id="edge2" class="edge">
<title>node&#45;1&#45;&gt;node&#45;2</title>
<path fill="none" stroke="lightblue" d="M104.1,-255.77C98.79,-249.75 93.82,-243.02 90.29,-235.97 84.23,-223.83 80.79,-209.49 78.85,-196.38"/>
<polygon fill="lightblue" stroke="lightblue" points="82.37,-196.27 77.7,-186.76 75.42,-197.11 82.37,-196.27"/>
<text text-anchor="middle" x="133.67" y="-222.67" font-family="Times,serif" font-size="14.00">11</text>
<text text-anchor="middle" x="133.67" y="-206.17" font-family="Times,serif" font-size="14.00"> &#160;(31.6046315s)</text>
</g>
<!-- node&#45;3 -->
<g id="node4" class="node">
<title>node&#45;3</title>
<ellipse fill="none" stroke="black" cx="132.54" cy="-28.99" rx="76.54" ry="28.99"/>
<text text-anchor="middle" x="132.54" y="-32.19" font-family="Times,serif" font-size="14.00">node&#45;3</text>
<text text-anchor="middle" x="132.54" y="-15.69" font-family="Times,serif" font-size="14.00">(31.604636459s)</text>
</g>
<!-- node&#45;2&#45;&gt;node&#45;3 -->
<g id="edge3" class="edge">
<title>node&#45;2&#45;&gt;node&#45;3</title>
<path fill="none" stroke="lightblue" d="M70.95,-126.64C69.23,-110.98 69.4,-91.6 76.79,-75.98 79.12,-71.07 82.26,-66.5 85.86,-62.3"/>
<polygon fill="lightblue" stroke="lightblue" points="88.24,-64.87 92.76,-55.28 83.25,-59.96 88.24,-64.87"/>
<text text-anchor="middle" x="127.42" y="-95.68" font-family="Times,serif" font-size="14.00">10</text>
<text text-anchor="middle" x="127.42" y="-79.18" font-family="Times,serif" font-size="14.00"> &#160;(31.604633084s)</text>
</g>
<!-- node&#45;3&#45;&gt;node&#45;1 -->
<g id="edge4" class="edge">
<title>node&#45;3&#45;&gt;node&#45;1</title>
<path fill="none" stroke="lightblue" d="M163.69,-55.92C168.94,-61.92 173.62,-68.7 176.54,-75.98 203.03,-141.97 202.65,-169.83 176.54,-235.97 175.03,-239.8 173.03,-243.5 170.72,-247.03"/>
<polygon fill="lightblue" stroke="lightblue" points="168.14,-244.63 164.91,-254.72 173.73,-248.85 168.14,-244.63"/>
<text text-anchor="middle" x="246.42" y="-159.17" font-family="Times,serif" font-size="14.00">10</text>
<text text-anchor="middle" x="246.42" y="-142.67" font-family="Times,serif" font-size="14.00"> &#160;(31.604539625s)</text>
</g>
</g>
</svg>
