<?xml version="1.0" encoding="UTF-8" standalone="no"?>
<!DOCTYPE svg PUBLIC "-//W3C//DTD SVG 1.1//EN"
 "http://www.w3.org/Graphics/SVG/1.1/DTD/svg11.dtd">
<!-- Generated by graphviz version 9.0.0 (20230911.1827)
 -->
<!-- Pages: 1 -->
<svg width="725pt" height="471pt"
 viewBox="0.00 0.00 724.69 471.43" xmlns="http://www.w3.org/2000/svg" xmlns:xlink="http://www.w3.org/1999/xlink">
<g id="graph0" class="graph" transform="scale(1 1) rotate(0) translate(4 467.43)">
<polygon fill="white" stroke="none" points="-4,4 -4,-467.43 720.69,-467.43 720.69,4 -4,4"/>
<text text-anchor="middle" x="358.35" y="-446.13" font-family="Times,serif" font-size="14.00">Network Uptime:0s</text>
<!-- node2&#45;filter&#45;2 -->
<g id="node1" class="node">
<title>node2&#45;filter&#45;2</title>
<ellipse fill="none" stroke="black" cx="64.35" cy="-155.97" rx="64.35" ry="28.99"/>
<text text-anchor="middle" x="64.35" y="-159.17" font-family="Times,serif" font-size="14.00">node2&#45;filter&#45;2</text>
<text text-anchor="middle" x="64.35" y="-142.67" font-family="Times,serif" font-size="14.00">(0s)</text>
</g>
<!-- node3&#45;count&#45;1 -->
<g id="node5" class="node">
<title>node3&#45;count&#45;1</title>
<ellipse fill="none" stroke="black" cx="358.35" cy="-28.99" rx="67" ry="28.99"/>
<text text-anchor="middle" x="358.35" y="-32.19" font-family="Times,serif" font-size="14.00">node3&#45;count&#45;1</text>
<text text-anchor="middle" x="358.35" y="-15.69" font-family="Times,serif" font-size="14.00">(0s)</text>
</g>
<!-- node2&#45;filter&#45;2&#45;&gt;node3&#45;count&#45;1 -->
<g id="edge8" class="edge">
<title>node2&#45;filter&#45;2&#45;&gt;node3&#45;count&#45;1</title>
<path fill="none" stroke="lightblue" d="M107.31,-134.13C141.77,-117.68 191.53,-94.48 235.85,-75.98 255.48,-67.79 277.14,-59.43 296.73,-52.13"/>
<polygon fill="lightblue" stroke="lightblue" points="297.78,-55.47 305.94,-48.72 295.35,-48.91 297.78,-55.47"/>
<text text-anchor="middle" x="250.6" y="-95.68" font-family="Times,serif" font-size="14.00">0</text>
<text text-anchor="middle" x="250.6" y="-79.18" font-family="Times,serif" font-size="14.00"> &#160;(0s)</text>
</g>
<!-- node2&#45;filter&#45;3 -->
<g id="node2" class="node">
<title>node2&#45;filter&#45;3</title>
<ellipse fill="none" stroke="black" cx="211.35" cy="-155.97" rx="64.35" ry="28.99"/>
<text text-anchor="middle" x="211.35" y="-159.17" font-family="Times,serif" font-size="14.00">node2&#45;filter&#45;3</text>
<text text-anchor="middle" x="211.35" y="-142.67" font-family="Times,serif" font-size="14.00">(0s)</text>
</g>
<!-- node2&#45;filter&#45;3&#45;&gt;node3&#45;count&#45;1 -->
<g id="edge9" class="edge">
<title>node2&#45;filter&#45;3&#45;&gt;node3&#45;count&#45;1</title>
<path fill="none" stroke="lightblue" d="M240.74,-129.98C263.43,-110.7 295.01,-83.85 319.73,-62.82"/>
<polygon fill="lightblue" stroke="lightblue" points="321.99,-65.49 327.35,-56.35 317.46,-60.16 321.99,-65.49"/>
<text text-anchor="middle" x="316.6" y="-95.68" font-family="Times,serif" font-size="14.00">0</text>
<text text-anchor="middle" x="316.6" y="-79.18" font-family="Times,serif" font-size="14.00"> &#160;(0s)</text>
</g>
<!-- node2&#45;filter&#45;4 -->
<g id="node3" class="node">
<title>node2&#45;filter&#45;4</title>
<ellipse fill="none" stroke="black" cx="358.35" cy="-155.97" rx="64.35" ry="28.99"/>
<text text-anchor="middle" x="358.35" y="-159.17" font-family="Times,serif" font-size="14.00">node2&#45;filter&#45;4</text>
<text text-anchor="middle" x="358.35" y="-142.67" font-family="Times,serif" font-size="14.00">(0s)</text>
</g>
<!-- node2&#45;filter&#45;4&#45;&gt;node3&#45;count&#45;1 -->
<g id="edge10" class="edge">
<title>node2&#45;filter&#45;4&#45;&gt;node3&#45;count&#45;1</title>
<path fill="none" stroke="lightblue" d="M358.35,-126.61C358.35,-109.75 358.35,-88.12 358.35,-69.59"/>
<polygon fill="lightblue" stroke="lightblue" points="361.85,-69.75 358.35,-59.75 354.85,-69.75 361.85,-69.75"/>
<text text-anchor="middle" x="372.6" y="-95.68" font-family="Times,serif" font-size="14.00">0</text>
<text text-anchor="middle" x="372.6" y="-79.18" font-family="Times,serif" font-size="14.00"> &#160;(0s)</text>
</g>
<!-- node2&#45;filter&#45;5 -->
<g id="node4" class="node">
<title>node2&#45;filter&#45;5</title>
<ellipse fill="none" stroke="black" cx="505.35" cy="-155.97" rx="64.35" ry="28.99"/>
<text text-anchor="middle" x="505.35" y="-159.17" font-family="Times,serif" font-size="14.00">node2&#45;filter&#45;5</text>
<text text-anchor="middle" x="505.35" y="-142.67" font-family="Times,serif" font-size="14.00">(0s)</text>
</g>
<!-- node2&#45;filter&#45;5&#45;&gt;node3&#45;count&#45;1 -->
<g id="edge11" class="edge">
<title>node2&#45;filter&#45;5&#45;&gt;node3&#45;count&#45;1</title>
<path fill="none" stroke="lightblue" d="M475.95,-129.98C453.27,-110.7 421.69,-83.85 396.96,-62.82"/>
<polygon fill="lightblue" stroke="lightblue" points="399.23,-60.16 389.35,-56.35 394.7,-65.49 399.23,-60.16"/>
<text text-anchor="middle" x="463.6" y="-95.68" font-family="Times,serif" font-size="14.00">0</text>
<text text-anchor="middle" x="463.6" y="-79.18" font-family="Times,serif" font-size="14.00"> &#160;(0s)</text>
</g>
<!-- node1&#45;read&#45;1 -->
<g id="node6" class="node">
<title>node1&#45;read&#45;1</title>
<ellipse fill="none" stroke="black" cx="358.35" cy="-409.94" rx="62.23" ry="28.99"/>
<text text-anchor="middle" x="358.35" y="-413.14" font-family="Times,serif" font-size="14.00">node1&#45;read&#45;1</text>
<text text-anchor="middle" x="358.35" y="-396.64" font-family="Times,serif" font-size="14.00">(0s)</text>
</g>
<!-- tokenizer&#45;1 -->
<g id="node7" class="node">
<title>tokenizer&#45;1</title>
<ellipse fill="lightyellow" stroke="black" cx="358.35" cy="-282.96" rx="54.8" ry="28.99"/>
<text text-anchor="middle" x="358.35" y="-286.16" font-family="Times,serif" font-size="14.00">tokenizer&#45;1</text>
<text text-anchor="middle" x="358.35" y="-269.66" font-family="Times,serif" font-size="14.00">(0s)</text>
</g>
<!-- node1&#45;read&#45;1&#45;&gt;tokenizer&#45;1 -->
<g id="edge1" class="edge">
<title>node1&#45;read&#45;1&#45;&gt;tokenizer&#45;1</title>
<path fill="none" stroke="lightblue" d="M358.35,-380.58C358.35,-363.72 358.35,-342.08 358.35,-323.56"/>
<polygon fill="lightblue" stroke="lightblue" points="361.85,-323.72 358.35,-313.72 354.85,-323.72 361.85,-323.72"/>
<text text-anchor="middle" x="372.6" y="-349.65" font-family="Times,serif" font-size="14.00">0</text>
<text text-anchor="middle" x="372.6" y="-333.15" font-family="Times,serif" font-size="14.00"> &#160;(0s)</text>
</g>
<!-- tokenizer&#45;1&#45;&gt;node2&#45;filter&#45;2 -->
<g id="edge3" class="edge">
<title>tokenizer&#45;1&#45;&gt;node2&#45;filter&#45;2</title>
<path fill="none" stroke="lightblue" d="M313.24,-265.91C289.97,-257.41 261.21,-246.55 235.85,-235.97 195.68,-219.2 151.05,-198.58 117.39,-182.61"/>
<polygon fill="lightblue" stroke="lightblue" points="119.21,-179.6 108.68,-178.46 116.2,-185.92 119.21,-179.6"/>
<text text-anchor="middle" x="250.6" y="-222.67" font-family="Times,serif" font-size="14.00">0</text>
<text text-anchor="middle" x="250.6" y="-206.17" font-family="Times,serif" font-size="14.00"> &#160;(0s)</text>
</g>
<!-- tokenizer&#45;1&#45;&gt;node2&#45;filter&#45;3 -->
<g id="edge4" class="edge">
<title>tokenizer&#45;1&#45;&gt;node2&#45;filter&#45;3</title>
<path fill="none" stroke="lightblue" d="M330,-257.86C307.09,-238.38 274.62,-210.77 249.44,-189.36"/>
<polygon fill="lightblue" stroke="lightblue" points="251.9,-186.86 242.02,-183.05 247.37,-192.19 251.9,-186.86"/>
<text text-anchor="middle" x="316.6" y="-222.67" font-family="Times,serif" font-size="14.00">0</text>
<text text-anchor="middle" x="316.6" y="-206.17" font-family="Times,serif" font-size="14.00"> &#160;(0s)</text>
</g>
<!-- tokenizer&#45;1&#45;&gt;node2&#45;filter&#45;4 -->
<g id="edge5" class="edge">
<title>tokenizer&#45;1&#45;&gt;node2&#45;filter&#45;4</title>
<path fill="none" stroke="lightblue" d="M358.35,-253.6C358.35,-236.74 358.35,-215.1 358.35,-196.57"/>
<polygon fill="lightblue" stroke="lightblue" points="361.85,-196.74 358.35,-186.74 354.85,-196.74 361.85,-196.74"/>
<text text-anchor="middle" x="372.6" y="-222.67" font-family="Times,serif" font-size="14.00">0</text>
<text text-anchor="middle" x="372.6" y="-206.17" font-family="Times,serif" font-size="14.00"> &#160;(0s)</text>
</g>
<!-- tokenizer&#45;1&#45;&gt;node2&#45;filter&#45;5 -->
<g id="edge6" class="edge">
<title>tokenizer&#45;1&#45;&gt;node2&#45;filter&#45;5</title>
<path fill="none" stroke="lightblue" d="M386.69,-257.86C409.6,-238.38 442.07,-210.77 467.25,-189.36"/>
<polygon fill="lightblue" stroke="lightblue" points="469.33,-192.19 474.68,-183.05 464.79,-186.86 469.33,-192.19"/>
<text text-anchor="middle" x="463.6" y="-222.67" font-family="Times,serif" font-size="14.00">0</text>
<text text-anchor="middle" x="463.6" y="-206.17" font-family="Times,serif" font-size="14.00"> &#160;(0s)</text>
</g>
<!-- node2&#45;filter&#45;1 -->
<g id="node8" class="node">
<title>node2&#45;filter&#45;1</title>
<ellipse fill="none" stroke="black" cx="652.35" cy="-155.97" rx="64.35" ry="28.99"/>
<text text-anchor="middle" x="652.35" y="-159.17" font-family="Times,serif" font-size="14.00">node2&#45;filter&#45;1</text>
<text text-anchor="middle" x="652.35" y="-142.67" font-family="Times,serif" font-size="14.00">(0s)</text>
</g>
<!-- tokenizer&#45;1&#45;&gt;node2&#45;filter&#45;1 -->
<g id="edge2" class="edge">
<title>tokenizer&#45;1&#45;&gt;node2&#45;filter&#45;1</title>
<path fill="none" stroke="lightblue" d="M403.36,-266.04C426.78,-257.53 455.78,-246.63 481.35,-235.97 521.42,-219.25 565.92,-198.62 599.48,-182.64"/>
<polygon fill="lightblue" stroke="lightblue" points="600.64,-185.96 608.16,-178.49 597.62,-179.65 600.64,-185.96"/>
<text text-anchor="middle" x="567.6" y="-222.67" font-family="Times,serif" font-size="14.00">0</text>
<text text-anchor="middle" x="567.6" y="-206.17" font-family="Times,serif" font-size="14.00"> &#160;(0s)</text>
</g>
<!-- node2&#45;filter&#45;1&#45;&gt;node3&#45;count&#45;1 -->
<g id="edge7" class="edge">
<title>node2&#45;filter&#45;1&#45;&gt;node3&#45;count&#45;1</title>
<path fill="none" stroke="lightblue" d="M609.52,-134.11C575.17,-117.63 525.56,-94.43 481.35,-75.98 461.64,-67.76 439.89,-59.4 420.23,-52.1"/>
<polygon fill="lightblue" stroke="lightblue" points="421.56,-48.86 410.97,-48.69 419.14,-55.43 421.56,-48.86"/>
<text text-anchor="middle" x="567.6" y="-95.68" font-family="Times,serif" font-size="14.00">0</text>
<text text-anchor="middle" x="567.6" y="-79.18" font-family="Times,serif" font-size="14.00"> &#160;(0s)</text>
</g>
</g>
</svg>
