<?xml version="1.0" encoding="UTF-8" standalone="no"?>
<!DOCTYPE svg PUBLIC "-//W3C//DTD SVG 1.1//EN"
 "http://www.w3.org/Graphics/SVG/1.1/DTD/svg11.dtd">
<!-- Generated by graphviz version 9.0.0 (20230911.1827)
 -->
<!-- Pages: 1 -->
<svg width="725pt" height="471pt"
 viewBox="0.00 0.00 724.69 471.43" xmlns="http://www.w3.org/2000/svg" xmlns:xlink="http://www.w3.org/1999/xlink">
<g id="graph0" class="graph" transform="scale(1 1) rotate(0) translate(4 467.43)">
<polygon fill="white" stroke="none" points="-4,4 -4,-467.43 720.69,-467.43 720.69,4 -4,4"/>
<text text-anchor="middle" x="358.35" y="-446.13" font-family="Times,serif" font-size="14.00">Network Uptime:435.625µs</text>
<!-- node2&#45;filter&#45;1 -->
<g id="node1" class="node">
<title>node2&#45;filter&#45;1</title>
<ellipse fill="none" stroke="black" cx="64.35" cy="-155.97" rx="64.35" ry="28.99"/>
<text text-anchor="middle" x="64.35" y="-159.17" font-family="Times,serif" font-size="14.00">node2&#45;filter&#45;1</text>
<text text-anchor="middle" x="64.35" y="-142.67" font-family="Times,serif" font-size="14.00">(333.416µs)</text>
</g>
<!-- node3&#45;count&#45;1 -->
<g id="node6" class="node">
<title>node3&#45;count&#45;1</title>
<ellipse fill="none" stroke="black" cx="358.35" cy="-28.99" rx="67" ry="28.99"/>
<text text-anchor="middle" x="358.35" y="-32.19" font-family="Times,serif" font-size="14.00">node3&#45;count&#45;1</text>
<text text-anchor="middle" x="358.35" y="-15.69" font-family="Times,serif" font-size="14.00">(315.875µs)</text>
</g>
<!-- node2&#45;filter&#45;1&#45;&gt;node3&#45;count&#45;1 -->
<g id="edge8" class="edge">
<title>node2&#45;filter&#45;1&#45;&gt;node3&#45;count&#45;1</title>
<path fill="none" stroke="lightblue" d="M91.93,-129.44C112.17,-112.01 141.08,-89.66 170.1,-75.98 205.79,-59.15 248.3,-48.09 283.89,-41.04"/>
<polygon fill="lightblue" stroke="lightblue" points="284.52,-44.48 293.69,-39.18 283.21,-37.61 284.52,-44.48"/>
<text text-anchor="middle" x="207.47" y="-95.68" font-family="Times,serif" font-size="14.00">0</text>
<text text-anchor="middle" x="207.47" y="-79.18" font-family="Times,serif" font-size="14.00"> &#160;(307.416µs)</text>
</g>
<!-- node2&#45;filter&#45;2 -->
<g id="node2" class="node">
<title>node2&#45;filter&#45;2</title>
<ellipse fill="none" stroke="black" cx="211.35" cy="-155.97" rx="64.35" ry="28.99"/>
<text text-anchor="middle" x="211.35" y="-159.17" font-family="Times,serif" font-size="14.00">node2&#45;filter&#45;2</text>
<text text-anchor="middle" x="211.35" y="-142.67" font-family="Times,serif" font-size="14.00">(349.458µs)</text>
</g>
<!-- node2&#45;filter&#45;2&#45;&gt;node3&#45;count&#45;1 -->
<g id="edge9" class="edge">
<title>node2&#45;filter&#45;2&#45;&gt;node3&#45;count&#45;1</title>
<path fill="none" stroke="lightblue" d="M231.12,-128.12C243.93,-111.84 261.63,-91.31 280.1,-75.98 288.02,-69.4 297,-63.19 305.98,-57.57"/>
<polygon fill="lightblue" stroke="lightblue" points="307.61,-60.67 314.37,-52.51 304,-54.68 307.61,-60.67"/>
<text text-anchor="middle" x="317.47" y="-95.68" font-family="Times,serif" font-size="14.00">0</text>
<text text-anchor="middle" x="317.47" y="-79.18" font-family="Times,serif" font-size="14.00"> &#160;(309.541µs)</text>
</g>
<!-- node2&#45;filter&#45;3 -->
<g id="node3" class="node">
<title>node2&#45;filter&#45;3</title>
<ellipse fill="none" stroke="black" cx="358.35" cy="-155.97" rx="64.35" ry="28.99"/>
<text text-anchor="middle" x="358.35" y="-159.17" font-family="Times,serif" font-size="14.00">node2&#45;filter&#45;3</text>
<text text-anchor="middle" x="358.35" y="-142.67" font-family="Times,serif" font-size="14.00">(393.25µs)</text>
</g>
<!-- node2&#45;filter&#45;3&#45;&gt;node3&#45;count&#45;1 -->
<g id="edge10" class="edge">
<title>node2&#45;filter&#45;3&#45;&gt;node3&#45;count&#45;1</title>
<path fill="none" stroke="lightblue" d="M358.35,-126.61C358.35,-109.75 358.35,-88.12 358.35,-69.59"/>
<polygon fill="lightblue" stroke="lightblue" points="361.85,-69.75 358.35,-59.75 354.85,-69.75 361.85,-69.75"/>
<text text-anchor="middle" x="395.47" y="-95.68" font-family="Times,serif" font-size="14.00">2</text>
<text text-anchor="middle" x="395.47" y="-79.18" font-family="Times,serif" font-size="14.00"> &#160;(314.541µs)</text>
</g>
<!-- node2&#45;filter&#45;4 -->
<g id="node4" class="node">
<title>node2&#45;filter&#45;4</title>
<ellipse fill="none" stroke="black" cx="505.35" cy="-155.97" rx="64.35" ry="28.99"/>
<text text-anchor="middle" x="505.35" y="-159.17" font-family="Times,serif" font-size="14.00">node2&#45;filter&#45;4</text>
<text text-anchor="middle" x="505.35" y="-142.67" font-family="Times,serif" font-size="14.00">(360.584µs)</text>
</g>
<!-- node2&#45;filter&#45;4&#45;&gt;node3&#45;count&#45;1 -->
<g id="edge11" class="edge">
<title>node2&#45;filter&#45;4&#45;&gt;node3&#45;count&#45;1</title>
<path fill="none" stroke="lightblue" d="M485.48,-128.13C472.61,-111.86 454.84,-91.33 436.35,-75.98 428.44,-69.42 419.49,-63.21 410.54,-57.6"/>
<polygon fill="lightblue" stroke="lightblue" points="412.54,-54.72 402.17,-52.55 408.92,-60.71 412.54,-54.72"/>
<text text-anchor="middle" x="506.47" y="-95.68" font-family="Times,serif" font-size="14.00">2</text>
<text text-anchor="middle" x="506.47" y="-79.18" font-family="Times,serif" font-size="14.00"> &#160;(309.875µs)</text>
</g>
<!-- node2&#45;filter&#45;5 -->
<g id="node5" class="node">
<title>node2&#45;filter&#45;5</title>
<ellipse fill="none" stroke="black" cx="652.35" cy="-155.97" rx="64.35" ry="28.99"/>
<text text-anchor="middle" x="652.35" y="-159.17" font-family="Times,serif" font-size="14.00">node2&#45;filter&#45;5</text>
<text text-anchor="middle" x="652.35" y="-142.67" font-family="Times,serif" font-size="14.00">(324.125µs)</text>
</g>
<!-- node2&#45;filter&#45;5&#45;&gt;node3&#45;count&#45;1 -->
<g id="edge1" class="edge">
<title>node2&#45;filter&#45;5&#45;&gt;node3&#45;count&#45;1</title>
<path fill="none" stroke="lightblue" d="M624.99,-129.43C604.91,-111.98 576.22,-89.64 547.35,-75.98 511.38,-58.97 468.49,-47.88 432.67,-40.86"/>
<polygon fill="lightblue" stroke="lightblue" points="433.75,-37.5 423.28,-39.09 432.46,-44.38 433.75,-37.5"/>
<text text-anchor="middle" x="636.47" y="-95.68" font-family="Times,serif" font-size="14.00">1</text>
<text text-anchor="middle" x="636.47" y="-79.18" font-family="Times,serif" font-size="14.00"> &#160;(304.875µs)</text>
</g>
<!-- node1&#45;read&#45;1 -->
<g id="node7" class="node">
<title>node1&#45;read&#45;1</title>
<ellipse fill="none" stroke="black" cx="358.35" cy="-409.94" rx="62.23" ry="28.99"/>
<text text-anchor="middle" x="358.35" y="-413.14" font-family="Times,serif" font-size="14.00">node1&#45;read&#45;1</text>
<text text-anchor="middle" x="358.35" y="-396.64" font-family="Times,serif" font-size="14.00">(285.709µs)</text>
</g>
<!-- tokenizer&#45;1 -->
<g id="node8" class="node">
<title>tokenizer&#45;1</title>
<ellipse fill="lightyellow" stroke="black" cx="358.35" cy="-282.96" rx="58.51" ry="28.99"/>
<text text-anchor="middle" x="358.35" y="-286.16" font-family="Times,serif" font-size="14.00">tokenizer&#45;1</text>
<text text-anchor="middle" x="358.35" y="-269.66" font-family="Times,serif" font-size="14.00">(331.625µs)</text>
</g>
<!-- node1&#45;read&#45;1&#45;&gt;tokenizer&#45;1 -->
<g id="edge2" class="edge">
<title>node1&#45;read&#45;1&#45;&gt;tokenizer&#45;1</title>
<path fill="none" stroke="lightblue" d="M358.35,-380.58C358.35,-363.72 358.35,-342.08 358.35,-323.56"/>
<polygon fill="lightblue" stroke="lightblue" points="361.85,-323.72 358.35,-313.72 354.85,-323.72 361.85,-323.72"/>
<text text-anchor="middle" x="395.47" y="-349.65" font-family="Times,serif" font-size="14.00">1</text>
<text text-anchor="middle" x="395.47" y="-333.15" font-family="Times,serif" font-size="14.00"> &#160;(239.625µs)</text>
</g>
<!-- tokenizer&#45;1&#45;&gt;node2&#45;filter&#45;1 -->
<g id="edge3" class="edge">
<title>tokenizer&#45;1&#45;&gt;node2&#45;filter&#45;1</title>
<path fill="none" stroke="lightblue" d="M303.64,-272.37C268.39,-265.04 222.1,-253.22 183.6,-235.97 155.64,-223.44 126.93,-204.64 104.69,-188.52"/>
<polygon fill="lightblue" stroke="lightblue" points="106.92,-185.82 96.79,-182.7 102.77,-191.45 106.92,-185.82"/>
<text text-anchor="middle" x="214.72" y="-222.67" font-family="Times,serif" font-size="14.00">4</text>
<text text-anchor="middle" x="214.72" y="-206.17" font-family="Times,serif" font-size="14.00"> &#160;(328.5µs)</text>
</g>
<!-- tokenizer&#45;1&#45;&gt;node2&#45;filter&#45;2 -->
<g id="edge4" class="edge">
<title>tokenizer&#45;1&#45;&gt;node2&#45;filter&#45;2</title>
<path fill="none" stroke="lightblue" d="M318.09,-261.61C305.36,-254.33 291.61,-245.53 280.1,-235.97 264.81,-223.27 250.04,-207.01 238.14,-192.55"/>
<polygon fill="lightblue" stroke="lightblue" points="241.06,-190.6 232.06,-185.01 235.61,-194.99 241.06,-190.6"/>
<text text-anchor="middle" x="317.47" y="-222.67" font-family="Times,serif" font-size="14.00">5</text>
<text text-anchor="middle" x="317.47" y="-206.17" font-family="Times,serif" font-size="14.00"> &#160;(342.417µs)</text>
</g>
<!-- tokenizer&#45;1&#45;&gt;node2&#45;filter&#45;3 -->
<g id="edge5" class="edge">
<title>tokenizer&#45;1&#45;&gt;node2&#45;filter&#45;3</title>
<path fill="none" stroke="lightblue" d="M358.35,-253.6C358.35,-236.74 358.35,-215.1 358.35,-196.57"/>
<polygon fill="lightblue" stroke="lightblue" points="361.85,-196.74 358.35,-186.74 354.85,-196.74 361.85,-196.74"/>
<text text-anchor="middle" x="395.47" y="-222.67" font-family="Times,serif" font-size="14.00">5</text>
<text text-anchor="middle" x="395.47" y="-206.17" font-family="Times,serif" font-size="14.00"> &#160;(381.209µs)</text>
</g>
<!-- tokenizer&#45;1&#45;&gt;node2&#45;filter&#45;4 -->
<g id="edge6" class="edge">
<title>tokenizer&#45;1&#45;&gt;node2&#45;filter&#45;4</title>
<path fill="none" stroke="lightblue" d="M398.46,-261.58C411.15,-254.3 424.86,-245.5 436.35,-235.97 451.66,-223.25 466.48,-206.99 478.43,-192.54"/>
<polygon fill="lightblue" stroke="lightblue" points="480.97,-194.97 484.53,-184.99 475.52,-190.57 480.97,-194.97"/>
<text text-anchor="middle" x="506.47" y="-222.67" font-family="Times,serif" font-size="14.00">4</text>
<text text-anchor="middle" x="506.47" y="-206.17" font-family="Times,serif" font-size="14.00"> &#160;(353.209µs)</text>
</g>
<!-- tokenizer&#45;1&#45;&gt;node2&#45;filter&#45;5 -->
<g id="edge7" class="edge">
<title>tokenizer&#45;1&#45;&gt;node2&#45;filter&#45;5</title>
<path fill="none" stroke="lightblue" d="M414.52,-274.42C453.22,-267.79 505.07,-255.96 547.35,-235.97 572.27,-224.18 597.06,-205.91 616.29,-189.92"/>
<polygon fill="lightblue" stroke="lightblue" points="618.49,-192.65 623.84,-183.5 613.95,-187.31 618.49,-192.65"/>
<text text-anchor="middle" x="633.1" y="-222.67" font-family="Times,serif" font-size="14.00">2</text>
<text text-anchor="middle" x="633.1" y="-206.17" font-family="Times,serif" font-size="14.00"> &#160;(321.75µs)</text>
</g>
</g>
</svg>
