<?xml version="1.0" encoding="UTF-8" standalone="no"?>
<!DOCTYPE svg PUBLIC "-//W3C//DTD SVG 1.1//EN"
 "http://www.w3.org/Graphics/SVG/1.1/DTD/svg11.dtd">
<!-- Generated by graphviz version 9.0.0 (20230911.1827)
 -->
<!-- Pages: 1 -->
<svg width="725pt" height="471pt"
 viewBox="0.00 0.00 724.69 471.43" xmlns="http://www.w3.org/2000/svg" xmlns:xlink="http://www.w3.org/1999/xlink">
<g id="graph0" class="graph" transform="scale(1 1) rotate(0) translate(4 467.43)">
<polygon fill="white" stroke="none" points="-4,4 -4,-467.43 720.69,-467.43 720.69,4 -4,4"/>
<text text-anchor="middle" x="358.35" y="-446.13" font-family="Times,serif" font-size="14.00">Network Uptime:0s</text>
<!-- step4&#45;count -->
<g id="node1" class="node">
<title>step4&#45;count</title>
<ellipse fill="none" stroke="black" cx="358.35" cy="-28.99" rx="55.86" ry="28.99"/>
<text text-anchor="middle" x="358.35" y="-32.19" font-family="Times,serif" font-size="14.00">step4&#45;count</text>
<text text-anchor="middle" x="358.35" y="-15.69" font-family="Times,serif" font-size="14.00">(0s)</text>
</g>
<!-- step1&#45;read -->
<g id="node2" class="node">
<title>step1&#45;read</title>
<ellipse fill="none" stroke="black" cx="358.35" cy="-409.94" rx="51.09" ry="28.99"/>
<text text-anchor="middle" x="358.35" y="-413.14" font-family="Times,serif" font-size="14.00">step1&#45;read</text>
<text text-anchor="middle" x="358.35" y="-396.64" font-family="Times,serif" font-size="14.00">(0s)</text>
</g>
<!-- tokenizer -->
<g id="node3" class="node">
<title>tokenizer</title>
<ellipse fill="lightyellow" stroke="black" cx="358.35" cy="-282.96" rx="46.85" ry="28.99"/>
<text text-anchor="middle" x="358.35" y="-286.16" font-family="Times,serif" font-size="14.00">tokenizer</text>
<text text-anchor="middle" x="358.35" y="-269.66" font-family="Times,serif" font-size="14.00">(0s)</text>
</g>
<!-- step1&#45;read&#45;&gt;tokenizer -->
<g id="edge2" class="edge">
<title>step1&#45;read&#45;&gt;tokenizer</title>
<path fill="none" stroke="lightblue" d="M358.35,-380.58C358.35,-363.72 358.35,-342.08 358.35,-323.56"/>
<polygon fill="lightblue" stroke="lightblue" points="361.85,-323.72 358.35,-313.72 354.85,-323.72 361.85,-323.72"/>
<text text-anchor="middle" x="372.6" y="-349.65" font-family="Times,serif" font-size="14.00">0</text>
<text text-anchor="middle" x="372.6" y="-333.15" font-family="Times,serif" font-size="14.00"> &#160;(0s)</text>
</g>
<!-- step3&#45;filter&#45;r1 -->
<g id="node4" class="node">
<title>step3&#45;filter&#45;r1</title>
<ellipse fill="none" stroke="black" cx="64.35" cy="-155.97" rx="64.35" ry="28.99"/>
<text text-anchor="middle" x="64.35" y="-159.17" font-family="Times,serif" font-size="14.00">step3&#45;filter&#45;r1</text>
<text text-anchor="middle" x="64.35" y="-142.67" font-family="Times,serif" font-size="14.00">(0s)</text>
</g>
<!-- tokenizer&#45;&gt;step3&#45;filter&#45;r1 -->
<g id="edge3" class="edge">
<title>tokenizer&#45;&gt;step3&#45;filter&#45;r1</title>
<path fill="none" stroke="lightblue" d="M318.06,-267.67C294.02,-258.93 263,-247.3 235.85,-235.97 195.68,-219.2 151.05,-198.58 117.39,-182.61"/>
<polygon fill="lightblue" stroke="lightblue" points="119.21,-179.6 108.68,-178.46 116.2,-185.92 119.21,-179.6"/>
<text text-anchor="middle" x="250.6" y="-222.67" font-family="Times,serif" font-size="14.00">0</text>
<text text-anchor="middle" x="250.6" y="-206.17" font-family="Times,serif" font-size="14.00"> &#160;(0s)</text>
</g>
<!-- step3&#45;filter&#45;r2 -->
<g id="node5" class="node">
<title>step3&#45;filter&#45;r2</title>
<ellipse fill="none" stroke="black" cx="211.35" cy="-155.97" rx="64.35" ry="28.99"/>
<text text-anchor="middle" x="211.35" y="-159.17" font-family="Times,serif" font-size="14.00">step3&#45;filter&#45;r2</text>
<text text-anchor="middle" x="211.35" y="-142.67" font-family="Times,serif" font-size="14.00">(0s)</text>
</g>
<!-- tokenizer&#45;&gt;step3&#45;filter&#45;r2 -->
<g id="edge4" class="edge">
<title>tokenizer&#45;&gt;step3&#45;filter&#45;r2</title>
<path fill="none" stroke="lightblue" d="M331.38,-259.03C308.47,-239.55 275.32,-211.36 249.65,-189.54"/>
<polygon fill="lightblue" stroke="lightblue" points="251.95,-186.9 242.07,-183.09 247.42,-192.24 251.95,-186.9"/>
<text text-anchor="middle" x="316.6" y="-222.67" font-family="Times,serif" font-size="14.00">0</text>
<text text-anchor="middle" x="316.6" y="-206.17" font-family="Times,serif" font-size="14.00"> &#160;(0s)</text>
</g>
<!-- step3&#45;filter&#45;r3 -->
<g id="node6" class="node">
<title>step3&#45;filter&#45;r3</title>
<ellipse fill="none" stroke="black" cx="358.35" cy="-155.97" rx="64.35" ry="28.99"/>
<text text-anchor="middle" x="358.35" y="-159.17" font-family="Times,serif" font-size="14.00">step3&#45;filter&#45;r3</text>
<text text-anchor="middle" x="358.35" y="-142.67" font-family="Times,serif" font-size="14.00">(0s)</text>
</g>
<!-- tokenizer&#45;&gt;step3&#45;filter&#45;r3 -->
<g id="edge5" class="edge">
<title>tokenizer&#45;&gt;step3&#45;filter&#45;r3</title>
<path fill="none" stroke="lightblue" d="M358.35,-253.6C358.35,-236.74 358.35,-215.1 358.35,-196.57"/>
<polygon fill="lightblue" stroke="lightblue" points="361.85,-196.74 358.35,-186.74 354.85,-196.74 361.85,-196.74"/>
<text text-anchor="middle" x="372.6" y="-222.67" font-family="Times,serif" font-size="14.00">0</text>
<text text-anchor="middle" x="372.6" y="-206.17" font-family="Times,serif" font-size="14.00"> &#160;(0s)</text>
</g>
<!-- step3&#45;filter&#45;r4 -->
<g id="node7" class="node">
<title>step3&#45;filter&#45;r4</title>
<ellipse fill="none" stroke="black" cx="505.35" cy="-155.97" rx="64.35" ry="28.99"/>
<text text-anchor="middle" x="505.35" y="-159.17" font-family="Times,serif" font-size="14.00">step3&#45;filter&#45;r4</text>
<text text-anchor="middle" x="505.35" y="-142.67" font-family="Times,serif" font-size="14.00">(0s)</text>
</g>
<!-- tokenizer&#45;&gt;step3&#45;filter&#45;r4 -->
<g id="edge6" class="edge">
<title>tokenizer&#45;&gt;step3&#45;filter&#45;r4</title>
<path fill="none" stroke="lightblue" d="M385.31,-259.03C408.22,-239.55 441.38,-211.36 467.04,-189.54"/>
<polygon fill="lightblue" stroke="lightblue" points="469.27,-192.24 474.63,-183.09 464.74,-186.9 469.27,-192.24"/>
<text text-anchor="middle" x="463.6" y="-222.67" font-family="Times,serif" font-size="14.00">0</text>
<text text-anchor="middle" x="463.6" y="-206.17" font-family="Times,serif" font-size="14.00"> &#160;(0s)</text>
</g>
<!-- step3&#45;filter&#45;r5 -->
<g id="node8" class="node">
<title>step3&#45;filter&#45;r5</title>
<ellipse fill="none" stroke="black" cx="652.35" cy="-155.97" rx="64.35" ry="28.99"/>
<text text-anchor="middle" x="652.35" y="-159.17" font-family="Times,serif" font-size="14.00">step3&#45;filter&#45;r5</text>
<text text-anchor="middle" x="652.35" y="-142.67" font-family="Times,serif" font-size="14.00">(0s)</text>
</g>
<!-- tokenizer&#45;&gt;step3&#45;filter&#45;r5 -->
<g id="edge7" class="edge">
<title>tokenizer&#45;&gt;step3&#45;filter&#45;r5</title>
<path fill="none" stroke="lightblue" d="M398.81,-267.69C422.94,-258.97 454.1,-247.33 481.35,-235.97 521.42,-219.25 565.92,-198.62 599.48,-182.64"/>
<polygon fill="lightblue" stroke="lightblue" points="600.64,-185.96 608.16,-178.49 597.62,-179.65 600.64,-185.96"/>
<text text-anchor="middle" x="567.6" y="-222.67" font-family="Times,serif" font-size="14.00">0</text>
<text text-anchor="middle" x="567.6" y="-206.17" font-family="Times,serif" font-size="14.00"> &#160;(0s)</text>
</g>
<!-- step3&#45;filter&#45;r1&#45;&gt;step4&#45;count -->
<g id="edge8" class="edge">
<title>step3&#45;filter&#45;r1&#45;&gt;step4&#45;count</title>
<path fill="none" stroke="lightblue" d="M107.31,-134.13C141.77,-117.68 191.53,-94.48 235.85,-75.98 257.27,-67.04 281.11,-57.91 302.02,-50.17"/>
<polygon fill="lightblue" stroke="lightblue" points="303.07,-53.51 311.24,-46.77 300.65,-46.94 303.07,-53.51"/>
<text text-anchor="middle" x="250.6" y="-95.68" font-family="Times,serif" font-size="14.00">0</text>
<text text-anchor="middle" x="250.6" y="-79.18" font-family="Times,serif" font-size="14.00"> &#160;(0s)</text>
</g>
<!-- step3&#45;filter&#45;r2&#45;&gt;step4&#45;count -->
<g id="edge9" class="edge">
<title>step3&#45;filter&#45;r2&#45;&gt;step4&#45;count</title>
<path fill="none" stroke="lightblue" d="M240.74,-129.98C263.98,-110.23 296.54,-82.54 321.51,-61.31"/>
<polygon fill="lightblue" stroke="lightblue" points="323.5,-64.21 328.85,-55.07 318.96,-58.88 323.5,-64.21"/>
<text text-anchor="middle" x="316.6" y="-95.68" font-family="Times,serif" font-size="14.00">0</text>
<text text-anchor="middle" x="316.6" y="-79.18" font-family="Times,serif" font-size="14.00"> &#160;(0s)</text>
</g>
<!-- step3&#45;filter&#45;r3&#45;&gt;step4&#45;count -->
<g id="edge10" class="edge">
<title>step3&#45;filter&#45;r3&#45;&gt;step4&#45;count</title>
<path fill="none" stroke="lightblue" d="M358.35,-126.61C358.35,-109.75 358.35,-88.12 358.35,-69.59"/>
<polygon fill="lightblue" stroke="lightblue" points="361.85,-69.75 358.35,-59.75 354.85,-69.75 361.85,-69.75"/>
<text text-anchor="middle" x="372.6" y="-95.68" font-family="Times,serif" font-size="14.00">0</text>
<text text-anchor="middle" x="372.6" y="-79.18" font-family="Times,serif" font-size="14.00"> &#160;(0s)</text>
</g>
<!-- step3&#45;filter&#45;r4&#45;&gt;step4&#45;count -->
<g id="edge11" class="edge">
<title>step3&#45;filter&#45;r4&#45;&gt;step4&#45;count</title>
<path fill="none" stroke="lightblue" d="M475.95,-129.98C452.72,-110.23 420.15,-82.54 395.18,-61.31"/>
<polygon fill="lightblue" stroke="lightblue" points="397.73,-58.88 387.84,-55.07 393.2,-64.21 397.73,-58.88"/>
<text text-anchor="middle" x="463.6" y="-95.68" font-family="Times,serif" font-size="14.00">0</text>
<text text-anchor="middle" x="463.6" y="-79.18" font-family="Times,serif" font-size="14.00"> &#160;(0s)</text>
</g>
<!-- step3&#45;filter&#45;r5&#45;&gt;step4&#45;count -->
<g id="edge1" class="edge">
<title>step3&#45;filter&#45;r5&#45;&gt;step4&#45;count</title>
<path fill="none" stroke="lightblue" d="M609.52,-134.11C575.17,-117.63 525.56,-94.43 481.35,-75.98 459.76,-66.97 435.71,-57.8 414.65,-50.04"/>
<polygon fill="lightblue" stroke="lightblue" points="415.95,-46.79 405.36,-46.64 413.55,-53.36 415.95,-46.79"/>
<text text-anchor="middle" x="567.6" y="-95.68" font-family="Times,serif" font-size="14.00">0</text>
<text text-anchor="middle" x="567.6" y="-79.18" font-family="Times,serif" font-size="14.00"> &#160;(0s)</text>
</g>
</g>
</svg>
