<?xml version="1.0" encoding="UTF-8" standalone="no"?>
<!DOCTYPE svg PUBLIC "-//W3C//DTD SVG 1.1//EN"
 "http://www.w3.org/Graphics/SVG/1.1/DTD/svg11.dtd">
<!-- Generated by graphviz version 9.0.0 (20230911.1827)
 -->
<!-- Pages: 1 -->
<svg width="125pt" height="334pt"
 viewBox="0.00 0.00 124.84 333.50" xmlns="http://www.w3.org/2000/svg" xmlns:xlink="http://www.w3.org/1999/xlink">
<g id="graph0" class="graph" transform="scale(1 1) rotate(0) translate(4 329.5)">
<polygon fill="white" stroke="none" points="-4,4 -4,-329.5 120.84,-329.5 120.84,4 -4,4"/>
<!-- node1&#45;read -->
<g id="node1" class="node">
<title>node1&#45;read</title>
<ellipse fill="none" stroke="black" cx="58.42" cy="-303.5" rx="52.38" ry="18"/>
<ellipse fill="none" stroke="black" cx="58.42" cy="-303.5" rx="56.38" ry="22"/>
<text text-anchor="middle" x="58.42" y="-298.45" font-family="Times,serif" font-size="14.00">node1&#45;read</text>
</g>
<!-- node2&#45;map -->
<g id="node2" class="node">
<title>node2&#45;map</title>
<ellipse fill="none" stroke="black" cx="58.42" cy="-207" rx="52.89" ry="18"/>
<ellipse fill="none" stroke="black" cx="58.42" cy="-207" rx="56.89" ry="22"/>
<text text-anchor="middle" x="58.42" y="-201.95" font-family="Times,serif" font-size="14.00">node2&#45;map</text>
</g>
<!-- node1&#45;read&#45;&gt;node2&#45;map -->
<g id="edge1" class="edge">
<title>node1&#45;read&#45;&gt;node2&#45;map</title>
<path fill="none" stroke="lightblue" d="M58.42,-281.06C58.42,-269.09 58.42,-253.95 58.42,-240.56"/>
<polygon fill="lightblue" stroke="lightblue" points="61.92,-240.87 58.42,-230.87 54.92,-240.87 61.92,-240.87"/>
<text text-anchor="middle" x="65.55" y="-250.2" font-family="Times,serif" font-size="14.00"> &#160;1</text>
</g>
<!-- node3&#45;filter -->
<g id="node3" class="node">
<title>node3&#45;filter</title>
<ellipse fill="none" stroke="black" cx="58.42" cy="-110.5" rx="54.42" ry="18"/>
<ellipse fill="none" stroke="black" cx="58.42" cy="-110.5" rx="58.42" ry="22"/>
<text text-anchor="middle" x="58.42" y="-105.45" font-family="Times,serif" font-size="14.00">node3&#45;filter</text>
</g>
<!-- node2&#45;map&#45;&gt;node3&#45;filter -->
<g id="edge2" class="edge">
<title>node2&#45;map&#45;&gt;node3&#45;filter</title>
<path fill="none" stroke="lightblue" d="M58.42,-184.56C58.42,-172.59 58.42,-157.45 58.42,-144.06"/>
<polygon fill="lightblue" stroke="lightblue" points="61.92,-144.37 58.42,-134.37 54.92,-144.37 61.92,-144.37"/>
<text text-anchor="middle" x="68.92" y="-153.7" font-family="Times,serif" font-size="14.00"> &#160;20</text>
</g>
<!-- node4&#45;count -->
<g id="node4" class="node">
<title>node4&#45;count</title>
<ellipse fill="none" stroke="black" cx="58.42" cy="-18" rx="56.98" ry="18"/>
<text text-anchor="middle" x="58.42" y="-12.95" font-family="Times,serif" font-size="14.00">node4&#45;count</text>
</g>
<!-- node3&#45;filter&#45;&gt;node4&#45;count -->
<g id="edge3" class="edge">
<title>node3&#45;filter&#45;&gt;node4&#45;count</title>
<path fill="none" stroke="lightblue" d="M58.42,-88.05C58.42,-75.97 58.42,-60.71 58.42,-47.62"/>
<polygon fill="lightblue" stroke="lightblue" points="61.92,-47.87 58.42,-37.87 54.92,-47.87 61.92,-47.87"/>
<text text-anchor="middle" x="65.55" y="-57.2" font-family="Times,serif" font-size="14.00"> &#160;5</text>
</g>
</g>
</svg>
