<?xml version="1.0" encoding="UTF-8" standalone="no"?>
<!DOCTYPE svg PUBLIC "-//W3C//DTD SVG 1.1//EN"
 "http://www.w3.org/Graphics/SVG/1.1/DTD/svg11.dtd">
<!-- Generated by graphviz version 9.0.0 (20230911.1827)
 -->
<!-- Pages: 1 -->
<svg width="665pt" height="342pt"
 viewBox="0.00 0.00 664.84 341.50" xmlns="http://www.w3.org/2000/svg" xmlns:xlink="http://www.w3.org/1999/xlink">
<g id="graph0" class="graph" transform="scale(1 1) rotate(0) translate(4 337.5)">
<polygon fill="white" stroke="none" points="-4,4 -4,-337.5 660.84,-337.5 660.84,4 -4,4"/>
<!-- node6&#45;filter -->
<g id="node1" class="node">
<title>node6&#45;filter</title>
<ellipse fill="none" stroke="black" cx="58.42" cy="-118.5" rx="54.42" ry="18"/>
<ellipse fill="none" stroke="black" cx="58.42" cy="-118.5" rx="58.42" ry="22"/>
<text text-anchor="middle" x="58.42" y="-113.45" font-family="Times,serif" font-size="14.00">node6&#45;filter</text>
</g>
<!-- node8&#45;count -->
<g id="node3" class="node">
<title>node8&#45;count</title>
<ellipse fill="none" stroke="black" cx="328.42" cy="-22" rx="56.98" ry="18"/>
<ellipse fill="none" stroke="black" cx="328.42" cy="-22" rx="60.98" ry="22"/>
<text text-anchor="middle" x="328.42" y="-16.95" font-family="Times,serif" font-size="14.00">node8&#45;count</text>
</g>
<!-- node6&#45;filter&#45;&gt;node8&#45;count -->
<g id="edge4" class="edge">
<title>node6&#45;filter&#45;&gt;node8&#45;count</title>
<path fill="none" stroke="lightblue" d="M100.31,-102.84C147.23,-86.42 223.41,-59.76 274.68,-41.81"/>
<polygon fill="lightblue" stroke="lightblue" points="275.83,-45.12 284.11,-38.51 273.52,-38.51 275.83,-45.12"/>
<text text-anchor="middle" x="217.55" y="-65.2" font-family="Times,serif" font-size="14.00"> &#160;0</text>
</g>
<!-- node7&#45;filter -->
<g id="node2" class="node">
<title>node7&#45;filter</title>
<ellipse fill="none" stroke="black" cx="193.42" cy="-118.5" rx="54.42" ry="18"/>
<ellipse fill="none" stroke="black" cx="193.42" cy="-118.5" rx="58.42" ry="22"/>
<text text-anchor="middle" x="193.42" y="-113.45" font-family="Times,serif" font-size="14.00">node7&#45;filter</text>
</g>
<!-- node7&#45;filter&#45;&gt;node8&#45;count -->
<g id="edge5" class="edge">
<title>node7&#45;filter&#45;&gt;node8&#45;count</title>
<path fill="none" stroke="lightblue" d="M220.42,-98.6C241.02,-84.18 269.61,-64.17 292.2,-48.35"/>
<polygon fill="lightblue" stroke="lightblue" points="294.05,-51.33 300.23,-42.73 290.03,-45.6 294.05,-51.33"/>
<text text-anchor="middle" x="276.55" y="-65.2" font-family="Times,serif" font-size="14.00"> &#160;0</text>
</g>
<!-- node1&#45;read -->
<g id="node4" class="node">
<title>node1&#45;read</title>
<ellipse fill="none" stroke="black" cx="328.42" cy="-311.5" rx="52.38" ry="18"/>
<ellipse fill="none" stroke="black" cx="328.42" cy="-311.5" rx="56.38" ry="22"/>
<text text-anchor="middle" x="328.42" y="-306.45" font-family="Times,serif" font-size="14.00">node1&#45;read</text>
</g>
<!-- node2&#45;tokenizer -->
<g id="node5" class="node">
<title>node2&#45;tokenizer</title>
<ellipse fill="lightyellow" stroke="black" cx="328.42" cy="-215" rx="70.8" ry="18"/>
<ellipse fill="none" stroke="black" cx="328.42" cy="-215" rx="74.8" ry="22"/>
<text text-anchor="middle" x="328.42" y="-209.95" font-family="Times,serif" font-size="14.00">node2&#45;tokenizer</text>
</g>
<!-- node1&#45;read&#45;&gt;node2&#45;tokenizer -->
<g id="edge6" class="edge">
<title>node1&#45;read&#45;&gt;node2&#45;tokenizer</title>
<path fill="none" stroke="lightblue" d="M328.42,-289.06C328.42,-277.09 328.42,-261.95 328.42,-248.56"/>
<polygon fill="lightblue" stroke="lightblue" points="331.92,-248.87 328.42,-238.87 324.92,-248.87 331.92,-248.87"/>
<text text-anchor="middle" x="335.55" y="-258.2" font-family="Times,serif" font-size="14.00"> &#160;0</text>
</g>
<!-- node2&#45;tokenizer&#45;&gt;node6&#45;filter -->
<g id="edge10" class="edge">
<title>node2&#45;tokenizer&#45;&gt;node6&#45;filter</title>
<path fill="none" stroke="lightblue" d="M281.39,-197.54C233.91,-180.92 160.73,-155.31 111.27,-138"/>
<polygon fill="lightblue" stroke="lightblue" points="112.5,-134.72 101.91,-134.72 110.19,-141.33 112.5,-134.72"/>
<text text-anchor="middle" x="217.55" y="-161.7" font-family="Times,serif" font-size="14.00"> &#160;0</text>
</g>
<!-- node2&#45;tokenizer&#45;&gt;node7&#45;filter -->
<g id="edge11" class="edge">
<title>node2&#45;tokenizer&#45;&gt;node7&#45;filter</title>
<path fill="none" stroke="lightblue" d="M300.12,-194.19C279.65,-179.86 251.81,-160.37 229.7,-144.9"/>
<polygon fill="lightblue" stroke="lightblue" points="231.75,-142.05 221.55,-139.19 227.73,-147.79 231.75,-142.05"/>
<text text-anchor="middle" x="276.55" y="-161.7" font-family="Times,serif" font-size="14.00"> &#160;0</text>
</g>
<!-- node3&#45;filter -->
<g id="node6" class="node">
<title>node3&#45;filter</title>
<ellipse fill="none" stroke="black" cx="328.42" cy="-118.5" rx="54.42" ry="18"/>
<ellipse fill="none" stroke="black" cx="328.42" cy="-118.5" rx="58.42" ry="22"/>
<text text-anchor="middle" x="328.42" y="-113.45" font-family="Times,serif" font-size="14.00">node3&#45;filter</text>
</g>
<!-- node2&#45;tokenizer&#45;&gt;node3&#45;filter -->
<g id="edge7" class="edge">
<title>node2&#45;tokenizer&#45;&gt;node3&#45;filter</title>
<path fill="none" stroke="lightblue" d="M328.42,-192.56C328.42,-180.59 328.42,-165.45 328.42,-152.06"/>
<polygon fill="lightblue" stroke="lightblue" points="331.92,-152.37 328.42,-142.37 324.92,-152.37 331.92,-152.37"/>
<text text-anchor="middle" x="335.55" y="-161.7" font-family="Times,serif" font-size="14.00"> &#160;0</text>
</g>
<!-- node4&#45;filter -->
<g id="node7" class="node">
<title>node4&#45;filter</title>
<ellipse fill="none" stroke="black" cx="463.42" cy="-118.5" rx="54.42" ry="18"/>
<ellipse fill="none" stroke="black" cx="463.42" cy="-118.5" rx="58.42" ry="22"/>
<text text-anchor="middle" x="463.42" y="-113.45" font-family="Times,serif" font-size="14.00">node4&#45;filter</text>
</g>
<!-- node2&#45;tokenizer&#45;&gt;node4&#45;filter -->
<g id="edge8" class="edge">
<title>node2&#45;tokenizer&#45;&gt;node4&#45;filter</title>
<path fill="none" stroke="lightblue" d="M356.72,-194.19C377.2,-179.86 405.04,-160.37 427.14,-144.9"/>
<polygon fill="lightblue" stroke="lightblue" points="429.11,-147.79 435.3,-139.19 425.1,-142.05 429.11,-147.79"/>
<text text-anchor="middle" x="411.55" y="-161.7" font-family="Times,serif" font-size="14.00"> &#160;0</text>
</g>
<!-- node5&#45;filter -->
<g id="node8" class="node">
<title>node5&#45;filter</title>
<ellipse fill="none" stroke="black" cx="598.42" cy="-118.5" rx="54.42" ry="18"/>
<ellipse fill="none" stroke="black" cx="598.42" cy="-118.5" rx="58.42" ry="22"/>
<text text-anchor="middle" x="598.42" y="-113.45" font-family="Times,serif" font-size="14.00">node5&#45;filter</text>
</g>
<!-- node2&#45;tokenizer&#45;&gt;node5&#45;filter -->
<g id="edge9" class="edge">
<title>node2&#45;tokenizer&#45;&gt;node5&#45;filter</title>
<path fill="none" stroke="lightblue" d="M375.45,-197.54C422.93,-180.92 496.12,-155.31 545.57,-138"/>
<polygon fill="lightblue" stroke="lightblue" points="546.65,-141.33 554.94,-134.72 544.34,-134.72 546.65,-141.33"/>
<text text-anchor="middle" x="486.55" y="-161.7" font-family="Times,serif" font-size="14.00"> &#160;0</text>
</g>
<!-- node3&#45;filter&#45;&gt;node8&#45;count -->
<g id="edge1" class="edge">
<title>node3&#45;filter&#45;&gt;node8&#45;count</title>
<path fill="none" stroke="lightblue" d="M328.42,-96.06C328.42,-84.09 328.42,-68.95 328.42,-55.56"/>
<polygon fill="lightblue" stroke="lightblue" points="331.92,-55.87 328.42,-45.87 324.92,-55.87 331.92,-55.87"/>
<text text-anchor="middle" x="335.55" y="-65.2" font-family="Times,serif" font-size="14.00"> &#160;0</text>
</g>
<!-- node4&#45;filter&#45;&gt;node8&#45;count -->
<g id="edge2" class="edge">
<title>node4&#45;filter&#45;&gt;node8&#45;count</title>
<path fill="none" stroke="lightblue" d="M436.43,-98.6C415.83,-84.18 387.23,-64.17 364.64,-48.35"/>
<polygon fill="lightblue" stroke="lightblue" points="366.81,-45.6 356.61,-42.73 362.8,-51.33 366.81,-45.6"/>
<text text-anchor="middle" x="411.55" y="-65.2" font-family="Times,serif" font-size="14.00"> &#160;0</text>
</g>
<!-- node5&#45;filter&#45;&gt;node8&#45;count -->
<g id="edge3" class="edge">
<title>node5&#45;filter&#45;&gt;node8&#45;count</title>
<path fill="none" stroke="lightblue" d="M556.53,-102.84C509.61,-86.42 433.44,-59.76 382.17,-41.81"/>
<polygon fill="lightblue" stroke="lightblue" points="383.33,-38.51 372.73,-38.51 381.02,-45.12 383.33,-38.51"/>
<text text-anchor="middle" x="486.55" y="-65.2" font-family="Times,serif" font-size="14.00"> &#160;0</text>
</g>
</g>
</svg>
