<?xml version="1.0" encoding="UTF-8" standalone="no"?>
<!DOCTYPE svg PUBLIC "-//W3C//DTD SVG 1.1//EN"
 "http://www.w3.org/Graphics/SVG/1.1/DTD/svg11.dtd">
<!-- Generated by graphviz version 9.0.0 (20230911.1827)
 -->
<!-- Pages: 1 -->
<svg width="400pt" height="237pt"
 viewBox="0.00 0.00 400.26 237.00" xmlns="http://www.w3.org/2000/svg" xmlns:xlink="http://www.w3.org/1999/xlink">
<g id="graph0" class="graph" transform="scale(1 1) rotate(0) translate(4 233)">
<polygon fill="white" stroke="none" points="-4,4 -4,-233 396.26,-233 396.26,4 -4,4"/>
<!-- node&#45;1 -->
<g id="node1" class="node">
<title>node&#45;1</title>
<ellipse fill="lightyellow" stroke="black" cx="36.51" cy="-207" rx="36.51" ry="18"/>
<text text-anchor="middle" x="36.51" y="-201.95" font-family="Times,serif" font-size="14.00">node&#45;1</text>
</g>
<!-- node&#45;5 -->
<g id="node7" class="node">
<title>node&#45;5</title>
<ellipse fill="lightyellow" stroke="black" cx="59.51" cy="-110.5" rx="36.51" ry="18"/>
<text text-anchor="middle" x="59.51" y="-105.45" font-family="Times,serif" font-size="14.00">node&#45;5</text>
</g>
<!-- node&#45;1&#45;&gt;node&#45;5 -->
<g id="edge7" class="edge">
<title>node&#45;1&#45;&gt;node&#45;5</title>
<path fill="none" stroke="lightblue" d="M25.56,-189.66C19.47,-178.44 14.11,-163.31 19.51,-150.5 22.12,-144.32 26.24,-138.63 30.86,-133.62"/>
<polygon fill="lightblue" stroke="lightblue" points="33.06,-136.35 37.85,-126.9 28.21,-131.31 33.06,-136.35"/>
<text text-anchor="middle" x="30.01" y="-153.7" font-family="Times,serif" font-size="14.00"> &#160;58</text>
</g>
<!-- node&#45;6 -->
<g id="node8" class="node">
<title>node&#45;6</title>
<ellipse fill="none" stroke="black" cx="150.51" cy="-110.5" rx="36.51" ry="18"/>
<text text-anchor="middle" x="150.51" y="-105.45" font-family="Times,serif" font-size="14.00">node&#45;6</text>
</g>
<!-- node&#45;1&#45;&gt;node&#45;6 -->
<g id="edge8" class="edge">
<title>node&#45;1&#45;&gt;node&#45;6</title>
<path fill="none" stroke="lightblue" d="M43.79,-188.95C49.6,-176.96 58.72,-161.21 70.51,-150.5 72.42,-148.76 94.15,-138.2 114.49,-128.51"/>
<polygon fill="lightblue" stroke="lightblue" points="115.98,-131.68 123.51,-124.22 112.98,-125.35 115.98,-131.68"/>
<text text-anchor="middle" x="81.01" y="-153.7" font-family="Times,serif" font-size="14.00"> &#160;58</text>
</g>
<!-- node&#45;2 -->
<g id="node2" class="node">
<title>node&#45;2</title>
<ellipse fill="none" stroke="black" cx="240.51" cy="-207" rx="36.51" ry="18"/>
<text text-anchor="middle" x="240.51" y="-201.95" font-family="Times,serif" font-size="14.00">node&#45;2</text>
</g>
<!-- node&#45;2&#45;&gt;node&#45;5 -->
<g id="edge10" class="edge">
<title>node&#45;2&#45;&gt;node&#45;5</title>
<path fill="none" stroke="lightblue" d="M225.13,-190.45C211.96,-177.97 191.93,-160.87 171.51,-150.5 144.02,-136.54 133.48,-143.06 104.51,-132.5 101.29,-131.33 97.99,-130.01 94.71,-128.63"/>
<polygon fill="lightblue" stroke="lightblue" points="96.35,-125.53 85.79,-124.67 93.52,-131.93 96.35,-125.53"/>
<text text-anchor="middle" x="210.38" y="-153.7" font-family="Times,serif" font-size="14.00"> &#160;116</text>
</g>
<!-- node&#45;7 -->
<g id="node9" class="node">
<title>node&#45;7</title>
<ellipse fill="lightyellow" stroke="black" cx="246.51" cy="-110.5" rx="36.51" ry="18"/>
<ellipse fill="none" stroke="black" cx="246.51" cy="-110.5" rx="40.51" ry="22"/>
<text text-anchor="middle" x="246.51" y="-105.45" font-family="Times,serif" font-size="14.00">node&#45;7</text>
</g>
<!-- node&#45;2&#45;&gt;node&#45;7 -->
<g id="edge9" class="edge">
<title>node&#45;2&#45;&gt;node&#45;7</title>
<path fill="none" stroke="lightblue" d="M241.61,-188.67C242.4,-176.22 243.49,-159.07 244.44,-144.1"/>
<polygon fill="lightblue" stroke="lightblue" points="247.93,-144.41 245.07,-134.2 240.94,-143.96 247.93,-144.41"/>
<text text-anchor="middle" x="258.38" y="-153.7" font-family="Times,serif" font-size="14.00"> &#160;116</text>
</g>
<!-- node&#45;3 -->
<g id="node3" class="node">
<title>node&#45;3</title>
<ellipse fill="lightyellow" stroke="black" cx="140.51" cy="-207" rx="36.51" ry="18"/>
<ellipse fill="none" stroke="black" cx="140.51" cy="-207" rx="40.51" ry="22"/>
<text text-anchor="middle" x="140.51" y="-201.95" font-family="Times,serif" font-size="14.00">node&#45;3</text>
</g>
<!-- node&#45;3&#45;&gt;node&#45;5 -->
<g id="edge11" class="edge">
<title>node&#45;3&#45;&gt;node&#45;5</title>
<path fill="none" stroke="lightblue" d="M124.12,-186.88C111.6,-172.27 94.24,-152.02 80.67,-136.19"/>
<polygon fill="lightblue" stroke="lightblue" points="83.34,-133.92 74.17,-128.61 78.02,-138.48 83.34,-133.92"/>
<text text-anchor="middle" x="116.01" y="-153.7" font-family="Times,serif" font-size="14.00"> &#160;58</text>
</g>
<!-- node&#45;3&#45;&gt;node&#45;6 -->
<g id="edge12" class="edge">
<title>node&#45;3&#45;&gt;node&#45;6</title>
<path fill="none" stroke="lightblue" d="M142.78,-184.56C144.17,-171.37 145.98,-154.31 147.49,-139.99"/>
<polygon fill="lightblue" stroke="lightblue" points="150.95,-140.58 148.52,-130.26 143.99,-139.84 150.95,-140.58"/>
<text text-anchor="middle" x="157.01" y="-153.7" font-family="Times,serif" font-size="14.00"> &#160;58</text>
</g>
<!-- node&#45;8 -->
<g id="node4" class="node">
<title>node&#45;8</title>
<ellipse fill="none" stroke="black" cx="347.51" cy="-110.5" rx="36.51" ry="18"/>
<ellipse fill="none" stroke="black" cx="347.51" cy="-110.5" rx="40.51" ry="22"/>
<text text-anchor="middle" x="347.51" y="-105.45" font-family="Times,serif" font-size="14.00">node&#45;8</text>
</g>
<!-- node&#45;9 -->
<g id="node5" class="node">
<title>node&#45;9</title>
<ellipse fill="none" stroke="black" cx="155.51" cy="-18" rx="36.51" ry="18"/>
<text text-anchor="middle" x="155.51" y="-12.95" font-family="Times,serif" font-size="14.00">node&#45;9</text>
</g>
<!-- node&#45;8&#45;&gt;node&#45;9 -->
<g id="edge5" class="edge">
<title>node&#45;8&#45;&gt;node&#45;9</title>
<path fill="none" stroke="lightblue" d="M333.1,-89.72C323.26,-77.63 309.21,-62.84 293.51,-54 262.51,-36.54 249.97,-44.85 215.51,-36 209.54,-34.47 203.27,-32.78 197.12,-31.07"/>
<polygon fill="lightblue" stroke="lightblue" points="198.29,-27.77 187.72,-28.44 196.4,-34.51 198.29,-27.77"/>
<text text-anchor="middle" x="328.38" y="-57.2" font-family="Times,serif" font-size="14.00"> &#160;232</text>
</g>
<!-- node&#45;10 -->
<g id="node10" class="node">
<title>node&#45;10</title>
<ellipse fill="none" stroke="black" cx="265.51" cy="-18" rx="41.12" ry="18"/>
<text text-anchor="middle" x="265.51" y="-12.95" font-family="Times,serif" font-size="14.00">node&#45;10</text>
</g>
<!-- node&#45;8&#45;&gt;node&#45;10 -->
<g id="edge6" class="edge">
<title>node&#45;8&#45;&gt;node&#45;10</title>
<path fill="none" stroke="lightblue" d="M359.56,-89.28C364.55,-78.05 367.7,-64.31 360.51,-54 350.28,-39.33 333.18,-30.8 316.29,-25.83"/>
<polygon fill="lightblue" stroke="lightblue" points="317.31,-22.48 306.76,-23.43 315.6,-29.27 317.31,-22.48"/>
<text text-anchor="middle" x="378.38" y="-57.2" font-family="Times,serif" font-size="14.00"> &#160;232</text>
</g>
<!-- node&#45;4 -->
<g id="node6" class="node">
<title>node&#45;4</title>
<ellipse fill="none" stroke="black" cx="341.51" cy="-207" rx="36.51" ry="18"/>
<ellipse fill="none" stroke="black" cx="341.51" cy="-207" rx="40.51" ry="22"/>
<text text-anchor="middle" x="341.51" y="-201.95" font-family="Times,serif" font-size="14.00">node&#45;4</text>
</g>
<!-- node&#45;4&#45;&gt;node&#45;8 -->
<g id="edge14" class="edge">
<title>node&#45;4&#45;&gt;node&#45;8</title>
<path fill="none" stroke="lightblue" d="M342.87,-184.56C343.63,-172.59 344.59,-157.45 345.44,-144.06"/>
<polygon fill="lightblue" stroke="lightblue" points="348.92,-144.57 346.06,-134.37 341.93,-144.13 348.92,-144.57"/>
<text text-anchor="middle" x="358.38" y="-153.7" font-family="Times,serif" font-size="14.00"> &#160;116</text>
</g>
<!-- node&#45;4&#45;&gt;node&#45;7 -->
<g id="edge13" class="edge">
<title>node&#45;4&#45;&gt;node&#45;7</title>
<path fill="none" stroke="lightblue" d="M322.74,-187.33C308.56,-173.22 288.9,-153.67 273.1,-137.95"/>
<polygon fill="lightblue" stroke="lightblue" points="275.87,-135.77 266.31,-131.2 270.93,-140.73 275.87,-135.77"/>
<text text-anchor="middle" x="314.38" y="-153.7" font-family="Times,serif" font-size="14.00"> &#160;116</text>
</g>
<!-- node&#45;5&#45;&gt;node&#45;9 -->
<g id="edge15" class="edge">
<title>node&#45;5&#45;&gt;node&#45;9</title>
<path fill="none" stroke="lightblue" d="M41.07,-94.75C28.89,-83.2 16.84,-66.98 26.76,-54 36.92,-40.71 76.62,-31.27 109.27,-25.57"/>
<polygon fill="lightblue" stroke="lightblue" points="109.69,-29.05 118.98,-23.96 108.54,-22.15 109.69,-29.05"/>
<text text-anchor="middle" x="41.38" y="-57.2" font-family="Times,serif" font-size="14.00"> &#160;116</text>
</g>
<!-- node&#45;5&#45;&gt;node&#45;10 -->
<g id="edge16" class="edge">
<title>node&#45;5&#45;&gt;node&#45;10</title>
<path fill="none" stroke="lightblue" d="M66.17,-92.41C72.03,-79.74 81.8,-63.15 95.76,-54 135.63,-27.86 154.92,-46.13 201.51,-36 207.84,-34.62 214.49,-33.03 221.01,-31.38"/>
<polygon fill="lightblue" stroke="lightblue" points="221.51,-34.86 230.3,-28.96 219.75,-28.09 221.51,-34.86"/>
<text text-anchor="middle" x="110.38" y="-57.2" font-family="Times,serif" font-size="14.00"> &#160;116</text>
</g>
<!-- node&#45;6&#45;&gt;node&#45;9 -->
<g id="edge1" class="edge">
<title>node&#45;6&#45;&gt;node&#45;9</title>
<path fill="none" stroke="lightblue" d="M137.99,-93.62C130.86,-82.6 124.18,-67.53 128.76,-54 129.9,-50.63 131.51,-47.33 133.38,-44.19"/>
<polygon fill="lightblue" stroke="lightblue" points="136.23,-46.21 139.11,-36.01 130.5,-42.19 136.23,-46.21"/>
<text text-anchor="middle" x="143.38" y="-57.2" font-family="Times,serif" font-size="14.00"> &#160;116</text>
</g>
<!-- node&#45;6&#45;&gt;node&#45;10 -->
<g id="edge2" class="edge">
<title>node&#45;6&#45;&gt;node&#45;10</title>
<path fill="none" stroke="lightblue" d="M154.65,-92.17C158.36,-80.05 164.92,-64.26 175.76,-54 187.49,-42.9 203.14,-35.19 218.08,-29.9"/>
<polygon fill="lightblue" stroke="lightblue" points="218.89,-33.32 227.33,-26.92 216.74,-26.66 218.89,-33.32"/>
<text text-anchor="middle" x="190.38" y="-57.2" font-family="Times,serif" font-size="14.00"> &#160;116</text>
</g>
<!-- node&#45;7&#45;&gt;node&#45;9 -->
<g id="edge3" class="edge">
<title>node&#45;7&#45;&gt;node&#45;9</title>
<path fill="none" stroke="lightblue" d="M234.75,-89.13C227.72,-77.99 218.11,-64.39 207.51,-54 201.68,-48.29 194.81,-42.93 188.01,-38.19"/>
<polygon fill="lightblue" stroke="lightblue" points="190.41,-35.58 180.14,-32.99 186.55,-41.42 190.41,-35.58"/>
<text text-anchor="middle" x="235.38" y="-57.2" font-family="Times,serif" font-size="14.00"> &#160;226</text>
</g>
<!-- node&#45;7&#45;&gt;node&#45;10 -->
<g id="edge4" class="edge">
<title>node&#45;7&#45;&gt;node&#45;10</title>
<path fill="none" stroke="lightblue" d="M253.62,-88.62C255.41,-82.8 257.2,-76.45 258.51,-70.5 260.14,-63.1 261.45,-55.01 262.48,-47.48"/>
<polygon fill="lightblue" stroke="lightblue" points="265.93,-48.15 263.69,-37.79 258.98,-47.29 265.93,-48.15"/>
<text text-anchor="middle" x="275.38" y="-57.2" font-family="Times,serif" font-size="14.00"> &#160;238</text>
</g>
</g>
</svg>
