<?xml version="1.0" encoding="UTF-8" standalone="no"?>
<!DOCTYPE svg PUBLIC "-//W3C//DTD SVG 1.1//EN"
 "http://www.w3.org/Graphics/SVG/1.1/DTD/svg11.dtd">
<!-- Generated by graphviz version 9.0.0 (20230911.1827)
 -->
<!-- Pages: 1 -->
<svg width="379pt" height="237pt"
 viewBox="0.00 0.00 379.02 237.00" xmlns="http://www.w3.org/2000/svg" xmlns:xlink="http://www.w3.org/1999/xlink">
<g id="graph0" class="graph" transform="scale(1 1) rotate(0) translate(4 233)">
<polygon fill="white" stroke="none" points="-4,4 -4,-233 375.02,-233 375.02,4 -4,4"/>
<!-- node&#45;2 -->
<g id="node1" class="node">
<title>node&#45;2</title>
<ellipse fill="none" stroke="black" cx="141.51" cy="-207" rx="36.51" ry="18"/>
<text text-anchor="middle" x="141.51" y="-201.95" font-family="Times,serif" font-size="14.00">node&#45;2</text>
</g>
<!-- node&#45;5 -->
<g id="node4" class="node">
<title>node&#45;5</title>
<ellipse fill="lightyellow" stroke="black" cx="234.51" cy="-110.5" rx="36.51" ry="18"/>
<text text-anchor="middle" x="234.51" y="-105.45" font-family="Times,serif" font-size="14.00">node&#45;5</text>
</g>
<!-- node&#45;2&#45;&gt;node&#45;5 -->
<g id="edge11" class="edge">
<title>node&#45;2&#45;&gt;node&#45;5</title>
<path fill="none" stroke="lightblue" d="M156.87,-190.4C171.67,-175.35 194.28,-152.38 211.29,-135.1"/>
<polygon fill="lightblue" stroke="lightblue" points="213.55,-137.79 218.07,-128.21 208.56,-132.88 213.55,-137.79"/>
<text text-anchor="middle" x="201.63" y="-153.7" font-family="Times,serif" font-size="14.00"> &#160;0</text>
</g>
<!-- node&#45;7 -->
<g id="node8" class="node">
<title>node&#45;7</title>
<ellipse fill="lightyellow" stroke="black" cx="139.51" cy="-110.5" rx="36.51" ry="18"/>
<ellipse fill="none" stroke="black" cx="139.51" cy="-110.5" rx="40.51" ry="22"/>
<text text-anchor="middle" x="139.51" y="-105.45" font-family="Times,serif" font-size="14.00">node&#45;7</text>
</g>
<!-- node&#45;2&#45;&gt;node&#45;7 -->
<g id="edge12" class="edge">
<title>node&#45;2&#45;&gt;node&#45;7</title>
<path fill="none" stroke="lightblue" d="M141.14,-188.67C140.88,-176.22 140.52,-159.07 140.2,-144.1"/>
<polygon fill="lightblue" stroke="lightblue" points="143.7,-144.13 139.99,-134.21 136.7,-144.28 143.7,-144.13"/>
<text text-anchor="middle" x="148.63" y="-153.7" font-family="Times,serif" font-size="14.00"> &#160;0</text>
</g>
<!-- node&#45;3 -->
<g id="node2" class="node">
<title>node&#45;3</title>
<ellipse fill="lightyellow" stroke="black" cx="330.51" cy="-207" rx="36.51" ry="18"/>
<ellipse fill="none" stroke="black" cx="330.51" cy="-207" rx="40.51" ry="22"/>
<text text-anchor="middle" x="330.51" y="-201.95" font-family="Times,serif" font-size="14.00">node&#45;3</text>
</g>
<!-- node&#45;3&#45;&gt;node&#45;5 -->
<g id="edge13" class="edge">
<title>node&#45;3&#45;&gt;node&#45;5</title>
<path fill="none" stroke="lightblue" d="M312.5,-187.01C302.11,-176.18 288.72,-162.43 276.51,-150.5 271.18,-145.3 265.38,-139.81 259.84,-134.64"/>
<polygon fill="lightblue" stroke="lightblue" points="262.28,-132.12 252.56,-127.9 257.52,-137.26 262.28,-132.12"/>
<text text-anchor="middle" x="298.63" y="-153.7" font-family="Times,serif" font-size="14.00"> &#160;0</text>
</g>
<!-- node&#45;6 -->
<g id="node5" class="node">
<title>node&#45;6</title>
<ellipse fill="none" stroke="black" cx="325.51" cy="-110.5" rx="36.51" ry="18"/>
<text text-anchor="middle" x="325.51" y="-105.45" font-family="Times,serif" font-size="14.00">node&#45;6</text>
</g>
<!-- node&#45;3&#45;&gt;node&#45;6 -->
<g id="edge14" class="edge">
<title>node&#45;3&#45;&gt;node&#45;6</title>
<path fill="none" stroke="lightblue" d="M329.37,-184.56C328.68,-171.37 327.77,-154.31 327.02,-139.99"/>
<polygon fill="lightblue" stroke="lightblue" points="330.53,-140.07 326.5,-130.27 323.54,-140.44 330.53,-140.07"/>
<text text-anchor="middle" x="334.63" y="-153.7" font-family="Times,serif" font-size="14.00"> &#160;0</text>
</g>
<!-- node&#45;4 -->
<g id="node3" class="node">
<title>node&#45;4</title>
<ellipse fill="none" stroke="black" cx="45.51" cy="-207" rx="36.51" ry="18"/>
<ellipse fill="none" stroke="black" cx="45.51" cy="-207" rx="40.51" ry="22"/>
<text text-anchor="middle" x="45.51" y="-201.95" font-family="Times,serif" font-size="14.00">node&#45;4</text>
</g>
<!-- node&#45;4&#45;&gt;node&#45;7 -->
<g id="edge15" class="edge">
<title>node&#45;4&#45;&gt;node&#45;7</title>
<path fill="none" stroke="lightblue" d="M64.08,-187.33C78.02,-173.31 97.31,-153.92 112.89,-138.26"/>
<polygon fill="lightblue" stroke="lightblue" points="115.02,-141.09 119.59,-131.53 110.05,-136.15 115.02,-141.09"/>
<text text-anchor="middle" x="105.63" y="-153.7" font-family="Times,serif" font-size="14.00"> &#160;0</text>
</g>
<!-- node&#45;8 -->
<g id="node9" class="node">
<title>node&#45;8</title>
<ellipse fill="none" stroke="black" cx="40.51" cy="-110.5" rx="36.51" ry="18"/>
<ellipse fill="none" stroke="black" cx="40.51" cy="-110.5" rx="40.51" ry="22"/>
<text text-anchor="middle" x="40.51" y="-105.45" font-family="Times,serif" font-size="14.00">node&#45;8</text>
</g>
<!-- node&#45;4&#45;&gt;node&#45;8 -->
<g id="edge16" class="edge">
<title>node&#45;4&#45;&gt;node&#45;8</title>
<path fill="none" stroke="lightblue" d="M44.37,-184.56C43.74,-172.59 42.94,-157.45 42.23,-144.06"/>
<polygon fill="lightblue" stroke="lightblue" points="45.74,-144.17 41.72,-134.37 38.75,-144.54 45.74,-144.17"/>
<text text-anchor="middle" x="50.63" y="-153.7" font-family="Times,serif" font-size="14.00"> &#160;0</text>
</g>
<!-- node&#45;10 -->
<g id="node6" class="node">
<title>node&#45;10</title>
<ellipse fill="none" stroke="black" cx="232.51" cy="-18" rx="41.12" ry="18"/>
<text text-anchor="middle" x="232.51" y="-12.95" font-family="Times,serif" font-size="14.00">node&#45;10</text>
</g>
<!-- node&#45;5&#45;&gt;node&#45;10 -->
<g id="edge2" class="edge">
<title>node&#45;5&#45;&gt;node&#45;10</title>
<path fill="none" stroke="lightblue" d="M234.12,-92.05C233.85,-79.53 233.47,-62.37 233.15,-47.83"/>
<polygon fill="lightblue" stroke="lightblue" points="236.65,-47.83 232.93,-37.91 229.65,-47.98 236.65,-47.83"/>
<text text-anchor="middle" x="241.63" y="-57.2" font-family="Times,serif" font-size="14.00"> &#160;0</text>
</g>
<!-- node&#45;9 -->
<g id="node10" class="node">
<title>node&#45;9</title>
<ellipse fill="none" stroke="black" cx="132.51" cy="-18" rx="36.51" ry="18"/>
<text text-anchor="middle" x="132.51" y="-12.95" font-family="Times,serif" font-size="14.00">node&#45;9</text>
</g>
<!-- node&#45;5&#45;&gt;node&#45;9 -->
<g id="edge1" class="edge">
<title>node&#45;5&#45;&gt;node&#45;9</title>
<path fill="none" stroke="lightblue" d="M219.46,-93.95C208.22,-82.55 192.3,-66.88 177.51,-54 172.35,-49.5 166.69,-44.88 161.18,-40.53"/>
<polygon fill="lightblue" stroke="lightblue" points="163.4,-37.82 153.35,-34.46 159.11,-43.35 163.4,-37.82"/>
<text text-anchor="middle" x="202.63" y="-57.2" font-family="Times,serif" font-size="14.00"> &#160;0</text>
</g>
<!-- node&#45;6&#45;&gt;node&#45;10 -->
<g id="edge4" class="edge">
<title>node&#45;6&#45;&gt;node&#45;10</title>
<path fill="none" stroke="lightblue" d="M320.68,-92.27C316.62,-80.35 309.81,-64.76 299.51,-54 292.24,-46.41 282.97,-40.15 273.66,-35.12"/>
<polygon fill="lightblue" stroke="lightblue" points="275.5,-32.13 264.98,-30.82 272.39,-38.4 275.5,-32.13"/>
<text text-anchor="middle" x="317.63" y="-57.2" font-family="Times,serif" font-size="14.00"> &#160;0</text>
</g>
<!-- node&#45;6&#45;&gt;node&#45;9 -->
<g id="edge3" class="edge">
<title>node&#45;6&#45;&gt;node&#45;9</title>
<path fill="none" stroke="lightblue" d="M309.1,-93.94C295.09,-81.44 273.86,-64.34 252.51,-54 223.6,-40 213.29,-45.18 182.51,-36 179.19,-35.01 175.76,-33.94 172.33,-32.84"/>
<polygon fill="lightblue" stroke="lightblue" points="173.5,-29.54 162.91,-29.74 171.31,-36.19 173.5,-29.54"/>
<text text-anchor="middle" x="284.63" y="-57.2" font-family="Times,serif" font-size="14.00"> &#160;0</text>
</g>
<!-- node&#45;1 -->
<g id="node7" class="node">
<title>node&#45;1</title>
<ellipse fill="lightyellow" stroke="black" cx="235.51" cy="-207" rx="36.51" ry="18"/>
<text text-anchor="middle" x="235.51" y="-201.95" font-family="Times,serif" font-size="14.00">node&#45;1</text>
</g>
<!-- node&#45;1&#45;&gt;node&#45;5 -->
<g id="edge9" class="edge">
<title>node&#45;1&#45;&gt;node&#45;5</title>
<path fill="none" stroke="lightblue" d="M229.95,-188.72C228.06,-182.01 226.19,-174.22 225.26,-167 224.11,-158.08 224.98,-148.39 226.57,-139.64"/>
<polygon fill="lightblue" stroke="lightblue" points="229.98,-140.45 228.74,-129.93 223.14,-138.93 229.98,-140.45"/>
<text text-anchor="middle" x="232.63" y="-153.7" font-family="Times,serif" font-size="14.00"> &#160;0</text>
</g>
<!-- node&#45;1&#45;&gt;node&#45;6 -->
<g id="edge10" class="edge">
<title>node&#45;1&#45;&gt;node&#45;6</title>
<path fill="none" stroke="lightblue" d="M240.93,-188.74C245.27,-176.96 252.3,-161.54 262.26,-150.5 269.82,-142.11 279.62,-134.89 289.22,-129.03"/>
<polygon fill="lightblue" stroke="lightblue" points="290.8,-132.16 297.76,-124.17 287.34,-126.08 290.8,-132.16"/>
<text text-anchor="middle" x="268.63" y="-153.7" font-family="Times,serif" font-size="14.00"> &#160;0</text>
</g>
<!-- node&#45;7&#45;&gt;node&#45;10 -->
<g id="edge6" class="edge">
<title>node&#45;7&#45;&gt;node&#45;10</title>
<path fill="none" stroke="lightblue" d="M144.76,-88.28C148.42,-77.01 154.29,-63.55 163.26,-54 170.78,-45.98 180.55,-39.52 190.37,-34.43"/>
<polygon fill="lightblue" stroke="lightblue" points="191.61,-37.71 199.15,-30.27 188.62,-31.39 191.61,-37.71"/>
<text text-anchor="middle" x="170.63" y="-57.2" font-family="Times,serif" font-size="14.00"> &#160;0</text>
</g>
<!-- node&#45;7&#45;&gt;node&#45;9 -->
<g id="edge5" class="edge">
<title>node&#45;7&#45;&gt;node&#45;9</title>
<path fill="none" stroke="lightblue" d="M131.07,-88.77C129.09,-82.96 127.26,-76.57 126.26,-70.5 125.03,-63.04 125.27,-54.93 126.17,-47.4"/>
<polygon fill="lightblue" stroke="lightblue" points="129.59,-48.14 127.73,-37.71 122.68,-47.03 129.59,-48.14"/>
<text text-anchor="middle" x="133.63" y="-57.2" font-family="Times,serif" font-size="14.00"> &#160;0</text>
</g>
<!-- node&#45;8&#45;&gt;node&#45;10 -->
<g id="edge8" class="edge">
<title>node&#45;8&#45;&gt;node&#45;10</title>
<path fill="none" stroke="lightblue" d="M58.72,-90.47C71.29,-78.38 88.99,-63.29 107.26,-54 136.37,-39.19 147.09,-44.91 178.51,-36 182.01,-35.01 185.62,-33.95 189.25,-32.86"/>
<polygon fill="lightblue" stroke="lightblue" points="190.06,-36.27 198.6,-30 188.01,-29.58 190.06,-36.27"/>
<text text-anchor="middle" x="114.63" y="-57.2" font-family="Times,serif" font-size="14.00"> &#160;0</text>
</g>
<!-- node&#45;8&#45;&gt;node&#45;9 -->
<g id="edge7" class="edge">
<title>node&#45;8&#45;&gt;node&#45;9</title>
<path fill="none" stroke="lightblue" d="M39.59,-88.03C40.19,-76.82 42.71,-63.5 50.26,-54 59.8,-41.99 74.22,-34.04 88.35,-28.8"/>
<polygon fill="lightblue" stroke="lightblue" points="89.16,-32.22 97.56,-25.77 86.97,-25.57 89.16,-32.22"/>
<text text-anchor="middle" x="57.63" y="-57.2" font-family="Times,serif" font-size="14.00"> &#160;0</text>
</g>
</g>
</svg>
