<?xml version="1.0" encoding="UTF-8" standalone="no"?>
<!DOCTYPE svg PUBLIC "-//W3C//DTD SVG 1.1//EN"
 "http://www.w3.org/Graphics/SVG/1.1/DTD/svg11.dtd">
<!-- Generated by graphviz version 9.0.0 (20230911.1827)
 -->
<!-- Pages: 1 -->
<svg width="395pt" height="237pt"
 viewBox="0.00 0.00 395.02 237.00" xmlns="http://www.w3.org/2000/svg" xmlns:xlink="http://www.w3.org/1999/xlink">
<g id="graph0" class="graph" transform="scale(1 1) rotate(0) translate(4 233)">
<polygon fill="white" stroke="none" points="-4,4 -4,-233 391.02,-233 391.02,4 -4,4"/>
<!-- node&#45;6 -->
<g id="node1" class="node">
<title>node&#45;6</title>
<ellipse fill="none" stroke="black" cx="331.51" cy="-110.5" rx="36.51" ry="18"/>
<text text-anchor="middle" x="331.51" y="-105.45" font-family="Times,serif" font-size="14.00">node&#45;6</text>
</g>
<!-- node&#45;10 -->
<g id="node2" class="node">
<title>node&#45;10</title>
<ellipse fill="none" stroke="black" cx="240.51" cy="-18" rx="41.12" ry="18"/>
<text text-anchor="middle" x="240.51" y="-12.95" font-family="Times,serif" font-size="14.00">node&#45;10</text>
</g>
<!-- node&#45;6&#45;&gt;node&#45;10 -->
<g id="edge4" class="edge">
<title>node&#45;6&#45;&gt;node&#45;10</title>
<path fill="none" stroke="lightblue" d="M330.25,-92.21C328.56,-80.27 324.63,-64.67 315.51,-54 307.58,-44.73 296.67,-37.76 285.62,-32.58"/>
<polygon fill="lightblue" stroke="lightblue" points="287.05,-29.39 276.47,-28.74 284.33,-35.84 287.05,-29.39"/>
<text text-anchor="middle" x="335.01" y="-57.2" font-family="Times,serif" font-size="14.00"> &#160;44</text>
</g>
<!-- node&#45;9 -->
<g id="node10" class="node">
<title>node&#45;9</title>
<ellipse fill="none" stroke="black" cx="135.51" cy="-18" rx="36.51" ry="18"/>
<text text-anchor="middle" x="135.51" y="-12.95" font-family="Times,serif" font-size="14.00">node&#45;9</text>
</g>
<!-- node&#45;6&#45;&gt;node&#45;9 -->
<g id="edge3" class="edge">
<title>node&#45;6&#45;&gt;node&#45;9</title>
<path fill="none" stroke="lightblue" d="M316.45,-93.83C303.53,-81.28 283.82,-64.14 263.51,-54 233.61,-39.07 222.71,-44.94 190.51,-36 185.96,-34.74 181.21,-33.36 176.5,-31.96"/>
<polygon fill="lightblue" stroke="lightblue" points="177.71,-28.67 167.12,-29.11 175.68,-35.36 177.71,-28.67"/>
<text text-anchor="middle" x="299.01" y="-57.2" font-family="Times,serif" font-size="14.00"> &#160;44</text>
</g>
<!-- node&#45;2 -->
<g id="node3" class="node">
<title>node&#45;2</title>
<ellipse fill="none" stroke="black" cx="156.51" cy="-207" rx="36.51" ry="18"/>
<text text-anchor="middle" x="156.51" y="-201.95" font-family="Times,serif" font-size="14.00">node&#45;2</text>
</g>
<!-- node&#45;5 -->
<g id="node6" class="node">
<title>node&#45;5</title>
<ellipse fill="lightyellow" stroke="black" cx="234.51" cy="-110.5" rx="36.51" ry="18"/>
<text text-anchor="middle" x="234.51" y="-105.45" font-family="Times,serif" font-size="14.00">node&#45;5</text>
</g>
<!-- node&#45;2&#45;&gt;node&#45;5 -->
<g id="edge11" class="edge">
<title>node&#45;2&#45;&gt;node&#45;5</title>
<path fill="none" stroke="lightblue" d="M169.74,-189.97C181.84,-175.31 199.94,-153.39 213.93,-136.44"/>
<polygon fill="lightblue" stroke="lightblue" points="216.58,-138.72 220.25,-128.78 211.18,-134.26 216.58,-138.72"/>
<text text-anchor="middle" x="211.01" y="-153.7" font-family="Times,serif" font-size="14.00"> &#160;44</text>
</g>
<!-- node&#45;7 -->
<g id="node8" class="node">
<title>node&#45;7</title>
<ellipse fill="lightyellow" stroke="black" cx="139.51" cy="-110.5" rx="36.51" ry="18"/>
<ellipse fill="none" stroke="black" cx="139.51" cy="-110.5" rx="40.51" ry="22"/>
<text text-anchor="middle" x="139.51" y="-105.45" font-family="Times,serif" font-size="14.00">node&#45;7</text>
</g>
<!-- node&#45;2&#45;&gt;node&#45;7 -->
<g id="edge12" class="edge">
<title>node&#45;2&#45;&gt;node&#45;7</title>
<path fill="none" stroke="lightblue" d="M150.47,-189.11C148.26,-182.32 145.96,-174.37 144.51,-167 143.06,-159.65 142.03,-151.67 141.3,-144.11"/>
<polygon fill="lightblue" stroke="lightblue" points="144.8,-143.92 140.5,-134.24 137.82,-144.49 144.8,-143.92"/>
<text text-anchor="middle" x="155.01" y="-153.7" font-family="Times,serif" font-size="14.00"> &#160;44</text>
</g>
<!-- node&#45;3 -->
<g id="node4" class="node">
<title>node&#45;3</title>
<ellipse fill="lightyellow" stroke="black" cx="254.51" cy="-207" rx="36.51" ry="18"/>
<ellipse fill="none" stroke="black" cx="254.51" cy="-207" rx="40.51" ry="22"/>
<text text-anchor="middle" x="254.51" y="-201.95" font-family="Times,serif" font-size="14.00">node&#45;3</text>
</g>
<!-- node&#45;3&#45;&gt;node&#45;6 -->
<g id="edge14" class="edge">
<title>node&#45;3&#45;&gt;node&#45;6</title>
<path fill="none" stroke="lightblue" d="M260.7,-184.81C264.61,-173.81 270.47,-160.6 278.51,-150.5 284.21,-143.34 291.54,-136.83 298.92,-131.28"/>
<polygon fill="lightblue" stroke="lightblue" points="300.76,-134.27 306.93,-125.65 296.73,-128.54 300.76,-134.27"/>
<text text-anchor="middle" x="289.01" y="-153.7" font-family="Times,serif" font-size="14.00"> &#160;22</text>
</g>
<!-- node&#45;3&#45;&gt;node&#45;5 -->
<g id="edge13" class="edge">
<title>node&#45;3&#45;&gt;node&#45;5</title>
<path fill="none" stroke="lightblue" d="M241.8,-185.66C238.81,-179.85 236.04,-173.36 234.51,-167 232.43,-158.37 231.84,-148.77 231.95,-140"/>
<polygon fill="lightblue" stroke="lightblue" points="235.43,-140.41 232.38,-130.26 228.44,-140.1 235.43,-140.41"/>
<text text-anchor="middle" x="245.01" y="-153.7" font-family="Times,serif" font-size="14.00"> &#160;22</text>
</g>
<!-- node&#45;4 -->
<g id="node5" class="node">
<title>node&#45;4</title>
<ellipse fill="none" stroke="black" cx="55.51" cy="-207" rx="36.51" ry="18"/>
<ellipse fill="none" stroke="black" cx="55.51" cy="-207" rx="40.51" ry="22"/>
<text text-anchor="middle" x="55.51" y="-201.95" font-family="Times,serif" font-size="14.00">node&#45;4</text>
</g>
<!-- node&#45;4&#45;&gt;node&#45;7 -->
<g id="edge15" class="edge">
<title>node&#45;4&#45;&gt;node&#45;7</title>
<path fill="none" stroke="lightblue" d="M72.51,-186.88C84.69,-173.17 101.29,-154.5 114.91,-139.17"/>
<polygon fill="lightblue" stroke="lightblue" points="117.5,-141.53 121.53,-131.73 112.27,-136.88 117.5,-141.53"/>
<text text-anchor="middle" x="114.01" y="-153.7" font-family="Times,serif" font-size="14.00"> &#160;44</text>
</g>
<!-- node&#45;8 -->
<g id="node9" class="node">
<title>node&#45;8</title>
<ellipse fill="none" stroke="black" cx="40.51" cy="-110.5" rx="36.51" ry="18"/>
<ellipse fill="none" stroke="black" cx="40.51" cy="-110.5" rx="40.51" ry="22"/>
<text text-anchor="middle" x="40.51" y="-105.45" font-family="Times,serif" font-size="14.00">node&#45;8</text>
</g>
<!-- node&#45;4&#45;&gt;node&#45;8 -->
<g id="edge16" class="edge">
<title>node&#45;4&#45;&gt;node&#45;8</title>
<path fill="none" stroke="lightblue" d="M52.18,-185.03C50.27,-173 47.83,-157.64 45.68,-144.07"/>
<polygon fill="lightblue" stroke="lightblue" points="49.14,-143.56 44.12,-134.24 42.23,-144.66 49.14,-143.56"/>
<text text-anchor="middle" x="60.01" y="-153.7" font-family="Times,serif" font-size="14.00"> &#160;44</text>
</g>
<!-- node&#45;5&#45;&gt;node&#45;10 -->
<g id="edge2" class="edge">
<title>node&#45;5&#45;&gt;node&#45;10</title>
<path fill="none" stroke="lightblue" d="M235.67,-92.05C236.5,-79.53 237.63,-62.37 238.6,-47.83"/>
<polygon fill="lightblue" stroke="lightblue" points="242.09,-48.12 239.26,-37.91 235.1,-47.65 242.09,-48.12"/>
<text text-anchor="middle" x="249.01" y="-57.2" font-family="Times,serif" font-size="14.00"> &#160;44</text>
</g>
<!-- node&#45;5&#45;&gt;node&#45;9 -->
<g id="edge1" class="edge">
<title>node&#45;5&#45;&gt;node&#45;9</title>
<path fill="none" stroke="lightblue" d="M221.42,-93.65C211.55,-82.1 197.37,-66.38 183.51,-54 178.06,-49.13 171.94,-44.28 165.95,-39.8"/>
<polygon fill="lightblue" stroke="lightblue" points="168.13,-37.06 157.98,-34.02 164.02,-42.72 168.13,-37.06"/>
<text text-anchor="middle" x="211.01" y="-57.2" font-family="Times,serif" font-size="14.00"> &#160;44</text>
</g>
<!-- node&#45;1 -->
<g id="node7" class="node">
<title>node&#45;1</title>
<ellipse fill="lightyellow" stroke="black" cx="350.51" cy="-207" rx="36.51" ry="18"/>
<text text-anchor="middle" x="350.51" y="-201.95" font-family="Times,serif" font-size="14.00">node&#45;1</text>
</g>
<!-- node&#45;1&#45;&gt;node&#45;6 -->
<g id="edge10" class="edge">
<title>node&#45;1&#45;&gt;node&#45;6</title>
<path fill="none" stroke="lightblue" d="M349.12,-188.87C348.04,-177.83 346.25,-163.22 343.51,-150.5 342.72,-146.83 341.74,-143.01 340.69,-139.25"/>
<polygon fill="lightblue" stroke="lightblue" points="344.09,-138.43 337.85,-129.87 337.39,-140.45 344.09,-138.43"/>
<text text-anchor="middle" x="356.01" y="-153.7" font-family="Times,serif" font-size="14.00"> &#160;22</text>
</g>
<!-- node&#45;1&#45;&gt;node&#45;5 -->
<g id="edge9" class="edge">
<title>node&#45;1&#45;&gt;node&#45;5</title>
<path fill="none" stroke="lightblue" d="M337.74,-189.77C328.03,-178.03 313.91,-162.24 299.51,-150.5 290.18,-142.89 279.21,-135.74 268.97,-129.69"/>
<polygon fill="lightblue" stroke="lightblue" points="270.8,-126.7 260.38,-124.78 267.33,-132.78 270.8,-126.7"/>
<text text-anchor="middle" x="326.01" y="-153.7" font-family="Times,serif" font-size="14.00"> &#160;22</text>
</g>
<!-- node&#45;7&#45;&gt;node&#45;10 -->
<g id="edge6" class="edge">
<title>node&#45;7&#45;&gt;node&#45;10</title>
<path fill="none" stroke="lightblue" d="M142.54,-88.1C145.11,-76.78 149.84,-63.33 158.51,-54 168.06,-43.72 181.12,-36.34 194.01,-31.08"/>
<polygon fill="lightblue" stroke="lightblue" points="195.12,-34.4 203.3,-27.67 192.71,-27.83 195.12,-34.4"/>
<text text-anchor="middle" x="169.01" y="-57.2" font-family="Times,serif" font-size="14.00"> &#160;87</text>
</g>
<!-- node&#45;7&#45;&gt;node&#45;9 -->
<g id="edge5" class="edge">
<title>node&#45;7&#45;&gt;node&#45;9</title>
<path fill="none" stroke="lightblue" d="M126.17,-89.23C123.03,-83.42 120.13,-76.91 118.51,-70.5 116.48,-62.43 117.87,-53.8 120.57,-45.95"/>
<polygon fill="lightblue" stroke="lightblue" points="123.72,-47.48 124.44,-36.91 117.29,-44.73 123.72,-47.48"/>
<text text-anchor="middle" x="129.01" y="-57.2" font-family="Times,serif" font-size="14.00"> &#160;89</text>
</g>
<!-- node&#45;8&#45;&gt;node&#45;10 -->
<g id="edge8" class="edge">
<title>node&#45;8&#45;&gt;node&#45;10</title>
<path fill="none" stroke="lightblue" d="M54.5,-89.59C64.1,-77.44 77.89,-62.64 93.51,-54 128.44,-34.68 142.74,-45.53 181.51,-36 186.36,-34.81 191.4,-33.48 196.42,-32.11"/>
<polygon fill="lightblue" stroke="lightblue" points="197.1,-35.56 205.79,-29.49 195.21,-28.82 197.1,-35.56"/>
<text text-anchor="middle" x="104.01" y="-57.2" font-family="Times,serif" font-size="14.00"> &#160;88</text>
</g>
<!-- node&#45;8&#45;&gt;node&#45;9 -->
<g id="edge7" class="edge">
<title>node&#45;8&#45;&gt;node&#45;9</title>
<path fill="none" stroke="lightblue" d="M29.81,-88.84C25.61,-77.61 23.3,-64.01 30.51,-54 43.65,-35.77 66.71,-26.89 87.87,-22.62"/>
<polygon fill="lightblue" stroke="lightblue" points="88.26,-26.11 97.54,-20.99 87.1,-19.2 88.26,-26.11"/>
<text text-anchor="middle" x="41.01" y="-57.2" font-family="Times,serif" font-size="14.00"> &#160;88</text>
</g>
</g>
</svg>
