<?xml version="1.0" encoding="UTF-8" standalone="no"?>
<!DOCTYPE svg PUBLIC "-//W3C//DTD SVG 1.1//EN"
 "http://www.w3.org/Graphics/SVG/1.1/DTD/svg11.dtd">
<!-- Generated by graphviz version 9.0.0 (20230911.1827)
 -->
<!-- Pages: 1 -->
<svg width="385pt" height="237pt"
 viewBox="0.00 0.00 385.02 237.00" xmlns="http://www.w3.org/2000/svg" xmlns:xlink="http://www.w3.org/1999/xlink">
<g id="graph0" class="graph" transform="scale(1 1) rotate(0) translate(4 233)">
<polygon fill="white" stroke="none" points="-4,4 -4,-233 381.02,-233 381.02,4 -4,4"/>
<!-- node&#45;8 -->
<g id="node1" class="node">
<title>node&#45;8</title>
<ellipse fill="none" stroke="black" cx="336.51" cy="-110.5" rx="36.51" ry="18"/>
<ellipse fill="none" stroke="black" cx="336.51" cy="-110.5" rx="40.51" ry="22"/>
<text text-anchor="middle" x="336.51" y="-105.45" font-family="Times,serif" font-size="14.00">node&#45;8</text>
</g>
<!-- node&#45;10 -->
<g id="node2" class="node">
<title>node&#45;10</title>
<ellipse fill="none" stroke="black" cx="217.51" cy="-18" rx="41.12" ry="18"/>
<text text-anchor="middle" x="217.51" y="-12.95" font-family="Times,serif" font-size="14.00">node&#45;10</text>
</g>
<!-- node&#45;8&#45;&gt;node&#45;10 -->
<g id="edge4" class="edge">
<title>node&#45;8&#45;&gt;node&#45;10</title>
<path fill="none" stroke="lightblue" d="M329.68,-88.44C325.01,-76.94 317.8,-63.21 307.51,-54 295.45,-43.2 279.68,-35.57 264.72,-30.25"/>
<polygon fill="lightblue" stroke="lightblue" points="266.06,-27.01 255.47,-27.25 263.9,-33.67 266.06,-27.01"/>
<text text-anchor="middle" x="326.63" y="-57.2" font-family="Times,serif" font-size="14.00"> &#160;0</text>
</g>
<!-- node&#45;9 -->
<g id="node10" class="node">
<title>node&#45;9</title>
<ellipse fill="none" stroke="black" cx="114.51" cy="-18" rx="36.51" ry="18"/>
<text text-anchor="middle" x="114.51" y="-12.95" font-family="Times,serif" font-size="14.00">node&#45;9</text>
</g>
<!-- node&#45;8&#45;&gt;node&#45;9 -->
<g id="edge3" class="edge">
<title>node&#45;8&#45;&gt;node&#45;9</title>
<path fill="none" stroke="lightblue" d="M313.51,-92.13C296.2,-79.82 271.43,-63.82 247.51,-54 213.79,-40.16 202.67,-45.58 167.51,-36 163.45,-34.89 159.23,-33.67 155.04,-32.41"/>
<polygon fill="lightblue" stroke="lightblue" points="156.12,-29.08 145.53,-29.45 154.04,-35.76 156.12,-29.08"/>
<text text-anchor="middle" x="285.63" y="-57.2" font-family="Times,serif" font-size="14.00"> &#160;0</text>
</g>
<!-- node&#45;2 -->
<g id="node3" class="node">
<title>node&#45;2</title>
<ellipse fill="none" stroke="black" cx="234.51" cy="-207" rx="36.51" ry="18"/>
<text text-anchor="middle" x="234.51" y="-201.95" font-family="Times,serif" font-size="14.00">node&#45;2</text>
</g>
<!-- node&#45;5 -->
<g id="node6" class="node">
<title>node&#45;5</title>
<ellipse fill="lightyellow" stroke="black" cx="142.51" cy="-110.5" rx="36.51" ry="18"/>
<text text-anchor="middle" x="142.51" y="-105.45" font-family="Times,serif" font-size="14.00">node&#45;5</text>
</g>
<!-- node&#45;2&#45;&gt;node&#45;5 -->
<g id="edge7" class="edge">
<title>node&#45;2&#45;&gt;node&#45;5</title>
<path fill="none" stroke="lightblue" d="M219.32,-190.4C204.67,-175.35 182.3,-152.38 165.48,-135.1"/>
<polygon fill="lightblue" stroke="lightblue" points="168.26,-132.94 158.78,-128.21 163.25,-137.82 168.26,-132.94"/>
<text text-anchor="middle" x="201.63" y="-153.7" font-family="Times,serif" font-size="14.00"> &#160;0</text>
</g>
<!-- node&#45;7 -->
<g id="node9" class="node">
<title>node&#45;7</title>
<ellipse fill="lightyellow" stroke="black" cx="237.51" cy="-110.5" rx="36.51" ry="18"/>
<ellipse fill="none" stroke="black" cx="237.51" cy="-110.5" rx="40.51" ry="22"/>
<text text-anchor="middle" x="237.51" y="-105.45" font-family="Times,serif" font-size="14.00">node&#45;7</text>
</g>
<!-- node&#45;2&#45;&gt;node&#45;7 -->
<g id="edge8" class="edge">
<title>node&#45;2&#45;&gt;node&#45;7</title>
<path fill="none" stroke="lightblue" d="M235.06,-188.67C235.45,-176.22 236,-159.07 236.47,-144.1"/>
<polygon fill="lightblue" stroke="lightblue" points="239.97,-144.31 236.79,-134.21 232.97,-144.09 239.97,-144.31"/>
<text text-anchor="middle" x="243.63" y="-153.7" font-family="Times,serif" font-size="14.00"> &#160;0</text>
</g>
<!-- node&#45;3 -->
<g id="node4" class="node">
<title>node&#45;3</title>
<ellipse fill="lightyellow" stroke="black" cx="40.51" cy="-207" rx="36.51" ry="18"/>
<ellipse fill="none" stroke="black" cx="40.51" cy="-207" rx="40.51" ry="22"/>
<text text-anchor="middle" x="40.51" y="-201.95" font-family="Times,serif" font-size="14.00">node&#45;3</text>
</g>
<!-- node&#45;3&#45;&gt;node&#45;5 -->
<g id="edge9" class="edge">
<title>node&#45;3&#45;&gt;node&#45;5</title>
<path fill="none" stroke="lightblue" d="M49.06,-185.2C54.46,-173.92 62.31,-160.33 72.26,-150.5 77.95,-144.89 92.61,-136.49 107.08,-128.92"/>
<polygon fill="lightblue" stroke="lightblue" points="108.3,-132.22 115.61,-124.55 105.11,-126 108.3,-132.22"/>
<text text-anchor="middle" x="79.63" y="-153.7" font-family="Times,serif" font-size="14.00"> &#160;0</text>
</g>
<!-- node&#45;6 -->
<g id="node8" class="node">
<title>node&#45;6</title>
<ellipse fill="none" stroke="black" cx="51.51" cy="-110.5" rx="36.51" ry="18"/>
<text text-anchor="middle" x="51.51" y="-105.45" font-family="Times,serif" font-size="14.00">node&#45;6</text>
</g>
<!-- node&#45;3&#45;&gt;node&#45;6 -->
<g id="edge10" class="edge">
<title>node&#45;3&#45;&gt;node&#45;6</title>
<path fill="none" stroke="lightblue" d="M34.29,-184.76C32.12,-174.36 30.77,-161.69 33.26,-150.5 34.17,-146.39 35.57,-142.2 37.19,-138.17"/>
<polygon fill="lightblue" stroke="lightblue" points="40.23,-139.94 41.2,-129.39 33.86,-137.03 40.23,-139.94"/>
<text text-anchor="middle" x="40.63" y="-153.7" font-family="Times,serif" font-size="14.00"> &#160;0</text>
</g>
<!-- node&#45;4 -->
<g id="node5" class="node">
<title>node&#45;4</title>
<ellipse fill="none" stroke="black" cx="331.51" cy="-207" rx="36.51" ry="18"/>
<ellipse fill="none" stroke="black" cx="331.51" cy="-207" rx="40.51" ry="22"/>
<text text-anchor="middle" x="331.51" y="-201.95" font-family="Times,serif" font-size="14.00">node&#45;4</text>
</g>
<!-- node&#45;4&#45;&gt;node&#45;8 -->
<g id="edge12" class="edge">
<title>node&#45;4&#45;&gt;node&#45;8</title>
<path fill="none" stroke="lightblue" d="M332.64,-184.56C333.28,-172.59 334.08,-157.45 334.79,-144.06"/>
<polygon fill="lightblue" stroke="lightblue" points="338.27,-144.54 335.3,-134.37 331.28,-144.17 338.27,-144.54"/>
<text text-anchor="middle" x="340.63" y="-153.7" font-family="Times,serif" font-size="14.00"> &#160;0</text>
</g>
<!-- node&#45;4&#45;&gt;node&#45;7 -->
<g id="edge11" class="edge">
<title>node&#45;4&#45;&gt;node&#45;7</title>
<path fill="none" stroke="lightblue" d="M312.94,-187.33C299,-173.31 279.71,-153.92 264.13,-138.26"/>
<polygon fill="lightblue" stroke="lightblue" points="266.96,-136.15 257.43,-131.53 262,-141.09 266.96,-136.15"/>
<text text-anchor="middle" x="297.63" y="-153.7" font-family="Times,serif" font-size="14.00"> &#160;0</text>
</g>
<!-- node&#45;5&#45;&gt;node&#45;10 -->
<g id="edge13" class="edge">
<title>node&#45;5&#45;&gt;node&#45;10</title>
<path fill="none" stroke="lightblue" d="M159.11,-94.16C166.29,-87.21 174.62,-78.72 181.51,-70.5 188.16,-62.57 194.82,-53.44 200.58,-45.1"/>
<polygon fill="lightblue" stroke="lightblue" points="203.33,-47.28 206.02,-37.03 197.53,-43.37 203.33,-47.28"/>
<text text-anchor="middle" x="201.63" y="-57.2" font-family="Times,serif" font-size="14.00"> &#160;0</text>
</g>
<!-- node&#45;5&#45;&gt;node&#45;9 -->
<g id="edge14" class="edge">
<title>node&#45;5&#45;&gt;node&#45;9</title>
<path fill="none" stroke="lightblue" d="M118.08,-96.63C108.49,-90.18 98.53,-81.4 93.26,-70.5 89.29,-62.3 91.12,-53.16 95.02,-44.88"/>
<polygon fill="lightblue" stroke="lightblue" points="98.01,-46.7 100.02,-36.3 91.96,-43.17 98.01,-46.7"/>
<text text-anchor="middle" x="100.63" y="-57.2" font-family="Times,serif" font-size="14.00"> &#160;0</text>
</g>
<!-- node&#45;1 -->
<g id="node7" class="node">
<title>node&#45;1</title>
<ellipse fill="lightyellow" stroke="black" cx="139.51" cy="-207" rx="36.51" ry="18"/>
<text text-anchor="middle" x="139.51" y="-201.95" font-family="Times,serif" font-size="14.00">node&#45;1</text>
</g>
<!-- node&#45;1&#45;&gt;node&#45;5 -->
<g id="edge5" class="edge">
<title>node&#45;1&#45;&gt;node&#45;5</title>
<path fill="none" stroke="lightblue" d="M140.06,-188.67C140.49,-175.08 141.1,-155.89 141.6,-140.04"/>
<polygon fill="lightblue" stroke="lightblue" points="145.1,-140.34 141.91,-130.24 138.1,-140.12 145.1,-140.34"/>
<text text-anchor="middle" x="148.63" y="-153.7" font-family="Times,serif" font-size="14.00"> &#160;0</text>
</g>
<!-- node&#45;1&#45;&gt;node&#45;6 -->
<g id="edge6" class="edge">
<title>node&#45;1&#45;&gt;node&#45;6</title>
<path fill="none" stroke="lightblue" d="M124.98,-190.4C111.05,-175.44 89.83,-152.65 73.77,-135.41"/>
<polygon fill="lightblue" stroke="lightblue" points="76.76,-133.48 67.39,-128.55 71.64,-138.25 76.76,-133.48"/>
<text text-anchor="middle" x="108.63" y="-153.7" font-family="Times,serif" font-size="14.00"> &#160;0</text>
</g>
<!-- node&#45;6&#45;&gt;node&#45;10 -->
<g id="edge16" class="edge">
<title>node&#45;6&#45;&gt;node&#45;10</title>
<path fill="none" stroke="lightblue" d="M77.06,-97.16C83.37,-94.22 90.15,-91.17 96.51,-88.5 117.51,-79.68 124.97,-82.22 144.51,-70.5 154.03,-64.79 154.4,-60.69 163.26,-54 169.96,-48.93 177.39,-43.84 184.54,-39.16"/>
<polygon fill="lightblue" stroke="lightblue" points="186.22,-42.24 192.75,-33.9 182.45,-36.34 186.22,-42.24"/>
<text text-anchor="middle" x="170.63" y="-57.2" font-family="Times,serif" font-size="14.00"> &#160;0</text>
</g>
<!-- node&#45;6&#45;&gt;node&#45;9 -->
<g id="edge15" class="edge">
<title>node&#45;6&#45;&gt;node&#45;9</title>
<path fill="none" stroke="lightblue" d="M55.9,-92.15C59.37,-80.62 65.02,-65.54 73.26,-54 76.65,-49.25 80.83,-44.74 85.21,-40.64"/>
<polygon fill="lightblue" stroke="lightblue" points="87.3,-43.46 92.59,-34.28 82.73,-38.16 87.3,-43.46"/>
<text text-anchor="middle" x="80.63" y="-57.2" font-family="Times,serif" font-size="14.00"> &#160;0</text>
</g>
<!-- node&#45;7&#45;&gt;node&#45;10 -->
<g id="edge2" class="edge">
<title>node&#45;7&#45;&gt;node&#45;10</title>
<path fill="none" stroke="lightblue" d="M232.87,-88.51C230.16,-76.23 226.7,-60.57 223.75,-47.23"/>
<polygon fill="lightblue" stroke="lightblue" points="227.22,-46.72 221.64,-37.71 220.38,-48.23 227.22,-46.72"/>
<text text-anchor="middle" x="236.63" y="-57.2" font-family="Times,serif" font-size="14.00"> &#160;0</text>
</g>
<!-- node&#45;7&#45;&gt;node&#45;9 -->
<g id="edge1" class="edge">
<title>node&#45;7&#45;&gt;node&#45;9</title>
<path fill="none" stroke="lightblue" d="M206.86,-95.78C200.83,-93.24 194.5,-90.7 188.51,-88.5 163.08,-79.15 149.39,-89.69 130.26,-70.5 124.09,-64.31 120.32,-55.77 118.03,-47.43"/>
<polygon fill="lightblue" stroke="lightblue" points="121.51,-46.96 116.04,-37.89 114.66,-48.39 121.51,-46.96"/>
<text text-anchor="middle" x="137.63" y="-57.2" font-family="Times,serif" font-size="14.00"> &#160;0</text>
</g>
</g>
</svg>
