<?xml version="1.0" encoding="UTF-8" standalone="no"?>
<!DOCTYPE svg PUBLIC "-//W3C//DTD SVG 1.1//EN"
 "http://www.w3.org/Graphics/SVG/1.1/DTD/svg11.dtd">
<!-- Generated by graphviz version 9.0.0 (20230911.1827)
 -->
<!-- Pages: 1 -->
<svg width="1036pt" height="344pt"
 viewBox="0.00 0.00 1036.01 344.45" xmlns="http://www.w3.org/2000/svg" xmlns:xlink="http://www.w3.org/1999/xlink">
<g id="graph0" class="graph" transform="scale(1 1) rotate(0) translate(4 340.45)">
<polygon fill="white" stroke="none" points="-4,4 -4,-340.45 1032.01,-340.45 1032.01,4 -4,4"/>
<text text-anchor="middle" x="514" y="-319.15" font-family="Times,serif" font-size="14.00">Network Uptime: 42.480278917s</text>
<!-- node&#45;5 -->
<g id="node1" class="node">
<title>node&#45;5</title>
<ellipse fill="lightyellow" stroke="black" cx="577.26" cy="-155.97" rx="76.54" ry="28.99"/>
<text text-anchor="middle" x="577.26" y="-159.17" font-family="Times,serif" font-size="14.00">node&#45;5</text>
<text text-anchor="middle" x="577.26" y="-142.67" font-family="Times,serif" font-size="14.00">(42.479793708s)</text>
</g>
<!-- node&#45;9 -->
<g id="node7" class="node">
<title>node&#45;9</title>
<ellipse fill="none" stroke="black" cx="570.26" cy="-28.99" rx="76.54" ry="28.99"/>
<text text-anchor="middle" x="570.26" y="-32.19" font-family="Times,serif" font-size="14.00">node&#45;9</text>
<text text-anchor="middle" x="570.26" y="-15.69" font-family="Times,serif" font-size="14.00">(42.480134667s)</text>
</g>
<!-- node&#45;5&#45;&gt;node&#45;9 -->
<g id="edge7" class="edge">
<title>node&#45;5&#45;&gt;node&#45;9</title>
<path fill="none" stroke="lightblue" d="M592.13,-127.42C594.67,-121.5 596.91,-115.16 598.26,-108.98 601.37,-94.65 602.22,-90.1 598.26,-75.98 597.43,-73.05 596.37,-70.11 595.13,-67.23"/>
<polygon fill="lightblue" stroke="lightblue" points="598.33,-65.8 590.72,-58.42 592.07,-68.93 598.33,-65.8"/>
<text text-anchor="middle" x="650.13" y="-95.68" font-family="Times,serif" font-size="14.00">46</text>
<text text-anchor="middle" x="650.13" y="-79.18" font-family="Times,serif" font-size="14.00"> &#160;(42.479972417s)</text>
</g>
<!-- node&#45;10 -->
<g id="node8" class="node">
<title>node&#45;10</title>
<ellipse fill="none" stroke="black" cx="350.26" cy="-28.99" rx="76.54" ry="28.99"/>
<text text-anchor="middle" x="350.26" y="-32.19" font-family="Times,serif" font-size="14.00">node&#45;10</text>
<text text-anchor="middle" x="350.26" y="-15.69" font-family="Times,serif" font-size="14.00">(42.479621416s)</text>
</g>
<!-- node&#45;5&#45;&gt;node&#45;10 -->
<g id="edge8" class="edge">
<title>node&#45;5&#45;&gt;node&#45;10</title>
<path fill="none" stroke="lightblue" d="M528.32,-133.43C516.38,-126.72 504.25,-118.53 494.51,-108.98 482.38,-97.1 488.27,-86.89 475.26,-75.98 461.1,-64.11 443.59,-55.17 426.22,-48.49"/>
<polygon fill="lightblue" stroke="lightblue" points="427.47,-45.22 416.87,-45.12 425.1,-51.8 427.47,-45.22"/>
<text text-anchor="middle" x="545.13" y="-95.68" font-family="Times,serif" font-size="14.00">38</text>
<text text-anchor="middle" x="545.13" y="-79.18" font-family="Times,serif" font-size="14.00"> &#160;(42.479779583s)</text>
</g>
<!-- node&#45;6 -->
<g id="node2" class="node">
<title>node&#45;6</title>
<ellipse fill="none" stroke="black" cx="804.26" cy="-155.97" rx="76.54" ry="28.99"/>
<text text-anchor="middle" x="804.26" y="-159.17" font-family="Times,serif" font-size="14.00">node&#45;6</text>
<text text-anchor="middle" x="804.26" y="-142.67" font-family="Times,serif" font-size="14.00">(42.479957667s)</text>
</g>
<!-- node&#45;6&#45;&gt;node&#45;9 -->
<g id="edge9" class="edge">
<title>node&#45;6&#45;&gt;node&#45;9</title>
<path fill="none" stroke="lightblue" d="M832.23,-128.6C846.15,-112.3 857.46,-91.59 844.26,-75.98 820.63,-48.06 728.86,-37.08 657.96,-32.77"/>
<polygon fill="lightblue" stroke="lightblue" points="658.47,-29.29 648.29,-32.22 658.07,-36.28 658.47,-29.29"/>
<text text-anchor="middle" x="899.13" y="-95.68" font-family="Times,serif" font-size="14.00">42</text>
<text text-anchor="middle" x="899.13" y="-79.18" font-family="Times,serif" font-size="14.00"> &#160;(42.480121709s)</text>
</g>
<!-- node&#45;6&#45;&gt;node&#45;10 -->
<g id="edge10" class="edge">
<title>node&#45;6&#45;&gt;node&#45;10</title>
<path fill="none" stroke="lightblue" d="M768.32,-130.13C759.1,-123.46 749.3,-116.12 740.51,-108.98 723.59,-95.25 724.24,-84.67 704.26,-75.98 659.27,-56.43 532.8,-65.01 484.26,-57.98 465.09,-55.21 444.54,-51.36 425.44,-47.41"/>
<polygon fill="lightblue" stroke="lightblue" points="426.37,-44.03 415.86,-45.39 424.92,-50.88 426.37,-44.03"/>
<text text-anchor="middle" x="790.13" y="-95.68" font-family="Times,serif" font-size="14.00">42</text>
<text text-anchor="middle" x="790.13" y="-79.18" font-family="Times,serif" font-size="14.00"> &#160;(42.479928875s)</text>
</g>
<!-- node&#45;7 -->
<g id="node3" class="node">
<title>node&#45;7</title>
<ellipse fill="lightyellow" stroke="black" cx="293.26" cy="-155.97" rx="76.54" ry="28.99"/>
<text text-anchor="middle" x="293.26" y="-159.17" font-family="Times,serif" font-size="14.00">node&#45;7</text>
<text text-anchor="middle" x="293.26" y="-142.67" font-family="Times,serif" font-size="14.00">(42.480179541s)</text>
</g>
<!-- node&#45;7&#45;&gt;node&#45;9 -->
<g id="edge11" class="edge">
<title>node&#45;7&#45;&gt;node&#45;9</title>
<path fill="none" stroke="lightblue" d="M329.49,-130.25C337.51,-123.86 345.59,-116.61 352.26,-108.98 363.43,-96.2 357.84,-86.06 371.51,-75.98 376.67,-72.18 439.56,-57.97 493.23,-46.34"/>
<polygon fill="lightblue" stroke="lightblue" points="493.65,-49.83 502.69,-44.3 492.18,-42.99 493.65,-49.83"/>
<text text-anchor="middle" x="422.13" y="-95.68" font-family="Times,serif" font-size="14.00">89</text>
<text text-anchor="middle" x="422.13" y="-79.18" font-family="Times,serif" font-size="14.00"> &#160;(42.480117875s)</text>
</g>
<!-- node&#45;7&#45;&gt;node&#45;10 -->
<g id="edge12" class="edge">
<title>node&#45;7&#45;&gt;node&#45;10</title>
<path fill="none" stroke="lightblue" d="M264.38,-128.73C259.52,-122.76 255.19,-116.06 252.51,-108.98 247.31,-95.27 244.65,-88.37 252.51,-75.98 258.87,-65.96 268.05,-58.09 278.28,-51.91"/>
<polygon fill="lightblue" stroke="lightblue" points="279.87,-55.02 287.02,-47.2 276.56,-48.86 279.87,-55.02"/>
<text text-anchor="middle" x="303.13" y="-95.68" font-family="Times,serif" font-size="14.00">79</text>
<text text-anchor="middle" x="303.13" y="-79.18" font-family="Times,serif" font-size="14.00"> &#160;(42.479925041s)</text>
</g>
<!-- node&#45;2 -->
<g id="node4" class="node">
<title>node&#45;2</title>
<ellipse fill="none" stroke="black" cx="368.26" cy="-282.96" rx="76.54" ry="28.99"/>
<text text-anchor="middle" x="368.26" y="-286.16" font-family="Times,serif" font-size="14.00">node&#45;2</text>
<text text-anchor="middle" x="368.26" y="-269.66" font-family="Times,serif" font-size="14.00">(42.479733375s)</text>
</g>
<!-- node&#45;2&#45;&gt;node&#45;5 -->
<g id="edge1" class="edge">
<title>node&#45;2&#45;&gt;node&#45;5</title>
<path fill="none" stroke="lightblue" d="M404.35,-257.13C413.6,-250.46 423.43,-243.11 432.26,-235.97 449.19,-222.25 450.16,-214.71 468.51,-202.97 481.64,-194.56 496.56,-187.09 511.06,-180.75"/>
<polygon fill="lightblue" stroke="lightblue" points="512.27,-184.03 520.11,-176.91 509.54,-177.59 512.27,-184.03"/>
<text text-anchor="middle" x="519.13" y="-222.67" font-family="Times,serif" font-size="14.00">42</text>
<text text-anchor="middle" x="519.13" y="-206.17" font-family="Times,serif" font-size="14.00"> &#160;(42.479604833s)</text>
</g>
<!-- node&#45;2&#45;&gt;node&#45;7 -->
<g id="edge2" class="edge">
<title>node&#45;2&#45;&gt;node&#45;7</title>
<path fill="none" stroke="lightblue" d="M345.78,-254.88C341.16,-248.82 336.49,-242.3 332.51,-235.97 324.41,-223.07 316.68,-208.28 310.26,-195.01"/>
<polygon fill="lightblue" stroke="lightblue" points="313.49,-193.66 306.05,-186.12 307.16,-196.66 313.49,-193.66"/>
<text text-anchor="middle" x="383.13" y="-222.67" font-family="Times,serif" font-size="14.00">42</text>
<text text-anchor="middle" x="383.13" y="-206.17" font-family="Times,serif" font-size="14.00"> &#160;(42.479845208s)</text>
</g>
<!-- node&#45;3 -->
<g id="node5" class="node">
<title>node&#45;3</title>
<ellipse fill="lightyellow" stroke="black" cx="884.26" cy="-282.96" rx="76.54" ry="28.99"/>
<text text-anchor="middle" x="884.26" y="-286.16" font-family="Times,serif" font-size="14.00">node&#45;3</text>
<text text-anchor="middle" x="884.26" y="-269.66" font-family="Times,serif" font-size="14.00">(42.479923708s)</text>
</g>
<!-- node&#45;3&#45;&gt;node&#45;5 -->
<g id="edge3" class="edge">
<title>node&#45;3&#45;&gt;node&#45;5</title>
<path fill="none" stroke="lightblue" d="M845.03,-257.61C836.37,-251.2 827.66,-243.85 820.51,-235.97 809.1,-223.39 815.05,-212.87 801.26,-202.97 799.71,-201.85 719.12,-185.47 655.05,-172.57"/>
<polygon fill="lightblue" stroke="lightblue" points="656.09,-169.21 645.6,-170.67 654.71,-176.07 656.09,-169.21"/>
<text text-anchor="middle" x="870.13" y="-222.67" font-family="Times,serif" font-size="14.00">21</text>
<text text-anchor="middle" x="870.13" y="-206.17" font-family="Times,serif" font-size="14.00"> &#160;(42.479814458s)</text>
</g>
<!-- node&#45;3&#45;&gt;node&#45;6 -->
<g id="edge4" class="edge">
<title>node&#45;3&#45;&gt;node&#45;6</title>
<path fill="none" stroke="lightblue" d="M911.72,-255.72C924.93,-239.85 935.67,-219.56 924.26,-202.97 914.61,-188.94 900.06,-179.19 884.38,-172.41"/>
<polygon fill="lightblue" stroke="lightblue" points="885.95,-169.27 875.37,-168.92 883.43,-175.8 885.95,-169.27"/>
<text text-anchor="middle" x="978.13" y="-222.67" font-family="Times,serif" font-size="14.00">21</text>
<text text-anchor="middle" x="978.13" y="-206.17" font-family="Times,serif" font-size="14.00"> &#160;(42.479829125s)</text>
</g>
<!-- node&#45;8 -->
<g id="node6" class="node">
<title>node&#45;8</title>
<ellipse fill="none" stroke="black" cx="85.26" cy="-155.97" rx="76.54" ry="28.99"/>
<text text-anchor="middle" x="85.26" y="-159.17" font-family="Times,serif" font-size="14.00">node&#45;8</text>
<text text-anchor="middle" x="85.26" y="-142.67" font-family="Times,serif" font-size="14.00">(42.479810208s)</text>
</g>
<!-- node&#45;8&#45;&gt;node&#45;9 -->
<g id="edge13" class="edge">
<title>node&#45;8&#45;&gt;node&#45;9</title>
<path fill="none" stroke="lightblue" d="M98.14,-127.25C108.09,-109.29 123.68,-87.21 144.51,-75.98 201.68,-45.16 371.88,-66.65 436.26,-57.98 455.45,-55.4 476.01,-51.62 495.11,-47.68"/>
<polygon fill="lightblue" stroke="lightblue" points="495.63,-51.14 504.69,-45.65 494.18,-44.3 495.63,-51.14"/>
<text text-anchor="middle" x="195.13" y="-95.68" font-family="Times,serif" font-size="14.00">84</text>
<text text-anchor="middle" x="195.13" y="-79.18" font-family="Times,serif" font-size="14.00"> &#160;(42.479792125s)</text>
</g>
<!-- node&#45;8&#45;&gt;node&#45;10 -->
<g id="edge14" class="edge">
<title>node&#45;8&#45;&gt;node&#45;10</title>
<path fill="none" stroke="lightblue" d="M32.9,-134.72C22.37,-128.15 12.66,-119.69 6.51,-108.98 -0.79,-96.26 -3.15,-87.02 6.51,-75.98 23.24,-56.86 167.39,-42.96 263.63,-35.71"/>
<polygon fill="lightblue" stroke="lightblue" points="263.6,-39.22 273.31,-34.99 263.08,-32.24 263.6,-39.22"/>
<text text-anchor="middle" x="57.13" y="-95.68" font-family="Times,serif" font-size="14.00">84</text>
<text text-anchor="middle" x="57.13" y="-79.18" font-family="Times,serif" font-size="14.00"> &#160;(42.479599291s)</text>
</g>
<!-- node&#45;1 -->
<g id="node9" class="node">
<title>node&#45;1</title>
<ellipse fill="lightyellow" stroke="black" cx="638.26" cy="-282.96" rx="76.54" ry="28.99"/>
<text text-anchor="middle" x="638.26" y="-286.16" font-family="Times,serif" font-size="14.00">node&#45;1</text>
<text text-anchor="middle" x="638.26" y="-269.66" font-family="Times,serif" font-size="14.00">(42.480103541s)</text>
</g>
<!-- node&#45;1&#45;&gt;node&#45;5 -->
<g id="edge16" class="edge">
<title>node&#45;1&#45;&gt;node&#45;5</title>
<path fill="none" stroke="lightblue" d="M596.89,-258.14C589.5,-251.91 582.8,-244.51 578.51,-235.97 572.46,-223.93 570.87,-209.5 571.21,-196.28"/>
<polygon fill="lightblue" stroke="lightblue" points="574.68,-196.79 571.84,-186.58 567.7,-196.34 574.68,-196.79"/>
<text text-anchor="middle" x="628.13" y="-222.67" font-family="Times,serif" font-size="14.00">21</text>
<text text-anchor="middle" x="628.13" y="-206.17" font-family="Times,serif" font-size="14.00"> &#160;(42.479960791s)</text>
</g>
<!-- node&#45;1&#45;&gt;node&#45;6 -->
<g id="edge15" class="edge">
<title>node&#45;1&#45;&gt;node&#45;6</title>
<path fill="none" stroke="lightblue" d="M662.42,-255.11C667.76,-248.92 673.3,-242.3 678.26,-235.97 689.33,-221.85 687.66,-214.37 701.51,-202.97 712.16,-194.19 724.76,-186.76 737.41,-180.59"/>
<polygon fill="lightblue" stroke="lightblue" points="738.55,-183.92 746.16,-176.55 735.62,-177.57 738.55,-183.92"/>
<text text-anchor="middle" x="751.13" y="-222.67" font-family="Times,serif" font-size="14.00">21</text>
<text text-anchor="middle" x="751.13" y="-206.17" font-family="Times,serif" font-size="14.00"> &#160;(42.479975458s)</text>
</g>
<!-- node&#45;4 -->
<g id="node10" class="node">
<title>node&#45;4</title>
<ellipse fill="none" stroke="black" cx="160.26" cy="-282.96" rx="76.54" ry="28.99"/>
<text text-anchor="middle" x="160.26" y="-286.16" font-family="Times,serif" font-size="14.00">node&#45;4</text>
<text text-anchor="middle" x="160.26" y="-269.66" font-family="Times,serif" font-size="14.00">(42.480025333s)</text>
</g>
<!-- node&#45;4&#45;&gt;node&#45;7 -->
<g id="edge5" class="edge">
<title>node&#45;4&#45;&gt;node&#45;7</title>
<path fill="none" stroke="lightblue" d="M176.18,-254.45C187.78,-235.01 202.93,-211.02 211.51,-202.97 218.67,-196.24 226.99,-190.14 235.53,-184.73"/>
<polygon fill="lightblue" stroke="lightblue" points="237.14,-187.84 243.92,-179.7 233.54,-181.84 237.14,-187.84"/>
<text text-anchor="middle" x="262.13" y="-222.67" font-family="Times,serif" font-size="14.00">42</text>
<text text-anchor="middle" x="262.13" y="-206.17" font-family="Times,serif" font-size="14.00"> &#160;(42.480043458s)</text>
</g>
<!-- node&#45;4&#45;&gt;node&#45;8 -->
<g id="edge6" class="edge">
<title>node&#45;4&#45;&gt;node&#45;8</title>
<path fill="none" stroke="lightblue" d="M110.52,-260.53C100.94,-254.06 92.15,-245.95 86.51,-235.97 79.83,-224.15 78.12,-209.65 78.55,-196.33"/>
<polygon fill="lightblue" stroke="lightblue" points="82.03,-196.75 79.29,-186.52 75.05,-196.23 82.03,-196.75"/>
<text text-anchor="middle" x="137.13" y="-222.67" font-family="Times,serif" font-size="14.00">42</text>
<text text-anchor="middle" x="137.13" y="-206.17" font-family="Times,serif" font-size="14.00"> &#160;(42.479999875s)</text>
</g>
</g>
</svg>
