<?xml version="1.0" encoding="UTF-8" standalone="no"?>
<!DOCTYPE svg PUBLIC "-//W3C//DTD SVG 1.1//EN"
 "http://www.w3.org/Graphics/SVG/1.1/DTD/svg11.dtd">
<!-- Generated by graphviz version 9.0.0 (20230911.1827)
 -->
<!-- Pages: 1 -->
<svg width="381pt" height="237pt"
 viewBox="0.00 0.00 381.02 237.00" xmlns="http://www.w3.org/2000/svg" xmlns:xlink="http://www.w3.org/1999/xlink">
<g id="graph0" class="graph" transform="scale(1 1) rotate(0) translate(4 233)">
<polygon fill="white" stroke="none" points="-4,4 -4,-233 377.02,-233 377.02,4 -4,4"/>
<!-- node&#45;1 -->
<g id="node1" class="node">
<title>node&#45;1</title>
<ellipse fill="lightyellow" stroke="black" cx="36.51" cy="-207" rx="36.51" ry="18"/>
<text text-anchor="middle" x="36.51" y="-201.95" font-family="Times,serif" font-size="14.00">node&#45;1</text>
</g>
<!-- node&#45;5 -->
<g id="node7" class="node">
<title>node&#45;5</title>
<ellipse fill="lightyellow" stroke="black" cx="47.51" cy="-110.5" rx="36.51" ry="18"/>
<text text-anchor="middle" x="47.51" y="-105.45" font-family="Times,serif" font-size="14.00">node&#45;5</text>
</g>
<!-- node&#45;1&#45;&gt;node&#45;5 -->
<g id="edge9" class="edge">
<title>node&#45;1&#45;&gt;node&#45;5</title>
<path fill="none" stroke="lightblue" d="M31.21,-188.86C28.55,-177.82 26.43,-163.21 29.26,-150.5 30.17,-146.39 31.57,-142.2 33.19,-138.17"/>
<polygon fill="lightblue" stroke="lightblue" points="36.23,-139.94 37.2,-129.39 29.86,-137.03 36.23,-139.94"/>
<text text-anchor="middle" x="36.63" y="-153.7" font-family="Times,serif" font-size="14.00"> &#160;0</text>
</g>
<!-- node&#45;6 -->
<g id="node8" class="node">
<title>node&#45;6</title>
<ellipse fill="none" stroke="black" cx="138.51" cy="-110.5" rx="36.51" ry="18"/>
<text text-anchor="middle" x="138.51" y="-105.45" font-family="Times,serif" font-size="14.00">node&#45;6</text>
</g>
<!-- node&#45;1&#45;&gt;node&#45;6 -->
<g id="edge10" class="edge">
<title>node&#45;1&#45;&gt;node&#45;6</title>
<path fill="none" stroke="lightblue" d="M43.35,-188.87C48.74,-176.99 57.2,-161.42 68.26,-150.5 73.95,-144.89 88.61,-136.49 103.08,-128.92"/>
<polygon fill="lightblue" stroke="lightblue" points="104.3,-132.22 111.61,-124.55 101.11,-126 104.3,-132.22"/>
<text text-anchor="middle" x="75.63" y="-153.7" font-family="Times,serif" font-size="14.00"> &#160;0</text>
</g>
<!-- node&#45;2 -->
<g id="node2" class="node">
<title>node&#45;2</title>
<ellipse fill="none" stroke="black" cx="232.51" cy="-207" rx="36.51" ry="18"/>
<text text-anchor="middle" x="232.51" y="-201.95" font-family="Times,serif" font-size="14.00">node&#45;2</text>
</g>
<!-- node&#45;2&#45;&gt;node&#45;5 -->
<g id="edge11" class="edge">
<title>node&#45;2&#45;&gt;node&#45;5</title>
<path fill="none" stroke="lightblue" d="M215.28,-190.88C200.36,-178.48 177.75,-161.28 155.51,-150.5 129.31,-137.8 119.79,-142.69 92.51,-132.5 89.3,-131.3 86.01,-129.97 82.73,-128.57"/>
<polygon fill="lightblue" stroke="lightblue" points="84.38,-125.48 73.82,-124.6 81.53,-131.87 84.38,-125.48"/>
<text text-anchor="middle" x="189.63" y="-153.7" font-family="Times,serif" font-size="14.00"> &#160;0</text>
</g>
<!-- node&#45;7 -->
<g id="node9" class="node">
<title>node&#45;7</title>
<ellipse fill="lightyellow" stroke="black" cx="233.51" cy="-110.5" rx="36.51" ry="18"/>
<ellipse fill="none" stroke="black" cx="233.51" cy="-110.5" rx="40.51" ry="22"/>
<text text-anchor="middle" x="233.51" y="-105.45" font-family="Times,serif" font-size="14.00">node&#45;7</text>
</g>
<!-- node&#45;2&#45;&gt;node&#45;7 -->
<g id="edge12" class="edge">
<title>node&#45;2&#45;&gt;node&#45;7</title>
<path fill="none" stroke="lightblue" d="M232.69,-188.67C232.82,-176.22 233.01,-159.07 233.16,-144.1"/>
<polygon fill="lightblue" stroke="lightblue" points="236.66,-144.24 233.27,-134.21 229.66,-144.17 236.66,-144.24"/>
<text text-anchor="middle" x="240.63" y="-153.7" font-family="Times,serif" font-size="14.00"> &#160;0</text>
</g>
<!-- node&#45;3 -->
<g id="node3" class="node">
<title>node&#45;3</title>
<ellipse fill="lightyellow" stroke="black" cx="135.51" cy="-207" rx="36.51" ry="18"/>
<ellipse fill="none" stroke="black" cx="135.51" cy="-207" rx="40.51" ry="22"/>
<text text-anchor="middle" x="135.51" y="-201.95" font-family="Times,serif" font-size="14.00">node&#45;3</text>
</g>
<!-- node&#45;3&#45;&gt;node&#45;5 -->
<g id="edge13" class="edge">
<title>node&#45;3&#45;&gt;node&#45;5</title>
<path fill="none" stroke="lightblue" d="M117.7,-186.88C103.89,-172.04 84.66,-151.39 69.82,-135.46"/>
<polygon fill="lightblue" stroke="lightblue" points="72.49,-133.2 63.12,-128.26 67.37,-137.97 72.49,-133.2"/>
<text text-anchor="middle" x="104.63" y="-153.7" font-family="Times,serif" font-size="14.00"> &#160;0</text>
</g>
<!-- node&#45;3&#45;&gt;node&#45;6 -->
<g id="edge14" class="edge">
<title>node&#45;3&#45;&gt;node&#45;6</title>
<path fill="none" stroke="lightblue" d="M136.19,-184.56C136.61,-171.37 137.15,-154.31 137.6,-139.99"/>
<polygon fill="lightblue" stroke="lightblue" points="141.09,-140.38 137.91,-130.27 134.1,-140.16 141.09,-140.38"/>
<text text-anchor="middle" x="144.63" y="-153.7" font-family="Times,serif" font-size="14.00"> &#160;0</text>
</g>
<!-- node&#45;8 -->
<g id="node4" class="node">
<title>node&#45;8</title>
<ellipse fill="none" stroke="black" cx="332.51" cy="-110.5" rx="36.51" ry="18"/>
<ellipse fill="none" stroke="black" cx="332.51" cy="-110.5" rx="40.51" ry="22"/>
<text text-anchor="middle" x="332.51" y="-105.45" font-family="Times,serif" font-size="14.00">node&#45;8</text>
</g>
<!-- node&#45;9 -->
<g id="node5" class="node">
<title>node&#45;9</title>
<ellipse fill="none" stroke="black" cx="132.51" cy="-18" rx="36.51" ry="18"/>
<text text-anchor="middle" x="132.51" y="-12.95" font-family="Times,serif" font-size="14.00">node&#45;9</text>
</g>
<!-- node&#45;8&#45;&gt;node&#45;9 -->
<g id="edge7" class="edge">
<title>node&#45;8&#45;&gt;node&#45;9</title>
<path fill="none" stroke="lightblue" d="M310.73,-91.48C295.09,-79.35 273.07,-63.83 251.51,-54 222.67,-40.85 212.87,-45.11 182.51,-36 179.23,-35.02 175.85,-33.96 172.46,-32.87"/>
<polygon fill="lightblue" stroke="lightblue" points="173.77,-29.62 163.18,-29.81 171.58,-36.27 173.77,-29.62"/>
<text text-anchor="middle" x="287.63" y="-57.2" font-family="Times,serif" font-size="14.00"> &#160;0</text>
</g>
<!-- node&#45;10 -->
<g id="node10" class="node">
<title>node&#45;10</title>
<ellipse fill="none" stroke="black" cx="232.51" cy="-18" rx="41.12" ry="18"/>
<text text-anchor="middle" x="232.51" y="-12.95" font-family="Times,serif" font-size="14.00">node&#45;10</text>
</g>
<!-- node&#45;8&#45;&gt;node&#45;10 -->
<g id="edge8" class="edge">
<title>node&#45;8&#45;&gt;node&#45;10</title>
<path fill="none" stroke="lightblue" d="M325.25,-88.5C320.49,-77.17 313.31,-63.57 303.51,-54 295.32,-46.01 284.95,-39.51 274.69,-34.38"/>
<polygon fill="lightblue" stroke="lightblue" points="276.46,-31.35 265.91,-30.34 273.53,-37.7 276.46,-31.35"/>
<text text-anchor="middle" x="322.63" y="-57.2" font-family="Times,serif" font-size="14.00"> &#160;0</text>
</g>
<!-- node&#45;4 -->
<g id="node6" class="node">
<title>node&#45;4</title>
<ellipse fill="none" stroke="black" cx="329.51" cy="-207" rx="36.51" ry="18"/>
<ellipse fill="none" stroke="black" cx="329.51" cy="-207" rx="40.51" ry="22"/>
<text text-anchor="middle" x="329.51" y="-201.95" font-family="Times,serif" font-size="14.00">node&#45;4</text>
</g>
<!-- node&#45;4&#45;&gt;node&#45;8 -->
<g id="edge16" class="edge">
<title>node&#45;4&#45;&gt;node&#45;8</title>
<path fill="none" stroke="lightblue" d="M330.19,-184.56C330.57,-172.59 331.05,-157.45 331.48,-144.06"/>
<polygon fill="lightblue" stroke="lightblue" points="334.96,-144.48 331.78,-134.37 327.97,-144.26 334.96,-144.48"/>
<text text-anchor="middle" x="337.63" y="-153.7" font-family="Times,serif" font-size="14.00"> &#160;0</text>
</g>
<!-- node&#45;4&#45;&gt;node&#45;7 -->
<g id="edge15" class="edge">
<title>node&#45;4&#45;&gt;node&#45;7</title>
<path fill="none" stroke="lightblue" d="M310.54,-187.33C296.21,-173.22 276.35,-153.67 260.38,-137.95"/>
<polygon fill="lightblue" stroke="lightblue" points="263.1,-135.71 253.51,-131.19 258.19,-140.7 263.1,-135.71"/>
<text text-anchor="middle" x="294.63" y="-153.7" font-family="Times,serif" font-size="14.00"> &#160;0</text>
</g>
<!-- node&#45;5&#45;&gt;node&#45;9 -->
<g id="edge2" class="edge">
<title>node&#45;5&#45;&gt;node&#45;9</title>
<path fill="none" stroke="lightblue" d="M44.67,-92.16C43.69,-80.34 44.42,-64.92 52.26,-54 60.86,-42.01 74.47,-34.09 88.06,-28.86"/>
<polygon fill="lightblue" stroke="lightblue" points="89.07,-32.22 97.43,-25.71 86.83,-25.58 89.07,-32.22"/>
<text text-anchor="middle" x="59.63" y="-57.2" font-family="Times,serif" font-size="14.00"> &#160;0</text>
</g>
<!-- node&#45;5&#45;&gt;node&#45;10 -->
<g id="edge1" class="edge">
<title>node&#45;5&#45;&gt;node&#45;10</title>
<path fill="none" stroke="lightblue" d="M60.84,-93.29C71.99,-80.77 88.97,-63.94 107.26,-54 135.95,-38.4 147.09,-44.91 178.51,-36 182.01,-35.01 185.62,-33.95 189.25,-32.86"/>
<polygon fill="lightblue" stroke="lightblue" points="190.06,-36.27 198.6,-30 188.01,-29.58 190.06,-36.27"/>
<text text-anchor="middle" x="114.63" y="-57.2" font-family="Times,serif" font-size="14.00"> &#160;0</text>
</g>
<!-- node&#45;6&#45;&gt;node&#45;9 -->
<g id="edge3" class="edge">
<title>node&#45;6&#45;&gt;node&#45;9</title>
<path fill="none" stroke="lightblue" d="M131.99,-92.68C129.7,-85.9 127.4,-77.94 126.26,-70.5 125.11,-63.02 125.39,-54.91 126.28,-47.38"/>
<polygon fill="lightblue" stroke="lightblue" points="129.71,-48.13 127.83,-37.7 122.8,-47.02 129.71,-48.13"/>
<text text-anchor="middle" x="133.63" y="-57.2" font-family="Times,serif" font-size="14.00"> &#160;0</text>
</g>
<!-- node&#45;6&#45;&gt;node&#45;10 -->
<g id="edge4" class="edge">
<title>node&#45;6&#45;&gt;node&#45;10</title>
<path fill="none" stroke="lightblue" d="M142.87,-92.23C146.62,-80.29 153.07,-64.69 163.26,-54 170.84,-46.04 180.64,-39.59 190.45,-34.51"/>
<polygon fill="lightblue" stroke="lightblue" points="191.7,-37.79 199.23,-30.35 188.7,-31.47 191.7,-37.79"/>
<text text-anchor="middle" x="170.63" y="-57.2" font-family="Times,serif" font-size="14.00"> &#160;0</text>
</g>
<!-- node&#45;7&#45;&gt;node&#45;9 -->
<g id="edge5" class="edge">
<title>node&#45;7&#45;&gt;node&#45;9</title>
<path fill="none" stroke="lightblue" d="M215.38,-90.42C204.67,-79.44 190.67,-65.57 177.51,-54 172.37,-49.48 166.71,-44.85 161.21,-40.49"/>
<polygon fill="lightblue" stroke="lightblue" points="163.43,-37.79 153.38,-34.42 159.14,-43.32 163.43,-37.79"/>
<text text-anchor="middle" x="202.63" y="-57.2" font-family="Times,serif" font-size="14.00"> &#160;0</text>
</g>
<!-- node&#45;7&#45;&gt;node&#45;10 -->
<g id="edge6" class="edge">
<title>node&#45;7&#45;&gt;node&#45;10</title>
<path fill="none" stroke="lightblue" d="M233.27,-88.05C233.14,-75.97 232.97,-60.71 232.83,-47.62"/>
<polygon fill="lightblue" stroke="lightblue" points="236.33,-47.83 232.72,-37.87 229.33,-47.91 236.33,-47.83"/>
<text text-anchor="middle" x="240.63" y="-57.2" font-family="Times,serif" font-size="14.00"> &#160;0</text>
</g>
</g>
</svg>
