<?xml version="1.0" encoding="UTF-8" standalone="no"?>
<!DOCTYPE svg PUBLIC "-//W3C//DTD SVG 1.1//EN"
 "http://www.w3.org/Graphics/SVG/1.1/DTD/svg11.dtd">
<!-- Generated by graphviz version 9.0.0 (20230911.1827)
 -->
<!-- Pages: 1 -->
<svg width="399pt" height="237pt"
 viewBox="0.00 0.00 399.02 237.00" xmlns="http://www.w3.org/2000/svg" xmlns:xlink="http://www.w3.org/1999/xlink">
<g id="graph0" class="graph" transform="scale(1 1) rotate(0) translate(4 233)">
<polygon fill="white" stroke="none" points="-4,4 -4,-233 395.02,-233 395.02,4 -4,4"/>
<!-- node&#45;5 -->
<g id="node1" class="node">
<title>node&#45;5</title>
<ellipse fill="lightyellow" stroke="black" cx="234.51" cy="-110.5" rx="36.51" ry="18"/>
<text text-anchor="middle" x="234.51" y="-105.45" font-family="Times,serif" font-size="14.00">node&#45;5</text>
</g>
<!-- node&#45;10 -->
<g id="node3" class="node">
<title>node&#45;10</title>
<ellipse fill="none" stroke="black" cx="146.51" cy="-18" rx="41.12" ry="18"/>
<text text-anchor="middle" x="146.51" y="-12.95" font-family="Times,serif" font-size="14.00">node&#45;10</text>
</g>
<!-- node&#45;5&#45;&gt;node&#45;10 -->
<g id="edge4" class="edge">
<title>node&#45;5&#45;&gt;node&#45;10</title>
<path fill="none" stroke="lightblue" d="M227.05,-92.58C221.28,-80.81 212.44,-65.26 201.51,-54 195.82,-48.14 188.97,-42.8 182.06,-38.15"/>
<polygon fill="lightblue" stroke="lightblue" points="184.31,-35.44 173.99,-33.07 180.58,-41.36 184.31,-35.44"/>
<text text-anchor="middle" x="224.01" y="-57.2" font-family="Times,serif" font-size="14.00"> &#160;51</text>
</g>
<!-- node&#45;9 -->
<g id="node7" class="node">
<title>node&#45;9</title>
<ellipse fill="none" stroke="black" cx="254.51" cy="-18" rx="36.51" ry="18"/>
<text text-anchor="middle" x="254.51" y="-12.95" font-family="Times,serif" font-size="14.00">node&#45;9</text>
</g>
<!-- node&#45;5&#45;&gt;node&#45;9 -->
<g id="edge3" class="edge">
<title>node&#45;5&#45;&gt;node&#45;9</title>
<path fill="none" stroke="lightblue" d="M239.71,-92.51C241.68,-85.71 243.85,-77.77 245.51,-70.5 247.2,-63.07 248.75,-54.97 250.07,-47.44"/>
<polygon fill="lightblue" stroke="lightblue" points="253.5,-48.19 251.69,-37.75 246.59,-47.03 253.5,-48.19"/>
<text text-anchor="middle" x="259.01" y="-57.2" font-family="Times,serif" font-size="14.00"> &#160;53</text>
</g>
<!-- node&#45;8 -->
<g id="node2" class="node">
<title>node&#45;8</title>
<ellipse fill="none" stroke="black" cx="40.51" cy="-110.5" rx="36.51" ry="18"/>
<ellipse fill="none" stroke="black" cx="40.51" cy="-110.5" rx="40.51" ry="22"/>
<text text-anchor="middle" x="40.51" y="-105.45" font-family="Times,serif" font-size="14.00">node&#45;8</text>
</g>
<!-- node&#45;8&#45;&gt;node&#45;10 -->
<g id="edge10" class="edge">
<title>node&#45;8&#45;&gt;node&#45;10</title>
<path fill="none" stroke="lightblue" d="M24.86,-89.83C17.86,-78.52 12.78,-64.51 20.76,-54 30.19,-41.58 65.81,-32.4 96.75,-26.57"/>
<polygon fill="lightblue" stroke="lightblue" points="97.16,-30.05 106.39,-24.84 95.92,-23.16 97.16,-30.05"/>
<text text-anchor="middle" x="35.38" y="-57.2" font-family="Times,serif" font-size="14.00"> &#160;104</text>
</g>
<!-- node&#45;8&#45;&gt;node&#45;9 -->
<g id="edge9" class="edge">
<title>node&#45;8&#45;&gt;node&#45;9</title>
<path fill="none" stroke="lightblue" d="M52.96,-89.12C61.5,-76.95 73.94,-62.29 88.76,-54 131.12,-30.28 149.18,-46.85 196.51,-36 202.06,-34.73 207.86,-33.23 213.55,-31.66"/>
<polygon fill="lightblue" stroke="lightblue" points="214.18,-35.13 222.83,-29.02 212.25,-28.4 214.18,-35.13"/>
<text text-anchor="middle" x="102.38" y="-57.2" font-family="Times,serif" font-size="14.00"> &#160;104</text>
</g>
<!-- node&#45;2 -->
<g id="node4" class="node">
<title>node&#45;2</title>
<ellipse fill="none" stroke="black" cx="159.51" cy="-207" rx="36.51" ry="18"/>
<text text-anchor="middle" x="159.51" y="-201.95" font-family="Times,serif" font-size="14.00">node&#45;2</text>
</g>
<!-- node&#45;2&#45;&gt;node&#45;5 -->
<g id="edge13" class="edge">
<title>node&#45;2&#45;&gt;node&#45;5</title>
<path fill="none" stroke="lightblue" d="M172.23,-189.97C183.87,-175.31 201.27,-153.39 214.72,-136.44"/>
<polygon fill="lightblue" stroke="lightblue" points="217.31,-138.8 220.78,-128.79 211.82,-134.45 217.31,-138.8"/>
<text text-anchor="middle" x="211.01" y="-153.7" font-family="Times,serif" font-size="14.00"> &#160;52</text>
</g>
<!-- node&#45;7 -->
<g id="node10" class="node">
<title>node&#45;7</title>
<ellipse fill="lightyellow" stroke="black" cx="139.51" cy="-110.5" rx="36.51" ry="18"/>
<ellipse fill="none" stroke="black" cx="139.51" cy="-110.5" rx="40.51" ry="22"/>
<text text-anchor="middle" x="139.51" y="-105.45" font-family="Times,serif" font-size="14.00">node&#45;7</text>
</g>
<!-- node&#45;2&#45;&gt;node&#45;7 -->
<g id="edge14" class="edge">
<title>node&#45;2&#45;&gt;node&#45;7</title>
<path fill="none" stroke="lightblue" d="M151.89,-189.24C149.12,-182.46 146.25,-174.49 144.51,-167 142.81,-159.7 141.68,-151.74 140.94,-144.19"/>
<polygon fill="lightblue" stroke="lightblue" points="144.43,-144.01 140.16,-134.31 137.45,-144.55 144.43,-144.01"/>
<text text-anchor="middle" x="155.01" y="-153.7" font-family="Times,serif" font-size="14.00"> &#160;52</text>
</g>
<!-- node&#45;3 -->
<g id="node5" class="node">
<title>node&#45;3</title>
<ellipse fill="lightyellow" stroke="black" cx="350.51" cy="-207" rx="36.51" ry="18"/>
<ellipse fill="none" stroke="black" cx="350.51" cy="-207" rx="40.51" ry="22"/>
<text text-anchor="middle" x="350.51" y="-201.95" font-family="Times,serif" font-size="14.00">node&#45;3</text>
</g>
<!-- node&#45;3&#45;&gt;node&#45;5 -->
<g id="edge15" class="edge">
<title>node&#45;3&#45;&gt;node&#45;5</title>
<path fill="none" stroke="lightblue" d="M334.97,-186.45C325.44,-175.18 312.59,-161.17 299.51,-150.5 290.18,-142.89 279.21,-135.74 268.97,-129.69"/>
<polygon fill="lightblue" stroke="lightblue" points="270.8,-126.7 260.38,-124.78 267.33,-132.78 270.8,-126.7"/>
<text text-anchor="middle" x="326.01" y="-153.7" font-family="Times,serif" font-size="14.00"> &#160;26</text>
</g>
<!-- node&#45;6 -->
<g id="node9" class="node">
<title>node&#45;6</title>
<ellipse fill="none" stroke="black" cx="344.51" cy="-110.5" rx="36.51" ry="18"/>
<text text-anchor="middle" x="344.51" y="-105.45" font-family="Times,serif" font-size="14.00">node&#45;6</text>
</g>
<!-- node&#45;3&#45;&gt;node&#45;6 -->
<g id="edge16" class="edge">
<title>node&#45;3&#45;&gt;node&#45;6</title>
<path fill="none" stroke="lightblue" d="M349.15,-184.56C348.31,-171.37 347.23,-154.31 346.32,-139.99"/>
<polygon fill="lightblue" stroke="lightblue" points="349.83,-140.03 345.7,-130.27 342.84,-140.47 349.83,-140.03"/>
<text text-anchor="middle" x="358.01" y="-153.7" font-family="Times,serif" font-size="14.00"> &#160;26</text>
</g>
<!-- node&#45;4 -->
<g id="node6" class="node">
<title>node&#45;4</title>
<ellipse fill="none" stroke="black" cx="57.51" cy="-207" rx="36.51" ry="18"/>
<ellipse fill="none" stroke="black" cx="57.51" cy="-207" rx="40.51" ry="22"/>
<text text-anchor="middle" x="57.51" y="-201.95" font-family="Times,serif" font-size="14.00">node&#45;4</text>
</g>
<!-- node&#45;4&#45;&gt;node&#45;8 -->
<g id="edge2" class="edge">
<title>node&#45;4&#45;&gt;node&#45;8</title>
<path fill="none" stroke="lightblue" d="M53.74,-185.03C51.55,-172.88 48.75,-157.33 46.29,-143.66"/>
<polygon fill="lightblue" stroke="lightblue" points="49.81,-143.45 44.6,-134.23 42.92,-144.69 49.81,-143.45"/>
<text text-anchor="middle" x="61.01" y="-153.7" font-family="Times,serif" font-size="14.00"> &#160;52</text>
</g>
<!-- node&#45;4&#45;&gt;node&#45;7 -->
<g id="edge1" class="edge">
<title>node&#45;4&#45;&gt;node&#45;7</title>
<path fill="none" stroke="lightblue" d="M74.1,-186.88C85.92,-173.26 101.98,-154.75 115.23,-139.48"/>
<polygon fill="lightblue" stroke="lightblue" points="117.76,-141.91 121.67,-132.06 112.47,-137.32 117.76,-141.91"/>
<text text-anchor="middle" x="113.01" y="-153.7" font-family="Times,serif" font-size="14.00"> &#160;52</text>
</g>
<!-- node&#45;1 -->
<g id="node8" class="node">
<title>node&#45;1</title>
<ellipse fill="lightyellow" stroke="black" cx="253.51" cy="-207" rx="36.51" ry="18"/>
<text text-anchor="middle" x="253.51" y="-201.95" font-family="Times,serif" font-size="14.00">node&#45;1</text>
</g>
<!-- node&#45;1&#45;&gt;node&#45;5 -->
<g id="edge12" class="edge">
<title>node&#45;1&#45;&gt;node&#45;5</title>
<path fill="none" stroke="lightblue" d="M243.43,-189.53C239.87,-182.8 236.3,-174.78 234.51,-167 232.51,-158.35 231.95,-148.74 232.06,-139.98"/>
<polygon fill="lightblue" stroke="lightblue" points="235.54,-140.38 232.47,-130.24 228.55,-140.08 235.54,-140.38"/>
<text text-anchor="middle" x="245.01" y="-153.7" font-family="Times,serif" font-size="14.00"> &#160;26</text>
</g>
<!-- node&#45;1&#45;&gt;node&#45;6 -->
<g id="edge11" class="edge">
<title>node&#45;1&#45;&gt;node&#45;6</title>
<path fill="none" stroke="lightblue" d="M258.26,-188.68C262.18,-176.87 268.71,-161.44 278.51,-150.5 286.43,-141.65 296.85,-134.23 307.07,-128.32"/>
<polygon fill="lightblue" stroke="lightblue" points="308.63,-131.45 315.78,-123.63 305.31,-125.29 308.63,-131.45"/>
<text text-anchor="middle" x="289.01" y="-153.7" font-family="Times,serif" font-size="14.00"> &#160;26</text>
</g>
<!-- node&#45;6&#45;&gt;node&#45;10 -->
<g id="edge6" class="edge">
<title>node&#45;6&#45;&gt;node&#45;10</title>
<path fill="none" stroke="lightblue" d="M328.58,-94.01C314.97,-81.56 294.33,-64.48 273.51,-54 273.02,-53.75 227.93,-41.35 191.62,-31.38"/>
<polygon fill="lightblue" stroke="lightblue" points="192.72,-28.05 182.15,-28.78 190.86,-34.8 192.72,-28.05"/>
<text text-anchor="middle" x="309.01" y="-57.2" font-family="Times,serif" font-size="14.00"> &#160;52</text>
</g>
<!-- node&#45;6&#45;&gt;node&#45;9 -->
<g id="edge5" class="edge">
<title>node&#45;6&#45;&gt;node&#45;9</title>
<path fill="none" stroke="lightblue" d="M345.07,-92.26C344.58,-80.33 342.1,-64.74 333.51,-54 324.49,-42.72 311.08,-34.98 297.86,-29.7"/>
<polygon fill="lightblue" stroke="lightblue" points="299.41,-26.54 288.81,-26.49 297.07,-33.14 299.41,-26.54"/>
<text text-anchor="middle" x="352.01" y="-57.2" font-family="Times,serif" font-size="14.00"> &#160;52</text>
</g>
<!-- node&#45;7&#45;&gt;node&#45;10 -->
<g id="edge8" class="edge">
<title>node&#45;7&#45;&gt;node&#45;10</title>
<path fill="none" stroke="lightblue" d="M127.46,-89.19C122.73,-78.68 119.18,-65.64 122.76,-54 123.68,-51.01 124.95,-48.05 126.43,-45.18"/>
<polygon fill="lightblue" stroke="lightblue" points="129.4,-47.02 131.66,-36.67 123.44,-43.36 129.4,-47.02"/>
<text text-anchor="middle" x="136.38" y="-57.2" font-family="Times,serif" font-size="14.00"> &#160;106</text>
</g>
<!-- node&#45;7&#45;&gt;node&#45;9 -->
<g id="edge7" class="edge">
<title>node&#45;7&#45;&gt;node&#45;9</title>
<path fill="none" stroke="lightblue" d="M146.91,-88.52C151.86,-77.04 159.39,-63.31 169.76,-54 181.56,-43.41 197,-35.76 211.48,-30.37"/>
<polygon fill="lightblue" stroke="lightblue" points="212.51,-33.71 220.84,-27.16 210.25,-27.09 212.51,-33.71"/>
<text text-anchor="middle" x="183.38" y="-57.2" font-family="Times,serif" font-size="14.00"> &#160;102</text>
</g>
</g>
</svg>
