<?xml version="1.0" encoding="UTF-8" standalone="no"?>
<!DOCTYPE svg PUBLIC "-//W3C//DTD SVG 1.1//EN"
 "http://www.w3.org/Graphics/SVG/1.1/DTD/svg11.dtd">
<!-- Generated by graphviz version 9.0.0 (20230911.1827)
 -->
<!-- Pages: 1 -->
<svg width="227pt" height="344pt"
 viewBox="0.00 0.00 227.29 344.45" xmlns="http://www.w3.org/2000/svg" xmlns:xlink="http://www.w3.org/1999/xlink">
<g id="graph0" class="graph" transform="scale(1 1) rotate(0) translate(4 340.45)">
<polygon fill="white" stroke="none" points="-4,4 -4,-340.45 223.29,-340.45 223.29,4 -4,4"/>
<text text-anchor="middle" x="109.65" y="-319.15" font-family="Times,serif" font-size="14.00">Network Uptime: 38.599697708s</text>
<!-- seed -->
<g id="node1" class="node">
<title>seed</title>
<ellipse fill="none" stroke="black" cx="76.54" cy="-282.96" rx="53.74" ry="28.99"/>
<text text-anchor="middle" x="76.54" y="-286.16" font-family="Times,serif" font-size="14.00">seed</text>
<text text-anchor="middle" x="76.54" y="-269.66" font-family="Times,serif" font-size="14.00">(95.333µs)</text>
</g>
<!-- step1 -->
<g id="node2" class="node">
<title>step1</title>
<ellipse fill="none" stroke="black" cx="76.54" cy="-155.97" rx="76.54" ry="28.99"/>
<text text-anchor="middle" x="76.54" y="-159.17" font-family="Times,serif" font-size="14.00">step1</text>
<text text-anchor="middle" x="76.54" y="-142.67" font-family="Times,serif" font-size="14.00">(38.599562958s)</text>
</g>
<!-- seed&#45;&gt;step1 -->
<g id="edge1" class="edge">
<title>seed&#45;&gt;step1</title>
<path fill="none" stroke="lightblue" d="M76.54,-253.6C76.54,-236.74 76.54,-215.1 76.54,-196.57"/>
<polygon fill="lightblue" stroke="lightblue" points="80.04,-196.74 76.54,-186.74 73.04,-196.74 80.04,-196.74"/>
<text text-anchor="middle" x="110.29" y="-222.67" font-family="Times,serif" font-size="14.00">1</text>
<text text-anchor="middle" x="110.29" y="-206.17" font-family="Times,serif" font-size="14.00"> &#160;(40.666µs)</text>
</g>
<!-- step2 -->
<g id="node3" class="node">
<title>step2</title>
<ellipse fill="none" stroke="black" cx="76.54" cy="-28.99" rx="76.54" ry="28.99"/>
<text text-anchor="middle" x="76.54" y="-32.19" font-family="Times,serif" font-size="14.00">step2</text>
<text text-anchor="middle" x="76.54" y="-15.69" font-family="Times,serif" font-size="14.00">(38.599573375s)</text>
</g>
<!-- step1&#45;&gt;step2 -->
<g id="edge3" class="edge">
<title>step1&#45;&gt;step2</title>
<path fill="none" stroke="lightblue" d="M32.67,-131.92C24.66,-125.61 17.39,-117.97 12.79,-108.98 6.11,-95.93 6.11,-89.04 12.79,-75.98 15.74,-70.22 19.78,-65.02 24.41,-60.36"/>
<polygon fill="lightblue" stroke="lightblue" points="26.38,-63.3 31.54,-54.05 21.73,-58.06 26.38,-63.3"/>
<text text-anchor="middle" x="63.42" y="-95.68" font-family="Times,serif" font-size="14.00">38</text>
<text text-anchor="middle" x="63.42" y="-79.18" font-family="Times,serif" font-size="14.00"> &#160;(38.599620917s)</text>
</g>
<!-- step2&#45;&gt;step1 -->
<g id="edge2" class="edge">
<title>step2&#45;&gt;step1</title>
<path fill="none" stroke="lightblue" d="M104.9,-56.31C109.66,-62.27 113.91,-68.95 116.54,-75.98 121.68,-89.72 121.68,-95.25 116.54,-108.98 115.19,-112.61 113.4,-116.14 111.33,-119.53"/>
<polygon fill="lightblue" stroke="lightblue" points="108.67,-117.23 105.77,-127.42 114.39,-121.27 108.67,-117.23"/>
<text text-anchor="middle" x="169.42" y="-95.68" font-family="Times,serif" font-size="14.00">38</text>
<text text-anchor="middle" x="169.42" y="-79.18" font-family="Times,serif" font-size="14.00"> &#160;(38.599515416s)</text>
</g>
</g>
</svg>
