<?xml version="1.0" encoding="UTF-8" standalone="no"?>
<!DOCTYPE svg PUBLIC "-//W3C//DTD SVG 1.1//EN"
 "http://www.w3.org/Graphics/SVG/1.1/DTD/svg11.dtd">
<!-- Generated by graphviz version 9.0.0 (20230911.1827)
 -->
<!-- Pages: 1 -->
<svg width="136pt" height="344pt"
 viewBox="0.00 0.00 135.75 344.45" xmlns="http://www.w3.org/2000/svg" xmlns:xlink="http://www.w3.org/1999/xlink">
<g id="graph0" class="graph" transform="scale(1 1) rotate(0) translate(4 340.45)">
<polygon fill="white" stroke="none" points="-4,4 -4,-340.45 131.75,-340.45 131.75,4 -4,4"/>
<text text-anchor="middle" x="63.88" y="-319.15" font-family="Times,serif" font-size="14.00">Network Uptime: 0s</text>
<!-- seed -->
<g id="node1" class="node">
<title>seed</title>
<ellipse fill="none" stroke="black" cx="63.38" cy="-282.96" rx="28.28" ry="28.99"/>
<text text-anchor="middle" x="63.38" y="-286.16" font-family="Times,serif" font-size="14.00">seed</text>
<text text-anchor="middle" x="63.38" y="-269.66" font-family="Times,serif" font-size="14.00">(0s)</text>
</g>
<!-- step1 -->
<g id="node2" class="node">
<title>step1</title>
<ellipse fill="none" stroke="black" cx="63.38" cy="-155.97" rx="31.47" ry="28.99"/>
<text text-anchor="middle" x="63.38" y="-159.17" font-family="Times,serif" font-size="14.00">step1</text>
<text text-anchor="middle" x="63.38" y="-142.67" font-family="Times,serif" font-size="14.00">(0s)</text>
</g>
<!-- seed&#45;&gt;step1 -->
<g id="edge1" class="edge">
<title>seed&#45;&gt;step1</title>
<path fill="none" stroke="lightblue" d="M63.38,-253.6C63.38,-236.74 63.38,-215.1 63.38,-196.57"/>
<polygon fill="lightblue" stroke="lightblue" points="66.88,-196.74 63.38,-186.74 59.88,-196.74 66.88,-196.74"/>
<text text-anchor="middle" x="77.63" y="-222.67" font-family="Times,serif" font-size="14.00">0</text>
<text text-anchor="middle" x="77.63" y="-206.17" font-family="Times,serif" font-size="14.00"> &#160;(0s)</text>
</g>
<!-- step2 -->
<g id="node3" class="node">
<title>step2</title>
<ellipse fill="none" stroke="black" cx="63.38" cy="-28.99" rx="31.47" ry="28.99"/>
<text text-anchor="middle" x="63.38" y="-32.19" font-family="Times,serif" font-size="14.00">step2</text>
<text text-anchor="middle" x="63.38" y="-15.69" font-family="Times,serif" font-size="14.00">(0s)</text>
</g>
<!-- step1&#45;&gt;step2 -->
<g id="edge3" class="edge">
<title>step1&#45;&gt;step2</title>
<path fill="none" stroke="lightblue" d="M45.59,-131.82C41.22,-124.85 37.14,-116.93 34.88,-108.98 30.86,-94.88 30.86,-90.09 34.88,-75.98 36.12,-71.63 37.9,-67.3 39.97,-63.12"/>
<polygon fill="lightblue" stroke="lightblue" points="42.99,-64.89 44.85,-54.46 36.89,-61.46 42.99,-64.89"/>
<text text-anchor="middle" x="49.63" y="-95.68" font-family="Times,serif" font-size="14.00">0</text>
<text text-anchor="middle" x="49.63" y="-79.18" font-family="Times,serif" font-size="14.00"> &#160;(0s)</text>
</g>
<!-- step2&#45;&gt;step1 -->
<g id="edge2" class="edge">
<title>step2&#45;&gt;step1</title>
<path fill="none" stroke="lightblue" d="M66.22,-58.18C66.7,-64.06 67.13,-70.22 67.38,-75.98 68.02,-90.64 68.02,-94.33 67.38,-108.98 67.29,-111.05 67.18,-113.18 67.05,-115.32"/>
<polygon fill="lightblue" stroke="lightblue" points="63.56,-115.05 66.33,-125.28 70.54,-115.55 63.56,-115.05"/>
<text text-anchor="middle" x="81.63" y="-95.68" font-family="Times,serif" font-size="14.00">0</text>
<text text-anchor="middle" x="81.63" y="-79.18" font-family="Times,serif" font-size="14.00"> &#160;(0s)</text>
</g>
</g>
</svg>
