<?xml version="1.0" encoding="UTF-8" standalone="no"?>
<!DOCTYPE svg PUBLIC "-//W3C//DTD SVG 1.1//EN"
 "http://www.w3.org/Graphics/SVG/1.1/DTD/svg11.dtd">
<!-- Generated by graphviz version 9.0.0 (20230911.1827)
 -->
<!-- Pages: 1 -->
<svg width="136pt" height="344pt"
 viewBox="0.00 0.00 135.75 344.45" xmlns="http://www.w3.org/2000/svg" xmlns:xlink="http://www.w3.org/1999/xlink">
<g id="graph0" class="graph" transform="scale(1 1) rotate(0) translate(4 340.45)">
<polygon fill="white" stroke="none" points="-4,4 -4,-340.45 131.75,-340.45 131.75,4 -4,4"/>
<text text-anchor="middle" x="63.88" y="-319.15" font-family="Times,serif" font-size="14.00">Network Uptime: 0s</text>
<!-- node&#45;0 -->
<g id="node1" class="node">
<title>node&#45;0</title>
<ellipse fill="none" stroke="black" cx="63.88" cy="-282.96" rx="37.83" ry="28.99"/>
<text text-anchor="middle" x="63.88" y="-286.16" font-family="Times,serif" font-size="14.00">node&#45;0</text>
<text text-anchor="middle" x="63.88" y="-269.66" font-family="Times,serif" font-size="14.00">(0s)</text>
</g>
<!-- node&#45;1 -->
<g id="node2" class="node">
<title>node&#45;1</title>
<ellipse fill="none" stroke="black" cx="63.88" cy="-155.97" rx="37.83" ry="28.99"/>
<text text-anchor="middle" x="63.88" y="-159.17" font-family="Times,serif" font-size="14.00">node&#45;1</text>
<text text-anchor="middle" x="63.88" y="-142.67" font-family="Times,serif" font-size="14.00">(0s)</text>
</g>
<!-- node&#45;0&#45;&gt;node&#45;1 -->
<g id="edge1" class="edge">
<title>node&#45;0&#45;&gt;node&#45;1</title>
<path fill="none" stroke="lightblue" d="M63.88,-253.6C63.88,-236.74 63.88,-215.1 63.88,-196.57"/>
<polygon fill="lightblue" stroke="lightblue" points="67.38,-196.74 63.88,-186.74 60.38,-196.74 67.38,-196.74"/>
<text text-anchor="middle" x="78.12" y="-222.67" font-family="Times,serif" font-size="14.00">0</text>
<text text-anchor="middle" x="78.12" y="-206.17" font-family="Times,serif" font-size="14.00"> &#160;(0s)</text>
</g>
<!-- node&#45;2 -->
<g id="node3" class="node">
<title>node&#45;2</title>
<ellipse fill="none" stroke="black" cx="63.88" cy="-28.99" rx="37.83" ry="28.99"/>
<text text-anchor="middle" x="63.88" y="-32.19" font-family="Times,serif" font-size="14.00">node&#45;2</text>
<text text-anchor="middle" x="63.88" y="-15.69" font-family="Times,serif" font-size="14.00">(0s)</text>
</g>
<!-- node&#45;1&#45;&gt;node&#45;2 -->
<g id="edge2" class="edge">
<title>node&#45;1&#45;&gt;node&#45;2</title>
<path fill="none" stroke="lightblue" d="M47.54,-129.61C44.18,-123.13 41.13,-116 39.38,-108.98 35.82,-94.75 35.82,-90.21 39.38,-75.98 40.22,-72.58 41.38,-69.16 42.72,-65.79"/>
<polygon fill="lightblue" stroke="lightblue" points="45.89,-67.28 46.91,-56.73 39.54,-64.34 45.89,-67.28"/>
<text text-anchor="middle" x="54.12" y="-95.68" font-family="Times,serif" font-size="14.00">0</text>
<text text-anchor="middle" x="54.12" y="-79.18" font-family="Times,serif" font-size="14.00"> &#160;(0s)</text>
</g>
<!-- node&#45;2&#45;&gt;node&#45;1 -->
<g id="edge3" class="edge">
<title>node&#45;2&#45;&gt;node&#45;1</title>
<path fill="none" stroke="lightblue" d="M66.72,-58.18C67.2,-64.06 67.62,-70.22 67.88,-75.98 68.51,-90.64 68.51,-94.33 67.88,-108.98 67.79,-111.05 67.67,-113.18 67.54,-115.32"/>
<polygon fill="lightblue" stroke="lightblue" points="64.05,-115.05 66.82,-125.28 71.04,-115.55 64.05,-115.05"/>
<text text-anchor="middle" x="82.12" y="-95.68" font-family="Times,serif" font-size="14.00">0</text>
<text text-anchor="middle" x="82.12" y="-79.18" font-family="Times,serif" font-size="14.00"> &#160;(0s)</text>
</g>
</g>
</svg>
