<?xml version="1.0" encoding="UTF-8" standalone="no"?>
<!DOCTYPE svg PUBLIC "-//W3C//DTD SVG 1.1//EN"
 "http://www.w3.org/Graphics/SVG/1.1/DTD/svg11.dtd">
<!-- Generated by graphviz version 9.0.0 (20230911.1827)
 -->
<!-- Pages: 1 -->
<svg width="422pt" height="344pt"
 viewBox="0.00 0.00 421.66 344.45" xmlns="http://www.w3.org/2000/svg" xmlns:xlink="http://www.w3.org/1999/xlink">
<g id="graph0" class="graph" transform="scale(1 1) rotate(0) translate(4 340.45)">
<polygon fill="white" stroke="none" points="-4,4 -4,-340.45 417.66,-340.45 417.66,4 -4,4"/>
<text text-anchor="middle" x="206.83" y="-319.15" font-family="Times,serif" font-size="14.00">Network Uptime: 0s</text>
<!-- node&#45;7 -->
<g id="node1" class="node">
<title>node&#45;7</title>
<ellipse fill="lightyellow" stroke="black" cx="136.83" cy="-155.97" rx="37.83" ry="28.99"/>
<text text-anchor="middle" x="136.83" y="-159.17" font-family="Times,serif" font-size="14.00">node&#45;7</text>
<text text-anchor="middle" x="136.83" y="-142.67" font-family="Times,serif" font-size="14.00">(0s)</text>
</g>
<!-- node&#45;10 -->
<g id="node6" class="node">
<title>node&#45;10</title>
<ellipse fill="none" stroke="black" cx="275.83" cy="-28.99" rx="42.6" ry="28.99"/>
<text text-anchor="middle" x="275.83" y="-32.19" font-family="Times,serif" font-size="14.00">node&#45;10</text>
<text text-anchor="middle" x="275.83" y="-15.69" font-family="Times,serif" font-size="14.00">(0s)</text>
</g>
<!-- node&#45;7&#45;&gt;node&#45;10 -->
<g id="edge8" class="edge">
<title>node&#45;7&#45;&gt;node&#45;10</title>
<path fill="none" stroke="lightblue" d="M152.59,-129.23C156.6,-122.64 160.89,-115.56 164.83,-108.98 173.59,-94.37 171.88,-87.61 184.33,-75.98 191.78,-69.02 210.94,-59.06 229.81,-50.18"/>
<polygon fill="lightblue" stroke="lightblue" points="231.2,-53.4 238.81,-46.03 228.27,-47.04 231.2,-53.4"/>
<text text-anchor="middle" x="198.08" y="-95.68" font-family="Times,serif" font-size="14.00">0</text>
<text text-anchor="middle" x="198.08" y="-79.18" font-family="Times,serif" font-size="14.00"> &#160;(0s)</text>
</g>
<!-- node&#45;9 -->
<g id="node10" class="node">
<title>node&#45;9</title>
<ellipse fill="none" stroke="black" cx="163.83" cy="-28.99" rx="37.83" ry="28.99"/>
<text text-anchor="middle" x="163.83" y="-32.19" font-family="Times,serif" font-size="14.00">node&#45;9</text>
<text text-anchor="middle" x="163.83" y="-15.69" font-family="Times,serif" font-size="14.00">(0s)</text>
</g>
<!-- node&#45;7&#45;&gt;node&#45;9 -->
<g id="edge7" class="edge">
<title>node&#45;7&#45;&gt;node&#45;9</title>
<path fill="none" stroke="lightblue" d="M132.96,-126.7C131.78,-111.42 131.8,-92.37 136.33,-75.98 137.38,-72.19 138.83,-68.4 140.52,-64.71"/>
<polygon fill="lightblue" stroke="lightblue" points="143.54,-66.48 145.1,-56 137.35,-63.22 143.54,-66.48"/>
<text text-anchor="middle" x="150.08" y="-95.68" font-family="Times,serif" font-size="14.00">0</text>
<text text-anchor="middle" x="150.08" y="-79.18" font-family="Times,serif" font-size="14.00"> &#160;(0s)</text>
</g>
<!-- node&#45;2 -->
<g id="node2" class="node">
<title>node&#45;2</title>
<ellipse fill="none" stroke="black" cx="155.83" cy="-282.96" rx="37.83" ry="28.99"/>
<text text-anchor="middle" x="155.83" y="-286.16" font-family="Times,serif" font-size="14.00">node&#45;2</text>
<text text-anchor="middle" x="155.83" y="-269.66" font-family="Times,serif" font-size="14.00">(0s)</text>
</g>
<!-- node&#45;2&#45;&gt;node&#45;7 -->
<g id="edge14" class="edge">
<title>node&#45;2&#45;&gt;node&#45;7</title>
<path fill="none" stroke="lightblue" d="M147.46,-254.42C145.88,-248.38 144.39,-242 143.33,-235.97 141.09,-223.2 139.62,-209.14 138.65,-196.46"/>
<polygon fill="lightblue" stroke="lightblue" points="142.17,-196.54 138,-186.79 135.18,-197.01 142.17,-196.54"/>
<text text-anchor="middle" x="157.08" y="-222.67" font-family="Times,serif" font-size="14.00">0</text>
<text text-anchor="middle" x="157.08" y="-206.17" font-family="Times,serif" font-size="14.00"> &#160;(0s)</text>
</g>
<!-- node&#45;5 -->
<g id="node4" class="node">
<title>node&#45;5</title>
<ellipse fill="lightyellow" stroke="black" cx="245.83" cy="-155.97" rx="37.83" ry="28.99"/>
<text text-anchor="middle" x="245.83" y="-159.17" font-family="Times,serif" font-size="14.00">node&#45;5</text>
<text text-anchor="middle" x="245.83" y="-142.67" font-family="Times,serif" font-size="14.00">(0s)</text>
</g>
<!-- node&#45;2&#45;&gt;node&#45;5 -->
<g id="edge13" class="edge">
<title>node&#45;2&#45;&gt;node&#45;5</title>
<path fill="none" stroke="lightblue" d="M173.13,-256.91C183.98,-241.31 198.33,-220.87 211.33,-202.97 214.31,-198.86 217.47,-194.56 220.62,-190.32"/>
<polygon fill="lightblue" stroke="lightblue" points="223.34,-192.53 226.52,-182.43 217.73,-188.35 223.34,-192.53"/>
<text text-anchor="middle" x="225.08" y="-222.67" font-family="Times,serif" font-size="14.00">0</text>
<text text-anchor="middle" x="225.08" y="-206.17" font-family="Times,serif" font-size="14.00"> &#160;(0s)</text>
</g>
<!-- node&#45;3 -->
<g id="node3" class="node">
<title>node&#45;3</title>
<ellipse fill="lightyellow" stroke="black" cx="375.83" cy="-282.96" rx="37.83" ry="28.99"/>
<text text-anchor="middle" x="375.83" y="-286.16" font-family="Times,serif" font-size="14.00">node&#45;3</text>
<text text-anchor="middle" x="375.83" y="-269.66" font-family="Times,serif" font-size="14.00">(0s)</text>
</g>
<!-- node&#45;3&#45;&gt;node&#45;5 -->
<g id="edge15" class="edge">
<title>node&#45;3&#45;&gt;node&#45;5</title>
<path fill="none" stroke="lightblue" d="M359.76,-256.23C355.68,-249.64 351.32,-242.56 347.33,-235.97 338.51,-221.39 340.01,-214.88 327.83,-202.97 316.67,-192.05 302.41,-182.88 288.91,-175.66"/>
<polygon fill="lightblue" stroke="lightblue" points="290.66,-172.62 280.16,-171.21 287.49,-178.86 290.66,-172.62"/>
<text text-anchor="middle" x="361.08" y="-222.67" font-family="Times,serif" font-size="14.00">0</text>
<text text-anchor="middle" x="361.08" y="-206.17" font-family="Times,serif" font-size="14.00"> &#160;(0s)</text>
</g>
<!-- node&#45;6 -->
<g id="node5" class="node">
<title>node&#45;6</title>
<ellipse fill="none" stroke="black" cx="368.83" cy="-155.97" rx="37.83" ry="28.99"/>
<text text-anchor="middle" x="368.83" y="-159.17" font-family="Times,serif" font-size="14.00">node&#45;6</text>
<text text-anchor="middle" x="368.83" y="-142.67" font-family="Times,serif" font-size="14.00">(0s)</text>
</g>
<!-- node&#45;3&#45;&gt;node&#45;6 -->
<g id="edge16" class="edge">
<title>node&#45;3&#45;&gt;node&#45;6</title>
<path fill="none" stroke="lightblue" d="M379.55,-253.73C380.96,-238.63 381.81,-219.74 379.83,-202.97 379.55,-200.61 379.2,-198.2 378.79,-195.77"/>
<polygon fill="lightblue" stroke="lightblue" points="382.22,-195.11 376.82,-185.99 375.36,-196.49 382.22,-195.11"/>
<text text-anchor="middle" x="395.08" y="-222.67" font-family="Times,serif" font-size="14.00">0</text>
<text text-anchor="middle" x="395.08" y="-206.17" font-family="Times,serif" font-size="14.00"> &#160;(0s)</text>
</g>
<!-- node&#45;5&#45;&gt;node&#45;10 -->
<g id="edge4" class="edge">
<title>node&#45;5&#45;&gt;node&#45;10</title>
<path fill="none" stroke="lightblue" d="M260.97,-128.91C264.06,-122.57 266.93,-115.68 268.83,-108.98 272.39,-96.41 274.28,-82.3 275.23,-69.52"/>
<polygon fill="lightblue" stroke="lightblue" points="278.72,-69.93 275.79,-59.75 271.73,-69.53 278.72,-69.93"/>
<text text-anchor="middle" x="288.08" y="-95.68" font-family="Times,serif" font-size="14.00">0</text>
<text text-anchor="middle" x="288.08" y="-79.18" font-family="Times,serif" font-size="14.00"> &#160;(0s)</text>
</g>
<!-- node&#45;5&#45;&gt;node&#45;9 -->
<g id="edge3" class="edge">
<title>node&#45;5&#45;&gt;node&#45;9</title>
<path fill="none" stroke="lightblue" d="M239.29,-127.02C234.7,-111.12 227.45,-91.37 216.83,-75.98 212.07,-69.09 206.05,-62.58 199.78,-56.75"/>
<polygon fill="lightblue" stroke="lightblue" points="202.16,-54.17 192.32,-50.24 197.55,-59.45 202.16,-54.17"/>
<text text-anchor="middle" x="247.08" y="-95.68" font-family="Times,serif" font-size="14.00">0</text>
<text text-anchor="middle" x="247.08" y="-79.18" font-family="Times,serif" font-size="14.00"> &#160;(0s)</text>
</g>
<!-- node&#45;6&#45;&gt;node&#45;10 -->
<g id="edge6" class="edge">
<title>node&#45;6&#45;&gt;node&#45;10</title>
<path fill="none" stroke="lightblue" d="M377.72,-127.37C381.19,-111.2 382.37,-91.07 372.83,-75.98 362.52,-59.68 344.68,-49.04 327.1,-42.15"/>
<polygon fill="lightblue" stroke="lightblue" points="328.27,-38.85 317.68,-38.83 325.95,-45.46 328.27,-38.85"/>
<text text-anchor="middle" x="394.08" y="-95.68" font-family="Times,serif" font-size="14.00">0</text>
<text text-anchor="middle" x="394.08" y="-79.18" font-family="Times,serif" font-size="14.00"> &#160;(0s)</text>
</g>
<!-- node&#45;6&#45;&gt;node&#45;9 -->
<g id="edge5" class="edge">
<title>node&#45;6&#45;&gt;node&#45;9</title>
<path fill="none" stroke="lightblue" d="M352.01,-129.94C337.81,-109.54 318.06,-83.01 306.83,-75.98 274.84,-55.95 259.6,-70.04 223.83,-57.98 217.62,-55.89 211.2,-53.34 204.97,-50.64"/>
<polygon fill="lightblue" stroke="lightblue" points="206.67,-47.57 196.12,-46.64 203.79,-53.95 206.67,-47.57"/>
<text text-anchor="middle" x="350.08" y="-95.68" font-family="Times,serif" font-size="14.00">0</text>
<text text-anchor="middle" x="350.08" y="-79.18" font-family="Times,serif" font-size="14.00"> &#160;(0s)</text>
</g>
<!-- node&#45;1 -->
<g id="node7" class="node">
<title>node&#45;1</title>
<ellipse fill="lightyellow" stroke="black" cx="263.83" cy="-282.96" rx="37.83" ry="28.99"/>
<text text-anchor="middle" x="263.83" y="-286.16" font-family="Times,serif" font-size="14.00">node&#45;1</text>
<text text-anchor="middle" x="263.83" y="-269.66" font-family="Times,serif" font-size="14.00">(0s)</text>
</g>
<!-- node&#45;1&#45;&gt;node&#45;5 -->
<g id="edge11" class="edge">
<title>node&#45;1&#45;&gt;node&#45;5</title>
<path fill="none" stroke="lightblue" d="M252.56,-255.12C250.42,-248.94 248.5,-242.31 247.33,-235.97 245,-223.26 244.18,-209.21 244.07,-196.53"/>
<polygon fill="lightblue" stroke="lightblue" points="247.57,-196.89 244.14,-186.86 240.57,-196.83 247.57,-196.89"/>
<text text-anchor="middle" x="261.08" y="-222.67" font-family="Times,serif" font-size="14.00">0</text>
<text text-anchor="middle" x="261.08" y="-206.17" font-family="Times,serif" font-size="14.00"> &#160;(0s)</text>
</g>
<!-- node&#45;1&#45;&gt;node&#45;6 -->
<g id="edge12" class="edge">
<title>node&#45;1&#45;&gt;node&#45;6</title>
<path fill="none" stroke="lightblue" d="M271.97,-254.21C277.72,-238 286.67,-217.86 299.33,-202.97 307.28,-193.61 317.6,-185.4 327.84,-178.61"/>
<polygon fill="lightblue" stroke="lightblue" points="329.65,-181.61 336.27,-173.34 325.94,-175.67 329.65,-181.61"/>
<text text-anchor="middle" x="313.08" y="-222.67" font-family="Times,serif" font-size="14.00">0</text>
<text text-anchor="middle" x="313.08" y="-206.17" font-family="Times,serif" font-size="14.00"> &#160;(0s)</text>
</g>
<!-- node&#45;4 -->
<g id="node8" class="node">
<title>node&#45;4</title>
<ellipse fill="none" stroke="black" cx="56.83" cy="-282.96" rx="37.83" ry="28.99"/>
<text text-anchor="middle" x="56.83" y="-286.16" font-family="Times,serif" font-size="14.00">node&#45;4</text>
<text text-anchor="middle" x="56.83" y="-269.66" font-family="Times,serif" font-size="14.00">(0s)</text>
</g>
<!-- node&#45;4&#45;&gt;node&#45;7 -->
<g id="edge1" class="edge">
<title>node&#45;4&#45;&gt;node&#45;7</title>
<path fill="none" stroke="lightblue" d="M72.71,-256.24C82.34,-240.74 94.93,-220.65 106.33,-202.97 108.72,-199.27 111.23,-195.41 113.74,-191.58"/>
<polygon fill="lightblue" stroke="lightblue" points="116.51,-193.74 119.1,-183.46 110.67,-189.88 116.51,-193.74"/>
<text text-anchor="middle" x="121.08" y="-222.67" font-family="Times,serif" font-size="14.00">0</text>
<text text-anchor="middle" x="121.08" y="-206.17" font-family="Times,serif" font-size="14.00"> &#160;(0s)</text>
</g>
<!-- node&#45;8 -->
<g id="node9" class="node">
<title>node&#45;8</title>
<ellipse fill="none" stroke="black" cx="37.83" cy="-155.97" rx="37.83" ry="28.99"/>
<text text-anchor="middle" x="37.83" y="-159.17" font-family="Times,serif" font-size="14.00">node&#45;8</text>
<text text-anchor="middle" x="37.83" y="-142.67" font-family="Times,serif" font-size="14.00">(0s)</text>
</g>
<!-- node&#45;4&#45;&gt;node&#45;8 -->
<g id="edge2" class="edge">
<title>node&#45;4&#45;&gt;node&#45;8</title>
<path fill="none" stroke="lightblue" d="M44.87,-255.17C42.61,-248.98 40.56,-242.34 39.33,-235.97 36.87,-223.28 36.02,-209.24 35.93,-196.56"/>
<polygon fill="lightblue" stroke="lightblue" points="39.42,-196.92 36.01,-186.88 32.42,-196.85 39.42,-196.92"/>
<text text-anchor="middle" x="54.08" y="-222.67" font-family="Times,serif" font-size="14.00">0</text>
<text text-anchor="middle" x="54.08" y="-206.17" font-family="Times,serif" font-size="14.00"> &#160;(0s)</text>
</g>
<!-- node&#45;8&#45;&gt;node&#45;10 -->
<g id="edge10" class="edge">
<title>node&#45;8&#45;&gt;node&#45;10</title>
<path fill="none" stroke="lightblue" d="M51.7,-128.66C62.51,-110.85 79.22,-88.39 100.33,-75.98 143.23,-50.77 163.07,-71.93 210.83,-57.98 217.56,-56.02 224.53,-53.54 231.28,-50.87"/>
<polygon fill="lightblue" stroke="lightblue" points="232.37,-54.21 240.27,-47.14 229.69,-47.74 232.37,-54.21"/>
<text text-anchor="middle" x="115.08" y="-95.68" font-family="Times,serif" font-size="14.00">0</text>
<text text-anchor="middle" x="115.08" y="-79.18" font-family="Times,serif" font-size="14.00"> &#160;(0s)</text>
</g>
<!-- node&#45;8&#45;&gt;node&#45;9 -->
<g id="edge9" class="edge">
<title>node&#45;8&#45;&gt;node&#45;9</title>
<path fill="none" stroke="lightblue" d="M27.82,-127.75C23.62,-111.32 21.83,-90.78 32.33,-75.98 50.93,-49.78 85.64,-38.38 114.73,-33.49"/>
<polygon fill="lightblue" stroke="lightblue" points="115.08,-36.97 124.47,-32.08 114.08,-30.05 115.08,-36.97"/>
<text text-anchor="middle" x="47.08" y="-95.68" font-family="Times,serif" font-size="14.00">0</text>
<text text-anchor="middle" x="47.08" y="-79.18" font-family="Times,serif" font-size="14.00"> &#160;(0s)</text>
</g>
</g>
</svg>
