<?xml version="1.0" encoding="UTF-8" standalone="no"?>
<!DOCTYPE svg PUBLIC "-//W3C//DTD SVG 1.1//EN"
 "http://www.w3.org/Graphics/SVG/1.1/DTD/svg11.dtd">
<!-- Generated by graphviz version 9.0.0 (20230911.1827)
 -->
<!-- Pages: 1 -->
<svg width="390pt" height="344pt"
 viewBox="0.00 0.00 390.02 344.45" xmlns="http://www.w3.org/2000/svg" xmlns:xlink="http://www.w3.org/1999/xlink">
<g id="graph0" class="graph" transform="scale(1 1) rotate(0) translate(4 340.45)">
<polygon fill="white" stroke="none" points="-4,4 -4,-340.45 386.02,-340.45 386.02,4 -4,4"/>
<text text-anchor="middle" x="191.01" y="-319.15" font-family="Times,serif" font-size="14.00">Network Uptime: 0s</text>
<!-- generator -->
<g id="node1" class="node">
<title>generator</title>
<ellipse fill="lightyellow" stroke="black" cx="179.01" cy="-282.96" rx="47.38" ry="28.99"/>
<text text-anchor="middle" x="179.01" y="-286.16" font-family="Times,serif" font-size="14.00">generator</text>
<text text-anchor="middle" x="179.01" y="-269.66" font-family="Times,serif" font-size="14.00">(0s)</text>
</g>
<!-- filter&#45;r1 -->
<g id="node2" class="node">
<title>filter&#45;r1</title>
<ellipse fill="none" stroke="black" cx="41.01" cy="-155.97" rx="41.01" ry="28.99"/>
<text text-anchor="middle" x="41.01" y="-159.17" font-family="Times,serif" font-size="14.00">filter&#45;r1</text>
<text text-anchor="middle" x="41.01" y="-142.67" font-family="Times,serif" font-size="14.00">(0s)</text>
</g>
<!-- generator&#45;&gt;filter&#45;r1 -->
<g id="edge2" class="edge">
<title>generator&#45;&gt;filter&#45;r1</title>
<path fill="none" stroke="lightblue" d="M150.73,-259.18C141.9,-251.89 132.2,-243.71 123.51,-235.97 106.27,-220.61 87.65,-202.88 72.47,-188.11"/>
<polygon fill="lightblue" stroke="lightblue" points="75.1,-185.79 65.5,-181.31 70.21,-190.8 75.1,-185.79"/>
<text text-anchor="middle" x="138.26" y="-222.67" font-family="Times,serif" font-size="14.00">0</text>
<text text-anchor="middle" x="138.26" y="-206.17" font-family="Times,serif" font-size="14.00"> &#160;(0s)</text>
</g>
<!-- filter&#45;r2 -->
<g id="node3" class="node">
<title>filter&#45;r2</title>
<ellipse fill="none" stroke="black" cx="141.01" cy="-155.97" rx="41.01" ry="28.99"/>
<text text-anchor="middle" x="141.01" y="-159.17" font-family="Times,serif" font-size="14.00">filter&#45;r2</text>
<text text-anchor="middle" x="141.01" y="-142.67" font-family="Times,serif" font-size="14.00">(0s)</text>
</g>
<!-- generator&#45;&gt;filter&#45;r2 -->
<g id="edge3" class="edge">
<title>generator&#45;&gt;filter&#45;r2</title>
<path fill="none" stroke="lightblue" d="M170.58,-254.22C165.34,-236.99 158.53,-214.58 152.76,-195.62"/>
<polygon fill="lightblue" stroke="lightblue" points="156.12,-194.63 149.86,-186.08 149.42,-196.67 156.12,-194.63"/>
<text text-anchor="middle" x="179.26" y="-222.67" font-family="Times,serif" font-size="14.00">0</text>
<text text-anchor="middle" x="179.26" y="-206.17" font-family="Times,serif" font-size="14.00"> &#160;(0s)</text>
</g>
<!-- filter&#45;r3 -->
<g id="node4" class="node">
<title>filter&#45;r3</title>
<ellipse fill="none" stroke="black" cx="241.01" cy="-155.97" rx="41.01" ry="28.99"/>
<text text-anchor="middle" x="241.01" y="-159.17" font-family="Times,serif" font-size="14.00">filter&#45;r3</text>
<text text-anchor="middle" x="241.01" y="-142.67" font-family="Times,serif" font-size="14.00">(0s)</text>
</g>
<!-- generator&#45;&gt;filter&#45;r3 -->
<g id="edge4" class="edge">
<title>generator&#45;&gt;filter&#45;r3</title>
<path fill="none" stroke="lightblue" d="M192.47,-254.84C201.34,-236.95 213.08,-213.29 222.79,-193.71"/>
<polygon fill="lightblue" stroke="lightblue" points="225.82,-195.48 227.13,-184.97 219.55,-192.37 225.82,-195.48"/>
<text text-anchor="middle" x="232.26" y="-222.67" font-family="Times,serif" font-size="14.00">0</text>
<text text-anchor="middle" x="232.26" y="-206.17" font-family="Times,serif" font-size="14.00"> &#160;(0s)</text>
</g>
<!-- filter&#45;r4 -->
<g id="node5" class="node">
<title>filter&#45;r4</title>
<ellipse fill="none" stroke="black" cx="341.01" cy="-155.97" rx="41.01" ry="28.99"/>
<text text-anchor="middle" x="341.01" y="-159.17" font-family="Times,serif" font-size="14.00">filter&#45;r4</text>
<text text-anchor="middle" x="341.01" y="-142.67" font-family="Times,serif" font-size="14.00">(0s)</text>
</g>
<!-- generator&#45;&gt;filter&#45;r4 -->
<g id="edge5" class="edge">
<title>generator&#45;&gt;filter&#45;r4</title>
<path fill="none" stroke="lightblue" d="M212.18,-261.83C224.34,-254.1 238.04,-244.97 250.01,-235.97 270.09,-220.87 291.35,-202.55 308.27,-187.37"/>
<polygon fill="lightblue" stroke="lightblue" points="310.51,-190.06 315.57,-180.76 305.81,-184.87 310.51,-190.06"/>
<text text-anchor="middle" x="303.26" y="-222.67" font-family="Times,serif" font-size="14.00">0</text>
<text text-anchor="middle" x="303.26" y="-206.17" font-family="Times,serif" font-size="14.00"> &#160;(0s)</text>
</g>
<!-- collector -->
<g id="node6" class="node">
<title>collector</title>
<ellipse fill="none" stroke="black" cx="191.01" cy="-28.99" rx="44.72" ry="28.99"/>
<text text-anchor="middle" x="191.01" y="-32.19" font-family="Times,serif" font-size="14.00">collector</text>
<text text-anchor="middle" x="191.01" y="-15.69" font-family="Times,serif" font-size="14.00">(0s)</text>
</g>
<!-- filter&#45;r1&#45;&gt;collector -->
<g id="edge6" class="edge">
<title>filter&#45;r1&#45;&gt;collector</title>
<path fill="none" stroke="lightblue" d="M64.95,-132.17C82.22,-116.02 106.31,-94.1 128.51,-75.98 136.01,-69.86 144.23,-63.55 152.17,-57.64"/>
<polygon fill="lightblue" stroke="lightblue" points="154.1,-60.57 160.08,-51.82 149.95,-54.93 154.1,-60.57"/>
<text text-anchor="middle" x="143.26" y="-95.68" font-family="Times,serif" font-size="14.00">0</text>
<text text-anchor="middle" x="143.26" y="-79.18" font-family="Times,serif" font-size="14.00"> &#160;(0s)</text>
</g>
<!-- filter&#45;r2&#45;&gt;collector -->
<g id="edge7" class="edge">
<title>filter&#45;r2&#45;&gt;collector</title>
<path fill="none" stroke="lightblue" d="M151.98,-127.55C158.99,-110.05 168.16,-87.12 175.85,-67.89"/>
<polygon fill="lightblue" stroke="lightblue" points="179.04,-69.35 179.5,-58.76 172.54,-66.75 179.04,-69.35"/>
<text text-anchor="middle" x="186.26" y="-95.68" font-family="Times,serif" font-size="14.00">0</text>
<text text-anchor="middle" x="186.26" y="-79.18" font-family="Times,serif" font-size="14.00"> &#160;(0s)</text>
</g>
<!-- filter&#45;r3&#45;&gt;collector -->
<g id="edge8" class="edge">
<title>filter&#45;r3&#45;&gt;collector</title>
<path fill="none" stroke="lightblue" d="M230.04,-127.55C223.04,-110.05 213.87,-87.12 206.17,-67.89"/>
<polygon fill="lightblue" stroke="lightblue" points="209.49,-66.75 202.52,-58.76 202.99,-69.35 209.49,-66.75"/>
<text text-anchor="middle" x="236.26" y="-95.68" font-family="Times,serif" font-size="14.00">0</text>
<text text-anchor="middle" x="236.26" y="-79.18" font-family="Times,serif" font-size="14.00"> &#160;(0s)</text>
</g>
<!-- filter&#45;r4&#45;&gt;collector -->
<g id="edge1" class="edge">
<title>filter&#45;r4&#45;&gt;collector</title>
<path fill="none" stroke="lightblue" d="M317.25,-132.13C300.09,-115.96 276.15,-94.03 254.01,-75.98 246.47,-69.83 238.19,-63.51 230.19,-57.6"/>
<polygon fill="lightblue" stroke="lightblue" points="232.35,-54.84 222.21,-51.77 228.23,-60.5 232.35,-54.84"/>
<text text-anchor="middle" x="305.26" y="-95.68" font-family="Times,serif" font-size="14.00">0</text>
<text text-anchor="middle" x="305.26" y="-79.18" font-family="Times,serif" font-size="14.00"> &#160;(0s)</text>
</g>
</g>
</svg>
