<?xml version="1.0" encoding="UTF-8" standalone="no"?>
<!DOCTYPE svg PUBLIC "-//W3C//DTD SVG 1.1//EN"
 "http://www.w3.org/Graphics/SVG/1.1/DTD/svg11.dtd">
<!-- Generated by graphviz version 9.0.0 (20230911.1827)
 -->
<!-- Pages: 1 -->
<svg width="260pt" height="344pt"
 viewBox="0.00 0.00 260.03 344.45" xmlns="http://www.w3.org/2000/svg" xmlns:xlink="http://www.w3.org/1999/xlink">
<g id="graph0" class="graph" transform="scale(1 1) rotate(0) translate(4 340.45)">
<polygon fill="white" stroke="none" points="-4,4 -4,-340.45 256.03,-340.45 256.03,4 -4,4"/>
<text text-anchor="middle" x="126.01" y="-319.15" font-family="Times,serif" font-size="14.00">Network Uptime:251.208µs</text>
<!-- generator -->
<g id="node1" class="node">
<title>generator</title>
<ellipse fill="lightyellow" stroke="black" cx="125.51" cy="-282.96" rx="58.51" ry="28.99"/>
<text text-anchor="middle" x="125.51" y="-286.16" font-family="Times,serif" font-size="14.00">generator</text>
<text text-anchor="middle" x="125.51" y="-269.66" font-family="Times,serif" font-size="14.00">(164.667µs)</text>
</g>
<!-- filter&#45;r1 -->
<g id="node2" class="node">
<title>filter&#45;r1</title>
<ellipse fill="none" stroke="black" cx="58.51" cy="-155.97" rx="58.51" ry="28.99"/>
<text text-anchor="middle" x="58.51" y="-159.17" font-family="Times,serif" font-size="14.00">filter&#45;r1</text>
<text text-anchor="middle" x="58.51" y="-142.67" font-family="Times,serif" font-size="14.00">(202.458µs)</text>
</g>
<!-- generator&#45;&gt;filter&#45;r1 -->
<g id="edge2" class="edge">
<title>generator&#45;&gt;filter&#45;r1</title>
<path fill="none" stroke="lightblue" d="M101.6,-256.36C96.42,-250 91.3,-242.99 87.26,-235.97 80.11,-223.51 74.2,-208.95 69.65,-195.75"/>
<polygon fill="lightblue" stroke="lightblue" points="73.05,-194.91 66.61,-186.5 66.4,-197.09 73.05,-194.91"/>
<text text-anchor="middle" x="124.64" y="-222.67" font-family="Times,serif" font-size="14.00">26</text>
<text text-anchor="middle" x="124.64" y="-206.17" font-family="Times,serif" font-size="14.00"> &#160;(194.708µs)</text>
</g>
<!-- filter&#45;r2 -->
<g id="node3" class="node">
<title>filter&#45;r2</title>
<ellipse fill="none" stroke="black" cx="193.51" cy="-155.97" rx="58.51" ry="28.99"/>
<text text-anchor="middle" x="193.51" y="-159.17" font-family="Times,serif" font-size="14.00">filter&#45;r2</text>
<text text-anchor="middle" x="193.51" y="-142.67" font-family="Times,serif" font-size="14.00">(170.625µs)</text>
</g>
<!-- generator&#45;&gt;filter&#45;r2 -->
<g id="edge3" class="edge">
<title>generator&#45;&gt;filter&#45;r2</title>
<path fill="none" stroke="lightblue" d="M147.78,-256.1C152.66,-249.76 157.55,-242.81 161.51,-235.97 168.81,-223.36 175.22,-208.77 180.36,-195.58"/>
<polygon fill="lightblue" stroke="lightblue" points="183.59,-196.92 183.83,-186.33 177.04,-194.46 183.59,-196.92"/>
<text text-anchor="middle" x="213.64" y="-222.67" font-family="Times,serif" font-size="14.00">24</text>
<text text-anchor="middle" x="213.64" y="-206.17" font-family="Times,serif" font-size="14.00"> &#160;(166.625µs)</text>
</g>
<!-- collector -->
<g id="node4" class="node">
<title>collector</title>
<ellipse fill="none" stroke="black" cx="125.51" cy="-28.99" rx="58.51" ry="28.99"/>
<text text-anchor="middle" x="125.51" y="-32.19" font-family="Times,serif" font-size="14.00">collector</text>
<text text-anchor="middle" x="125.51" y="-15.69" font-family="Times,serif" font-size="14.00">(214.417µs)</text>
</g>
<!-- filter&#45;r1&#45;&gt;collector -->
<g id="edge4" class="edge">
<title>filter&#45;r1&#45;&gt;collector</title>
<path fill="none" stroke="lightblue" d="M71.59,-127.27C78.98,-111.99 88.55,-92.76 97.76,-75.98 99.42,-72.97 101.17,-69.88 102.95,-66.78"/>
<polygon fill="lightblue" stroke="lightblue" points="105.88,-68.71 107.94,-58.32 99.85,-65.16 105.88,-68.71"/>
<text text-anchor="middle" x="128.89" y="-95.68" font-family="Times,serif" font-size="14.00">15</text>
<text text-anchor="middle" x="128.89" y="-79.18" font-family="Times,serif" font-size="14.00"> &#160;(213.5µs)</text>
</g>
<!-- filter&#45;r2&#45;&gt;collector -->
<g id="edge1" class="edge">
<title>filter&#45;r2&#45;&gt;collector</title>
<path fill="none" stroke="lightblue" d="M182.86,-127.24C176.53,-111.78 167.9,-92.39 158.51,-75.98 156.6,-72.64 154.5,-69.24 152.31,-65.89"/>
<polygon fill="lightblue" stroke="lightblue" points="155.38,-64.17 146.86,-57.87 149.59,-68.1 155.38,-64.17"/>
<text text-anchor="middle" x="207.26" y="-95.68" font-family="Times,serif" font-size="14.00">9</text>
<text text-anchor="middle" x="207.26" y="-79.18" font-family="Times,serif" font-size="14.00"> &#160;(209.75µs)</text>
</g>
</g>
</svg>
