<?xml version="1.0" encoding="UTF-8" standalone="no"?>
<!DOCTYPE svg PUBLIC "-//W3C//DTD SVG 1.1//EN"
 "http://www.w3.org/Graphics/SVG/1.1/DTD/svg11.dtd">
<!-- Generated by graphviz version 9.0.0 (20230911.1827)
 -->
<!-- Pages: 1 -->
<svg width="190pt" height="344pt"
 viewBox="0.00 0.00 190.02 344.45" xmlns="http://www.w3.org/2000/svg" xmlns:xlink="http://www.w3.org/1999/xlink">
<g id="graph0" class="graph" transform="scale(1 1) rotate(0) translate(4 340.45)">
<polygon fill="white" stroke="none" points="-4,4 -4,-340.45 186.02,-340.45 186.02,4 -4,4"/>
<text text-anchor="middle" x="91.01" y="-319.15" font-family="Times,serif" font-size="14.00">Network Uptime:0s</text>
<!-- generator -->
<g id="node1" class="node">
<title>generator</title>
<ellipse fill="lightyellow" stroke="black" cx="91.01" cy="-282.96" rx="47.38" ry="28.99"/>
<text text-anchor="middle" x="91.01" y="-286.16" font-family="Times,serif" font-size="14.00">generator</text>
<text text-anchor="middle" x="91.01" y="-269.66" font-family="Times,serif" font-size="14.00">(0s)</text>
</g>
<!-- filter&#45;r1 -->
<g id="node2" class="node">
<title>filter&#45;r1</title>
<ellipse fill="none" stroke="black" cx="41.01" cy="-155.97" rx="41.01" ry="28.99"/>
<text text-anchor="middle" x="41.01" y="-159.17" font-family="Times,serif" font-size="14.00">filter&#45;r1</text>
<text text-anchor="middle" x="41.01" y="-142.67" font-family="Times,serif" font-size="14.00">(0s)</text>
</g>
<!-- generator&#45;&gt;filter&#45;r1 -->
<g id="edge3" class="edge">
<title>generator&#45;&gt;filter&#45;r1</title>
<path fill="none" stroke="lightblue" d="M80.04,-254.53C73.04,-237.03 63.87,-214.1 56.17,-194.87"/>
<polygon fill="lightblue" stroke="lightblue" points="59.49,-193.73 52.52,-185.74 52.99,-196.33 59.49,-193.73"/>
<text text-anchor="middle" x="86.26" y="-222.67" font-family="Times,serif" font-size="14.00">0</text>
<text text-anchor="middle" x="86.26" y="-206.17" font-family="Times,serif" font-size="14.00"> &#160;(0s)</text>
</g>
<!-- filter&#45;r2 -->
<g id="node3" class="node">
<title>filter&#45;r2</title>
<ellipse fill="none" stroke="black" cx="141.01" cy="-155.97" rx="41.01" ry="28.99"/>
<text text-anchor="middle" x="141.01" y="-159.17" font-family="Times,serif" font-size="14.00">filter&#45;r2</text>
<text text-anchor="middle" x="141.01" y="-142.67" font-family="Times,serif" font-size="14.00">(0s)</text>
</g>
<!-- generator&#45;&gt;filter&#45;r2 -->
<g id="edge4" class="edge">
<title>generator&#45;&gt;filter&#45;r2</title>
<path fill="none" stroke="lightblue" d="M101.98,-254.53C108.99,-237.03 118.16,-214.1 125.85,-194.87"/>
<polygon fill="lightblue" stroke="lightblue" points="129.04,-196.33 129.5,-185.74 122.54,-193.73 129.04,-196.33"/>
<text text-anchor="middle" x="136.26" y="-222.67" font-family="Times,serif" font-size="14.00">0</text>
<text text-anchor="middle" x="136.26" y="-206.17" font-family="Times,serif" font-size="14.00"> &#160;(0s)</text>
</g>
<!-- collector -->
<g id="node4" class="node">
<title>collector</title>
<ellipse fill="none" stroke="black" cx="91.01" cy="-28.99" rx="44.72" ry="28.99"/>
<text text-anchor="middle" x="91.01" y="-32.19" font-family="Times,serif" font-size="14.00">collector</text>
<text text-anchor="middle" x="91.01" y="-15.69" font-family="Times,serif" font-size="14.00">(0s)</text>
</g>
<!-- filter&#45;r1&#45;&gt;collector -->
<g id="edge1" class="edge">
<title>filter&#45;r1&#45;&gt;collector</title>
<path fill="none" stroke="lightblue" d="M51.98,-127.55C58.99,-110.05 68.16,-87.12 75.85,-67.89"/>
<polygon fill="lightblue" stroke="lightblue" points="79.04,-69.35 79.5,-58.76 72.54,-66.75 79.04,-69.35"/>
<text text-anchor="middle" x="86.26" y="-95.68" font-family="Times,serif" font-size="14.00">0</text>
<text text-anchor="middle" x="86.26" y="-79.18" font-family="Times,serif" font-size="14.00"> &#160;(0s)</text>
</g>
<!-- filter&#45;r2&#45;&gt;collector -->
<g id="edge2" class="edge">
<title>filter&#45;r2&#45;&gt;collector</title>
<path fill="none" stroke="lightblue" d="M130.04,-127.55C123.04,-110.05 113.87,-87.12 106.17,-67.89"/>
<polygon fill="lightblue" stroke="lightblue" points="109.49,-66.75 102.52,-58.76 102.99,-69.35 109.49,-66.75"/>
<text text-anchor="middle" x="136.26" y="-95.68" font-family="Times,serif" font-size="14.00">0</text>
<text text-anchor="middle" x="136.26" y="-79.18" font-family="Times,serif" font-size="14.00"> &#160;(0s)</text>
</g>
</g>
</svg>
