<?xml version="1.0" encoding="UTF-8" standalone="no"?>
<!DOCTYPE svg PUBLIC "-//W3C//DTD SVG 1.1//EN"
 "http://www.w3.org/Graphics/SVG/1.1/DTD/svg11.dtd">
<!-- Generated by graphviz version 9.0.0 (20230911.1827)
 -->
<!-- Pages: 1 -->
<svg width="530pt" height="344pt"
 viewBox="0.00 0.00 530.03 344.45" xmlns="http://www.w3.org/2000/svg" xmlns:xlink="http://www.w3.org/1999/xlink">
<g id="graph0" class="graph" transform="scale(1 1) rotate(0) translate(4 340.45)">
<polygon fill="white" stroke="none" points="-4,4 -4,-340.45 526.03,-340.45 526.03,4 -4,4"/>
<text text-anchor="middle" x="261.01" y="-319.15" font-family="Times,serif" font-size="14.00">Network Uptime: 324.5µs</text>
<!-- generator -->
<g id="node1" class="node">
<title>generator</title>
<ellipse fill="lightyellow" stroke="black" cx="249.51" cy="-282.96" rx="58.51" ry="28.99"/>
<text text-anchor="middle" x="249.51" y="-286.16" font-family="Times,serif" font-size="14.00">generator</text>
<text text-anchor="middle" x="249.51" y="-269.66" font-family="Times,serif" font-size="14.00">(189.959µs)</text>
</g>
<!-- filter&#45;r1 -->
<g id="node2" class="node">
<title>filter&#45;r1</title>
<ellipse fill="none" stroke="black" cx="58.51" cy="-155.97" rx="58.51" ry="28.99"/>
<text text-anchor="middle" x="58.51" y="-159.17" font-family="Times,serif" font-size="14.00">filter&#45;r1</text>
<text text-anchor="middle" x="58.51" y="-142.67" font-family="Times,serif" font-size="14.00">(191.833µs)</text>
</g>
<!-- generator&#45;&gt;filter&#45;r1 -->
<g id="edge4" class="edge">
<title>generator&#45;&gt;filter&#45;r1</title>
<path fill="none" stroke="lightblue" d="M200.24,-266.91C179.52,-259.35 155.75,-249 136.26,-235.97 118.08,-223.8 100.71,-206.86 87.02,-191.79"/>
<polygon fill="lightblue" stroke="lightblue" points="89.66,-189.49 80.41,-184.31 84.41,-194.12 89.66,-189.49"/>
<text text-anchor="middle" x="173.64" y="-222.67" font-family="Times,serif" font-size="14.00">12</text>
<text text-anchor="middle" x="173.64" y="-206.17" font-family="Times,serif" font-size="14.00"> &#160;(188.917µs)</text>
</g>
<!-- filter&#45;r2 -->
<g id="node3" class="node">
<title>filter&#45;r2</title>
<ellipse fill="none" stroke="black" cx="193.51" cy="-155.97" rx="58.51" ry="28.99"/>
<text text-anchor="middle" x="193.51" y="-159.17" font-family="Times,serif" font-size="14.00">filter&#45;r2</text>
<text text-anchor="middle" x="193.51" y="-142.67" font-family="Times,serif" font-size="14.00">(282.875µs)</text>
</g>
<!-- generator&#45;&gt;filter&#45;r2 -->
<g id="edge5" class="edge">
<title>generator&#45;&gt;filter&#45;r2</title>
<path fill="none" stroke="lightblue" d="M236.44,-254.28C233.63,-248.26 230.7,-241.91 228.01,-235.97 222.04,-222.76 215.65,-208.23 210.01,-195.28"/>
<polygon fill="lightblue" stroke="lightblue" points="213.27,-194 206.08,-186.22 206.85,-196.79 213.27,-194"/>
<text text-anchor="middle" x="262.26" y="-222.67" font-family="Times,serif" font-size="14.00">13</text>
<text text-anchor="middle" x="262.26" y="-206.17" font-family="Times,serif" font-size="14.00"> &#160;(278.75µs)</text>
</g>
<!-- filter&#45;r3 -->
<g id="node4" class="node">
<title>filter&#45;r3</title>
<ellipse fill="none" stroke="black" cx="328.51" cy="-155.97" rx="58.51" ry="28.99"/>
<text text-anchor="middle" x="328.51" y="-159.17" font-family="Times,serif" font-size="14.00">filter&#45;r3</text>
<text text-anchor="middle" x="328.51" y="-142.67" font-family="Times,serif" font-size="14.00">(276.791µs)</text>
</g>
<!-- generator&#45;&gt;filter&#45;r3 -->
<g id="edge6" class="edge">
<title>generator&#45;&gt;filter&#45;r3</title>
<path fill="none" stroke="lightblue" d="M277.71,-257.27C284.1,-250.77 290.48,-243.47 295.51,-235.97 303.81,-223.59 310.66,-208.8 315.94,-195.39"/>
<polygon fill="lightblue" stroke="lightblue" points="319.07,-197 319.3,-186.41 312.52,-194.55 319.07,-197"/>
<text text-anchor="middle" x="346.26" y="-222.67" font-family="Times,serif" font-size="14.00">12</text>
<text text-anchor="middle" x="346.26" y="-206.17" font-family="Times,serif" font-size="14.00"> &#160;(270.25µs)</text>
</g>
<!-- filter&#45;r4 -->
<g id="node5" class="node">
<title>filter&#45;r4</title>
<ellipse fill="none" stroke="black" cx="463.51" cy="-155.97" rx="58.51" ry="28.99"/>
<text text-anchor="middle" x="463.51" y="-159.17" font-family="Times,serif" font-size="14.00">filter&#45;r4</text>
<text text-anchor="middle" x="463.51" y="-142.67" font-family="Times,serif" font-size="14.00">(174.625µs)</text>
</g>
<!-- generator&#45;&gt;filter&#45;r4 -->
<g id="edge7" class="edge">
<title>generator&#45;&gt;filter&#45;r4</title>
<path fill="none" stroke="lightblue" d="M302.19,-269.79C327.93,-262.41 358.63,-251.38 383.51,-235.97 402.69,-224.08 420.86,-206.82 435.02,-191.47"/>
<polygon fill="lightblue" stroke="lightblue" points="437.37,-194.09 441.45,-184.31 432.16,-189.41 437.37,-194.09"/>
<text text-anchor="middle" x="454.89" y="-222.67" font-family="Times,serif" font-size="14.00">13</text>
<text text-anchor="middle" x="454.89" y="-206.17" font-family="Times,serif" font-size="14.00"> &#160;(168.5µs)</text>
</g>
<!-- collector -->
<g id="node6" class="node">
<title>collector</title>
<ellipse fill="none" stroke="black" cx="260.51" cy="-28.99" rx="53.74" ry="28.99"/>
<text text-anchor="middle" x="260.51" y="-32.19" font-family="Times,serif" font-size="14.00">collector</text>
<text text-anchor="middle" x="260.51" y="-15.69" font-family="Times,serif" font-size="14.00">(292.75µs)</text>
</g>
<!-- filter&#45;r1&#45;&gt;collector -->
<g id="edge8" class="edge">
<title>filter&#45;r1&#45;&gt;collector</title>
<path fill="none" stroke="lightblue" d="M77.2,-128.37C90.34,-111.35 109.28,-89.93 130.26,-75.98 151.39,-61.95 177.28,-51.66 200.41,-44.42"/>
<polygon fill="lightblue" stroke="lightblue" points="201.13,-47.86 209.71,-41.64 199.12,-41.15 201.13,-47.86"/>
<text text-anchor="middle" x="167.64" y="-95.68" font-family="Times,serif" font-size="14.00">8</text>
<text text-anchor="middle" x="167.64" y="-79.18" font-family="Times,serif" font-size="14.00"> &#160;(288.083µs)</text>
</g>
<!-- filter&#45;r2&#45;&gt;collector -->
<g id="edge1" class="edge">
<title>filter&#45;r2&#45;&gt;collector</title>
<path fill="none" stroke="lightblue" d="M201.14,-126.89C206,-111.31 213.1,-91.93 222.26,-75.98 224.59,-71.93 227.28,-67.88 230.14,-63.96"/>
<polygon fill="lightblue" stroke="lightblue" points="232.72,-66.35 236.08,-56.3 227.18,-62.06 232.72,-66.35"/>
<text text-anchor="middle" x="259.64" y="-95.68" font-family="Times,serif" font-size="14.00">6</text>
<text text-anchor="middle" x="259.64" y="-79.18" font-family="Times,serif" font-size="14.00"> &#160;(289.292µs)</text>
</g>
<!-- filter&#45;r3&#45;&gt;collector -->
<g id="edge2" class="edge">
<title>filter&#45;r3&#45;&gt;collector</title>
<path fill="none" stroke="lightblue" d="M319.36,-127.04C313.75,-111.51 305.85,-92.12 296.51,-75.98 294.41,-72.35 292.04,-68.68 289.55,-65.09"/>
<polygon fill="lightblue" stroke="lightblue" points="292.41,-63.07 283.67,-57.07 286.76,-67.2 292.41,-63.07"/>
<text text-anchor="middle" x="349.64" y="-95.68" font-family="Times,serif" font-size="14.00">8</text>
<text text-anchor="middle" x="349.64" y="-79.18" font-family="Times,serif" font-size="14.00"> &#160;(291.708µs)</text>
</g>
<!-- filter&#45;r4&#45;&gt;collector -->
<g id="edge3" class="edge">
<title>filter&#45;r4&#45;&gt;collector</title>
<path fill="none" stroke="lightblue" d="M444.41,-128.38C431,-111.37 411.72,-89.95 390.51,-75.98 369.37,-62.06 343.51,-51.79 320.44,-44.53"/>
<polygon fill="lightblue" stroke="lightblue" points="321.75,-41.27 311.17,-41.74 319.74,-47.98 321.75,-41.27"/>
<text text-anchor="middle" x="465.64" y="-95.68" font-family="Times,serif" font-size="14.00">4</text>
<text text-anchor="middle" x="465.64" y="-79.18" font-family="Times,serif" font-size="14.00"> &#160;(291.292µs)</text>
</g>
</g>
</svg>
