<?xml version="1.0" encoding="UTF-8" standalone="no"?>
<!DOCTYPE svg PUBLIC "-//W3C//DTD SVG 1.1//EN"
 "http://www.w3.org/Graphics/SVG/1.1/DTD/svg11.dtd">
<!-- Generated by graphviz version 9.0.0 (20230911.1827)
 -->
<!-- Pages: 1 -->
<svg width="263pt" height="260pt"
 viewBox="0.00 0.00 263.02 260.00" xmlns="http://www.w3.org/2000/svg" xmlns:xlink="http://www.w3.org/1999/xlink">
<g id="graph0" class="graph" transform="scale(1 1) rotate(0) translate(4 256)">
<polygon fill="white" stroke="none" points="-4,4 -4,-256 259.02,-256 259.02,4 -4,4"/>
<!-- node&#45;7 -->
<g id="node1" class="node">
<title>node&#45;7</title>
<ellipse fill="none" stroke="black" cx="36.51" cy="-18" rx="36.51" ry="18"/>
<text text-anchor="middle" x="36.51" y="-12.95" font-family="Times,serif" font-size="14.00">node&#45;7</text>
</g>
<!-- node&#45;8 -->
<g id="node2" class="node">
<title>node&#45;8</title>
<ellipse fill="none" stroke="black" cx="127.51" cy="-18" rx="36.51" ry="18"/>
<text text-anchor="middle" x="127.51" y="-12.95" font-family="Times,serif" font-size="14.00">node&#45;8</text>
</g>
<!-- node&#45;1 -->
<g id="node3" class="node">
<title>node&#45;1</title>
<ellipse fill="none" stroke="black" cx="36.51" cy="-162" rx="36.51" ry="18"/>
<text text-anchor="middle" x="36.51" y="-156.95" font-family="Times,serif" font-size="14.00">node&#45;1</text>
</g>
<!-- node&#45;5 -->
<g id="node7" class="node">
<title>node&#45;5</title>
<ellipse fill="lightgreen" stroke="black" cx="127.51" cy="-90" rx="36.51" ry="18"/>
<text text-anchor="middle" x="127.51" y="-84.95" font-family="Times,serif" font-size="14.00">node&#45;5</text>
</g>
<!-- node&#45;1&#45;&gt;node&#45;5 -->
<g id="edge1" class="edge">
<title>node&#45;1&#45;&gt;node&#45;5</title>
<path fill="none" stroke="black" d="M55.36,-146.5C68.09,-136.71 85.11,-123.61 99.42,-112.6"/>
<polygon fill="black" stroke="black" points="101.37,-115.52 107.17,-106.65 97.1,-109.97 101.37,-115.52"/>
</g>
<!-- node&#45;2 -->
<g id="node4" class="node">
<title>node&#45;2</title>
<ellipse fill="none" stroke="black" cx="127.51" cy="-162" rx="36.51" ry="18"/>
<text text-anchor="middle" x="127.51" y="-156.95" font-family="Times,serif" font-size="14.00">node&#45;2</text>
</g>
<!-- node&#45;2&#45;&gt;node&#45;5 -->
<g id="edge2" class="edge">
<title>node&#45;2&#45;&gt;node&#45;5</title>
<path fill="none" stroke="black" d="M127.51,-143.7C127.51,-136.41 127.51,-127.73 127.51,-119.54"/>
<polygon fill="black" stroke="black" points="131.01,-119.62 127.51,-109.62 124.01,-119.62 131.01,-119.62"/>
</g>
<!-- node&#45;3 -->
<g id="node5" class="node">
<title>node&#45;3</title>
<ellipse fill="none" stroke="black" cx="218.51" cy="-234" rx="36.51" ry="18"/>
<text text-anchor="middle" x="218.51" y="-228.95" font-family="Times,serif" font-size="14.00">node&#45;3</text>
</g>
<!-- node&#45;4 -->
<g id="node6" class="node">
<title>node&#45;4</title>
<ellipse fill="lightgreen" stroke="black" cx="218.51" cy="-162" rx="36.51" ry="18"/>
<text text-anchor="middle" x="218.51" y="-156.95" font-family="Times,serif" font-size="14.00">node&#45;4</text>
</g>
<!-- node&#45;3&#45;&gt;node&#45;4 -->
<g id="edge3" class="edge">
<title>node&#45;3&#45;&gt;node&#45;4</title>
<path fill="none" stroke="black" d="M218.51,-215.7C218.51,-208.41 218.51,-199.73 218.51,-191.54"/>
<polygon fill="black" stroke="black" points="222.01,-191.62 218.51,-181.62 215.01,-191.62 222.01,-191.62"/>
</g>
<!-- node&#45;4&#45;&gt;node&#45;5 -->
<g id="edge4" class="edge">
<title>node&#45;4&#45;&gt;node&#45;5</title>
<path fill="none" stroke="black" d="M199.65,-146.5C186.93,-136.71 169.91,-123.61 155.6,-112.6"/>
<polygon fill="black" stroke="black" points="157.91,-109.97 147.85,-106.65 153.65,-115.52 157.91,-109.97"/>
</g>
<!-- node&#45;5&#45;&gt;node&#45;7 -->
<g id="edge5" class="edge">
<title>node&#45;5&#45;&gt;node&#45;7</title>
<path fill="none" stroke="black" d="M108.65,-74.5C95.93,-64.71 78.91,-51.61 64.6,-40.6"/>
<polygon fill="black" stroke="black" points="66.91,-37.97 56.85,-34.65 62.65,-43.52 66.91,-37.97"/>
</g>
<!-- node&#45;5&#45;&gt;node&#45;8 -->
<g id="edge6" class="edge">
<title>node&#45;5&#45;&gt;node&#45;8</title>
<path fill="none" stroke="black" d="M127.51,-71.7C127.51,-64.41 127.51,-55.73 127.51,-47.54"/>
<polygon fill="black" stroke="black" points="131.01,-47.62 127.51,-37.62 124.01,-47.62 131.01,-47.62"/>
</g>
<!-- node&#45;6 -->
<g id="node8" class="node">
<title>node&#45;6</title>
<ellipse fill="none" stroke="black" cx="218.51" cy="-18" rx="36.51" ry="18"/>
<text text-anchor="middle" x="218.51" y="-12.95" font-family="Times,serif" font-size="14.00">node&#45;6</text>
</g>
<!-- node&#45;5&#45;&gt;node&#45;6 -->
<g id="edge7" class="edge">
<title>node&#45;5&#45;&gt;node&#45;6</title>
<path fill="none" stroke="black" d="M146.36,-74.5C159.09,-64.71 176.11,-51.61 190.42,-40.6"/>
<polygon fill="black" stroke="black" points="192.37,-43.52 198.17,-34.65 188.1,-37.97 192.37,-43.52"/>
</g>
</g>
</svg>
