<?xml version="1.0" encoding="UTF-8" standalone="no"?>
<!DOCTYPE svg PUBLIC "-//W3C//DTD SVG 1.1//EN"
 "http://www.w3.org/Graphics/SVG/1.1/DTD/svg11.dtd">
<!-- Generated by graphviz version 9.0.0 (20230911.1827)
 -->
<!-- Pages: 1 -->
<svg width="113pt" height="260pt"
 viewBox="0.00 0.00 113.02 260.00" xmlns="http://www.w3.org/2000/svg" xmlns:xlink="http://www.w3.org/1999/xlink">
<g id="graph0" class="graph" transform="scale(1 1) rotate(0) translate(4 256)">
<polygon fill="white" stroke="none" points="-4,4 -4,-256 109.02,-256 109.02,4 -4,4"/>
<!-- node&#45;0 -->
<g id="node1" class="node">
<title>node&#45;0</title>
<ellipse fill="none" stroke="black" cx="68.51" cy="-234" rx="36.51" ry="18"/>
<text text-anchor="middle" x="68.51" y="-228.95" font-family="Times,serif" font-size="14.00">node&#45;0</text>
</g>
<!-- node&#45;1 -->
<g id="node2" class="node">
<title>node&#45;1</title>
<ellipse fill="none" stroke="black" cx="68.51" cy="-162" rx="36.51" ry="18"/>
<text text-anchor="middle" x="68.51" y="-156.95" font-family="Times,serif" font-size="14.00">node&#45;1</text>
</g>
<!-- node&#45;0&#45;&gt;node&#45;1 -->
<g id="edge1" class="edge">
<title>node&#45;0&#45;&gt;node&#45;1</title>
<path fill="none" stroke="black" d="M68.51,-215.7C68.51,-208.41 68.51,-199.73 68.51,-191.54"/>
<polygon fill="black" stroke="black" points="72.01,-191.62 68.51,-181.62 65.01,-191.62 72.01,-191.62"/>
</g>
<!-- node&#45;2 -->
<g id="node3" class="node">
<title>node&#45;2</title>
<ellipse fill="none" stroke="black" cx="36.51" cy="-90" rx="36.51" ry="18"/>
<text text-anchor="middle" x="36.51" y="-84.95" font-family="Times,serif" font-size="14.00">node&#45;2</text>
</g>
<!-- node&#45;1&#45;&gt;node&#45;2 -->
<g id="edge2" class="edge">
<title>node&#45;1&#45;&gt;node&#45;2</title>
<path fill="none" stroke="black" d="M60.76,-144.05C57.19,-136.23 52.85,-126.75 48.84,-117.98"/>
<polygon fill="black" stroke="black" points="52.15,-116.81 44.81,-109.17 45.79,-119.72 52.15,-116.81"/>
</g>
<!-- node&#45;3 -->
<g id="node4" class="node">
<title>node&#45;3</title>
<ellipse fill="none" stroke="black" cx="68.51" cy="-18" rx="36.51" ry="18"/>
<text text-anchor="middle" x="68.51" y="-12.95" font-family="Times,serif" font-size="14.00">node&#45;3</text>
</g>
<!-- node&#45;2&#45;&gt;node&#45;3 -->
<g id="edge3" class="edge">
<title>node&#45;2&#45;&gt;node&#45;3</title>
<path fill="none" stroke="black" d="M44.26,-72.05C47.83,-64.23 52.17,-54.75 56.18,-45.98"/>
<polygon fill="black" stroke="black" points="59.23,-47.72 60.2,-37.17 52.86,-44.81 59.23,-47.72"/>
</g>
<!-- node&#45;3&#45;&gt;node&#45;1 -->
<g id="edge4" class="edge">
<title>node&#45;3&#45;&gt;node&#45;1</title>
<path fill="none" stroke="black" d="M74.19,-35.96C77.33,-46.26 80.92,-59.73 82.51,-72 84.57,-87.87 84.57,-92.13 82.51,-108 81.44,-116.24 79.47,-125.03 77.34,-133.03"/>
<polygon fill="black" stroke="black" points="73.99,-132.01 74.6,-142.58 80.72,-133.93 73.99,-132.01"/>
</g>
</g>
</svg>
