<?xml version="1.0" encoding="UTF-8" standalone="no"?>
<!DOCTYPE svg PUBLIC "-//W3C//DTD SVG 1.1//EN"
 "http://www.w3.org/Graphics/SVG/1.1/DTD/svg11.dtd">
<!-- Generated by graphviz version 9.0.0 (20230911.1827)
 -->
<!-- Pages: 1 -->
<svg width="208pt" height="260pt"
 viewBox="0.00 0.00 208.44 260.00" xmlns="http://www.w3.org/2000/svg" xmlns:xlink="http://www.w3.org/1999/xlink">
<g id="graph0" class="graph" transform="scale(1 1) rotate(0) translate(4 256)">
<polygon fill="white" stroke="none" points="-4,4 -4,-256 204.44,-256 204.44,4 -4,4"/>
<!-- node&#45;102 -->
<g id="node1" class="node">
<title>node&#45;102</title>
<ellipse fill="lightgreen" stroke="black" cx="154.72" cy="-90" rx="45.72" ry="18"/>
<text text-anchor="middle" x="154.72" y="-84.95" font-family="Times,serif" font-size="14.00">node&#45;102</text>
</g>
<!-- node&#45;201 -->
<g id="node3" class="node">
<title>node&#45;201</title>
<ellipse fill="none" stroke="black" cx="99.72" cy="-18" rx="45.72" ry="18"/>
<text text-anchor="middle" x="99.72" y="-12.95" font-family="Times,serif" font-size="14.00">node&#45;201</text>
</g>
<!-- node&#45;102&#45;&gt;node&#45;201 -->
<g id="edge4" class="edge">
<title>node&#45;102&#45;&gt;node&#45;201</title>
<path fill="none" stroke="black" d="M141.69,-72.41C135.11,-64.04 126.99,-53.71 119.65,-44.37"/>
<polygon fill="black" stroke="black" points="122.53,-42.36 113.6,-36.66 117.02,-46.69 122.53,-42.36"/>
</g>
<!-- node&#45;200 -->
<g id="node2" class="node">
<title>node&#45;200</title>
<ellipse fill="none" stroke="black" cx="45.72" cy="-90" rx="45.72" ry="18"/>
<text text-anchor="middle" x="45.72" y="-84.95" font-family="Times,serif" font-size="14.00">node&#45;200</text>
</g>
<!-- node&#45;200&#45;&gt;node&#45;201 -->
<g id="edge3" class="edge">
<title>node&#45;200&#45;&gt;node&#45;201</title>
<path fill="none" stroke="black" d="M58.52,-72.41C64.97,-64.04 72.95,-53.71 80.15,-44.37"/>
<polygon fill="black" stroke="black" points="82.75,-46.72 86.09,-36.67 77.21,-42.45 82.75,-46.72"/>
</g>
<!-- node&#45;100 -->
<g id="node4" class="node">
<title>node&#45;100</title>
<ellipse fill="none" stroke="black" cx="154.72" cy="-234" rx="45.72" ry="18"/>
<text text-anchor="middle" x="154.72" y="-228.95" font-family="Times,serif" font-size="14.00">node&#45;100</text>
</g>
<!-- node&#45;101 -->
<g id="node5" class="node">
<title>node&#45;101</title>
<ellipse fill="lightgreen" stroke="black" cx="154.72" cy="-162" rx="45.72" ry="18"/>
<text text-anchor="middle" x="154.72" y="-156.95" font-family="Times,serif" font-size="14.00">node&#45;101</text>
</g>
<!-- node&#45;100&#45;&gt;node&#45;101 -->
<g id="edge1" class="edge">
<title>node&#45;100&#45;&gt;node&#45;101</title>
<path fill="none" stroke="black" d="M154.72,-215.7C154.72,-208.41 154.72,-199.73 154.72,-191.54"/>
<polygon fill="black" stroke="black" points="158.22,-191.62 154.72,-181.62 151.22,-191.62 158.22,-191.62"/>
</g>
<!-- node&#45;101&#45;&gt;node&#45;102 -->
<g id="edge2" class="edge">
<title>node&#45;101&#45;&gt;node&#45;102</title>
<path fill="none" stroke="black" d="M154.72,-143.7C154.72,-136.41 154.72,-127.73 154.72,-119.54"/>
<polygon fill="black" stroke="black" points="158.22,-119.62 154.72,-109.62 151.22,-119.62 158.22,-119.62"/>
</g>
</g>
</svg>
